<svg width="205" height="253" viewBox="0 0 205 253" fill="none" xmlns="http://www.w3.org/2000/svg">
<path d="M105.946 252.987C103.155 252.963 101.76 252.963 98.9699 252.987C75.7369 253.323 50.8392 247.367 33.0012 231.635C14.9836 215.742 7.68432 191.973 8.4328 168.355C9.18728 147.399 9.94775 126.443 10.7022 105.488C12.1513 57.2612 48.3122 7.96695 99.3232 8.35679C101.832 8.35679 103.084 8.35679 105.593 8.35679C156.598 7.96695 192.764 57.2612 194.214 105.488C194.968 126.443 195.729 147.399 196.483 168.355C197.501 191.871 189.789 215.874 171.915 231.635C153.963 247.469 129.269 253.113 105.946 252.987Z" fill="url(#paint0_linear_2816_1000)"/>
<path d="M105.551 1.61534L104.288 14.0424C104.276 14.1503 104.18 14.2283 104.072 14.2163C103.976 14.2043 103.904 14.1323 103.898 14.0424L102.635 1.61534C102.551 0.811663 103.138 0.0919516 103.946 0.00798525C104.749 -0.0759811 105.467 0.511785 105.551 1.32146C105.557 1.41742 105.557 1.52538 105.551 1.61534Z" fill="#F3C344"/>
<path d="M120.186 8.65021L110.551 16.573C110.45 16.657 110.3 16.645 110.216 16.5371C110.144 16.4471 110.144 16.3211 110.216 16.2312L118.126 6.58104C118.641 5.95729 119.563 5.86732 120.186 6.37712C120.809 6.89291 120.898 7.81654 120.389 8.44029C120.33 8.52426 120.258 8.59623 120.186 8.65021Z" fill="#F3C344"/>
<path d="M90.0604 6.58731L98.1201 16.0815C98.2818 16.2734 98.2578 16.5613 98.0662 16.7233C97.8926 16.8732 97.6411 16.8672 97.4734 16.7233L88.0005 8.65049C87.3838 8.1287 87.3119 7.20506 87.8329 6.58731C88.3538 5.96956 89.276 5.89759 89.8927 6.41938C89.9526 6.47336 90.0125 6.53333 90.0604 6.58731Z" fill="#F3C344"/>
<path d="M1.61273 118.461L14.0197 119.726C14.1275 119.738 14.2053 119.834 14.1933 119.942C14.1813 120.038 14.1095 120.11 14.0197 120.116L1.61273 121.381C0.810352 121.465 0.0918031 120.878 0.00797236 120.068C-0.0758583 119.264 0.510956 118.545 1.31932 118.461C1.41513 118.455 1.52291 118.455 1.61273 118.461Z" fill="#F3C344"/>
<path d="M8.63709 103.803L16.5471 113.453C16.6309 113.555 16.619 113.705 16.5112 113.789C16.4214 113.861 16.2956 113.861 16.2058 113.789L6.57725 105.872C5.9545 105.356 5.86469 104.432 6.37366 103.809C6.88862 103.185 7.81075 103.095 8.4335 103.605C8.51134 103.665 8.58319 103.737 8.63709 103.803Z" fill="#F3C344"/>
<path d="M6.57671 133.976L16.0556 125.903C16.2472 125.741 16.5346 125.765 16.6963 125.957C16.846 126.131 16.84 126.383 16.6963 126.551L8.63655 136.039C8.1156 136.657 7.19347 136.729 6.57671 136.207C5.95996 135.685 5.8881 134.762 6.40905 134.144C6.46294 134.084 6.52282 134.024 6.57671 133.976Z" fill="#F3C344"/>
<path d="M203.387 118.461L190.981 119.726C190.873 119.738 190.795 119.834 190.807 119.942C190.819 120.038 190.891 120.11 190.981 120.116L203.387 121.381C204.19 121.465 204.908 120.878 204.992 120.068C205.076 119.264 204.489 118.545 203.681 118.461C203.585 118.455 203.483 118.455 203.387 118.461Z" fill="#F3C344"/>
<path d="M196.363 103.803L188.453 113.453C188.37 113.555 188.382 113.705 188.489 113.789C188.579 113.861 188.705 113.861 188.795 113.789L198.429 105.866C199.052 105.35 199.142 104.426 198.633 103.803C198.118 103.179 197.196 103.089 196.573 103.599C196.495 103.665 196.423 103.737 196.363 103.803Z" fill="#F3C344"/>
<path d="M198.423 133.976L188.944 125.903C188.752 125.741 188.465 125.765 188.303 125.957C188.154 126.131 188.16 126.383 188.303 126.551L196.363 136.045C196.884 136.663 197.806 136.735 198.423 136.213C199.04 135.691 199.112 134.768 198.591 134.15C198.543 134.084 198.483 134.024 198.423 133.976Z" fill="#F3C344"/>
<path d="M95.5327 118.598C95.0596 120.799 100.305 125.681 105.952 124.434C110.179 123.498 113.526 119.378 112.712 117.417C111.287 113.98 96.2572 115.234 95.5327 118.598Z" fill="#C4CF4D"/>
<path d="M88.7314 111.33C86.0189 108.613 81.6297 108.613 78.9172 111.33C76.2047 114.047 76.2047 118.443 78.9172 121.16C81.6297 123.877 86.0189 123.877 88.7314 121.16C91.4379 118.449 91.4379 114.047 88.7314 111.33ZM87.8272 120.254C85.6177 122.467 82.0309 122.467 79.8214 120.254L87.8272 112.235C90.0367 114.448 90.0367 118.041 87.8272 120.254Z" fill="#C4CF4D"/>
<path d="M129.329 111.33C126.617 108.613 122.227 108.613 119.515 111.33C116.802 114.047 116.802 118.443 119.515 121.16C122.227 123.877 126.617 123.877 129.329 121.16C132.042 118.449 132.042 114.047 129.329 111.33ZM128.425 120.254C126.215 122.467 122.629 122.467 120.419 120.254L128.425 112.235C130.634 114.448 130.634 118.041 128.425 120.254Z" fill="#C4CF4D"/>
<defs>
<linearGradient id="paint0_linear_2816_1000" x1="102.476" y1="229.884" x2="102.476" y2="42.0977" gradientUnits="userSpaceOnUse">
<stop stop-color="#6A4727"/>
<stop offset="0.1931" stop-color="#734D2A"/>
<stop offset="0.5059" stop-color="#8B5E31"/>
<stop offset="0.8973" stop-color="#B27A3D"/>
<stop offset="1" stop-color="#BD8240"/>
</linearGradient>
</defs>
</svg>
