<svg width="152" height="187" viewBox="0 0 152 187" fill="none" xmlns="http://www.w3.org/2000/svg">
<path d="M137.065 75.4133C120.411 51.9424 103.756 30.1629 87.1019 5.79035C81.8265 -1.93012 70.1713 -1.93012 64.8959 5.79035C48.2413 30.1629 31.5868 51.9424 14.9323 75.4133C-11.4624 112.612 -2.06886 152.159 36.8152 176.959C48.5057 184.412 61.8587 187 76.0048 187C90.1508 187 103.504 184.412 115.194 176.959C154.072 152.159 163.46 112.612 137.065 75.4133Z" fill="url(#paint0_radial_2816_990)"/>
<path d="M66.4289 87.8451C65.9002 90.0647 71.7395 95 78.0312 93.7409C82.7368 92.7965 86.4672 88.6348 85.5625 86.6553C83.9763 83.1819 67.2396 84.4464 66.4289 87.8451Z" fill="white"/>
<path d="M58.8565 80.5031C55.8369 77.7607 50.9434 77.7607 47.9297 80.5031C44.9102 83.2456 44.9102 87.69 47.9297 90.4272C50.9493 93.1696 55.8428 93.1696 58.8565 90.4272C61.876 87.69 61.876 83.2456 58.8565 80.5031ZM57.8519 89.5148C55.3905 91.7504 51.4016 91.7504 48.9343 89.5148L57.8461 81.4155C60.3134 83.6564 60.3134 87.2792 57.8519 89.5148Z" fill="white"/>
<path d="M104.067 80.5031C101.048 77.7607 96.1543 77.7607 93.1406 80.5031C90.1211 83.2456 90.1211 87.69 93.1406 90.4272C96.1602 93.1696 101.054 93.1696 104.067 90.4272C107.087 87.69 107.087 83.2456 104.067 80.5031ZM103.063 89.5148C100.601 91.7504 96.6125 91.7504 94.1452 89.5148L103.057 81.4155C105.524 83.6564 105.524 87.2792 103.063 89.5148Z" fill="white"/>
<defs>
<radialGradient id="paint0_radial_2816_990" cx="0" cy="0" r="1" gradientUnits="userSpaceOnUse" gradientTransform="translate(75.9987 93.4996) scale(90.4832 109.414)">
<stop stop-color="#E18929"/>
<stop offset="0.4305" stop-color="#D17F31"/>
<stop offset="1" stop-color="#B56E40"/>
</radialGradient>
</defs>
</svg>
