<svg width="575" height="315" viewBox="0 0 575 315" fill="none" xmlns="http://www.w3.org/2000/svg">
<path d="M531.754 26.956L353.6 1.67105C341.18 -0.0955803 328.787 -0.299389 316.792 1.06805C216.201 12.4832 115.6 23.8899 15.0087 35.305C5.27767 36.4092 -0.969443 44.1382 0.453715 53.3026L24.3147 206.999C25.1926 212.682 29.8318 217.769 35.9403 219.74C130.784 250.443 225.627 281.139 320.479 311.842C336.596 317.057 353.434 315.766 366.446 308.317C434.147 269.57 501.849 230.815 569.551 192.068C573.478 189.817 575.465 185.621 574.735 181.094C567.508 136.232 560.282 91.3616 553.055 46.4993C551.465 36.7489 542.455 28.4763 531.754 26.956Z" fill="#E5CA9A"/>
<path d="M0.130247 51.2895L24.4995 208.29C25.2111 212.877 28.7782 216.962 33.3804 218.465C130.589 250.112 227.808 281.758 325.017 313.396C332.438 315.808 338.981 310.619 337.835 303.221L306.054 98.5043C305.241 93.2639 300.74 88.7879 295.399 87.8961L11.1736 40.6812C4.36276 39.5516 -0.904778 44.6136 0.130247 51.2895Z" fill="url(#paint0_radial_208_674)"/>
<path d="M314.158 97.7996L345.532 299.883C346.789 307.986 356.28 313.184 362.915 309.405C432.132 270.055 501.35 230.696 570.558 191.346C573.866 189.469 575.52 185.749 574.855 181.714C567.286 136.02 559.717 90.3253 552.14 44.6222C550.994 37.7171 543.693 32.6635 537.169 34.2603L320.867 87.3272C316.154 88.4823 313.382 92.8139 314.158 97.7996Z" fill="url(#paint1_radial_208_674)"/>
<path d="M317.18 0.99156L14.907 35.7127L305.324 81.2968C306.738 81.5176 308.142 81.4752 309.464 81.1609L536.947 27.6524L358.128 1.71353C344.285 -0.299408 330.525 -0.537255 317.18 0.99156Z" fill="url(#paint2_radial_208_674)"/>
<path d="M155.218 190.955C145.486 188.475 137.807 177.638 136.874 176.262C135.284 173.934 135.469 171.446 137.299 170.69C139.128 169.942 141.901 171.216 143.49 173.544C143.74 173.909 149.664 182.521 155.532 182.598C159.256 182.666 161.807 179.37 162.952 176.262C163.646 174.385 166.076 174.113 168.414 175.693C170.734 177.255 172.055 180.05 171.371 181.927C170.299 184.84 166.935 191.601 158.859 191.448C157.62 191.439 156.4 191.261 155.218 190.955Z" fill="#FF9A00"/>
<path d="M106.793 176.865C116.007 179.218 122.318 173.739 120.905 164.634L87.5527 156.124C88.9759 165.229 97.5888 174.512 106.793 176.865Z" fill="#FF9A00"/>
<path d="M204.354 201.751C213.567 204.103 219.879 198.625 218.465 189.52L185.113 181.01C186.536 190.115 195.149 199.398 204.354 201.751Z" fill="#FF9A00"/>
<defs>
<radialGradient id="paint0_radial_208_674" cx="0" cy="0" r="1" gradientUnits="userSpaceOnUse" gradientTransform="translate(168.946 177.221) scale(219.922 202.124)">
<stop stop-color="#F3EBD9"/>
<stop offset="0.4134" stop-color="#F4EAD7"/>
<stop offset="0.6395" stop-color="#F6E7CF"/>
<stop offset="0.8198" stop-color="#F9E2C1"/>
<stop offset="0.9759" stop-color="#FEDAAE"/>
<stop offset="1" stop-color="#FFD9AA"/>
</radialGradient>
<radialGradient id="paint1_radial_208_674" cx="0" cy="0" r="1" gradientUnits="userSpaceOnUse" gradientTransform="translate(449.507 172.277) scale(225.236 207.009)">
<stop stop-color="#F3EBD9"/>
<stop offset="0.4134" stop-color="#F4EAD7"/>
<stop offset="0.6395" stop-color="#F6E7CF"/>
<stop offset="0.8198" stop-color="#F9E2C1"/>
<stop offset="0.9759" stop-color="#FEDAAE"/>
<stop offset="1" stop-color="#FFD9AA"/>
</radialGradient>
<radialGradient id="paint2_radial_208_674" cx="0" cy="0" r="1" gradientUnits="userSpaceOnUse" gradientTransform="translate(277.284 40.685) scale(269.11 247.332)">
<stop stop-color="#F3EBDA"/>
<stop offset="0.416" stop-color="#F4EAD8"/>
<stop offset="0.6436" stop-color="#F6E7D0"/>
<stop offset="0.825" stop-color="#F9E2C2"/>
<stop offset="0.9821" stop-color="#FEDBAF"/>
<stop offset="1" stop-color="#FFDAAC"/>
</radialGradient>
</defs>
</svg>
