<svg width="780" height="520" viewBox="0 0 780 520" fill="none" xmlns="http://www.w3.org/2000/svg">
<path d="M648.907 128.956L474.514 103.672C462.35 101.905 449.983 101.701 437.763 103.069C335.299 114.484 232.826 125.89 130.363 137.305C120.456 138.41 113 146.13 113 155.303V308.999C113 314.682 116.848 319.769 122.657 321.74C212.828 352.443 302.989 383.138 393.159 413.842C408.477 419.057 425.535 417.766 439.715 410.317C513.503 371.57 587.292 332.815 661.08 294.068C665.363 291.817 667.999 287.622 667.972 283.095C667.713 238.232 667.454 193.362 667.185 148.5C667.13 138.749 659.387 130.477 648.907 128.956Z" fill="#E5CA9A"/>
<path d="M113 153.29V310.29C113 314.877 115.932 318.962 120.317 320.465C212.707 352.112 305.098 383.758 397.479 415.396C404.537 417.808 411.891 412.619 411.891 405.221V200.496C411.891 195.256 408.08 190.78 402.872 189.888L125.7 142.682C119.068 141.552 113 146.614 113 153.29Z" fill="url(#paint0_radial_222_377)"/>
<path d="M420.095 199.8V401.883C420.095 409.986 428.781 415.184 436.015 411.404C511.413 372.054 586.811 332.696 662.199 293.346C665.798 291.469 668.046 287.749 667.999 283.715C667.518 238.02 667.047 192.326 666.566 146.623C666.492 139.718 659.97 134.664 653.19 136.261L428.43 189.328C423.555 190.483 420.095 194.814 420.095 199.8Z" fill="url(#paint1_radial_222_377)"/>
<path d="M438.161 102.992L130.205 137.713L413.815 183.297C415.193 183.518 416.608 183.476 417.977 183.161L653.995 129.653L479.037 103.706C465.504 101.701 451.759 101.463 438.161 102.992Z" fill="url(#paint2_radial_222_377)"/>
<path d="M246.535 292.956C237.174 290.476 231.18 279.638 230.449 278.262C229.219 275.935 229.792 273.446 231.735 272.69C233.687 271.943 236.258 273.217 237.488 275.544C237.683 275.909 242.271 284.522 248.135 284.598C251.854 284.666 254.916 281.371 256.544 278.262C257.524 276.385 260.003 276.113 262.094 277.693C264.175 279.256 265.063 282.05 264.083 283.927C262.556 286.84 258.144 293.601 250.078 293.448C248.857 293.44 247.673 293.261 246.535 292.956Z" fill="#FF9A00"/>
<path d="M200.257 278.865C209.109 281.218 216.287 275.739 216.287 266.634L184.226 258.124C184.226 267.229 191.404 276.512 200.257 278.865Z" fill="#FF9A00"/>
<path d="M294.044 303.751C302.896 306.103 310.074 300.625 310.074 291.52L278.013 283.01C278.013 292.115 285.182 301.398 294.044 303.751Z" fill="#FF9A00"/>
<defs>
<radialGradient id="paint0_radial_222_377" cx="0" cy="0" r="1" gradientUnits="userSpaceOnUse" gradientTransform="translate(262.438 279.249) scale(220.132 202.124)">
<stop stop-color="#F3EBD9"/>
<stop offset="0.4134" stop-color="#F4EAD7"/>
<stop offset="0.6395" stop-color="#F6E7CF"/>
<stop offset="0.8198" stop-color="#F9E2C1"/>
<stop offset="0.9759" stop-color="#FEDAAE"/>
<stop offset="1" stop-color="#FFD9AA"/>
</radialGradient>
<radialGradient id="paint1_radial_222_377" cx="0" cy="0" r="1" gradientUnits="userSpaceOnUse" gradientTransform="translate(544.037 274.304) scale(225.452 207.008)">
<stop stop-color="#F3EBD9"/>
<stop offset="0.4134" stop-color="#F4EAD7"/>
<stop offset="0.6395" stop-color="#F6E7CF"/>
<stop offset="0.8198" stop-color="#F9E2C1"/>
<stop offset="0.9759" stop-color="#FEDAAE"/>
<stop offset="1" stop-color="#FFD9AA"/>
</radialGradient>
<radialGradient id="paint2_radial_222_377" cx="0" cy="0" r="1" gradientUnits="userSpaceOnUse" gradientTransform="translate(392.091 142.713) scale(269.368 247.331)">
<stop stop-color="#F3EBDA"/>
<stop offset="0.416" stop-color="#F4EAD8"/>
<stop offset="0.6436" stop-color="#F6E7D0"/>
<stop offset="0.825" stop-color="#F9E2C2"/>
<stop offset="0.9821" stop-color="#FEDBAF"/>
<stop offset="1" stop-color="#FFDAAC"/>
</radialGradient>
</defs>
</svg>
