<svg width="780" height="520" viewBox="0 0 780 520" fill="none" xmlns="http://www.w3.org/2000/svg">
<path d="M601.754 128.956L423.6 103.671C411.18 101.904 398.787 101.701 386.792 103.068C286.201 114.483 185.6 125.89 85.0087 137.305C75.2777 138.409 69.0306 146.138 70.4537 155.303L94.3147 308.999C95.1926 314.682 99.8318 319.769 105.94 321.74C200.784 352.443 295.627 383.139 390.479 413.842C406.596 419.057 423.434 417.766 436.446 410.317C504.147 371.57 571.849 332.815 639.551 294.068C643.478 291.817 645.465 287.621 644.735 283.094C637.508 238.232 630.282 193.362 623.055 148.499C621.465 138.749 612.455 130.476 601.754 128.956Z" fill="#E5CA9A"/>
<path d="M70.1302 153.289L94.4995 310.29C95.2111 314.877 98.7782 318.962 103.38 320.465C200.589 352.112 297.808 383.758 395.017 415.396C402.438 417.808 408.98 412.619 407.835 405.221L376.054 200.504C375.241 195.264 370.74 190.788 365.399 189.896L81.1736 142.681C74.3628 141.552 69.0952 146.614 70.1302 153.289Z" fill="url(#paint0_radial_222_366)"/>
<path d="M384.158 199.8L415.532 401.883C416.789 409.986 426.28 415.184 432.915 411.405C502.132 372.055 571.35 332.696 640.558 293.346C643.866 291.469 645.52 287.749 644.855 283.714C637.286 238.02 629.718 192.325 622.14 146.622C620.994 139.717 613.693 134.664 607.169 136.26L390.867 189.327C386.154 190.482 383.382 194.814 384.158 199.8Z" fill="url(#paint1_radial_222_366)"/>
<path d="M387.18 102.992L84.907 137.713L375.324 183.297C376.738 183.518 378.142 183.475 379.464 183.161L606.947 129.652L428.128 103.714C414.285 101.701 400.525 101.463 387.18 102.992Z" fill="url(#paint2_radial_222_366)"/>
<path d="M225.218 292.955C215.486 290.475 207.807 279.638 206.874 278.262C205.284 275.934 205.469 273.446 207.299 272.69C209.128 271.942 211.901 273.216 213.49 275.544C213.74 275.909 219.664 284.521 225.532 284.598C229.256 284.666 231.807 281.37 232.952 278.262C233.646 276.385 236.076 276.113 238.414 277.693C240.734 279.255 242.055 282.05 241.371 283.927C240.299 286.84 236.935 293.601 228.859 293.448C227.62 293.439 226.4 293.261 225.218 292.955Z" fill="#FF9A00"/>
<path d="M176.793 278.865C186.007 281.218 192.318 275.739 190.904 266.634L157.553 258.124C158.976 267.229 167.589 276.512 176.793 278.865Z" fill="#FF9A00"/>
<path d="M274.354 303.751C283.567 306.103 289.879 300.625 288.465 291.52L255.113 283.01C256.536 292.115 265.149 301.398 274.354 303.751Z" fill="#FF9A00"/>
<defs>
<radialGradient id="paint0_radial_222_366" cx="0" cy="0" r="1" gradientUnits="userSpaceOnUse" gradientTransform="translate(238.946 279.221) scale(219.922 202.124)">
<stop stop-color="#F3EBD9"/>
<stop offset="0.4134" stop-color="#F4EAD7"/>
<stop offset="0.6395" stop-color="#F6E7CF"/>
<stop offset="0.8198" stop-color="#F9E2C1"/>
<stop offset="0.9759" stop-color="#FEDAAE"/>
<stop offset="1" stop-color="#FFD9AA"/>
</radialGradient>
<radialGradient id="paint1_radial_222_366" cx="0" cy="0" r="1" gradientUnits="userSpaceOnUse" gradientTransform="translate(519.508 274.277) scale(225.236 207.009)">
<stop stop-color="#F3EBD9"/>
<stop offset="0.4134" stop-color="#F4EAD7"/>
<stop offset="0.6395" stop-color="#F6E7CF"/>
<stop offset="0.8198" stop-color="#F9E2C1"/>
<stop offset="0.9759" stop-color="#FEDAAE"/>
<stop offset="1" stop-color="#FFD9AA"/>
</radialGradient>
<radialGradient id="paint2_radial_222_366" cx="0" cy="0" r="1" gradientUnits="userSpaceOnUse" gradientTransform="translate(347.284 142.685) scale(269.11 247.332)">
<stop stop-color="#F3EBDA"/>
<stop offset="0.416" stop-color="#F4EAD8"/>
<stop offset="0.6436" stop-color="#F6E7D0"/>
<stop offset="0.825" stop-color="#F9E2C2"/>
<stop offset="0.9821" stop-color="#FEDBAF"/>
<stop offset="1" stop-color="#FFDAAC"/>
</radialGradient>
</defs>
</svg>
