<svg width="603" height="404" viewBox="0 0 603 404" fill="none" xmlns="http://www.w3.org/2000/svg">
<path d="M75.5703 301.933C112.759 296.744 149.938 291.556 187.126 286.367C182.18 235.796 177.234 185.225 172.288 134.654C134.812 141.664 97.3363 148.674 59.8604 155.684L75.5604 301.934L75.5703 301.933Z" fill="#FFAD5C"/>
<path d="M135.602 152.672C145.364 150.478 155.126 148.294 164.898 146.098C162.904 116.472 160.911 86.855 158.918 57.2286C157.452 35.521 140.719 20.7426 125.996 28.1464C123.419 29.4389 120.843 30.7412 118.266 32.0336C110.815 35.7905 107.204 46.9395 110.035 57.4776C118.561 89.2088 127.086 120.94 135.602 152.672Z" fill="#5F634C"/>
<path d="M152.903 150.815C159.683 164.882 167.801 186.539 168.682 213.489C169.934 251.754 156.087 285.314 152.184 284.657C148.794 284.085 154.307 257.957 149.898 216.511C147.083 190.01 141.419 168.633 136.96 154.458C136.802 154.575 136.596 154.718 136.353 154.885C135.977 155.136 135.468 155.453 134.917 155.753C114.969 166.484 102.587 184.559 104.63 203.589C104.644 203.628 104.668 203.666 104.682 203.704C108.032 211.018 108.913 219.221 107.192 227.08L107.165 227.204C107.524 230.544 109.877 248.254 130.568 260.546C134.112 262.65 139.686 266.597 148.097 267.847C159.891 269.598 169.276 265.302 173.015 263.311C174.166 268.88 174.977 276.055 174.262 284.298C172.499 304.502 162.594 318.76 157.449 325.176C155.945 326.152 154.204 326.802 152.295 327.007L112.454 331.284C86.6923 334.049 62.2456 326.113 43.5502 311.042C13.9767 287.203 9.81234 254.219 9.14524 248.005C9.60372 244.687 10.071 241.358 10.5394 238.039C11.6933 229.769 10.7881 221.337 7.90518 213.5C6.74297 210.356 5.58968 207.201 4.42747 204.057C-1.10363 152.533 36.1823 106.279 87.7063 100.748L122.218 97.0432C126.414 96.5928 130.425 97.701 133.668 99.8974C137.181 107.516 140.691 115.758 144.045 124.611C147.532 133.761 150.444 142.53 152.903 150.815Z" fill="url(#paint0_radial_209_1061)"/>
<path d="M127.553 102.243C119.249 101.807 107.264 102.028 93.4403 105.352C84.106 107.591 48.9969 116.037 27.8832 148.144C15.7021 166.68 15.3788 185.03 14.6995 202.311C14.3459 211.29 11.8957 274.472 51.9864 306.436C65.7684 317.427 81.3406 322.142 82.6279 322.517C93.6459 325.749 105.307 326.821 117.069 325.558C127.841 325.558 138.623 325.568 149.395 325.568C151.61 325.682 153.824 325.786 156.048 325.9C156.041 325.921 156.023 325.943 156.015 325.964C153.928 329.849 150.064 332.456 145.669 332.928L118.177 335.879C91.8784 338.702 66.051 331.115 45.4619 314.518C40.4412 310.471 35.8881 306.002 31.8257 301.137C22.8357 290.375 18.4754 280.394 15.8687 274.287C4.10391 246.766 3.0104 213.533 2.84391 205.142C2.37333 194.482 2.26958 161.193 24.8501 132.539C28.515 127.891 38.4028 115.817 55.4284 106.526C68.5113 99.3891 80.2647 97.2926 92.3224 95.0327C105.248 92.6093 116.257 92.0108 124.135 91.9495L153.75 93.4068C153.75 93.4068 144.166 97.4429 144.127 97.4571C138.605 99.0456 133.074 100.645 127.553 102.243Z" fill="#51422A"/>
<path d="M123.203 148.301C118.624 148.923 114.055 149.555 109.475 150.177C85.2245 152.78 67.9223 177.669 70.7664 205.756L72.4755 210.903C73.3087 213.419 73.8701 216.024 74.154 218.668C74.4379 221.313 74.4433 223.988 74.1619 226.613L73.5843 232.005C74.2146 237.409 77.1751 254.118 90.3678 266.461C99.7484 275.24 111.406 279.369 123.208 278.102C128.619 278.195 134.03 278.288 139.44 278.381C140.555 278.462 141.671 278.544 142.786 278.625C142.777 278.636 142.778 278.646 142.769 278.657C141.752 280.899 139.839 282.371 137.631 282.608L123.85 284.088C110.676 285.502 97.6391 280.887 87.1624 271.079C80.4538 264.799 75.3383 256.87 71.9575 247.487C69.6654 241.126 68.7359 235.654 68.3634 232.184L68.3239 231.816L68.9729 225.681C69.4283 221.398 68.9534 216.974 67.5981 212.875L65.6619 207.018L65.6598 206.998C64.0534 192.034 67.4231 177.049 75.2687 165.345C79.4286 159.125 84.5735 154.117 90.4022 150.515C96.9095 146.487 102.794 145.373 108.829 144.162C115.298 142.864 120.823 142.613 124.778 142.641C125.067 142.71 125.558 142.879 126.01 143.343C127.013 144.342 126.983 145.844 126.975 146.056C125.719 146.814 124.462 147.562 123.203 148.301Z" fill="url(#paint1_radial_209_1061)"/>
<path d="M106.476 263.404C109.247 263.73 110.625 263.924 113.507 264.631C114.405 264.846 114.788 265.509 114.542 266.4C113.743 269.262 113.333 270.503 112.167 273.132C110.335 277.241 105.427 279.206 101.439 277.382C100.244 276.836 99.2537 275.665 98.5898 274.539C97.9258 273.414 97.3999 271.982 97.5098 270.663C97.876 266.299 102.015 262.877 106.476 263.404Z" fill="#FFAD5C"/>
<path d="M88.585 241.317C91.2712 242.075 92.5928 242.486 95.3416 243.639C96.195 244 96.4727 244.715 96.0897 245.551C94.8506 248.248 94.2522 249.419 92.6905 251.829C90.2393 255.602 85.0743 256.77 81.4237 254.336C80.3298 253.609 79.5351 252.296 79.0626 251.08C78.59 249.863 78.2887 248.367 78.6038 247.086C79.6444 242.82 84.2606 240.102 88.585 241.317Z" fill="#FFAD5C"/>
<path d="M82.0491 211.817C84.5468 213.067 85.7735 213.72 88.2433 215.366C89.0122 215.877 89.153 216.626 88.6102 217.378C86.8884 219.796 86.0839 220.827 84.084 222.903C80.9621 226.144 75.6817 226.329 72.5458 223.256C71.6017 222.332 71.0759 220.9 70.8377 219.618C70.5995 218.336 70.5864 216.809 71.1309 215.604C72.9756 211.614 78.0313 209.804 82.0491 211.817Z" fill="#FFAD5C"/>
<path d="M97.9299 167.599C100.568 166.692 101.874 166.21 104.54 164.908C105.372 164.507 105.606 163.778 105.176 162.959C103.788 160.332 103.124 159.206 101.426 156.884C98.7639 153.258 93.5504 152.379 90.041 155.009C88.989 155.796 88.2694 157.15 87.8595 158.391C87.4496 159.632 87.2398 161.143 87.6271 162.409C88.9103 166.586 93.6805 169.051 97.9299 167.599Z" fill="#FFAD5C"/>
<path d="M81.8425 194.721C84.3067 193.41 85.5107 192.728 87.9521 191.018C88.7094 190.484 88.8293 189.727 88.2777 188.991C86.4942 186.618 85.6608 185.601 83.6232 183.577C80.4269 180.41 75.1318 180.365 72.081 183.519C71.1664 184.462 70.6685 185.913 70.465 187.202C70.2614 188.491 70.2844 190.018 70.8642 191.202C72.7755 195.141 77.8745 196.826 81.8425 194.721Z" fill="#FFAD5C"/>
<path d="M246.086 91.5302C284.494 112.601 295.428 156.082 303.918 189.919C310.296 215.324 314.74 233.021 307.766 253.874C293.263 297.25 242.374 314.41 221.488 321.469C192.798 331.157 167.408 331.861 151.137 331.033C157.434 305.002 164.072 264.15 158.748 214.555C155.888 187.918 148.343 147.231 126.587 102.347C129.743 100.359 192.62 62.1995 246.086 91.5302Z" fill="#3A3E26"/>
<path d="M169.795 92.6801C183.733 93.135 207.483 96.0768 230.132 111.347C274.886 141.502 293.049 204.734 274.763 255.406C263.331 287.097 240.493 305.952 227.83 314.754C237.443 310.433 252.361 302.114 265.04 286.622C294.647 250.445 287.38 205.232 285.437 193.131C283.851 183.223 274.386 124.287 223.957 100.946C202.228 90.878 181.455 91.3982 169.795 92.6801Z" fill="#5F634C"/>
<path d="M158.182 96.9442C157.88 97.3185 173.445 107.495 187.997 123.876C220.211 160.134 226.03 202.727 226.815 209.099C231.074 243.622 222.351 270.476 217.559 284.679C212.234 300.467 205.689 312.947 200.415 321.72C207.17 315.313 216.613 304.905 224.165 290.004C238.573 261.574 236.894 235.062 235.769 220.368C235.156 212.317 230.957 165.991 195.587 127.124C178.162 107.964 158.519 96.5258 158.182 96.9442Z" fill="#5F634C"/>
<path d="M144.157 97.4438C149.797 108.012 157.397 123.721 164.194 143.568C171.782 165.715 183.933 202.368 180.587 249.424C179.34 266.947 175.346 294.289 161.64 325.883C174.256 305.027 180.216 286.535 183.255 274.281C199.984 206.86 172.958 149.316 163.801 130.536C156.64 115.826 149.226 104.563 144.157 97.4438Z" fill="#5F634C"/>
<path d="M446.825 107.712C424.629 68.4415 413.011 49.2241 384.404 10.6211C375.514 -1.3744 363.241 -2.99148 351.547 6.29211C313.918 36.1683 297.948 49.9823 266.109 83.9023C216.339 136.923 217.843 222.433 270.055 270.415C285.753 284.838 309.302 292.23 330.233 294.987C351.156 297.744 375.825 296.705 394.722 286.841C457.564 254.016 482.613 171.014 446.825 107.712Z" fill="url(#paint2_radial_209_1061)"/>
<path d="M350.161 142.207C343.534 141.018 340.431 133.887 340.058 132.983C339.433 131.455 340.167 129.698 341.704 129.074C343.241 128.45 344.989 129.183 345.613 130.72C345.712 130.96 348.052 136.636 352.386 136.362C355.131 136.204 357.814 133.764 359.4 131.528C360.363 130.178 362.23 129.853 363.587 130.827C364.937 131.791 365.252 133.664 364.288 135.015C362.799 137.108 358.686 142.009 352.735 142.357C351.827 142.408 350.964 142.351 350.161 142.207Z" fill="#FFFFF7"/>
<path d="M317.609 135.083C323.882 136.209 329.869 132.037 330.993 125.771L308.288 121.698C307.173 127.964 311.343 133.959 317.609 135.083Z" fill="#FFFFF7"/>
<path d="M384.031 147.002C390.305 148.127 396.291 143.955 397.415 137.69L374.71 133.616C373.586 139.881 377.757 145.876 384.031 147.002Z" fill="#FFFFF7"/>
<path d="M526.572 200.353C525.784 202.095 525.275 203.992 525.109 205.982C523.189 228.552 511.523 247.096 493.247 252.784C493.206 252.786 493.162 252.779 493.121 252.781C485.078 252.614 477.2 255.065 470.673 259.768L470.57 259.841C467.362 260.84 450.175 265.718 430.673 251.616C425.741 248.05 421.124 243.612 417.008 238.431C416.373 237.634 415.669 236.921 414.904 236.279C409.291 237.932 403.7 239.619 398.028 241.081C390.223 243.091 382.547 245.281 374.925 247.946C370.201 249.595 365.474 251.265 360.664 252.636C360.366 254.404 360.462 256.26 361.032 258.093L372.94 296.353C380.639 321.093 397.636 340.373 418.895 351.54C452.524 369.205 484.446 359.919 490.414 358.062C493.274 356.313 496.146 354.571 499.005 352.822C506.136 348.477 514.233 345.957 522.57 345.488C525.917 345.305 529.27 345.11 532.617 344.927C582.096 329.528 609.725 276.932 594.326 227.453L584.012 194.311C582.757 190.281 580.147 187.041 576.842 184.938C560.075 190.02 543.316 195.162 526.572 200.353Z" fill="url(#paint3_radial_209_1061)"/>
<path d="M580.287 197.418C582.804 206.28 585.324 215.152 587.841 224.014C602.301 270.476 576.439 320.03 530.148 334.804L520.75 335.33C516.171 335.593 511.631 336.419 507.268 337.777C502.895 339.138 498.698 341.031 494.778 343.413L486.741 348.313C477.777 351.008 449.252 357.446 419.78 341.964C398.822 330.955 383.403 312.44 376.366 289.83C372.086 279.945 367.793 270.054 363.512 260.17C362.527 258.183 361.552 256.193 360.564 254.196C360.547 254.212 360.534 254.237 360.518 254.252C357.783 257.712 356.925 262.293 358.239 266.514L366.455 292.914C374.315 318.17 391.54 338.855 414.953 351.154C429.952 359.033 446.327 362.786 463.634 362.333C475.39 362.015 484.689 359.822 490.427 358.036L491.038 357.846L500.177 352.279C506.559 348.387 513.873 346.111 521.336 345.694L532.02 345.092L532.058 345.08C556.797 337.381 577.748 320.502 590.147 297.75C596.731 285.657 600.658 272.632 601.866 259.353C603.217 244.511 600.47 232.893 597.753 220.93C594.84 208.106 591.015 197.766 587.94 190.512C587.614 190.037 586.972 189.252 585.901 188.737C583.558 187.602 581.226 188.726 580.891 188.893C580.695 191.73 580.489 194.569 580.287 197.418Z" fill="#51422A"/>
<path d="M536.59 213.761C537.839 218.211 539.075 222.654 540.324 227.104C547.572 250.393 531.608 276.16 504.703 284.712L499.301 285.189C496.662 285.424 494.048 285.944 491.508 286.734C488.968 287.525 486.512 288.582 484.215 289.884L479.496 292.557C474.287 294.126 457.777 298.049 441.208 290.847C429.425 285.728 421.003 276.671 417.476 265.337C415.24 260.409 413.005 255.481 410.769 250.552C410.251 249.561 409.733 248.571 409.216 247.58C409.209 247.592 409.2 247.595 409.193 247.608C407.54 249.431 406.949 251.773 407.609 253.892L411.728 267.126C415.665 279.778 425.081 289.907 438.244 295.624C446.672 299.285 455.982 300.828 465.935 300.202C472.684 299.777 478.075 298.456 481.407 297.419L481.76 297.309L487.132 294.275C490.881 292.155 495.13 290.833 499.43 290.448L505.574 289.897L505.593 289.891C519.963 285.419 532.375 276.372 539.998 264.521C544.052 258.233 546.603 251.521 547.593 244.741C548.703 237.169 547.387 231.326 546.1 225.307C544.721 218.855 542.756 213.685 541.158 210.067C540.98 209.829 540.63 209.446 540.024 209.215C538.709 208.692 537.343 209.316 537.152 209.408C536.955 210.862 536.768 212.313 536.59 213.761Z" fill="url(#paint4_radial_209_1061)"/>
<path d="M437.612 274.853C436.212 272.44 435.486 271.253 433.692 268.889C433.138 268.15 432.378 268.062 431.657 268.642C429.349 270.513 428.373 271.382 426.424 273.497C423.381 276.811 423.528 282.096 426.787 285.03C427.763 285.91 429.231 286.354 430.528 286.515C431.824 286.677 433.348 286.591 434.515 285.966C438.374 283.896 439.872 278.748 437.612 274.853Z" fill="#FFAD5C"/>
<path d="M464.991 282.493C463.228 280.329 462.325 279.279 460.175 277.215C459.504 276.576 458.738 276.605 458.124 277.288C456.141 279.497 455.304 280.511 453.713 282.902C451.225 286.651 452.205 291.855 455.89 294.238C456.992 294.952 458.512 295.16 459.816 295.11C461.12 295.06 462.613 294.742 463.664 293.944C467.167 291.304 467.827 285.988 464.991 282.493Z" fill="#FFAD5C"/>
<path d="M494.658 276.768C492.518 274.973 491.432 274.107 488.94 272.494C488.166 271.992 487.422 272.16 486.948 272.957C485.413 275.498 484.786 276.646 483.677 279.306C481.942 283.459 483.871 288.378 487.937 290.035C489.161 290.534 490.684 290.447 491.955 290.156C493.226 289.865 494.632 289.27 495.522 288.292C498.45 285.014 498.105 279.665 494.658 276.768Z" fill="#FFAD5C"/>
<path d="M528.925 244.623C528.709 241.842 528.632 240.452 528.767 237.488C528.805 236.565 529.381 236.061 530.303 236.13C533.265 236.36 534.562 236.522 537.368 237.157C541.753 238.159 544.631 242.594 543.613 246.859C543.309 248.138 542.352 249.336 541.376 250.205C540.4 251.075 539.097 251.868 537.782 252.015C533.439 252.498 529.284 249.109 528.925 244.623Z" fill="#FFAD5C"/>
<path d="M510.295 270.613C510.518 267.831 510.666 266.455 511.265 263.535C511.454 262.628 512.101 262.217 512.995 262.431C515.882 263.125 517.146 263.485 519.813 264.551C523.989 266.225 526.135 271.067 524.453 275.119C523.951 276.333 522.817 277.367 521.715 278.066C520.613 278.765 519.203 279.351 517.886 279.289C513.512 279.101 509.942 275.101 510.295 270.613Z" fill="#FFAD5C"/>
<defs>
<radialGradient id="paint0_radial_209_1061" cx="0" cy="0" r="1" gradientUnits="userSpaceOnUse" gradientTransform="translate(87.5374 217.239) rotate(-6.74034) scale(70.9748 137.669)">
<stop stop-color="#FE601C"/>
<stop offset="0.2511" stop-color="#FE691A"/>
<stop offset="0.6565" stop-color="#FD8116"/>
<stop offset="1" stop-color="#FC9A11"/>
</radialGradient>
<radialGradient id="paint1_radial_209_1061" cx="0" cy="0" r="1" gradientUnits="userSpaceOnUse" gradientTransform="translate(101.303 215.6) rotate(-96.1272) scale(55.5208 55.5208)">
<stop stop-color="#FE601C"/>
<stop offset="0.2511" stop-color="#FE691A"/>
<stop offset="0.6565" stop-color="#FD8116"/>
<stop offset="1" stop-color="#FC9A11"/>
</radialGradient>
<radialGradient id="paint2_radial_209_1061" cx="0" cy="0" r="1" gradientUnits="userSpaceOnUse" gradientTransform="translate(349.907 147.76) rotate(7.5056) scale(133.485 177.722)">
<stop stop-color="#D2C96A"/>
<stop offset="0.346" stop-color="#C2BB5E"/>
<stop offset="1" stop-color="#999940"/>
</radialGradient>
<radialGradient id="paint3_radial_209_1061" cx="0" cy="0" r="1" gradientUnits="userSpaceOnUse" gradientTransform="translate(490.834 284.782) rotate(-106.674) scale(67.8442 131.597)">
<stop stop-color="#FE601C"/>
<stop offset="0.2511" stop-color="#FE691A"/>
<stop offset="0.6565" stop-color="#FD8116"/>
<stop offset="1" stop-color="#FC9A11"/>
</radialGradient>
<radialGradient id="paint4_radial_209_1061" cx="0" cy="0" r="1" gradientUnits="userSpaceOnUse" gradientTransform="translate(483.537 260.607) rotate(-17.2873) scale(55.5207 55.5208)">
<stop stop-color="#FE601C"/>
<stop offset="0.2511" stop-color="#FE691A"/>
<stop offset="0.6565" stop-color="#FD8116"/>
<stop offset="1" stop-color="#FC9A11"/>
</radialGradient>
</defs>
</svg>
