<svg width="676" height="452" viewBox="0 0 676 452" fill="none" xmlns="http://www.w3.org/2000/svg">
<path d="M64.6626 378.411C104.85 353.786 144.442 328.168 183.324 301.478C202.76 288.133 222.033 274.545 241.133 260.714C260.206 246.847 279.116 232.748 297.861 218.418C316.58 204.052 335.104 189.45 353.48 174.649C371.821 159.801 389.986 144.73 407.937 129.41C443.85 98.7703 478.961 67.1921 513.246 34.7028C513.788 34.1865 514.647 34.2161 515.162 34.7592C515.667 35.3008 515.65 36.1428 515.128 36.6621C481.297 69.6856 446.603 101.835 411.085 133.062C393.331 148.672 375.352 164.041 357.196 179.196C339.005 194.305 320.654 209.224 302.109 223.896C283.528 238.532 264.78 252.956 245.857 267.147C226.908 281.302 207.775 295.223 188.478 308.901C149.865 336.255 110.517 362.564 70.5315 387.886C67.9331 389.535 64.497 388.76 62.8528 386.157C61.2085 383.555 61.984 380.111 64.5824 378.462C64.5941 378.453 64.616 378.446 64.6276 378.437L64.6626 378.411Z" fill="url(#paint0_radial_222_334)"/>
<path d="M511.038 42.1002C516.572 42.8952 521.704 39.0444 522.5 33.4992C523.297 27.9541 519.457 22.8144 513.923 22.0195C508.39 21.2245 503.258 25.0753 502.461 30.6204C501.665 36.1656 505.505 41.3052 511.038 42.1002Z" fill="url(#paint1_radial_222_334)"/>
<path d="M500.053 78.7392C505.587 79.5341 510.718 75.6833 511.515 70.1382C512.311 64.593 508.471 59.4534 502.938 58.6584C497.404 57.8634 492.273 61.7142 491.476 67.2594C490.679 72.8045 494.519 77.9442 500.053 78.7392Z" fill="url(#paint2_radial_222_334)"/>
<path d="M449.734 88.2943C455.268 89.0893 460.4 85.2384 461.196 79.6933C461.993 74.1482 458.153 69.0085 452.619 68.2136C447.086 67.4186 441.954 71.2694 441.157 76.8145C440.361 82.3596 444.201 87.4993 449.734 88.2943Z" fill="url(#paint3_radial_222_334)"/>
<path d="M412.943 125.49C418.476 126.285 423.608 122.434 424.404 116.889C425.201 111.344 421.361 106.204 415.827 105.409C410.294 104.614 405.162 108.465 404.366 114.01C403.569 119.555 407.409 124.695 412.943 125.49Z" fill="url(#paint4_radial_222_334)"/>
<path d="M394.476 171.333C400.01 172.128 405.142 168.278 405.938 162.732C406.735 157.187 402.895 152.048 397.361 151.253C391.828 150.458 386.696 154.308 385.899 159.854C385.103 165.399 388.943 170.538 394.476 171.333Z" fill="url(#paint5_radial_222_334)"/>
<path d="M336.826 187.893C342.36 188.688 347.492 184.838 348.288 179.292C349.085 173.747 345.245 168.608 339.711 167.813C334.178 167.018 329.046 170.868 328.249 176.414C327.453 181.959 331.293 187.099 336.826 187.893Z" fill="url(#paint6_radial_222_334)"/>
<path d="M363.855 153.048C367.041 153.506 369.996 151.289 370.455 148.096C370.913 144.903 368.702 141.944 365.516 141.486C362.33 141.028 359.375 143.245 358.917 146.438C358.458 149.631 360.669 152.591 363.855 153.048Z" fill="url(#paint7_radial_222_334)"/>
<path d="M379.922 124.124C383.108 124.581 386.063 122.364 386.522 119.171C386.98 115.979 384.769 113.019 381.583 112.561C378.397 112.104 375.442 114.321 374.983 117.514C374.525 120.707 376.736 123.666 379.922 124.124Z" fill="url(#paint8_radial_222_334)"/>
<path d="M429.604 149.557C432.79 150.014 435.745 147.797 436.204 144.604C436.663 141.412 434.452 138.452 431.265 137.995C428.079 137.537 425.125 139.754 424.666 142.947C424.207 146.14 426.418 149.099 429.604 149.557Z" fill="url(#paint9_radial_222_334)"/>
<path d="M426.516 90.536C429.702 90.9937 432.657 88.7765 433.115 85.5837C433.574 82.3909 431.363 79.4315 428.177 78.9738C424.991 78.5161 422.036 80.7333 421.577 83.9261C421.119 87.119 423.33 90.0783 426.516 90.536Z" fill="url(#paint10_radial_222_334)"/>
<path d="M478.446 101.259C481.633 101.717 484.587 99.5 485.046 96.3072C485.505 93.1143 483.294 90.1549 480.107 89.6972C476.921 89.2395 473.967 91.4567 473.508 94.6496C473.049 97.8424 475.26 100.802 478.446 101.259Z" fill="url(#paint11_radial_222_334)"/>
<path d="M390.564 135.003C379.395 115.28 368.808 102.226 347.63 76.1081C300.19 17.599 285.994 17.1625 279.556 18.4367C279.313 18.4865 279.083 18.5448 278.842 18.6047C278.595 18.6239 278.358 18.6414 278.112 18.6708C271.601 19.4969 258.27 24.3875 231.755 94.9017C219.918 126.374 213.999 142.105 209.637 164.347C203.738 194.418 198.317 222.037 205.713 255.931C209.679 274.084 219.893 320.911 262.065 346.102C274.482 353.517 301.235 365.967 333.714 359.821C333.867 359.796 334.017 359.761 334.168 359.726C334.321 359.702 334.475 359.687 334.629 359.673C367.386 355.238 388.832 334.971 398.269 324.011C430.318 286.783 425.207 239.127 423.233 220.652C419.539 186.168 405.667 161.678 390.564 135.003Z" fill="url(#paint12_radial_222_334)"/>
<path d="M286.086 168.047C285.859 172.432 297.49 180.216 307.987 176.046C315.836 172.923 321.002 163.931 318.824 160.406C315.005 154.23 286.437 161.331 286.086 168.047Z" fill="white"/>
<path d="M270.713 156.166C264.639 151.778 256.172 153.152 251.807 159.233C247.432 165.316 248.808 173.8 254.88 178.178C260.953 182.566 269.42 181.193 273.786 175.112C278.161 169.029 276.785 160.544 270.713 156.166ZM271.765 173.652C268.198 178.611 261.297 179.73 256.335 176.155L269.247 158.192C274.208 161.767 275.332 168.693 271.765 173.652Z" fill="white"/>
<path d="M348.938 143.479C342.865 139.091 334.398 140.464 330.033 146.545C325.657 152.628 327.033 161.113 333.105 165.491C339.179 169.879 347.646 168.506 352.011 162.425C356.387 156.342 355.01 147.857 348.938 143.479ZM349.991 160.965C346.424 165.923 339.522 167.043 334.561 163.467L347.473 145.504C352.434 149.08 353.557 156.006 349.991 160.965Z" fill="white"/>
<path d="M6.17664 392.245C62.7691 377.472 119.011 361.303 174.785 343.608C202.669 334.75 230.445 325.553 258.115 316.007C285.762 306.406 313.291 296.465 340.7 286.204C368.096 275.889 395.348 265.198 422.494 254.232C449.608 243.199 476.603 231.836 503.442 220.107C557.111 196.647 610.173 171.765 662.566 145.526C663.395 145.114 664.408 145.447 664.82 146.278C665.232 147.098 664.901 148.103 664.091 148.529C612.039 175.578 559.276 201.274 505.87 225.585C479.167 237.74 452.289 249.516 425.28 260.981C398.238 272.379 371.082 283.49 343.769 294.244C316.442 304.944 288.985 315.323 261.4 325.361C233.801 335.355 206.077 344.987 178.232 354.299C122.539 372.881 66.3324 389.962 9.73451 405.641C6.05183 406.655 2.25171 404.504 1.23191 400.813C0.222298 397.123 2.37157 393.314 6.05571 392.29C6.07756 392.283 6.09942 392.275 6.12127 392.268L6.17664 392.245Z" fill="url(#paint13_radial_222_334)"/>
<path d="M660.812 154.552C667.679 155.539 674.048 150.76 675.037 143.878C676.026 136.996 671.26 130.617 664.392 129.63C657.524 128.644 651.156 133.423 650.167 140.305C649.178 147.187 653.944 153.566 660.812 154.552Z" fill="url(#paint14_radial_222_334)"/>
<path d="M634.601 194.133C641.468 195.12 647.837 190.341 648.826 183.459C649.815 176.577 645.049 170.198 638.181 169.211C631.313 168.225 624.945 173.004 623.956 179.886C622.967 186.768 627.733 193.147 634.601 194.133Z" fill="url(#paint15_radial_222_334)"/>
<path d="M571.377 187.355C578.244 188.341 584.613 183.562 585.602 176.68C586.591 169.798 581.825 163.419 574.957 162.432C568.089 161.446 561.72 166.225 560.732 173.107C559.743 179.989 564.509 186.368 571.377 187.355Z" fill="url(#paint16_radial_222_334)"/>
<path d="M514.325 218.293C521.192 219.28 527.561 214.5 528.55 207.618C529.539 200.736 524.773 194.357 517.905 193.371C511.037 192.384 504.668 197.163 503.68 204.045C502.691 210.927 507.457 217.306 514.325 218.293Z" fill="url(#paint17_radial_222_334)"/>
<path d="M475.912 266.118C482.779 267.105 489.148 262.326 490.137 255.444C491.126 248.562 486.36 242.183 479.492 241.196C472.624 240.209 466.256 244.989 465.267 251.871C464.278 258.753 469.044 265.132 475.912 266.118Z" fill="url(#paint18_radial_222_334)"/>
<path d="M401.472 265.005C408.34 265.991 414.708 261.212 415.697 254.33C416.686 247.448 411.92 241.069 405.052 240.082C398.185 239.096 391.816 243.875 390.827 250.757C389.838 257.639 394.604 264.018 401.472 265.005Z" fill="url(#paint19_radial_222_334)"/>
<path d="M444.605 232.911C448.562 233.479 452.232 230.725 452.802 226.76C453.372 222.794 450.625 219.118 446.668 218.55C442.711 217.981 439.041 220.735 438.471 224.701C437.901 228.667 440.648 232.342 444.605 232.911Z" fill="url(#paint20_radial_222_334)"/>
<path d="M474.075 204.317C478.033 204.885 481.702 202.131 482.272 198.166C482.842 194.2 480.096 190.524 476.138 189.956C472.181 189.387 468.511 192.141 467.941 196.107C467.372 200.072 470.118 203.748 474.075 204.317Z" fill="url(#paint21_radial_222_334)"/>
<path d="M523.971 252.455C527.928 253.023 531.598 250.269 532.168 246.303C532.738 242.338 529.991 238.662 526.034 238.094C522.077 237.525 518.407 240.279 517.837 244.245C517.267 248.21 520.014 251.886 523.971 252.455Z" fill="url(#paint22_radial_222_334)"/>
<path d="M541.489 181.205C545.446 181.774 549.116 179.02 549.686 175.054C550.256 171.088 547.51 167.413 543.552 166.844C539.595 166.276 535.925 169.03 535.355 172.995C534.785 176.961 537.532 180.636 541.489 181.205Z" fill="url(#paint23_radial_222_334)"/>
<path d="M599.334 212.669C603.291 213.237 606.961 210.483 607.531 206.518C608.101 202.552 605.355 198.876 601.397 198.308C597.44 197.739 593.77 200.493 593.2 204.459C592.63 208.425 595.377 212.1 599.334 212.669Z" fill="url(#paint24_radial_222_334)"/>
<defs>
<radialGradient id="paint0_radial_222_334" cx="0" cy="0" r="1" gradientUnits="userSpaceOnUse" gradientTransform="translate(290.899 209.387) rotate(-29.6477) scale(204.477 272.394)">
<stop stop-color="#E1BD38"/>
<stop offset="0.4305" stop-color="#D1AE3F"/>
<stop offset="1" stop-color="#B5954C"/>
</radialGradient>
<radialGradient id="paint1_radial_222_334" cx="0" cy="0" r="1" gradientUnits="userSpaceOnUse" gradientTransform="translate(512.499 32.0133) rotate(-29.6477) scale(10.1283 13.4923)">
<stop stop-color="#E1BD38"/>
<stop offset="0.4305" stop-color="#D1AE3F"/>
<stop offset="1" stop-color="#B5954C"/>
</radialGradient>
<radialGradient id="paint2_radial_222_334" cx="0" cy="0" r="1" gradientUnits="userSpaceOnUse" gradientTransform="translate(501.511 68.655) rotate(-29.6478) scale(10.1283 13.4924)">
<stop stop-color="#E1BD38"/>
<stop offset="0.4305" stop-color="#D1AE3F"/>
<stop offset="1" stop-color="#B5954C"/>
</radialGradient>
<radialGradient id="paint3_radial_222_334" cx="0" cy="0" r="1" gradientUnits="userSpaceOnUse" gradientTransform="translate(451.192 78.2149) rotate(-29.6477) scale(10.1283 13.4923)">
<stop stop-color="#E1BD38"/>
<stop offset="0.4305" stop-color="#D1AE3F"/>
<stop offset="1" stop-color="#B5954C"/>
</radialGradient>
<radialGradient id="paint4_radial_222_334" cx="0" cy="0" r="1" gradientUnits="userSpaceOnUse" gradientTransform="translate(414.411 115.404) rotate(-29.6477) scale(10.1283 13.4923)">
<stop stop-color="#E1BD38"/>
<stop offset="0.4305" stop-color="#D1AE3F"/>
<stop offset="1" stop-color="#B5954C"/>
</radialGradient>
<radialGradient id="paint5_radial_222_334" cx="0" cy="0" r="1" gradientUnits="userSpaceOnUse" gradientTransform="translate(395.939 161.252) rotate(-29.6478) scale(10.1283 13.4924)">
<stop stop-color="#E1BD38"/>
<stop offset="0.4305" stop-color="#D1AE3F"/>
<stop offset="1" stop-color="#B5954C"/>
</radialGradient>
<radialGradient id="paint6_radial_222_334" cx="0" cy="0" r="1" gradientUnits="userSpaceOnUse" gradientTransform="translate(338.296 177.808) rotate(-29.6478) scale(10.1283 13.4924)">
<stop stop-color="#E1BD38"/>
<stop offset="0.4305" stop-color="#D1AE3F"/>
<stop offset="1" stop-color="#B5954C"/>
</radialGradient>
<radialGradient id="paint7_radial_222_334" cx="0" cy="0" r="1" gradientUnits="userSpaceOnUse" gradientTransform="translate(364.711 147.226) rotate(-29.6478) scale(5.83139 7.76827)">
<stop stop-color="#E1BD38"/>
<stop offset="0.4305" stop-color="#D1AE3F"/>
<stop offset="1" stop-color="#B5954C"/>
</radialGradient>
<radialGradient id="paint8_radial_222_334" cx="0" cy="0" r="1" gradientUnits="userSpaceOnUse" gradientTransform="translate(380.774 118.296) rotate(-29.6477) scale(5.8314 7.76828)">
<stop stop-color="#E1BD38"/>
<stop offset="0.4305" stop-color="#D1AE3F"/>
<stop offset="1" stop-color="#B5954C"/>
</radialGradient>
<radialGradient id="paint9_radial_222_334" cx="0" cy="0" r="1" gradientUnits="userSpaceOnUse" gradientTransform="translate(430.456 143.726) rotate(-29.6477) scale(5.83138 7.76825)">
<stop stop-color="#E1BD38"/>
<stop offset="0.4305" stop-color="#D1AE3F"/>
<stop offset="1" stop-color="#B5954C"/>
</radialGradient>
<radialGradient id="paint10_radial_222_334" cx="0" cy="0" r="1" gradientUnits="userSpaceOnUse" gradientTransform="translate(427.36 84.7136) rotate(-29.6476) scale(5.83139 7.76826)">
<stop stop-color="#E1BD38"/>
<stop offset="0.4305" stop-color="#D1AE3F"/>
<stop offset="1" stop-color="#B5954C"/>
</radialGradient>
<radialGradient id="paint11_radial_222_334" cx="0" cy="0" r="1" gradientUnits="userSpaceOnUse" gradientTransform="translate(479.292 95.4357) rotate(-29.6478) scale(5.83139 7.76827)">
<stop stop-color="#E1BD38"/>
<stop offset="0.4305" stop-color="#D1AE3F"/>
<stop offset="1" stop-color="#B5954C"/>
</radialGradient>
<radialGradient id="paint12_radial_222_334" cx="0" cy="0" r="1" gradientUnits="userSpaceOnUse" gradientTransform="translate(423.678 170.142) rotate(-9.21249) scale(146.543 195.516)">
<stop stop-color="#E18929"/>
<stop offset="0.4305" stop-color="#D17F31"/>
<stop offset="1" stop-color="#B56E40"/>
</radialGradient>
<radialGradient id="paint13_radial_222_334" cx="0" cy="0" r="1" gradientUnits="userSpaceOnUse" gradientTransform="translate(335.643 272.967) rotate(-12.7809) scale(253.749 338.376)">
<stop stop-color="#E1BD38"/>
<stop offset="0.4305" stop-color="#D1AE3F"/>
<stop offset="1" stop-color="#B5954C"/>
</radialGradient>
<radialGradient id="paint14_radial_222_334" cx="0" cy="0" r="1" gradientUnits="userSpaceOnUse" gradientTransform="translate(662.609 142.082) rotate(-12.7809) scale(12.5688 16.7606)">
<stop stop-color="#E1BD38"/>
<stop offset="0.4305" stop-color="#D1AE3F"/>
<stop offset="1" stop-color="#B5954C"/>
</radialGradient>
<radialGradient id="paint15_radial_222_334" cx="0" cy="0" r="1" gradientUnits="userSpaceOnUse" gradientTransform="translate(636.393 181.67) rotate(-12.7809) scale(12.5688 16.7606)">
<stop stop-color="#E1BD38"/>
<stop offset="0.4305" stop-color="#D1AE3F"/>
<stop offset="1" stop-color="#B5954C"/>
</radialGradient>
<radialGradient id="paint16_radial_222_334" cx="0" cy="0" r="1" gradientUnits="userSpaceOnUse" gradientTransform="translate(573.176 174.887) rotate(-12.7809) scale(12.5688 16.7606)">
<stop stop-color="#E1BD38"/>
<stop offset="0.4305" stop-color="#D1AE3F"/>
<stop offset="1" stop-color="#B5954C"/>
</radialGradient>
<radialGradient id="paint17_radial_222_334" cx="0" cy="0" r="1" gradientUnits="userSpaceOnUse" gradientTransform="translate(516.119 205.824) rotate(-12.7809) scale(12.5688 16.7606)">
<stop stop-color="#E1BD38"/>
<stop offset="0.4305" stop-color="#D1AE3F"/>
<stop offset="1" stop-color="#B5954C"/>
</radialGradient>
<radialGradient id="paint18_radial_222_334" cx="0" cy="0" r="1" gradientUnits="userSpaceOnUse" gradientTransform="translate(477.704 253.654) rotate(-12.7809) scale(12.5688 16.7606)">
<stop stop-color="#E1BD38"/>
<stop offset="0.4305" stop-color="#D1AE3F"/>
<stop offset="1" stop-color="#B5954C"/>
</radialGradient>
<radialGradient id="paint19_radial_222_334" cx="0" cy="0" r="1" gradientUnits="userSpaceOnUse" gradientTransform="translate(403.274 252.545) rotate(-12.7809) scale(12.5688 16.7606)">
<stop stop-color="#E1BD38"/>
<stop offset="0.4305" stop-color="#D1AE3F"/>
<stop offset="1" stop-color="#B5954C"/>
</radialGradient>
<radialGradient id="paint20_radial_222_334" cx="0" cy="0" r="1" gradientUnits="userSpaceOnUse" gradientTransform="translate(445.642 225.723) rotate(-12.7808) scale(7.23657 9.65001)">
<stop stop-color="#E1BD38"/>
<stop offset="0.4305" stop-color="#D1AE3F"/>
<stop offset="1" stop-color="#B5954C"/>
</radialGradient>
<radialGradient id="paint21_radial_222_334" cx="0" cy="0" r="1" gradientUnits="userSpaceOnUse" gradientTransform="translate(475.117 197.131) rotate(-12.781) scale(7.23658 9.65009)">
<stop stop-color="#E1BD38"/>
<stop offset="0.4305" stop-color="#D1AE3F"/>
<stop offset="1" stop-color="#B5954C"/>
</radialGradient>
<radialGradient id="paint22_radial_222_334" cx="0" cy="0" r="1" gradientUnits="userSpaceOnUse" gradientTransform="translate(525.009 245.271) rotate(-12.781) scale(7.23658 9.65009)">
<stop stop-color="#E1BD38"/>
<stop offset="0.4305" stop-color="#D1AE3F"/>
<stop offset="1" stop-color="#B5954C"/>
</radialGradient>
<radialGradient id="paint23_radial_222_334" cx="0" cy="0" r="1" gradientUnits="userSpaceOnUse" gradientTransform="translate(542.528 174.016) rotate(-12.7809) scale(7.23658 9.65005)">
<stop stop-color="#E1BD38"/>
<stop offset="0.4305" stop-color="#D1AE3F"/>
<stop offset="1" stop-color="#B5954C"/>
</radialGradient>
<radialGradient id="paint24_radial_222_334" cx="0" cy="0" r="1" gradientUnits="userSpaceOnUse" gradientTransform="translate(600.374 205.487) rotate(-12.7809) scale(7.23658 9.65005)">
<stop stop-color="#E1BD38"/>
<stop offset="0.4305" stop-color="#D1AE3F"/>
<stop offset="1" stop-color="#B5954C"/>
</radialGradient>
</defs>
</svg>
