<svg width="321" height="537" viewBox="0 0 321 537" fill="none" xmlns="http://www.w3.org/2000/svg">
<path d="M320.619 200.085C319.378 185.598 315.316 174.035 311.839 166.25C312.362 160.811 312.735 149.301 307.112 136.477C300.655 121.75 290.03 113.787 285.506 110.765C276.85 87.2842 265.152 77.6679 256.132 73.2153C251.254 70.8067 235.041 60.8705 217.985 64.7543C186.225 71.9888 188.034 117.795 158.048 133.588C142.766 141.631 117.17 142.964 71.6888 116C47.2898 110.516 23.9639 119.199 13.8885 136.477C7.03267 148.235 8.23887 160.686 9.16127 166.25C5.68456 174.026 1.63136 185.598 0.380806 200.085C-1.50832 222.081 4.05264 239.518 7.80429 248.797C4.67348 283.663 14.3142 304.806 20.4251 315.098C34.7842 339.272 52.017 353.794 52.017 353.794C55.5115 359.375 60.4959 368.218 64.6556 379.826C69.4005 393.059 68.6378 397.512 72.3806 404.453C80.4515 419.428 98.0124 424.645 108.185 427.667C138.766 436.75 151.201 423.454 170.669 435.408C183.821 443.487 181.861 451.832 192.433 454.401C215.076 459.902 240.433 425.561 242.979 422.041C252.886 408.328 257.143 394.765 259.129 386.162C271.351 372.04 288.735 348.39 300.548 315.107C309.87 288.862 312.575 265.488 313.169 248.806C316.947 239.518 322.508 222.081 320.619 200.085Z" fill="url(#paint0_radial_208_569)"/>
<path d="M96.9657 350.275C105.347 339.263 114.323 325.363 122.083 308.423C125.453 301.065 128.212 293.972 130.465 287.298C128.948 287.84 127.431 288.382 125.915 288.933C125.143 291.031 124.194 293.315 123.041 295.714C121.861 298.167 120.496 300.7 118.89 303.251C110.083 317.24 98.2163 325.656 89.2584 330.58C91.8216 337.148 94.3937 343.707 96.9657 350.275Z" fill="url(#paint1_radial_208_569)"/>
<path d="M83.6268 353.092C72.4605 345.555 55.2898 331.513 43.3785 308.432C39.5116 300.94 36.8508 293.759 34.9972 287.307C36.5138 287.849 38.0304 288.391 39.5471 288.942C42.8907 296.861 48.7799 308.157 59.0503 319.328C66.4916 327.416 74.0481 333.068 80.1146 336.917C81.2853 342.303 82.456 347.697 83.6268 353.092Z" fill="url(#paint2_radial_208_569)"/>
<path d="M69.5868 282.738C59.9727 268.367 49.2853 249.339 40.7976 225.752C35.7067 211.603 32.3364 198.396 30.0836 186.7C31.6002 187.242 33.1169 187.784 34.6335 188.335C37.6047 198.974 42.3053 212.189 49.9239 226.463C57.3119 240.301 65.3917 251.277 72.3895 259.524C71.4582 267.256 70.5181 274.997 69.5868 282.738Z" fill="url(#paint3_radial_208_569)"/>
<path d="M224.043 348.87C214.251 337.441 203.342 322.199 194.331 302.797C190.908 295.43 188.158 288.338 185.95 281.672C187.467 282.214 188.983 282.756 190.5 283.307C191.271 285.405 192.22 287.689 193.373 290.088C193.373 290.088 195.165 293.803 197.524 297.625C200.549 302.504 211.6 315.498 228.247 331.282C226.854 337.148 225.444 343.005 224.043 348.87Z" fill="url(#paint4_radial_208_569)"/>
<path d="M241.595 189.873C249.081 176.577 256.868 159.255 261.79 138.174C263.493 130.869 264.673 123.919 265.462 117.413C263.821 117.644 262.189 117.884 260.549 118.115C260.371 122.603 259.812 127.616 258.588 133.002C254.526 150.901 245.232 163.61 238.784 170.88C239.724 177.208 240.655 183.536 241.595 189.873Z" fill="url(#paint5_radial_208_569)"/>
<path d="M250.021 270.074C257.48 262.191 268.176 248.939 275.998 229.973C285.293 207.435 286.18 187.358 285.825 175.804C284.424 176.035 283.014 176.275 281.613 176.506C280.93 185.811 278.632 200.867 270.375 217.309C263.652 230.711 255.404 240.185 249.311 246.157C249.551 254.13 249.781 262.102 250.021 270.074Z" fill="url(#paint6_radial_208_569)"/>
<path d="M235.272 348.871C244.522 342.685 261.409 329.514 273.187 306.655C280.158 293.119 283.103 280.543 284.424 271.478C282.784 272.18 281.152 272.882 279.511 273.584C277.852 280.312 274.677 289.733 268.274 299.616C258.606 314.547 246.5 322.937 239.484 327.052C238.083 334.33 236.682 341.601 235.272 348.871Z" fill="url(#paint7_radial_208_569)"/>
<path d="M235.272 265.852C236.159 243.891 234.881 228.303 233.17 207.461C229.64 164.526 222.802 129.358 217.019 104.748C217.959 102.642 218.89 100.527 219.83 98.4204C239.697 156.145 277.507 294.124 213.516 424.859C204.123 444.047 193.383 461.351 181.924 476.922C177.241 466.132 172.567 455.343 167.884 444.562C172.38 439.816 177.977 433.515 184.38 424.841C184.38 424.841 196.212 409.066 205.666 390.917C216.602 369.934 230.731 325.336 235.272 265.852Z" fill="url(#paint8_radial_208_569)"/>
<path d="M112.416 146.955C107.972 144.609 103.52 142.262 99.0767 139.916C91.3428 156.118 32.7798 283.734 96.9748 389.673C112.327 415.002 131.591 433.968 150.332 448.064C148.93 435.399 147.52 422.734 146.119 410.07C130.961 397.352 120.185 384.127 112.416 372.076C54.2432 281.921 104.345 165.05 112.416 146.955Z" fill="url(#paint9_radial_208_569)"/>
<path d="M143.298 415.002C141.702 415.002 140.176 414.327 139.112 413.118C123.298 395.352 114.553 377.204 113.134 359.162C112.966 357.065 112.903 355.003 112.841 353.012C112.629 346.471 112.433 340.294 108.806 333.122C105.294 326.172 100.655 322.474 94.7749 317.791C93.1962 316.529 91.5554 315.222 89.8348 313.774C89.0987 313.16 71.6974 298.354 57.0278 273.647C46.0478 255.161 41.3915 231.555 43.5201 205.31C37.294 189.348 34.7662 172.071 36.2031 155.265C37.2141 143.462 40.1321 131.926 44.8593 120.959C44.2917 113.2 44.8771 101.94 50.1631 89.8794C56.0699 76.4148 65.1697 67.8295 72.2828 62.7903C79.6708 43.611 90.2694 30.5108 103.804 23.8274C110.855 20.3435 116.238 19.8191 121.932 19.2592C127.236 18.7349 133.249 18.1483 142.686 15.0643C153.081 11.6693 158.89 8.13209 163.555 5.29698C168.22 2.45297 172.256 0 177.888 0C179.058 0 180.238 0.106637 181.498 0.319937C201.338 3.72385 211.129 30.2264 216.983 46.064C222.89 62.0437 225.701 78.9566 225.364 96.3495C227.874 101.789 229.755 107.494 230.961 113.325C232.947 122.941 233.098 132.762 231.422 142.556C235.484 148.377 238.677 154.705 240.912 161.397C244.619 172.471 245.63 184.478 243.874 196.29C253.471 209.808 266.854 234.613 260.282 261.293C260.131 261.906 259.874 262.493 259.528 263.026C249.87 277.824 238.908 290.4 226.925 300.416C219.608 306.539 213.87 311.516 202.446 321.444C191.679 330.793 190.588 331.94 189.817 333.619C187.493 338.676 188.575 343.005 190.854 350.835C192.344 355.945 194.03 361.74 194.526 368.858C195.44 381.959 191.883 395.583 183.963 409.35C183.041 410.959 181.382 412.007 179.537 412.15L143.733 414.967C143.6 414.994 143.449 415.002 143.298 415.002Z" fill="url(#paint10_radial_208_569)"/>
<path d="M109.667 153.389C117.773 159.912 125.8 163.53 131.609 165.565C131.831 162.294 132.061 159.024 132.283 155.753C127.476 154.82 119.538 152.634 111.352 146.954C100.718 139.587 95.3963 130.308 93.1169 125.642C91.0947 124.629 89.0637 123.616 87.0415 122.594C89.8087 129.482 96.1413 142.502 109.667 153.389Z" fill="url(#paint11_radial_208_569)"/>
<path d="M153.897 106.703C160.043 105.459 168.602 103.015 177.87 97.9048C185.932 93.4611 191.946 88.4307 196.105 84.3691C194.527 84.0314 192.957 83.6937 191.378 83.356C187.857 86.1022 183.369 89.1151 177.87 91.8169C169.046 96.1451 160.904 98.047 154.917 98.918C154.571 101.513 154.234 104.108 153.897 106.703Z" fill="url(#paint12_radial_208_569)"/>
<path d="M151.192 224.437C151.644 230.756 152.097 237.066 152.54 243.385C160.913 240.665 173.631 235.422 186.642 225.112C200.478 214.154 208.762 202.138 213.312 194.326C210.952 194.886 208.584 195.455 206.225 196.015C200.54 202.396 189.862 212.572 173.48 219.015C165.037 222.348 157.303 223.806 151.192 224.437Z" fill="url(#paint13_radial_208_569)"/>
<path d="M147.822 156.438C147.484 159.371 147.147 162.304 146.81 165.237C153.178 163.37 160.584 160.606 168.416 156.438C183.786 148.261 194.447 138.059 201.161 130.389C199.245 130.949 197.338 131.517 195.422 132.077C188.46 137.836 178.828 144.546 166.385 150.003C159.706 152.945 153.418 154.989 147.822 156.438Z" fill="url(#paint14_radial_208_569)"/>
<path d="M213.586 242.096C208.956 249.757 199.44 263.088 182.624 273.167C173.187 278.828 164.256 281.779 157.471 283.405C158.083 289.68 158.686 295.963 159.298 302.238C167.874 298.256 179.014 291.937 190.251 281.983C207.005 267.132 216.291 250.966 221.204 240.558C218.668 241.074 216.122 241.589 213.586 242.096Z" fill="url(#paint15_radial_208_569)"/>
<path d="M119.795 91.4793C127.166 99.9847 135.919 103.371 140.052 104.677C140.726 102.198 141.401 99.718 142.075 97.2384C138.554 96.4119 130.979 94.1189 124.185 87.4266C114.846 78.2369 113.356 67.0209 113.046 63.7414C111.698 62.6127 110.341 61.4839 108.993 60.3552C108.877 64.0347 108.833 78.8324 119.795 91.4793Z" fill="url(#paint16_radial_208_569)"/>
<path d="M137.693 244.398C136.788 237.403 135.892 230.418 134.988 223.423C128.921 221.255 121.639 217.975 114.056 212.936C99.0497 202.964 90.0032 190.842 85.0187 182.825C82.8813 182.709 80.7438 182.603 78.6063 182.487C84.3003 193.606 93.9145 209.025 109.666 223.761C119.608 233.057 129.453 239.696 137.693 244.398Z" fill="url(#paint17_radial_208_569)"/>
<path d="M142.758 284.649C133.667 280.81 123.263 275.584 112.372 268.412C94.7222 256.778 81.8176 243.998 72.8686 233.564C70.8464 233.448 68.8154 233.342 66.7932 233.226C73.924 245.313 86.1812 262.653 105.959 278.561C119.893 289.768 133.454 296.95 144.106 301.562C143.653 295.927 143.21 290.293 142.758 284.649Z" fill="url(#paint18_radial_208_569)"/>
<path d="M147.52 161.735C147.157 121.359 154.917 86.7508 154.917 86.7508C159.556 66.0518 165.507 49.6277 169.773 39.0515L165.72 38.0383C161.596 47.2547 155.644 61.4747 149.853 79.3119C149.853 79.3119 137.711 116.711 132.079 161.042C126.403 205.701 125.915 334.864 139.165 509.041C140.434 525.652 154.908 538.396 171.467 536.877C171.91 536.832 172.354 536.788 172.797 536.735C173.241 536.681 173.693 536.61 174.128 536.539C193.374 533.393 205.702 514.196 201.294 495.159C153.055 286.96 147.857 199.604 147.52 161.735Z" fill="url(#paint19_radial_208_569)"/>
<path d="M137.506 192.121C137.116 195.961 146.988 203.293 156.38 200.093C163.413 197.694 168.336 190.024 166.58 186.833C163.493 181.243 138.11 186.238 137.506 192.121Z" fill="#534741"/>
<path d="M124.522 181.02C119.387 176.906 111.893 177.75 107.786 182.896C103.68 188.042 104.522 195.551 109.658 199.666C114.793 203.781 122.287 202.937 126.394 197.791C130.5 192.645 129.666 185.135 124.522 181.02ZM124.682 196.423C121.329 200.626 115.219 201.302 111.032 197.951L123.156 182.745C127.352 186.095 128.034 192.219 124.682 196.423Z" fill="#534741"/>
<path d="M193.754 173.271C188.619 169.156 181.125 170 177.018 175.146C172.912 180.292 173.754 187.802 178.89 191.917C184.025 196.032 191.519 195.188 195.626 190.042C199.732 184.887 198.89 177.386 193.754 173.271ZM193.914 188.664C190.562 192.868 184.451 193.543 180.264 190.193L192.389 174.986C196.575 178.346 197.258 184.469 193.914 188.664Z" fill="#534741"/>
<defs>
<radialGradient id="paint0_radial_208_569" cx="0" cy="0" r="1" gradientUnits="userSpaceOnUse" gradientTransform="translate(160.504 259.414) scale(178.67 238.374)">
<stop stop-color="#5AA668"/>
<stop offset="0.4873" stop-color="#56965F"/>
<stop offset="1" stop-color="#508054"/>
</radialGradient>
<radialGradient id="paint1_radial_208_569" cx="0" cy="0" r="1" gradientUnits="userSpaceOnUse" gradientTransform="translate(266.46 651.742) rotate(-128.396) scale(91.0495 159.171)">
<stop stop-color="#C8DE90"/>
<stop offset="0.457" stop-color="#B8DE8E"/>
<stop offset="1" stop-color="#9FDE8C"/>
</radialGradient>
<radialGradient id="paint2_radial_208_569" cx="0" cy="0" r="1" gradientUnits="userSpaceOnUse" gradientTransform="translate(-0.588362 607.675) rotate(-51.6043) scale(71.666 125.285)">
<stop stop-color="#C8DE90"/>
<stop offset="0.457" stop-color="#B8DE8E"/>
<stop offset="1" stop-color="#9FDE8C"/>
</radialGradient>
<radialGradient id="paint3_radial_208_569" cx="0" cy="0" r="1" gradientUnits="userSpaceOnUse" gradientTransform="translate(-283.596 807.342) rotate(-51.6043) scale(164.868 288.22)">
<stop stop-color="#C8DE90"/>
<stop offset="0.457" stop-color="#B8DE8E"/>
<stop offset="1" stop-color="#9FDE8C"/>
</radialGradient>
<radialGradient id="paint4_radial_208_569" cx="0" cy="0" r="1" gradientUnits="userSpaceOnUse" gradientTransform="translate(79.3594 642.703) rotate(-51.6043) scale(86.7997 151.742)">
<stop stop-color="#C8DE90"/>
<stop offset="0.457" stop-color="#B8DE8E"/>
<stop offset="1" stop-color="#9FDE8C"/>
</radialGradient>
<radialGradient id="paint5_radial_208_569" cx="0" cy="0" r="1" gradientUnits="userSpaceOnUse" gradientTransform="translate(590.658 648.394) rotate(-128.396) scale(149.491 261.337)">
<stop stop-color="#C8DE90"/>
<stop offset="0.457" stop-color="#B8DE8E"/>
<stop offset="1" stop-color="#9FDE8C"/>
</radialGradient>
<radialGradient id="paint6_radial_208_569" cx="0" cy="0" r="1" gradientUnits="userSpaceOnUse" gradientTransform="translate(635.459 814.202) rotate(-128.396) scale(173.463 303.246)">
<stop stop-color="#C8DE90"/>
<stop offset="0.457" stop-color="#B8DE8E"/>
<stop offset="1" stop-color="#9FDE8C"/>
</radialGradient>
<radialGradient id="paint7_radial_208_569" cx="0" cy="0" r="1" gradientUnits="userSpaceOnUse" gradientTransform="translate(399.146 692.6) rotate(-128.396) scale(100.208 175.181)">
<stop stop-color="#C8DE90"/>
<stop offset="0.457" stop-color="#B8DE8E"/>
<stop offset="1" stop-color="#9FDE8C"/>
</radialGradient>
<radialGradient id="paint8_radial_208_569" cx="0" cy="0" r="1" gradientUnits="userSpaceOnUse" gradientTransform="translate(181.789 447.329) rotate(-79.895) scale(252.632 335.721)">
<stop stop-color="#C8DE90"/>
<stop offset="0.457" stop-color="#B8DE8E"/>
<stop offset="1" stop-color="#9FDE8C"/>
</radialGradient>
<radialGradient id="paint9_radial_208_569" cx="0" cy="0" r="1" gradientUnits="userSpaceOnUse" gradientTransform="translate(131.451 429.858) rotate(-100.105) scale(238.005 316.283)">
<stop stop-color="#C8DE90"/>
<stop offset="0.457" stop-color="#B8DE8E"/>
<stop offset="1" stop-color="#9FDE8C"/>
</radialGradient>
<radialGradient id="paint10_radial_208_569" cx="0" cy="0" r="1" gradientUnits="userSpaceOnUse" gradientTransform="translate(148.928 207.47) scale(150.249 230.745)">
<stop stop-color="#4CCC4F"/>
<stop offset="0.4873" stop-color="#56BC5E"/>
<stop offset="1" stop-color="#64A671"/>
</radialGradient>
<radialGradient id="paint11_radial_208_569" cx="0" cy="0" r="1" gradientUnits="userSpaceOnUse" gradientTransform="translate(138.18 321.251) rotate(-96.6565) scale(56.7602 99.0835)">
<stop stop-color="#E6FFA6"/>
<stop offset="0.4072" stop-color="#D6FFA4"/>
<stop offset="1" stop-color="#B7FFA1"/>
</radialGradient>
<radialGradient id="paint12_radial_208_569" cx="0" cy="0" r="1" gradientUnits="userSpaceOnUse" gradientTransform="translate(138.18 321.251) rotate(-96.6565) scale(56.7601 99.0832)">
<stop stop-color="#E6FFA6"/>
<stop offset="0.4072" stop-color="#D6FFA4"/>
<stop offset="1" stop-color="#B7FFA1"/>
</radialGradient>
<radialGradient id="paint13_radial_208_569" cx="0" cy="0" r="1" gradientUnits="userSpaceOnUse" gradientTransform="translate(138.18 321.252) rotate(-96.6565) scale(56.7602 99.0835)">
<stop stop-color="#E6FFA6"/>
<stop offset="0.4072" stop-color="#D6FFA4"/>
<stop offset="1" stop-color="#B7FFA1"/>
</radialGradient>
<radialGradient id="paint14_radial_208_569" cx="0" cy="0" r="1" gradientUnits="userSpaceOnUse" gradientTransform="translate(138.18 321.251) rotate(-96.6565) scale(56.7602 99.0835)">
<stop stop-color="#E6FFA6"/>
<stop offset="0.4072" stop-color="#D6FFA4"/>
<stop offset="1" stop-color="#B7FFA1"/>
</radialGradient>
<radialGradient id="paint15_radial_208_569" cx="0" cy="0" r="1" gradientUnits="userSpaceOnUse" gradientTransform="translate(147.645 331.506) rotate(-107.986) scale(56.7569 99.1036)">
<stop stop-color="#E6FFA6"/>
<stop offset="0.4072" stop-color="#D6FFA4"/>
<stop offset="1" stop-color="#B7FFA1"/>
</radialGradient>
<radialGradient id="paint16_radial_208_569" cx="0" cy="0" r="1" gradientUnits="userSpaceOnUse" gradientTransform="translate(138.18 321.252) rotate(-96.6565) scale(56.7602 99.0835)">
<stop stop-color="#E6FFA6"/>
<stop offset="0.4072" stop-color="#D6FFA4"/>
<stop offset="1" stop-color="#B7FFA1"/>
</radialGradient>
<radialGradient id="paint17_radial_208_569" cx="0" cy="0" r="1" gradientUnits="userSpaceOnUse" gradientTransform="translate(138.18 321.252) rotate(-96.6565) scale(56.7602 99.0835)">
<stop stop-color="#E6FFA6"/>
<stop offset="0.4072" stop-color="#D6FFA4"/>
<stop offset="1" stop-color="#B7FFA1"/>
</radialGradient>
<radialGradient id="paint18_radial_208_569" cx="0" cy="0" r="1" gradientUnits="userSpaceOnUse" gradientTransform="translate(138.18 321.251) rotate(-96.6565) scale(56.7602 99.0835)">
<stop stop-color="#E6FFA6"/>
<stop offset="0.4072" stop-color="#D6FFA4"/>
<stop offset="1" stop-color="#B7FFA1"/>
</radialGradient>
<radialGradient id="paint19_radial_208_569" cx="0" cy="0" r="1" gradientUnits="userSpaceOnUse" gradientTransform="translate(147.727 499.385) rotate(-81.8873) scale(212.204 281.978)">
<stop stop-color="#E6FFA6"/>
<stop offset="0.4072" stop-color="#D6FFA4"/>
<stop offset="1" stop-color="#B7FFA1"/>
</radialGradient>
</defs>
</svg>
