<svg width="336" height="537" viewBox="0 0 336 537" fill="none" xmlns="http://www.w3.org/2000/svg">
<path d="M330.777 247.027C333.607 232.765 332.916 220.527 331.739 212.08C333.752 207.001 337.306 196.049 335.466 182.164C333.354 166.219 325.359 155.61 321.854 151.448C320.06 126.481 311.494 113.985 304.066 107.196C300.05 103.523 287.236 89.4627 269.776 88.4426C237.261 86.5448 226.278 131.049 193.09 137.867C176.178 141.336 151.222 135.487 115.025 96.9162C93.1124 84.8524 68.2963 86.6956 53.821 100.485C43.9706 109.87 41.6715 122.167 41.0125 127.768C35.5135 134.269 28.407 144.256 23.183 157.823C15.2601 178.426 15.7592 196.725 16.7861 206.683C4.09686 239.302 7.48552 262.297 10.4971 273.885C17.5763 301.106 30.0958 319.856 30.0958 319.856C31.9024 326.191 34.2343 336.074 35.0065 348.382C35.8892 362.415 33.9201 366.48 35.5876 374.19C39.1812 390.823 54.6 400.726 63.5321 406.463C90.3831 423.706 106.019 414.398 121.398 431.303C131.789 442.728 127.588 450.198 137.03 455.61C157.251 467.202 191.143 441.278 194.565 438.606C207.889 428.193 215.744 416.351 220.042 408.64C235.703 398.479 258.967 380.604 279.557 351.923C295.798 329.31 304.888 307.611 310.091 291.752C316.299 283.883 326.483 268.682 330.777 247.027Z" fill="url(#paint0_radial_208_644)"/>
<path d="M87.4968 336.046C98.2052 327.28 110.162 315.843 121.643 301.168C126.629 294.792 130.958 288.534 134.699 282.565C133.098 282.74 131.497 282.915 129.894 283.099C128.656 284.96 127.203 286.962 125.524 289.028C123.808 291.14 121.891 293.287 119.738 295.395C107.924 306.958 94.4276 312.39 84.5715 315.1C85.5402 322.083 86.5195 329.06 87.4968 336.046Z" fill="url(#paint1_radial_208_644)"/>
<path d="M83.6269 353.092C72.4606 345.555 55.2899 331.513 43.3787 308.432C39.5117 300.94 36.851 293.759 34.9973 287.307C36.5139 287.849 38.0306 288.391 39.5472 288.942C42.8909 296.861 48.78 308.157 59.0505 319.328C66.4917 327.416 74.0482 333.068 80.1147 336.917C81.2854 342.303 82.4561 347.697 83.6269 353.092Z" fill="url(#paint2_radial_208_644)"/>
<path d="M69.5869 282.738C59.9728 268.367 49.2855 249.339 40.7977 225.752C35.7068 211.603 32.3365 198.396 30.0837 186.7C31.6004 187.242 33.117 187.784 34.6336 188.335C37.6048 198.974 42.3054 212.189 49.924 226.463C57.312 240.301 65.3918 251.277 72.3896 259.524C71.4583 267.256 70.5182 274.997 69.5869 282.738Z" fill="url(#paint3_radial_208_644)"/>
<path d="M224.043 348.87C214.251 337.441 203.342 322.199 194.331 302.797C190.908 295.43 188.158 288.338 185.95 281.672C187.467 282.214 188.983 282.756 190.5 283.307C191.271 285.405 192.22 287.689 193.373 290.088C193.373 290.088 195.165 293.803 197.524 297.625C200.549 302.504 211.6 315.498 228.247 331.282C226.854 337.148 225.444 343.005 224.043 348.87Z" fill="url(#paint4_radial_208_644)"/>
<path d="M241.595 189.873C249.081 176.577 256.868 159.255 261.79 138.174C263.493 130.869 264.673 123.919 265.462 117.413C263.821 117.644 262.189 117.884 260.549 118.115C260.371 122.603 259.812 127.616 258.588 133.002C254.526 150.901 245.232 163.61 238.784 170.88C239.724 177.208 240.655 183.536 241.595 189.873Z" fill="url(#paint5_radial_208_644)"/>
<path d="M249.367 269.092C257.505 261.912 269.351 249.678 278.849 231.493C290.136 209.883 292.827 189.967 293.514 178.428C292.097 178.532 290.671 178.644 289.255 178.748C287.737 187.954 284.094 202.742 274.39 218.374C266.487 231.116 257.42 239.809 250.813 245.209C250.334 253.17 249.846 261.13 249.367 269.092Z" fill="url(#paint6_radial_208_644)"/>
<path d="M227.583 346.24C237.353 340.913 255.357 329.315 269.146 307.61C277.307 294.757 281.372 282.497 283.504 273.588C281.807 274.139 280.119 274.691 278.421 275.243C276.164 281.794 272.153 290.891 264.886 300.157C253.914 314.157 241.101 321.423 233.743 324.889C231.692 332.012 229.642 339.127 227.583 346.24Z" fill="url(#paint7_radial_208_644)"/>
<path d="M239.694 278.165C246.134 257.152 248.861 241.751 252.503 221.159C260.002 178.736 262.328 142.983 262.99 117.709C264.435 115.912 265.873 114.103 267.318 112.306C271.858 173.194 273.352 316.268 178.241 426.398C164.281 442.562 149.497 456.56 134.458 468.699C132.671 457.071 130.894 445.445 129.105 433.826C134.66 430.382 141.674 425.714 150.071 418.957C150.071 418.957 165.522 406.715 179.277 391.573C195.186 374.066 220.184 334.536 239.694 278.165Z" fill="url(#paint8_radial_208_644)"/>
<path d="M135.476 144.139C131.464 141.111 127.444 138.081 123.432 135.052C113.211 149.806 35.0262 266.39 81.479 381.256C92.5894 408.72 108.577 430.53 124.825 447.448C125.464 434.722 126.094 421.994 126.733 409.268C113.802 394.284 105.276 379.502 99.531 366.36C56.5025 268.041 124.619 160.707 135.476 144.139Z" fill="url(#paint9_radial_208_644)"/>
<path d="M106.814 408.923C105.268 408.523 103.961 407.486 103.233 406.049C92.3701 384.881 88.4461 365.117 91.5873 347.294C91.949 345.221 92.4049 343.209 92.843 341.266C94.2739 334.88 95.6308 328.851 93.914 320.997C92.2533 313.388 88.6881 308.644 84.1677 302.634C82.9553 301.016 81.6938 299.34 80.3907 297.506C79.8315 296.727 66.6913 278.026 58.6733 250.425C52.6701 229.773 54.0698 205.752 62.6982 180.878C60.6654 163.863 62.5421 146.502 68.1388 130.592C72.0712 119.419 77.7829 108.983 85.1038 99.5517C86.4959 91.8978 89.8805 81.1432 98.0158 70.7937C107.104 59.2406 118.061 53.2124 126.208 50.1187C138.16 33.4047 151.698 23.3817 166.473 20.3075C174.171 18.704 179.513 19.5473 185.166 20.434C190.431 21.2573 196.399 22.1983 206.307 21.5807C217.219 20.9023 223.728 18.9355 228.953 17.3614C234.181 15.7788 238.702 14.4166 244.154 15.8298C245.287 16.1236 246.402 16.5229 247.568 17.0454C265.923 25.3194 268.77 53.4342 270.473 70.2357C272.192 87.1883 270.681 104.268 266.003 121.021C267.071 126.917 267.463 132.913 267.172 138.86C266.689 148.668 264.377 158.214 260.304 167.275C262.779 173.93 264.286 180.857 264.775 187.897C265.593 199.548 263.567 211.426 258.911 222.42C264.818 237.915 271.567 265.288 258.528 289.469C258.228 290.025 257.833 290.528 257.364 290.958C244.311 302.86 230.552 312.284 216.446 318.974C207.83 323.066 201.029 326.445 187.486 333.189C174.723 339.539 173.38 340.375 172.213 341.808C168.698 346.12 168.662 350.582 168.909 358.734C169.073 364.056 169.254 370.089 167.954 377.105C165.56 390.017 158.707 402.315 147.595 413.655C146.299 414.981 144.431 415.58 142.61 415.255L107.243 408.998C107.108 408.99 106.96 408.961 106.814 408.923Z" fill="url(#paint10_radial_208_644)"/>
<path d="M139.726 147.21C145.941 155.56 152.806 161.076 157.92 164.504C158.953 161.393 159.995 158.285 161.028 155.174C156.608 153.064 149.471 148.956 142.967 141.404C134.517 131.602 131.687 121.284 130.648 116.195C128.944 114.707 127.232 113.216 125.53 111.719C126.485 119.082 129.357 133.276 139.726 147.21Z" fill="url(#paint11_radial_208_644)"/>
<path d="M194.227 113.112C200.489 113.45 209.386 113.231 219.637 110.61C228.554 108.331 235.634 104.969 240.677 102.081C239.233 101.358 237.798 100.637 236.354 99.914C232.258 101.689 227.16 103.48 221.16 104.716C211.534 106.692 203.176 106.49 197.163 105.831C196.179 108.256 195.203 110.684 194.227 113.112Z" fill="url(#paint12_radial_208_644)"/>
<path d="M162.146 226.413C161.002 232.644 159.861 238.867 158.709 245.096C167.495 244.564 181.119 242.679 196.295 235.963C212.431 228.826 223.457 219.271 229.817 212.85C227.393 212.8 224.958 212.757 222.534 212.707C215.434 217.458 202.55 224.63 185.079 226.758C176.071 227.865 168.219 227.336 162.146 226.413Z" fill="url(#paint13_radial_208_644)"/>
<path d="M175.9 159.736C174.84 162.491 173.779 165.246 172.719 168.001C179.351 167.792 187.212 166.974 195.836 164.904C212.762 160.845 225.635 153.643 234.054 147.902C232.06 147.963 230.071 148.035 228.077 148.097C219.896 151.925 208.892 156.004 195.48 158.165C188.279 159.337 181.68 159.738 175.9 159.736Z" fill="url(#paint14_radial_208_644)"/>
<path d="M218.128 259.166C211.729 265.421 199.18 275.939 180.379 281.477C169.827 284.59 160.442 285.205 153.467 285.077C152.489 291.305 151.501 297.54 150.523 303.768C159.822 302.065 172.187 298.743 185.556 291.926C205.492 281.753 218.527 268.432 225.888 259.589C223.303 259.452 220.71 259.312 218.128 259.166Z" fill="url(#paint15_radial_208_644)"/>
<path d="M165.025 89.8156C170.031 99.8993 177.658 105.374 181.332 107.676C182.605 105.445 183.878 103.213 185.151 100.982C181.949 99.298 175.191 95.1775 170.289 86.9938C163.548 75.7535 164.912 64.5211 165.432 61.2682C164.41 59.8372 163.378 58.404 162.356 56.9729C161.323 60.5061 157.577 74.821 165.025 89.8156Z" fill="url(#paint16_radial_208_644)"/>
<path d="M144.082 242.35C144.956 235.352 145.837 228.364 146.712 221.366C141.382 217.744 135.153 212.742 129.074 205.96C117.042 192.541 111.318 178.535 108.499 169.523C106.458 168.875 104.416 168.235 102.375 167.587C105.105 179.78 110.554 197.12 122.115 215.339C129.413 226.834 137.282 235.731 144.082 242.35Z" fill="url(#paint17_radial_208_644)"/>
<path d="M138.912 282.59C131.072 276.592 122.308 268.922 113.56 259.245C99.3853 243.553 90.0911 227.942 84.039 215.595C82.1103 214.976 80.1709 214.363 78.2422 213.744C82.1205 227.235 89.6469 247.098 104.812 267.462C115.496 281.808 126.827 292.163 135.984 299.302C136.956 293.733 137.937 288.167 138.912 282.59Z" fill="url(#paint18_radial_208_644)"/>
<path d="M174.283 164.789C184.035 125.609 200.208 94.0511 200.208 94.0511C209.878 75.1759 219.75 60.7687 226.526 51.6002L222.856 49.6022C216.557 57.4899 207.237 69.7633 197.167 85.5786C197.167 85.5786 176.054 118.738 159.508 160.243C142.837 202.055 110.041 326.977 79.2806 498.927C76.3515 515.327 87.1744 531.297 103.585 533.981C104.025 534.049 104.465 534.118 104.908 534.177C105.351 534.237 105.806 534.281 106.245 534.322C125.664 536.105 142.402 520.614 142.899 501.078C148.302 287.411 165.132 201.536 174.283 164.789Z" fill="url(#paint19_radial_208_644)"/>
<path d="M156.984 191.694C155.646 195.313 163.367 204.888 173.26 204.148C180.669 203.589 187.354 197.399 186.452 193.869C184.863 187.683 159.041 186.149 156.984 191.694Z" fill="#534741"/>
<path d="M147.193 177.689C143.251 172.416 135.785 171.353 130.522 175.305C125.259 179.256 124.195 186.738 128.137 192.01C132.078 197.283 139.544 198.346 144.807 194.395C150.07 190.443 151.143 182.963 147.193 177.689ZM143.493 192.64C139.195 195.869 133.111 194.989 129.897 190.695L145.439 179.015C148.662 183.312 147.79 189.411 143.493 192.64Z" fill="#534741"/>
<path d="M216.16 187.559C212.219 182.287 204.752 181.224 199.489 185.175C194.226 189.126 193.162 196.608 197.104 201.881C201.045 207.153 208.512 208.216 213.775 204.265C219.04 200.305 220.101 192.832 216.16 187.559ZM212.462 202.502C208.165 205.73 202.08 204.851 198.866 200.557L214.409 188.877C217.62 193.18 216.749 199.28 212.462 202.502Z" fill="#534741"/>
<defs>
<radialGradient id="paint0_radial_208_644" cx="0" cy="0" r="1" gradientUnits="userSpaceOnUse" gradientTransform="translate(160.508 259.417) rotate(16.1724) scale(178.686 238.353)">
<stop stop-color="#5AA668"/>
<stop offset="0.4873" stop-color="#56965F"/>
<stop offset="1" stop-color="#508054"/>
</radialGradient>
<radialGradient id="paint1_radial_208_644" cx="0" cy="0" r="1" gradientUnits="userSpaceOnUse" gradientTransform="translate(182.385 668.622) rotate(-114.974) scale(91.0495 159.171)">
<stop stop-color="#C8DE90"/>
<stop offset="0.457" stop-color="#B8DE8E"/>
<stop offset="1" stop-color="#9FDE8C"/>
</radialGradient>
<radialGradient id="paint2_radial_208_644" cx="0" cy="0" r="1" gradientUnits="userSpaceOnUse" gradientTransform="translate(-0.58824 607.675) rotate(-51.6043) scale(71.666 125.285)">
<stop stop-color="#C8DE90"/>
<stop offset="0.457" stop-color="#B8DE8E"/>
<stop offset="1" stop-color="#9FDE8C"/>
</radialGradient>
<radialGradient id="paint3_radial_208_644" cx="0" cy="0" r="1" gradientUnits="userSpaceOnUse" gradientTransform="translate(-283.596 807.342) rotate(-51.6043) scale(164.868 288.22)">
<stop stop-color="#C8DE90"/>
<stop offset="0.457" stop-color="#B8DE8E"/>
<stop offset="1" stop-color="#9FDE8C"/>
</radialGradient>
<radialGradient id="paint4_radial_208_644" cx="0" cy="0" r="1" gradientUnits="userSpaceOnUse" gradientTransform="translate(79.3594 642.703) rotate(-51.6043) scale(86.7997 151.742)">
<stop stop-color="#C8DE90"/>
<stop offset="0.457" stop-color="#B8DE8E"/>
<stop offset="1" stop-color="#9FDE8C"/>
</radialGradient>
<radialGradient id="paint5_radial_208_644" cx="0" cy="0" r="1" gradientUnits="userSpaceOnUse" gradientTransform="translate(590.658 648.394) rotate(-128.396) scale(149.491 261.337)">
<stop stop-color="#C8DE90"/>
<stop offset="0.457" stop-color="#B8DE8E"/>
<stop offset="1" stop-color="#9FDE8C"/>
</radialGradient>
<radialGradient id="paint6_radial_208_644" cx="0" cy="0" r="1" gradientUnits="userSpaceOnUse" gradientTransform="translate(584.25 845.713) rotate(-123.23) scale(173.463 303.246)">
<stop stop-color="#C8DE90"/>
<stop offset="0.457" stop-color="#B8DE8E"/>
<stop offset="1" stop-color="#9FDE8C"/>
</radialGradient>
<radialGradient id="paint7_radial_208_644" cx="0" cy="0" r="1" gradientUnits="userSpaceOnUse" gradientTransform="translate(359.845 703.328) rotate(-123.23) scale(100.208 175.181)">
<stop stop-color="#C8DE90"/>
<stop offset="0.457" stop-color="#B8DE8E"/>
<stop offset="1" stop-color="#9FDE8C"/>
</radialGradient>
<radialGradient id="paint8_radial_208_644" cx="0" cy="0" r="1" gradientUnits="userSpaceOnUse" gradientTransform="translate(141.849 440.045) rotate(-65.1679) scale(252.592 335.774)">
<stop stop-color="#C8DE90"/>
<stop offset="0.457" stop-color="#B8DE8E"/>
<stop offset="1" stop-color="#9FDE8C"/>
</radialGradient>
<radialGradient id="paint9_radial_208_644" cx="0" cy="0" r="1" gradientUnits="userSpaceOnUse" gradientTransform="translate(109.094 426.45) rotate(-90.9168) scale(238.02 316.263)">
<stop stop-color="#C8DE90"/>
<stop offset="0.457" stop-color="#B8DE8E"/>
<stop offset="1" stop-color="#9FDE8C"/>
</radialGradient>
<radialGradient id="paint10_radial_208_644" cx="0" cy="0" r="1" gradientUnits="userSpaceOnUse" gradientTransform="translate(164.199 209.419) rotate(14.5319) scale(150.257 230.732)">
<stop stop-color="#4CCC4F"/>
<stop offset="0.4873" stop-color="#56BC5E"/>
<stop offset="1" stop-color="#64A671"/>
</radialGradient>
<radialGradient id="paint11_radial_208_644" cx="0" cy="0" r="1" gradientUnits="userSpaceOnUse" gradientTransform="translate(125.321 316.876) rotate(-82.1635) scale(56.7615 99.0812)">
<stop stop-color="#E6FFA6"/>
<stop offset="0.4072" stop-color="#D6FFA4"/>
<stop offset="1" stop-color="#B7FFA1"/>
</radialGradient>
<radialGradient id="paint12_radial_208_644" cx="0" cy="0" r="1" gradientUnits="userSpaceOnUse" gradientTransform="translate(125.321 316.876) rotate(-82.1635) scale(56.7614 99.081)">
<stop stop-color="#E6FFA6"/>
<stop offset="0.4072" stop-color="#D6FFA4"/>
<stop offset="1" stop-color="#B7FFA1"/>
</radialGradient>
<radialGradient id="paint13_radial_208_644" cx="0" cy="0" r="1" gradientUnits="userSpaceOnUse" gradientTransform="translate(125.322 316.877) rotate(-82.1635) scale(56.7615 99.0812)">
<stop stop-color="#E6FFA6"/>
<stop offset="0.4072" stop-color="#D6FFA4"/>
<stop offset="1" stop-color="#B7FFA1"/>
</radialGradient>
<radialGradient id="paint14_radial_208_644" cx="0" cy="0" r="1" gradientUnits="userSpaceOnUse" gradientTransform="translate(125.321 316.876) rotate(-82.1635) scale(56.7615 99.0812)">
<stop stop-color="#E6FFA6"/>
<stop offset="0.4072" stop-color="#D6FFA4"/>
<stop offset="1" stop-color="#B7FFA1"/>
</radialGradient>
<radialGradient id="paint15_radial_208_644" cx="0" cy="0" r="1" gradientUnits="userSpaceOnUse" gradientTransform="translate(131.918 329.179) rotate(-93.491) scale(56.7656 99.0885)">
<stop stop-color="#E6FFA6"/>
<stop offset="0.4072" stop-color="#D6FFA4"/>
<stop offset="1" stop-color="#B7FFA1"/>
</radialGradient>
<radialGradient id="paint16_radial_208_644" cx="0" cy="0" r="1" gradientUnits="userSpaceOnUse" gradientTransform="translate(125.322 316.877) rotate(-82.1635) scale(56.7615 99.0812)">
<stop stop-color="#E6FFA6"/>
<stop offset="0.4072" stop-color="#D6FFA4"/>
<stop offset="1" stop-color="#B7FFA1"/>
</radialGradient>
<radialGradient id="paint17_radial_208_644" cx="0" cy="0" r="1" gradientUnits="userSpaceOnUse" gradientTransform="translate(125.32 316.877) rotate(-82.1635) scale(56.7615 99.0812)">
<stop stop-color="#E6FFA6"/>
<stop offset="0.4072" stop-color="#D6FFA4"/>
<stop offset="1" stop-color="#B7FFA1"/>
</radialGradient>
<radialGradient id="paint18_radial_208_644" cx="0" cy="0" r="1" gradientUnits="userSpaceOnUse" gradientTransform="translate(125.321 316.877) rotate(-82.1635) scale(56.7615 99.0812)">
<stop stop-color="#E6FFA6"/>
<stop offset="0.4072" stop-color="#D6FFA4"/>
<stop offset="1" stop-color="#B7FFA1"/>
</radialGradient>
<radialGradient id="paint19_radial_208_644" cx="0" cy="0" r="1" gradientUnits="userSpaceOnUse" gradientTransform="translate(89.985 491.727) rotate(-67.3924) scale(212.172 282.02)">
<stop stop-color="#E6FFA6"/>
<stop offset="0.4072" stop-color="#D6FFA4"/>
<stop offset="1" stop-color="#B7FFA1"/>
</radialGradient>
</defs>
</svg>
