<svg width="455" height="455" viewBox="0 0 455 455" fill="none" xmlns="http://www.w3.org/2000/svg">
<path d="M428.411 200.902H385.429C381.347 176.487 371.753 153.962 357.953 134.615L388.358 104.209C398.733 93.8258 398.733 76.9989 388.358 66.6152C377.974 56.2404 361.148 56.2404 350.764 66.6152L320.358 97.0208C301.011 83.2291 278.486 73.6264 254.071 69.544V26.5804C254.08 11.9013 242.179 0 227.5 0C212.821 0 200.92 11.9013 200.92 26.5804V69.5617C176.505 73.6442 153.98 83.238 134.633 97.0385L104.227 66.633C93.8435 56.2582 77.0166 56.2582 66.6329 66.633C56.2581 77.0167 56.2581 93.8435 66.6329 104.227L97.0385 134.633C83.2468 153.98 73.6442 176.505 69.5617 200.92H26.5804C11.9012 200.92 0 212.821 0 227.5C0 242.179 11.9012 254.08 26.5804 254.08H69.5617C73.6442 278.495 83.2379 301.02 97.0385 320.367L66.6329 350.773C56.2581 361.156 56.2581 377.983 66.6329 388.367C71.8248 393.55 78.6319 396.15 85.4301 396.15C92.2283 396.15 99.0353 393.55 104.227 388.367L134.633 357.962C153.98 371.753 176.505 381.356 200.92 385.438V428.42C200.92 443.099 212.821 455 227.5 455C242.179 455 254.08 443.099 254.08 428.42V385.438C278.495 381.356 301.02 371.762 320.367 357.962L350.773 388.367C355.965 393.55 362.772 396.15 369.57 396.15C376.368 396.15 383.175 393.55 388.367 388.367C398.742 377.983 398.742 361.156 388.367 350.773L357.961 320.367C371.753 301.02 381.356 278.495 385.438 254.08H428.419C443.099 254.08 455 242.179 455 227.5C454.982 212.803 443.09 200.902 428.411 200.902Z" fill="url(#paint0_radial_208_671)"/>
<path d="M150.253 199.686C143.242 199.686 137.562 205.366 137.562 212.377C137.562 219.388 143.242 225.068 150.253 225.068C157.264 225.068 162.944 219.388 162.944 212.377C162.953 205.375 157.264 199.686 150.253 199.686ZM150.253 222.734C144.537 222.734 139.896 218.102 139.896 212.377C139.896 206.662 144.528 202.02 150.253 202.02V222.734Z" fill="#733E34"/>
<path d="M224.537 199.686C217.526 199.686 211.846 205.366 211.846 212.377C211.846 219.388 217.526 225.068 224.537 225.068C231.548 225.068 237.228 219.388 237.228 212.377C237.228 205.375 231.548 199.686 224.537 199.686ZM224.537 222.734C218.821 222.734 214.18 218.102 214.18 212.377C214.18 206.662 218.812 202.02 224.537 202.02V222.734Z" fill="#733E34"/>
<path d="M186.907 226.976C179.497 226.976 174.748 219.859 174.172 218.953C173.195 217.418 173.657 215.377 175.192 214.401C176.736 213.424 178.778 213.886 179.745 215.421C179.896 215.661 183.535 221.359 188.176 220.223C191.123 219.513 193.546 216.353 194.832 213.62C195.613 211.969 197.566 211.259 199.225 212.049C200.876 212.83 201.577 214.791 200.796 216.442C199.589 218.998 196.093 225.104 189.703 226.639C188.753 226.87 187.812 226.976 186.907 226.976Z" fill="#733E34"/>
<defs>
<radialGradient id="paint0_radial_208_671" cx="0" cy="0" r="1" gradientUnits="userSpaceOnUse" gradientTransform="translate(227.5 227.485) scale(227.485)">
<stop stop-color="#FFE642"/>
<stop offset="0.3865" stop-color="#FFE442"/>
<stop offset="0.5979" stop-color="#FFDC42"/>
<stop offset="0.767" stop-color="#FFCE42"/>
<stop offset="0.9128" stop-color="#FFBB42"/>
<stop offset="1" stop-color="#FFAB42"/>
</radialGradient>
</defs>
</svg>
