<svg width="481" height="366" viewBox="0 0 481 366" fill="none" xmlns="http://www.w3.org/2000/svg">
<path d="M2 282.725H450.089" stroke="#B71E22" stroke-width="4" stroke-linecap="round" stroke-linejoin="round"/>
<path d="M156.141 208.494C130.008 242.868 107.944 250.582 92.5668 251.236C72.1182 252.096 57.6611 240.188 41.4454 248.045C28.2765 254.326 22.1828 269.344 19.0542 281.62H33.2251C38.3985 283.278 40.3003 285.713 41.0977 287.452C42.6518 291.155 40.4843 294.695 42.9586 297.334C43.4615 297.848 44.0633 298.254 44.7276 298.528C45.3918 298.803 46.1048 298.939 46.8233 298.93C47.8379 298.815 48.8116 298.465 49.6671 297.907C50.5226 297.35 51.2363 296.6 51.7514 295.718C53.5714 292.833 51.6288 290.582 52.8148 286.92C53.6021 284.775 55.03 282.925 56.9045 281.62C60.7475 282.642 64.646 283.441 68.5806 284.014C78.1953 285.368 87.9554 285.32 97.5562 283.871C102.297 289.984 105.141 297.354 105.736 305.068C106.165 315.892 101.257 320.496 100.03 338.358C99.417 348.118 100.542 351.657 102.218 354.317C104.024 357.152 106.524 359.477 109.481 361.072C112.438 362.667 115.754 363.478 119.113 363.429C122.472 363.38 125.763 362.472 128.672 360.791C131.581 359.11 134.012 356.712 135.734 353.826C138.31 349.488 138.331 345.314 138.29 340.752C138.147 325.181 130.478 320.803 132.482 309.426C133.464 303.923 136.572 297.293 140.232 297.15C143.893 297.007 148.248 303.534 149.025 309.549C149.659 314.337 147.676 316.158 149.291 320.087C150.354 322.665 152.992 326.225 156.755 326.491C161.335 326.716 164.423 321.662 164.627 321.294C167.756 315.994 164.628 311.411 165.036 304.741C165.323 300.219 167.306 293.795 175.424 286.326C180.454 288.14 185.699 289.288 191.027 289.743C203.808 290.726 216.599 287.96 227.834 281.784H412.28C411.094 274.541 408.19 264.434 399.888 258.132C390.584 251.032 381.321 253.917 369.072 250.111C360.157 247.369 348.072 240.576 336.355 222.06L156.141 208.494Z" fill="#EE7D57"/>
<path d="M456.344 87H457.779H458.516C460.48 87.3112 462.307 88.1993 463.766 89.5518C465.225 90.9043 466.251 92.6604 466.713 94.5975C466.713 95.0903 466.713 95.6242 467 96.1581V97.7187C467 97.7187 467 98.0883 467 98.2526C466.73 100.262 465.862 102.144 464.51 103.653C463.157 105.162 461.383 106.228 459.418 106.713L457.656 107H456.426H455.812C453.793 106.739 451.9 105.874 450.379 104.519C448.859 103.164 447.781 101.381 447.287 99.4025C447.287 98.7865 447.287 98.2115 447 97.5955V96.4045C447.02 96.1997 447.02 95.9933 447 95.7885C447.26 93.7164 448.158 91.7769 449.568 90.2389C450.978 88.701 452.831 87.6408 454.869 87.2054C455.357 87.1108 455.849 87.0423 456.344 87Z" fill="#EE7D57"/>
<path d="M409.051 75.9175H412.163L413.803 76.1367C418.044 76.7759 421.998 78.6615 425.163 81.5533C428.327 84.445 430.558 88.2121 431.571 92.3746C431.842 93.4967 431.959 94.6445 432.152 95.7795V99.0941C432.152 99.4811 432.023 99.868 431.984 100.268C431.398 104.566 429.529 108.588 426.619 111.809C423.71 115.03 419.896 117.301 415.675 118.324C414.384 118.608 413.196 118.737 411.957 118.917H409.309L408.018 118.737C403.682 118.19 399.615 116.341 396.355 113.434C393.094 110.528 390.794 106.701 389.759 102.46C389.491 101.182 389.289 99.8903 389.152 98.5911V96.0117C389.217 95.586 389.269 95.1604 389.32 94.7219C389.882 90.3106 391.795 86.1804 394.798 82.8972C397.8 79.614 401.746 77.3383 406.094 76.3818C407.075 76.1754 408.018 76.098 409.051 75.9175Z" fill="#EE7D57"/>
<path d="M380.564 105.536H381.566H382.097C383.477 105.741 384.765 106.352 385.796 107.292C386.827 108.233 387.554 109.459 387.884 110.815C387.884 111.183 388.007 111.552 388.068 111.94V113.004V113.393C387.887 114.797 387.284 116.112 386.338 117.165C385.392 118.217 384.148 118.957 382.772 119.286C382.363 119.286 381.954 119.429 381.566 119.49H380.686H380.257C378.847 119.31 377.525 118.707 376.463 117.761C375.401 116.816 374.649 115.571 374.307 114.191C374.307 113.761 374.163 113.352 374.102 112.943V112.104V111.674C374.274 110.225 374.895 108.866 375.878 107.787C376.861 106.709 378.156 105.964 379.582 105.659C379.909 105.659 380.175 105.659 380.564 105.536Z" fill="#EE7D57"/>
<path d="M381.324 111.798C381.324 111.819 381.305 111.83 381.266 111.83C381.119 111.83 380.896 111.817 380.598 111.792C380.301 111.767 380.078 111.754 379.93 111.754C379.742 111.754 379.633 111.761 379.602 111.774C379.529 111.808 379.493 111.901 379.493 112.056C379.493 112.241 379.54 112.347 379.634 112.372C379.673 112.382 379.732 112.387 379.812 112.387C379.947 112.387 380.148 112.38 380.416 112.366C380.686 112.351 380.888 112.343 381.022 112.343C381.087 112.343 381.119 112.515 381.119 112.858C381.119 113.157 381.108 113.331 381.087 113.38C381.073 113.415 381.047 113.433 381.008 113.433C381.033 113.433 380.972 113.426 380.823 113.412C380.614 113.393 380.298 113.383 379.874 113.383C379.737 113.383 379.66 113.384 379.643 113.386C379.543 113.401 379.493 113.443 379.493 113.512C379.493 113.789 379.505 114.108 379.528 114.47C379.548 114.796 379.558 114.941 379.558 114.906C379.558 114.957 379.496 114.986 379.373 114.994C379.406 114.992 379.319 114.991 379.112 114.991C378.747 114.991 378.512 114.979 378.406 114.953C378.35 114.939 378.321 114.909 378.321 114.862C378.321 114.646 378.328 114.32 378.342 113.887C378.357 113.451 378.365 113.125 378.365 112.908C378.365 112.65 378.354 112.326 378.33 111.936C378.295 111.332 378.276 111.008 378.274 110.963L378.271 110.928C378.27 110.879 378.299 110.854 378.359 110.854C378.504 110.854 378.722 110.857 379.013 110.863C379.306 110.869 379.525 110.872 379.672 110.872C379.828 110.872 380.062 110.86 380.375 110.837C380.689 110.813 380.925 110.802 381.081 110.802C381.179 110.802 381.233 110.842 381.245 110.922C381.245 111.006 381.249 111.132 381.257 111.3C381.261 111.343 381.273 111.426 381.295 111.549C381.314 111.656 381.324 111.739 381.324 111.798ZM384.336 113.362C384.336 113.56 384.272 113.672 384.146 113.699C384.124 113.703 383.922 113.725 383.539 113.764C383.309 113.789 382.965 113.819 382.508 113.854C382.535 113.981 382.618 114.078 382.757 114.145C382.87 114.199 382.999 114.227 383.144 114.227C383.317 114.227 383.492 114.18 383.668 114.086C383.742 114.039 383.816 113.992 383.891 113.945C383.932 113.965 384 114.064 384.096 114.244C384.193 114.424 384.242 114.538 384.242 114.587C384.242 114.601 384.228 114.623 384.198 114.654C383.96 114.91 383.59 115.038 383.088 115.038C382.623 115.038 382.248 114.902 381.963 114.631C381.67 114.355 381.523 113.987 381.523 113.526C381.523 113.077 381.654 112.709 381.916 112.422C382.186 112.125 382.543 111.977 382.988 111.977C383.363 111.977 383.682 112.113 383.943 112.387C384.205 112.66 384.336 112.985 384.336 113.362ZM383.311 113.184C383.311 113.062 383.268 112.956 383.182 112.864C383.096 112.772 382.993 112.727 382.874 112.727C382.751 112.727 382.649 112.778 382.569 112.882C382.495 112.978 382.458 113.09 382.458 113.219C382.458 113.271 382.485 113.298 382.54 113.298C382.685 113.298 382.909 113.275 383.214 113.23C383.278 113.221 383.311 113.205 383.311 113.184Z" fill="#FFF7CD"/>
<path d="M164.699 44H162.739H161.519C158.858 44.4001 156.376 45.5845 154.39 47.4023C152.403 49.2201 151.003 51.5889 150.366 54.2068C150.208 54.9263 150.092 55.6546 150.018 56.3877V58.4378C149.994 58.6844 149.994 58.9327 150.018 59.1793C150.378 61.8945 151.547 64.4378 153.374 66.4767C155.2 68.5156 157.599 69.9553 160.255 70.6074L162.608 71H164.307H165.135C167.864 70.6622 170.426 69.5006 172.481 67.6696C174.535 65.8387 175.984 63.425 176.635 60.7496C176.794 59.9421 176.911 59.1267 176.984 58.3069V56.6931C177.005 56.4318 177.005 56.1692 176.984 55.9079C176.705 53.0839 175.551 50.4179 173.685 48.2827C171.818 46.1476 169.331 44.6502 166.572 44C165.875 44 165.309 44 164.699 44Z" fill="#EE7D57"/>
<path d="M221.236 26.7529H216.908L214.631 27.0642C208.728 27.9535 203.223 30.5821 198.82 34.6148C194.416 38.6474 191.313 43.9012 189.907 49.7058C189.525 51.2765 189.369 52.8756 189.101 54.4605V59.0737C189.185 59.6114 189.27 60.1492 189.341 60.701C190.137 66.6953 192.723 72.3095 196.761 76.8089C200.799 81.3083 206.1 84.4832 211.972 85.918C213.683 86.3284 215.423 86.4982 217.149 86.7529H220.953L222.792 86.5124C228.827 85.7567 234.49 83.1883 239.036 79.1461C243.581 75.1039 246.794 69.7779 248.252 63.8709C248.662 62.1161 248.86 60.3331 249.101 58.5501V54.8709C249.016 54.2765 248.931 53.6822 248.86 53.0878C248.102 46.8977 245.435 41.0976 241.23 36.4944C237.024 31.8913 231.489 28.7137 225.395 27.4039C223.995 27.1067 222.608 26.9935 221.236 26.7529Z" fill="#EE7D57"/>
<path d="M259.775 69.6685H258.486H257.812C256.057 69.9325 254.422 70.7141 253.114 71.9132C251.807 73.1124 250.886 74.6746 250.471 76.4C250.471 76.8501 250.307 77.3412 250.225 77.8118V79.1827C250.225 79.3259 250.225 79.4896 250.225 79.6533C250.446 81.4643 251.217 83.1638 252.435 84.5216C253.653 85.8793 255.259 86.8297 257.034 87.2442C257.54 87.3558 258.053 87.4378 258.568 87.4897H259.693H260.245C262.037 87.2597 263.718 86.4913 265.065 85.2858C266.412 84.0804 267.363 82.4946 267.79 80.7377C267.904 80.2179 267.986 79.6918 268.036 79.1622V78.0982V77.5663C267.807 75.7282 267.013 74.0066 265.764 72.6395C264.515 71.2723 262.872 70.3271 261.063 69.9344L259.775 69.6685Z" fill="#EE7D57"/>
<path d="M259.199 77.0288C259.199 77.0646 259.166 77.0825 259.101 77.0825C258.857 77.0825 258.486 77.0614 257.988 77.019C257.493 76.9767 257.122 76.9556 256.875 76.9556C256.562 76.9556 256.38 76.967 256.328 76.9897C256.207 77.0451 256.147 77.2013 256.147 77.4585C256.147 77.7677 256.225 77.9435 256.381 77.9858C256.446 78.0021 256.546 78.0103 256.679 78.0103C256.904 78.0103 257.239 77.9989 257.685 77.9761C258.134 77.95 258.471 77.937 258.696 77.937C258.803 77.937 258.857 78.2235 258.857 78.7964C258.857 79.2944 258.839 79.5841 258.803 79.6655C258.78 79.7241 258.736 79.7534 258.671 79.7534C258.714 79.7534 258.611 79.742 258.364 79.7192C258.015 79.6867 257.488 79.6704 256.782 79.6704C256.554 79.6704 256.425 79.672 256.396 79.6753C256.23 79.7013 256.147 79.7713 256.147 79.8853C256.147 80.3475 256.167 80.8797 256.206 81.4819C256.238 82.0256 256.254 82.2681 256.254 82.2095C256.254 82.2941 256.152 82.3429 255.947 82.356C256.002 82.3527 255.857 82.3511 255.512 82.3511C254.903 82.3511 254.511 82.3299 254.335 82.2876C254.241 82.2648 254.194 82.2144 254.194 82.1362C254.194 81.7749 254.205 81.2329 254.228 80.5103C254.254 79.7843 254.267 79.2407 254.267 78.8794C254.267 78.4497 254.248 77.9093 254.208 77.2583C254.15 76.2524 254.119 75.7121 254.116 75.6372L254.111 75.5786C254.108 75.4972 254.156 75.4565 254.257 75.4565C254.498 75.4565 254.861 75.4614 255.346 75.4712C255.834 75.481 256.201 75.4858 256.445 75.4858C256.705 75.4858 257.096 75.4663 257.617 75.4272C258.141 75.3882 258.533 75.3687 258.793 75.3687C258.956 75.3687 259.047 75.4354 259.067 75.5688C259.067 75.7088 259.073 75.9188 259.086 76.1987C259.093 76.2703 259.114 76.4087 259.15 76.6138C259.182 76.7928 259.199 76.9312 259.199 77.0288ZM264.218 79.6362C264.218 79.965 264.112 80.1522 263.901 80.1978C263.865 80.2043 263.528 80.2401 262.89 80.3052C262.506 80.3475 261.933 80.3979 261.171 80.4565C261.217 80.6681 261.355 80.8293 261.586 80.9399C261.775 81.0311 261.99 81.0767 262.231 81.0767C262.521 81.0767 262.812 80.9985 263.105 80.8423C263.229 80.7642 263.352 80.686 263.476 80.6079C263.544 80.6405 263.658 80.8065 263.818 81.106C263.981 81.4054 264.062 81.5959 264.062 81.6772C264.062 81.7 264.038 81.7375 263.989 81.7896C263.592 82.216 262.975 82.4292 262.138 82.4292C261.363 82.4292 260.738 82.203 260.263 81.7505C259.775 81.2915 259.531 80.6779 259.531 79.9097C259.531 79.161 259.749 78.5474 260.185 78.0688C260.634 77.5741 261.23 77.3267 261.972 77.3267C262.597 77.3267 263.128 77.5545 263.564 78.0103C264 78.466 264.218 79.008 264.218 79.6362ZM262.509 79.3384C262.509 79.1366 262.438 78.9591 262.294 78.8062C262.151 78.6532 261.98 78.5767 261.782 78.5767C261.577 78.5767 261.407 78.6629 261.274 78.8354C261.15 78.995 261.088 79.1821 261.088 79.397C261.088 79.4849 261.134 79.5288 261.225 79.5288C261.466 79.5288 261.84 79.4914 262.348 79.4165C262.456 79.4002 262.509 79.3742 262.509 79.3384Z" fill="#FFF7CD"/>
<path d="M232.691 61.7522C233.164 61.7002 233.619 61.5308 234.021 61.257C234.423 60.9833 234.761 60.6127 235.009 60.1742C235.051 60.1016 235.079 60.0207 235.092 59.9362C235.105 59.8517 235.103 59.7652 235.085 59.6817C235.068 59.5982 235.035 59.5192 234.989 59.4494C234.943 59.3795 234.885 59.3202 234.818 59.2747C234.682 59.1827 234.518 59.1529 234.362 59.1916C234.206 59.2303 234.071 59.3344 233.986 59.4811C233.986 59.4811 233.305 60.6461 232.459 60.4249C232.186 60.3102 231.937 60.1358 231.728 59.9125C231.52 59.6892 231.355 59.4219 231.246 59.1272C231.213 59.0493 231.165 58.9795 231.106 58.9217C231.048 58.8639 230.979 58.8193 230.904 58.7905C230.829 58.7617 230.75 58.7492 230.671 58.7539C230.591 58.7585 230.514 58.7801 230.442 58.8175C230.299 58.8939 230.19 59.0274 230.136 59.1898C230.083 59.3522 230.09 59.5307 230.156 59.6876C230.337 60.1527 230.607 60.5716 230.948 60.917C231.288 61.2624 231.692 61.5269 232.132 61.6932C232.316 61.7374 232.503 61.7572 232.691 61.7522Z" fill="#FFF7CD"/>
<path d="M239.593 61.7529C238.931 61.7483 238.297 61.4301 237.83 60.868C237.363 60.3059 237.101 59.5455 237.101 58.7529H242.101C242.101 59.5486 241.836 60.3116 241.366 60.8743C240.896 61.4369 240.258 61.7529 239.593 61.7529Z" fill="#FFF7CD"/>
<path d="M225.593 61.7529C224.931 61.7483 224.297 61.4301 223.83 60.868C223.363 60.3059 223.101 59.5455 223.101 58.7529H228.101C228.101 59.5486 227.836 60.3116 227.366 60.8743C226.896 61.4369 226.258 61.7529 225.593 61.7529Z" fill="#FFF7CD"/>
<path d="M30.0867 163.076H28.631C27.333 163.273 26.123 163.85 25.1546 164.733C24.1862 165.617 23.5029 166.767 23.1915 168.037C23.1092 168.39 23.0452 168.747 23 169.106V170.098C23 170.098 23 170.327 23 170.48C23.1864 171.791 23.7646 173.017 24.6596 173.997C25.5545 174.977 26.7248 175.666 28.0181 175.975C28.3877 176.008 28.7595 176.008 29.129 175.975H30.3931C31.7218 175.798 32.9663 175.227 33.964 174.335C34.9617 173.443 35.6663 172.273 35.9858 170.976C35.9858 170.594 35.9858 170.213 35.9858 169.831V169.03C36.0047 168.903 36.0047 168.774 35.9858 168.648C35.8185 167.288 35.2308 166.014 34.3042 165.002C33.3777 163.99 32.1581 163.291 30.8145 163L30.0867 163.076Z" fill="#EE7D57"/>
<path d="M66.5263 127.31H62.4201L60.2577 127.577C54.6571 128.425 49.4341 130.918 45.2513 134.741C41.0684 138.564 38.114 143.544 36.7628 149.049C36.3984 150.557 36.2526 152.065 35.9854 153.572V157.974C35.9854 158.484 36.1554 158.995 36.204 159.53C36.9713 165.242 39.4437 170.589 43.2976 174.872C47.1516 179.154 52.2075 182.173 57.8038 183.531C59.4316 183.92 61.0838 184.066 62.6631 184.31H66.2347C66.8178 184.31 67.401 184.139 68.0084 184.091C73.7438 183.351 79.1218 180.894 83.4363 177.04C87.7507 173.186 90.7999 168.116 92.1836 162.497C92.5723 160.819 92.7424 159.117 92.9854 157.415V154.059C92.9854 153.499 92.8153 152.94 92.7424 152.357C91.9986 146.49 89.4533 141 85.4579 136.644C81.4625 132.288 76.2142 129.281 70.438 128.039C69.1503 127.577 67.8383 127.455 66.5263 127.31Z" fill="#EE7D57"/>
<path d="M89.9289 174.856H89.2132H88.8452C87.8684 174.994 86.9558 175.423 86.2263 176.087C85.4967 176.751 84.9842 177.62 84.7554 178.58C84.7554 178.826 84.6532 179.092 84.6123 179.358V180.115C84.6123 180.115 84.6123 180.299 84.6123 180.381C84.7539 181.36 85.1865 182.273 85.8538 183.003C86.5211 183.733 87.3924 184.245 88.3544 184.473C88.6202 184.473 88.9065 184.473 89.1928 184.596H89.8062H90.113C91.0877 184.453 91.9976 184.022 92.7261 183.359C93.4547 182.695 93.9689 181.829 94.2027 180.872C94.2636 180.582 94.3046 180.288 94.3254 179.992V179.399C94.3352 179.303 94.3352 179.207 94.3254 179.112C94.2043 178.094 93.7689 177.139 93.0799 176.38C92.3908 175.621 91.4824 175.095 90.481 174.877L89.9289 174.856Z" fill="#EE7D57"/>
<path d="M89.5059 178.924C89.5059 178.942 89.4896 178.951 89.457 178.951C89.335 178.951 89.1494 178.941 88.9004 178.919C88.653 178.898 88.4674 178.888 88.3438 178.888C88.1875 178.888 88.0964 178.893 88.0703 178.905C88.0101 178.932 87.98 179.011 87.98 179.139C87.98 179.294 88.019 179.382 88.0972 179.403C88.1297 179.411 88.1794 179.415 88.2461 179.415C88.3584 179.415 88.526 179.409 88.749 179.398C88.9736 179.385 89.1421 179.378 89.2544 179.378C89.3081 179.378 89.335 179.522 89.335 179.808C89.335 180.057 89.326 180.202 89.3081 180.243C89.2967 180.272 89.2747 180.287 89.2422 180.287C89.2633 180.287 89.2121 180.281 89.0884 180.27C88.9142 180.253 88.6506 180.245 88.2974 180.245C88.1834 180.245 88.1191 180.246 88.1045 180.248C88.0215 180.261 87.98 180.296 87.98 180.353C87.98 180.584 87.9897 180.85 88.0093 181.151C88.0256 181.423 88.0337 181.544 88.0337 181.515C88.0337 181.557 87.9824 181.581 87.8799 181.588C87.9076 181.586 87.8351 181.585 87.6626 181.585C87.3582 181.585 87.1621 181.575 87.0742 181.554C87.027 181.542 87.0034 181.517 87.0034 181.478C87.0034 181.297 87.0091 181.026 87.0205 180.665C87.0335 180.302 87.04 180.03 87.04 179.85C87.04 179.635 87.0303 179.365 87.0107 179.039C86.9814 178.536 86.966 178.266 86.9644 178.229L86.9619 178.199C86.9603 178.159 86.9847 178.138 87.0352 178.138C87.1556 178.138 87.3371 178.141 87.5796 178.146C87.8237 178.15 88.0068 178.153 88.1289 178.153C88.2591 178.153 88.4544 178.143 88.7148 178.124C88.9769 178.104 89.173 178.094 89.3032 178.094C89.3846 178.094 89.4302 178.128 89.4399 178.194C89.4399 178.264 89.4432 178.369 89.4497 178.509C89.453 178.545 89.4635 178.614 89.4814 178.717C89.4977 178.806 89.5059 178.875 89.5059 178.924ZM92.0156 180.228C92.0156 180.392 91.9627 180.486 91.8569 180.509C91.839 180.512 91.6706 180.53 91.3516 180.562C91.1595 180.584 90.873 180.609 90.4922 180.638C90.515 180.744 90.5841 180.825 90.6997 180.88C90.7941 180.925 90.9015 180.948 91.022 180.948C91.1668 180.948 91.3125 180.909 91.459 180.831C91.5208 180.792 91.5827 180.753 91.6445 180.714C91.6787 180.73 91.7357 180.813 91.8154 180.963C91.8968 181.113 91.9375 181.208 91.9375 181.249C91.9375 181.26 91.9253 181.279 91.9009 181.305C91.7023 181.518 91.3939 181.625 90.9756 181.625C90.5882 181.625 90.2757 181.511 90.0381 181.285C89.7939 181.056 89.6719 180.749 89.6719 180.365C89.6719 179.99 89.7809 179.684 89.999 179.444C90.2236 179.197 90.5215 179.073 90.8926 179.073C91.2051 179.073 91.4704 179.187 91.6885 179.415C91.9066 179.643 92.0156 179.914 92.0156 180.228ZM91.1611 180.079C91.1611 179.978 91.1253 179.889 91.0537 179.813C90.9821 179.736 90.8966 179.698 90.7974 179.698C90.6948 179.698 90.6102 179.741 90.5435 179.828C90.4816 179.907 90.4507 180.001 90.4507 180.108C90.4507 180.152 90.4735 180.174 90.519 180.174C90.6395 180.174 90.8267 180.156 91.0806 180.118C91.1343 180.11 91.1611 180.097 91.1611 180.079Z" fill="#FFF7CD"/>
<path d="M376.27 266.868L375.124 266.705H372.977C372.282 266.827 371.587 266.889 370.932 267.032C367.887 267.69 365.122 269.28 363.022 271.583C360.922 273.886 359.592 276.787 359.215 279.881L359.093 280.761V282.562C359.215 283.462 359.318 284.342 359.522 285.221C360.241 288.176 361.84 290.843 364.108 292.867C366.376 294.891 369.205 296.178 372.221 296.557L373.141 296.679H375.002C375.861 296.557 376.74 296.475 377.599 296.27C380.536 295.555 383.189 293.969 385.21 291.72C387.231 289.472 388.527 286.664 388.927 283.666L389.05 282.848V280.556C388.907 279.758 388.825 278.961 388.641 278.183C387.94 275.278 386.388 272.65 384.184 270.634C381.979 268.618 379.224 267.307 376.27 266.868Z" fill="#EE7D57"/>
<path d="M344.738 270.49V254.776C343.838 249.395 343.286 243.952 341.998 238.612C337.192 218.853 326.618 200.972 311.622 187.246C296.626 173.52 277.887 164.571 257.791 161.537C255.194 161.148 252.617 160.841 250.02 160.493H235.297C230.655 161.332 225.911 161.721 221.27 162.703C200.529 167.189 181.697 178.022 167.385 193.699C153.073 209.375 143.991 229.119 141.398 250.193C141.152 252.239 140.866 254.285 140.58 256.331V268.607L141.193 273.252H344.349C344.493 272.29 344.615 271.39 344.738 270.49Z" fill="#EE7D57"/>
<path d="M121.767 324.24L120.172 324.035H117.146C116.185 324.199 115.224 324.281 114.263 324.485C110.009 325.409 106.149 327.636 103.217 330.855C100.286 334.074 98.4288 338.126 97.9038 342.45L97.7197 343.698V346.235C97.8833 347.483 98.0265 348.731 98.3127 349.959C99.3306 354.092 101.575 357.821 104.75 360.655C107.925 363.489 111.883 365.295 116.103 365.836L117.391 366H120.009C121.215 365.816 122.442 365.693 123.628 365.427C127.744 364.428 131.462 362.207 134.294 359.056C137.126 355.905 138.939 351.971 139.496 347.77L139.68 346.624V343.411C139.476 342.286 139.373 341.181 139.108 340.076C138.115 336.013 135.935 332.337 132.847 329.516C129.759 326.696 125.902 324.859 121.767 324.24Z" fill="#EE7D57"/>
<path d="M119.1 340.35C119.1 340.414 119.041 340.446 118.924 340.446C118.484 340.446 117.816 340.408 116.92 340.332C116.029 340.256 115.361 340.218 114.916 340.218C114.354 340.218 114.025 340.238 113.932 340.279C113.715 340.379 113.606 340.66 113.606 341.123C113.606 341.68 113.747 341.996 114.028 342.072C114.146 342.102 114.324 342.116 114.564 342.116C114.969 342.116 115.572 342.096 116.375 342.055C117.184 342.008 117.79 341.984 118.194 341.984C118.388 341.984 118.484 342.5 118.484 343.531C118.484 344.428 118.452 344.949 118.388 345.096C118.347 345.201 118.268 345.254 118.15 345.254C118.227 345.254 118.042 345.233 117.597 345.192C116.97 345.134 116.021 345.104 114.749 345.104C114.339 345.104 114.107 345.107 114.055 345.113C113.756 345.16 113.606 345.286 113.606 345.491C113.606 346.323 113.642 347.281 113.712 348.365C113.771 349.344 113.8 349.78 113.8 349.675C113.8 349.827 113.615 349.915 113.246 349.938C113.346 349.933 113.085 349.93 112.464 349.93C111.368 349.93 110.662 349.892 110.346 349.815C110.176 349.774 110.091 349.684 110.091 349.543C110.091 348.893 110.111 347.917 110.152 346.616C110.199 345.31 110.223 344.331 110.223 343.681C110.223 342.907 110.188 341.935 110.117 340.763C110.012 338.952 109.956 337.979 109.95 337.845L109.941 337.739C109.936 337.593 110.023 337.52 110.205 337.52C110.639 337.52 111.292 337.528 112.165 337.546C113.044 337.563 113.703 337.572 114.143 337.572C114.611 337.572 115.314 337.537 116.252 337.467C117.195 337.396 117.901 337.361 118.37 337.361C118.663 337.361 118.827 337.481 118.862 337.722C118.862 337.974 118.874 338.352 118.897 338.855C118.909 338.984 118.947 339.233 119.012 339.603C119.07 339.925 119.1 340.174 119.1 340.35ZM128.135 345.043C128.135 345.635 127.944 345.972 127.563 346.054C127.499 346.065 126.893 346.13 125.744 346.247C125.053 346.323 124.021 346.414 122.65 346.52C122.732 346.9 122.981 347.19 123.397 347.39C123.737 347.554 124.124 347.636 124.558 347.636C125.079 347.636 125.604 347.495 126.131 347.214C126.354 347.073 126.576 346.933 126.799 346.792C126.922 346.851 127.127 347.149 127.414 347.688C127.707 348.228 127.854 348.57 127.854 348.717C127.854 348.758 127.81 348.825 127.722 348.919C127.007 349.687 125.896 350.07 124.391 350.07C122.996 350.07 121.871 349.663 121.016 348.849C120.137 348.022 119.697 346.918 119.697 345.535C119.697 344.188 120.09 343.083 120.875 342.222C121.684 341.331 122.756 340.886 124.092 340.886C125.217 340.886 126.172 341.296 126.957 342.116C127.742 342.937 128.135 343.912 128.135 345.043ZM125.059 344.507C125.059 344.144 124.93 343.824 124.672 343.549C124.414 343.273 124.106 343.136 123.749 343.136C123.38 343.136 123.075 343.291 122.835 343.602C122.612 343.889 122.501 344.226 122.501 344.612C122.501 344.771 122.583 344.85 122.747 344.85C123.181 344.85 123.854 344.782 124.769 344.647C124.962 344.618 125.059 344.571 125.059 344.507Z" fill="#FFF7CD"/>
<path d="M268.772 245.814C264.007 245.814 260.96 250.397 260.592 250.97C260.289 251.448 260.187 252.026 260.31 252.579C260.432 253.132 260.769 253.613 261.247 253.917C261.724 254.22 262.302 254.322 262.854 254.199C263.407 254.077 263.888 253.739 264.191 253.262C264.191 253.098 266.625 249.436 269.61 250.172C270.579 250.544 271.461 251.112 272.2 251.841C272.939 252.57 273.519 253.444 273.904 254.408C274.146 254.915 274.578 255.306 275.108 255.494C275.637 255.682 276.219 255.652 276.726 255.41C277.233 255.169 277.624 254.736 277.812 254.206C278 253.676 277.969 253.094 277.728 252.587C277.077 251.051 276.105 249.672 274.878 248.543C273.65 247.414 272.196 246.56 270.612 246.039C270.011 245.886 269.392 245.81 268.772 245.814Z" fill="#FFF7CD"/>
<path d="M245.088 254.735C247.21 254.735 249.245 253.787 250.745 252.099C252.246 250.411 253.088 248.122 253.088 245.735H237.088C237.088 248.122 237.931 250.411 239.432 252.099C240.932 253.787 242.967 254.735 245.088 254.735Z" fill="#FFF7CD"/>
<path d="M293.088 254.735C295.21 254.735 297.245 253.787 298.745 252.099C300.245 250.411 301.088 248.122 301.088 245.735H285.088C285.088 248.122 285.931 250.411 287.432 252.099C288.932 253.787 290.967 254.735 293.088 254.735Z" fill="#FFF7CD"/>
<path d="M83.9854 156.31C84.3809 156.31 84.7676 156.427 85.0965 156.647C85.4254 156.866 85.6817 157.179 85.8331 157.544C85.9845 157.91 86.0241 158.312 85.9469 158.7C85.8697 159.088 85.6793 159.444 85.3996 159.724C85.1199 160.003 84.7635 160.194 84.3755 160.271C83.9876 160.348 83.5854 160.309 83.22 160.157C82.8545 160.006 82.5422 159.75 82.3224 159.421C82.1026 159.092 81.9854 158.705 81.9854 158.31C81.9854 157.779 82.1961 157.27 82.5711 156.895C82.9462 156.52 83.4549 156.31 83.9854 156.31ZM85.6236 158.31C85.6181 157.877 85.4438 157.463 85.1377 157.157C84.8316 156.851 84.4181 156.677 83.9854 156.671C83.5545 156.677 83.1433 156.852 82.8406 157.159C82.538 157.465 82.3683 157.879 82.3683 158.31H85.6236Z" fill="#FFF7CD"/>
<path d="M70.9854 156.31C71.3809 156.31 71.7676 156.427 72.0965 156.647C72.4254 156.866 72.6817 157.179 72.8331 157.544C72.9845 157.91 73.0241 158.312 72.9469 158.7C72.8697 159.088 72.6793 159.444 72.3996 159.724C72.1199 160.003 71.7635 160.194 71.3755 160.271C70.9876 160.348 70.5854 160.309 70.22 160.157C69.8545 160.006 69.5422 159.75 69.3224 159.421C69.1027 159.092 68.9854 158.705 68.9854 158.31C68.9854 157.779 69.1961 157.27 69.5711 156.895C69.9462 156.52 70.4549 156.31 70.9854 156.31ZM72.6024 158.31C72.6024 157.879 72.4327 157.465 72.1301 157.159C71.8274 156.852 71.4162 156.677 70.9854 156.671C70.5526 156.677 70.1391 156.851 69.833 157.157C69.527 157.463 69.3526 157.877 69.3471 158.31H72.6024Z" fill="#FFF7CD"/>
<path d="M78.9854 160.052C78.9854 159.352 78.1426 157.979 77.2662 158.383C76.8705 158.67 76.5527 159.018 76.3324 159.408C76.1121 159.797 75.994 160.218 75.9854 160.645C76.1202 161.856 78.9179 161.264 78.9854 160.052Z" fill="#FFF7CD"/>
<path d="M403.146 100.204C403.254 99.7374 402.052 98.694 400.743 98.9604C399.77 99.1602 398.989 100.07 399.182 100.459C399.47 101.247 402.977 100.925 403.146 100.204Z" fill="#FFF7CD"/>
<path d="M396.742 97.5093C396.458 97.1303 396.074 96.9175 395.673 96.9175C395.272 96.9175 394.888 97.1303 394.604 97.5093C394.461 97.695 394.348 97.9172 394.27 98.1628C394.192 98.4084 394.152 98.6723 394.152 98.939C394.152 99.2056 394.192 99.4695 394.27 99.7151C394.348 99.9607 394.461 100.183 394.604 100.369C394.891 100.729 395.271 100.925 395.664 100.917C396.056 100.909 396.432 100.697 396.709 100.325C396.987 99.9533 397.146 99.4516 397.152 98.926C397.158 98.4004 397.011 97.8923 396.742 97.5093ZM396.549 100.11C396.315 100.417 396.001 100.588 395.673 100.588C395.346 100.588 395.032 100.417 394.798 100.11L396.549 97.7678C396.778 98.0806 396.906 98.501 396.906 98.939C396.906 99.3769 396.778 99.7974 396.549 100.11Z" fill="#FFF7CD"/>
<path d="M406.717 97.504C406.507 97.2241 406.24 97.0334 405.948 96.9561C405.657 96.8787 405.355 96.9182 405.08 97.0695C404.805 97.2209 404.571 97.4772 404.406 97.8061C404.24 98.1351 404.152 98.5218 404.152 98.9175C404.152 99.3131 404.24 99.6999 404.406 100.029C404.571 100.358 404.805 100.614 405.08 100.765C405.355 100.917 405.657 100.956 405.948 100.879C406.24 100.802 406.507 100.611 406.717 100.331C406.996 99.9541 407.152 99.4464 407.152 98.9175C407.152 98.3886 406.996 97.8809 406.717 97.504ZM406.525 100.075C406.293 100.378 405.981 100.548 405.656 100.548C405.33 100.548 405.018 100.378 404.786 100.075L406.525 97.7596C406.753 98.0688 406.881 98.4845 406.881 98.9175C406.881 99.3505 406.753 99.7662 406.525 100.075Z" fill="#FFF7CD"/>
<path d="M414.514 251C407.525 251 400.88 244.711 400.009 236.05C397.717 236.487 395.219 236.902 392.699 237.247C386.5 238.113 380.257 238.613 374 238.745C379.176 236.954 383.971 234.203 388.139 230.636C389.876 229.132 391.5 227.499 392.997 225.753C392.22 224.227 391.775 222.552 391.692 220.84C391.609 219.128 391.89 217.418 392.515 215.824C393.72 212.971 395.979 210.7 398.817 209.489C399.024 205.687 400.109 201.986 401.987 198.68C403.864 195.373 406.482 192.551 409.633 190.439C413.111 188.288 417.095 187.104 421.177 187.006C425.259 186.909 429.294 187.903 432.869 189.886C434.745 189.524 436.673 189.542 438.542 189.938C440.411 190.333 442.182 191.098 443.754 192.189C446.192 193.965 447.993 196.486 448.887 199.376C452.87 199.156 456.836 200.049 460.344 201.956C461.215 202.463 471 208.176 471 219.141C470.891 222.867 469.748 226.487 467.698 229.593C465.649 232.7 462.777 235.167 459.405 236.718C454.772 238.839 449.537 239.223 444.648 237.8C442.09 241.173 438.372 243.465 434.221 244.227C431.672 244.638 429.062 244.425 426.613 243.605C426.43 244.043 421.916 251.046 414.514 251Z" fill="#231815"/>
<path d="M452.407 195.538H451.926C451.766 195.561 451.602 195.537 451.456 195.467C451.309 195.398 451.186 195.287 451.102 195.148L450.805 194.69C449.884 193.158 448.802 191.729 447.578 190.427C446.414 189.194 445.071 188.143 443.595 187.31C440.485 185.668 436.922 185.097 433.455 185.683C433.384 185.716 433.306 185.733 433.227 185.733C433.148 185.733 433.07 185.716 432.998 185.683L432.38 185.454C426.498 183.137 420.026 182.791 413.932 184.468C412.059 185.05 410.25 185.817 408.53 186.76C405.101 188.693 402.115 191.324 399.764 194.484C398.523 196.129 397.479 197.913 396.651 199.801C396.174 200.774 395.761 201.777 395.415 202.803C395.14 203.857 394.682 204.935 394.431 206.058C394.495 206.223 394.496 206.406 394.432 206.571C394.369 206.736 394.246 206.872 394.087 206.951L393.698 207.158C390.779 208.679 388.564 211.275 387.518 214.4C386.575 217.231 386.789 220.321 388.113 222.994L388.251 223.888C388.338 224.503 388.243 225.13 387.979 225.692C387.715 226.254 387.292 226.727 386.763 227.051C374.216 235.049 360.732 241.469 346.617 246.165L346.251 243.873C354.376 243.873 362.478 243.598 370.558 243.003C378.571 242.449 386.548 241.462 394.454 240.046C395.326 239.893 396.224 240.062 396.981 240.521C397.739 240.981 398.304 241.699 398.574 242.544L398.757 243.094C399.576 245.761 401.038 248.186 403.014 250.153C405.005 252.106 407.477 253.498 410.178 254.187C413.02 254.846 415.985 254.76 418.784 253.935C421.874 253.01 424.699 251.36 427.024 249.122C427.077 248.935 427.199 248.775 427.364 248.674C427.529 248.572 427.726 248.536 427.916 248.572L428.466 248.686C431.448 249.333 434.546 249.199 437.461 248.297C440.342 247.31 442.952 245.662 445.083 243.484C445.14 243.298 445.262 243.139 445.425 243.034C445.588 242.93 445.783 242.886 445.975 242.911H446.342C452.906 243.763 459.543 242.011 464.836 238.029C467.31 236.123 469.382 233.744 470.93 231.029C472.479 228.314 473.472 225.318 473.854 222.215C474.535 215.943 472.8 209.647 469.001 204.614C467.022 201.957 464.491 199.761 461.583 198.179C458.675 196.596 455.458 195.664 452.155 195.446L452.407 195.538ZM452.407 193.246C456.251 193.018 460.1 193.602 463.704 194.961C467.308 196.319 470.587 198.421 473.327 201.13C476.183 203.948 478.346 207.393 479.644 211.191C480.917 215.035 481.3 219.118 480.766 223.132C480.258 227.123 478.877 230.953 476.72 234.348C474.564 237.743 471.686 240.62 468.292 242.773C465.02 244.864 461.313 246.175 457.456 246.604C453.598 247.034 449.694 246.57 446.044 245.249L447.303 244.721C446.637 246.546 445.528 248.177 444.076 249.466C442.609 250.789 440.865 251.768 438.972 252.33C437.11 252.929 435.138 253.102 433.201 252.836C431.264 252.57 429.411 251.873 427.779 250.795L429.221 250.336C427.843 254.233 425.092 257.493 421.485 259.504C417.705 261.612 413.338 262.417 409.056 261.796C404.659 261.207 400.563 259.233 397.36 256.158C394.178 253.09 392.081 249.067 391.387 244.698L395.667 247.747C387.415 248.296 379.14 248.388 370.878 248.022C362.662 247.724 354.49 247.082 346.342 246.165C346.039 246.214 345.728 246.14 345.479 245.959C345.23 245.779 345.063 245.507 345.015 245.203C344.966 244.899 345.04 244.588 345.22 244.339C345.401 244.089 345.672 243.922 345.976 243.873C359.071 237.824 371.371 230.18 382.597 221.115L381.339 225.149C380.285 220.768 380.974 216.149 383.261 212.269C385.409 208.667 388.86 206.033 392.897 204.912L392.165 206.012C390.668 200.927 391.125 195.466 393.446 190.702C395.759 185.723 399.622 181.63 404.456 179.036C409.291 176.453 414.824 175.481 420.249 176.263C425.484 176.973 430.283 179.563 433.753 183.551L432.54 183.506C434.485 182.391 436.685 181.799 438.926 181.787C441.223 181.776 443.489 182.31 445.541 183.345C447.607 184.317 449.377 185.824 450.669 187.709C451.96 189.595 452.726 191.791 452.888 194.071L451.766 193.223L452.407 193.246Z" fill="white"/>
</svg>
