<svg width="480" height="367" viewBox="0 0 480 367" fill="none" xmlns="http://www.w3.org/2000/svg">
<path d="M2 282.725H450.089" stroke="#B71E22" stroke-width="4" stroke-linecap="round" stroke-linejoin="round"/>
<path d="M156.175 208.494C130.057 243.548 108.006 251.414 92.6374 252.081C72.2005 252.958 57.7517 240.814 41.5453 248.826C28.384 255.232 22.2938 270.547 19.167 283.066H33.3297C38.5002 284.756 40.4008 287.239 41.1979 289.013C42.7511 292.789 40.5848 296.399 43.0576 299.091C43.5603 299.614 44.1618 300.028 44.8256 300.308C45.4895 300.588 46.2021 300.727 46.9202 300.718C47.9341 300.601 48.9073 300.244 49.7623 299.675C50.6173 299.106 51.3306 298.342 51.8455 297.442C53.6643 294.5 51.7228 292.205 52.9082 288.47C53.6951 286.283 55.1221 284.397 56.9955 283.066C60.8363 284.107 64.7326 284.922 68.665 285.507C78.2741 286.888 88.0286 286.839 97.6239 285.361C102.362 291.595 105.205 299.111 105.799 306.978C106.228 318.015 101.323 322.71 100.097 340.925C99.4837 350.878 100.608 354.487 102.284 357.2C104.088 360.091 106.587 362.462 109.542 364.088C112.498 365.715 115.811 366.542 119.168 366.492C122.525 366.442 125.814 365.516 128.722 363.802C131.629 362.087 134.059 359.643 135.779 356.699C138.355 352.276 138.375 348.019 138.334 343.366C138.191 327.488 130.527 323.023 132.53 311.422C133.511 305.809 136.617 299.049 140.276 298.903C143.934 298.757 148.287 305.413 149.063 311.547C149.697 316.429 147.715 318.286 149.329 322.293C150.392 324.922 153.028 328.552 156.789 328.823C161.366 329.053 164.452 323.899 164.657 323.524C167.784 318.12 164.657 313.446 165.065 306.644C165.352 302.033 167.334 295.481 175.447 287.865C180.475 289.714 185.717 290.885 191.041 291.35C203.815 292.352 216.598 289.531 227.827 283.233H412.167C410.982 275.847 408.08 265.539 399.782 259.113C390.484 251.873 381.226 254.815 368.984 250.934C360.074 248.138 347.995 241.211 336.285 222.328L156.175 208.494Z" fill="#EE7D57"/>
<path d="M456.344 87H457.779H458.516C460.48 87.3112 462.307 88.1993 463.766 89.5518C465.225 90.9043 466.251 92.6604 466.713 94.5975C466.713 95.0903 466.713 95.6242 467 96.1581V97.7187C467 97.7187 467 98.0883 467 98.2526C466.73 100.262 465.862 102.144 464.51 103.653C463.157 105.162 461.383 106.228 459.418 106.713L457.656 107H456.426H455.812C453.793 106.739 451.9 105.874 450.379 104.519C448.859 103.164 447.781 101.381 447.287 99.4025C447.287 98.7865 447.287 98.2115 447 97.5955V96.4045C447.02 96.1997 447.02 95.9933 447 95.7885C447.26 93.7164 448.158 91.7769 449.568 90.2389C450.978 88.701 452.831 87.6408 454.869 87.2054C455.357 87.1108 455.849 87.0423 456.344 87Z" fill="#EE7D57"/>
<path d="M415.067 62.9175H419.12L421.256 63.203C426.779 64.0355 431.929 66.4911 436.05 70.2571C440.171 74.0231 443.076 78.929 444.396 84.35C444.749 85.8113 444.9 87.3062 445.152 88.7843V93.101C445.152 93.6049 444.984 94.1088 444.934 94.6295C444.17 100.227 441.735 105.466 437.947 109.66C434.158 113.855 429.191 116.812 423.694 118.145C422.012 118.514 420.465 118.682 418.851 118.917H415.403L413.722 118.682C408.075 117.97 402.778 115.562 398.532 111.777C394.286 107.991 391.291 103.008 389.943 97.485C389.594 95.8198 389.33 94.1379 389.152 92.446V89.0866C389.236 88.5324 389.304 87.9781 389.371 87.407C390.102 81.6619 392.594 76.2832 396.504 72.0074C400.415 67.7316 405.553 64.7679 411.216 63.5222C412.494 63.2534 413.722 63.1526 415.067 62.9175Z" fill="#EE7D57"/>
<path d="M380.564 105.536H381.566H382.097C383.477 105.741 384.765 106.352 385.796 107.292C386.827 108.233 387.554 109.459 387.884 110.815C387.884 111.183 388.007 111.552 388.068 111.94V113.004V113.393C387.887 114.797 387.284 116.112 386.338 117.165C385.392 118.217 384.148 118.957 382.772 119.286C382.363 119.286 381.954 119.429 381.566 119.49H380.686H380.257C378.847 119.31 377.525 118.707 376.463 117.761C375.401 116.816 374.649 115.571 374.307 114.191C374.307 113.761 374.163 113.352 374.102 112.943V112.104V111.674C374.274 110.225 374.895 108.866 375.878 107.787C376.861 106.709 378.156 105.964 379.582 105.659C379.909 105.659 380.175 105.659 380.564 105.536Z" fill="#EE7D57"/>
<path d="M381.324 111.798C381.324 111.819 381.305 111.83 381.266 111.83C381.119 111.83 380.896 111.817 380.598 111.792C380.301 111.767 380.078 111.754 379.93 111.754C379.742 111.754 379.633 111.761 379.602 111.774C379.529 111.808 379.493 111.901 379.493 112.056C379.493 112.241 379.54 112.347 379.634 112.372C379.673 112.382 379.732 112.387 379.812 112.387C379.947 112.387 380.148 112.38 380.416 112.366C380.686 112.351 380.888 112.343 381.022 112.343C381.087 112.343 381.119 112.515 381.119 112.858C381.119 113.157 381.108 113.331 381.087 113.38C381.073 113.415 381.047 113.433 381.008 113.433C381.033 113.433 380.972 113.426 380.823 113.412C380.614 113.393 380.298 113.383 379.874 113.383C379.737 113.383 379.66 113.384 379.643 113.386C379.543 113.401 379.493 113.443 379.493 113.512C379.493 113.789 379.505 114.108 379.528 114.47C379.548 114.796 379.558 114.941 379.558 114.906C379.558 114.957 379.496 114.986 379.373 114.994C379.406 114.992 379.319 114.991 379.112 114.991C378.747 114.991 378.512 114.979 378.406 114.953C378.35 114.939 378.321 114.909 378.321 114.862C378.321 114.646 378.328 114.32 378.342 113.887C378.357 113.451 378.365 113.125 378.365 112.908C378.365 112.65 378.354 112.326 378.33 111.936C378.295 111.332 378.276 111.008 378.274 110.963L378.271 110.928C378.27 110.879 378.299 110.854 378.359 110.854C378.504 110.854 378.722 110.857 379.013 110.863C379.306 110.869 379.525 110.872 379.672 110.872C379.828 110.872 380.062 110.86 380.375 110.837C380.689 110.813 380.925 110.802 381.081 110.802C381.179 110.802 381.233 110.842 381.245 110.922C381.245 111.006 381.249 111.132 381.257 111.3C381.261 111.343 381.273 111.426 381.295 111.549C381.314 111.656 381.324 111.739 381.324 111.798ZM384.336 113.362C384.336 113.56 384.272 113.672 384.146 113.699C384.124 113.703 383.922 113.725 383.539 113.764C383.309 113.789 382.965 113.819 382.508 113.854C382.535 113.981 382.618 114.078 382.757 114.145C382.87 114.199 382.999 114.227 383.144 114.227C383.317 114.227 383.492 114.18 383.668 114.086C383.742 114.039 383.816 113.992 383.891 113.945C383.932 113.965 384 114.064 384.096 114.244C384.193 114.424 384.242 114.538 384.242 114.587C384.242 114.601 384.228 114.623 384.198 114.654C383.96 114.91 383.59 115.038 383.088 115.038C382.623 115.038 382.248 114.902 381.963 114.631C381.67 114.355 381.523 113.987 381.523 113.526C381.523 113.077 381.654 112.709 381.916 112.422C382.186 112.125 382.543 111.977 382.988 111.977C383.363 111.977 383.682 112.113 383.943 112.387C384.205 112.66 384.336 112.985 384.336 113.362ZM383.311 113.184C383.311 113.062 383.268 112.956 383.182 112.864C383.096 112.772 382.993 112.727 382.874 112.727C382.751 112.727 382.649 112.778 382.569 112.882C382.495 112.978 382.458 113.09 382.458 113.219C382.458 113.271 382.485 113.298 382.54 113.298C382.685 113.298 382.909 113.275 383.214 113.23C383.278 113.221 383.311 113.205 383.311 113.184Z" fill="#FFF7CD"/>
<path d="M167.444 61H166.718H166.266C165.281 61.1482 164.361 61.5868 163.626 62.2601C162.89 62.9334 162.371 63.8107 162.136 64.7803C162.077 65.0468 162.034 65.3165 162.007 65.588V66.3473C161.998 66.4387 161.998 66.5306 162.007 66.622C162.14 67.6276 162.573 68.5695 163.25 69.3247C163.926 70.0799 164.814 70.6131 165.798 70.8546L166.67 71H167.299H167.605C168.616 70.8749 169.565 70.4447 170.326 69.7665C171.087 69.0884 171.624 68.1945 171.865 67.2036C171.924 66.9045 171.967 66.6025 171.994 66.2989V65.7011C172.002 65.6044 172.002 65.5071 171.994 65.4103C171.891 64.3644 171.464 63.377 170.772 62.5862C170.081 61.7954 169.16 61.2408 168.138 61C167.88 61 167.67 61 167.444 61Z" fill="#EE7D57"/>
<path d="M212.877 8.75293H207.251L204.29 9.15765C196.616 10.3136 189.46 13.7309 183.735 18.9733C178.011 24.2158 173.977 31.0457 172.149 38.5916C171.652 40.6336 171.45 42.7124 171.101 44.7727V50.7699C171.211 51.469 171.321 52.168 171.413 52.8855C172.448 60.678 175.81 67.9765 181.059 73.8257C186.308 79.6749 193.2 83.8022 200.833 85.6675C203.058 86.201 205.32 86.4218 207.563 86.7529H212.509L214.9 86.4402C222.744 85.4579 230.107 82.1189 236.016 76.8641C241.925 71.6092 246.103 64.6853 247.997 57.0062C248.531 54.7251 248.788 52.4072 249.101 50.0893V45.3062C248.99 44.5336 248.88 43.761 248.788 42.9883C247.803 34.9411 244.336 27.4011 238.868 21.4169C233.401 15.4328 226.206 11.302 218.283 9.59915C216.463 9.21283 214.661 9.06567 212.877 8.75293Z" fill="#EE7D57"/>
<path d="M259.775 69.6685H258.486H257.812C256.057 69.9325 254.422 70.7141 253.114 71.9132C251.807 73.1124 250.886 74.6746 250.471 76.4C250.471 76.8501 250.307 77.3412 250.225 77.8118V79.1827C250.225 79.3259 250.225 79.4896 250.225 79.6533C250.446 81.4643 251.217 83.1638 252.435 84.5216C253.653 85.8793 255.259 86.8297 257.034 87.2442C257.54 87.3558 258.053 87.4378 258.568 87.4897H259.693H260.245C262.037 87.2597 263.718 86.4913 265.065 85.2858C266.412 84.0804 267.363 82.4946 267.79 80.7377C267.904 80.2179 267.986 79.6918 268.036 79.1622V78.0982V77.5663C267.807 75.7282 267.013 74.0066 265.764 72.6395C264.515 71.2723 262.872 70.3271 261.063 69.9344L259.775 69.6685Z" fill="#EE7D57"/>
<path d="M259.199 77.0288C259.199 77.0646 259.166 77.0825 259.101 77.0825C258.857 77.0825 258.486 77.0614 257.988 77.019C257.493 76.9767 257.122 76.9556 256.875 76.9556C256.562 76.9556 256.38 76.967 256.328 76.9897C256.207 77.0451 256.147 77.2013 256.147 77.4585C256.147 77.7677 256.225 77.9435 256.381 77.9858C256.446 78.0021 256.546 78.0103 256.679 78.0103C256.904 78.0103 257.239 77.9989 257.685 77.9761C258.134 77.95 258.471 77.937 258.696 77.937C258.803 77.937 258.857 78.2235 258.857 78.7964C258.857 79.2944 258.839 79.5841 258.803 79.6655C258.78 79.7241 258.736 79.7534 258.671 79.7534C258.714 79.7534 258.611 79.742 258.364 79.7192C258.015 79.6867 257.488 79.6704 256.782 79.6704C256.554 79.6704 256.425 79.672 256.396 79.6753C256.23 79.7013 256.147 79.7713 256.147 79.8853C256.147 80.3475 256.167 80.8797 256.206 81.4819C256.238 82.0256 256.254 82.2681 256.254 82.2095C256.254 82.2941 256.152 82.3429 255.947 82.356C256.002 82.3527 255.857 82.3511 255.512 82.3511C254.903 82.3511 254.511 82.3299 254.335 82.2876C254.241 82.2648 254.194 82.2144 254.194 82.1362C254.194 81.7749 254.205 81.2329 254.228 80.5103C254.254 79.7843 254.267 79.2407 254.267 78.8794C254.267 78.4497 254.248 77.9093 254.208 77.2583C254.15 76.2524 254.119 75.7121 254.116 75.6372L254.111 75.5786C254.108 75.4972 254.156 75.4565 254.257 75.4565C254.498 75.4565 254.861 75.4614 255.346 75.4712C255.834 75.481 256.201 75.4858 256.445 75.4858C256.705 75.4858 257.096 75.4663 257.617 75.4272C258.141 75.3882 258.533 75.3687 258.793 75.3687C258.956 75.3687 259.047 75.4354 259.067 75.5688C259.067 75.7088 259.073 75.9188 259.086 76.1987C259.093 76.2703 259.114 76.4087 259.15 76.6138C259.182 76.7928 259.199 76.9312 259.199 77.0288ZM264.218 79.6362C264.218 79.965 264.112 80.1522 263.901 80.1978C263.865 80.2043 263.528 80.2401 262.89 80.3052C262.506 80.3475 261.933 80.3979 261.171 80.4565C261.217 80.6681 261.355 80.8293 261.586 80.9399C261.775 81.0311 261.99 81.0767 262.231 81.0767C262.521 81.0767 262.812 80.9985 263.105 80.8423C263.229 80.7642 263.352 80.686 263.476 80.6079C263.544 80.6405 263.658 80.8065 263.818 81.106C263.981 81.4054 264.062 81.5959 264.062 81.6772C264.062 81.7 264.038 81.7375 263.989 81.7896C263.592 82.216 262.975 82.4292 262.138 82.4292C261.363 82.4292 260.738 82.203 260.263 81.7505C259.775 81.2915 259.531 80.6779 259.531 79.9097C259.531 79.161 259.749 78.5474 260.185 78.0688C260.634 77.5741 261.23 77.3267 261.972 77.3267C262.597 77.3267 263.128 77.5545 263.564 78.0103C264 78.466 264.218 79.008 264.218 79.6362ZM262.509 79.3384C262.509 79.1366 262.438 78.9591 262.294 78.8062C262.151 78.6532 261.98 78.5767 261.782 78.5767C261.577 78.5767 261.407 78.6629 261.274 78.8354C261.15 78.995 261.088 79.1821 261.088 79.397C261.088 79.4849 261.134 79.5288 261.225 79.5288C261.466 79.5288 261.84 79.4914 262.348 79.4165C262.456 79.4002 262.509 79.3742 262.509 79.3384Z" fill="#FFF7CD"/>
<path d="M227.727 53.7519C228.389 53.6826 229.026 53.4567 229.589 53.0917C230.152 52.7268 230.625 52.2326 230.972 51.648C231.031 51.5512 231.07 51.4433 231.089 51.3306C231.107 51.218 231.104 51.1026 231.079 50.9913C231.054 50.8799 231.009 50.7746 230.944 50.6815C230.88 50.5884 230.798 50.5092 230.705 50.4486C230.515 50.326 230.285 50.2862 230.067 50.3378C229.849 50.3894 229.659 50.5283 229.54 50.7238C229.54 50.7238 228.586 52.2772 227.403 51.9823C227.02 51.8293 226.671 51.5967 226.379 51.299C226.087 51.0014 225.857 50.6449 225.705 50.2519C225.658 50.1482 225.591 50.055 225.509 49.978C225.426 49.9009 225.33 49.8414 225.225 49.803C225.121 49.7646 225.01 49.748 224.899 49.7542C224.788 49.7604 224.679 49.7892 224.579 49.839C224.379 49.9409 224.225 50.1189 224.15 50.3355C224.076 50.552 224.085 50.79 224.178 50.9991C224.432 51.6193 224.81 52.1778 225.286 52.6384C225.763 53.099 226.328 53.4515 226.945 53.6732C227.202 53.7322 227.465 53.7587 227.727 53.7519Z" fill="#FFF7CD"/>
<path d="M237.092 53.7529C236.297 53.7467 235.536 53.3225 234.976 52.5731C234.415 51.8236 234.101 50.8097 234.101 49.7529H240.101C240.101 50.8138 239.784 51.8312 239.219 52.5814C238.655 53.3315 237.89 53.7529 237.092 53.7529Z" fill="#FFF7CD"/>
<path d="M218.59 53.7529C217.663 53.7467 216.775 53.3225 216.121 52.5731C215.468 51.8236 215.101 50.8097 215.101 49.7529H222.101C222.101 50.8138 221.731 51.8312 221.072 52.5814C220.414 53.3315 219.521 53.7529 218.59 53.7529Z" fill="#FFF7CD"/>
<path d="M30.9964 165.065H29.7647C28.6664 165.231 27.6426 165.719 26.8231 166.467C26.0037 167.214 25.4255 168.187 25.1621 169.262C25.0924 169.561 25.0383 169.862 25 170.166V171.006C25 171.006 25 171.2 25 171.329C25.1577 172.439 25.647 173.476 26.4043 174.305C27.1615 175.135 28.1517 175.718 29.2461 175.979C29.5588 176.007 29.8734 176.007 30.1861 175.979H31.2557C32.38 175.829 33.433 175.346 34.2772 174.591C35.1214 173.837 35.7177 172.846 35.988 171.749C35.988 171.426 35.988 171.103 35.988 170.78V170.102C36.004 169.995 36.004 169.886 35.988 169.779C35.8464 168.629 35.3491 167.551 34.5651 166.694C33.7811 165.838 32.7491 165.246 31.6123 165L30.9964 165.065Z" fill="#EE7D57"/>
<path d="M71.6471 137H68.3333L66.5882 137.216C62.0684 137.9 57.8534 139.912 54.4777 142.997C51.1021 146.082 48.7179 150.101 47.6275 154.544C47.3333 155.761 47.2157 156.978 47 158.195V161.747C47 162.159 47.1373 162.571 47.1765 163.003C47.7957 167.612 49.7909 171.928 52.9011 175.384C56.0113 178.84 60.0916 181.275 64.6078 182.372C65.9216 182.686 67.2549 182.804 68.5294 183H71.4118C71.8823 183 72.3529 182.863 72.8431 182.823C77.4717 182.227 81.8119 180.243 85.2937 177.133C88.7756 174.023 91.2363 169.932 92.3529 165.397C92.6667 164.043 92.8039 162.669 93 161.295V158.587C93 158.136 92.8628 157.684 92.8039 157.213C92.2037 152.479 90.1495 148.049 86.9252 144.533C83.7008 141.018 79.4654 138.591 74.8039 137.589C73.7647 137.216 72.7059 137.118 71.6471 137Z" fill="#EE7D57"/>
<path d="M89.9289 174.856H89.2132H88.8452C87.8684 174.994 86.9558 175.423 86.2263 176.087C85.4967 176.751 84.9842 177.62 84.7554 178.58C84.7554 178.826 84.6532 179.092 84.6123 179.358V180.115C84.6123 180.115 84.6123 180.299 84.6123 180.381C84.7539 181.36 85.1865 182.273 85.8538 183.003C86.5211 183.733 87.3924 184.245 88.3544 184.473C88.6202 184.473 88.9065 184.473 89.1928 184.596H89.8062H90.113C91.0877 184.453 91.9976 184.022 92.7261 183.359C93.4547 182.695 93.9689 181.829 94.2027 180.872C94.2636 180.582 94.3046 180.288 94.3254 179.992V179.399C94.3352 179.303 94.3352 179.207 94.3254 179.112C94.2043 178.094 93.7689 177.139 93.0799 176.38C92.3908 175.621 91.4824 175.095 90.481 174.877L89.9289 174.856Z" fill="#EE7D57"/>
<path d="M89.5059 178.924C89.5059 178.942 89.4896 178.951 89.457 178.951C89.335 178.951 89.1494 178.941 88.9004 178.919C88.653 178.898 88.4674 178.888 88.3438 178.888C88.1875 178.888 88.0964 178.893 88.0703 178.905C88.0101 178.932 87.98 179.011 87.98 179.139C87.98 179.294 88.019 179.382 88.0972 179.403C88.1297 179.411 88.1794 179.415 88.2461 179.415C88.3584 179.415 88.526 179.409 88.749 179.398C88.9736 179.385 89.1421 179.378 89.2544 179.378C89.3081 179.378 89.335 179.522 89.335 179.808C89.335 180.057 89.326 180.202 89.3081 180.243C89.2967 180.272 89.2747 180.287 89.2422 180.287C89.2633 180.287 89.2121 180.281 89.0884 180.27C88.9142 180.253 88.6506 180.245 88.2974 180.245C88.1834 180.245 88.1191 180.246 88.1045 180.248C88.0215 180.261 87.98 180.296 87.98 180.353C87.98 180.584 87.9897 180.85 88.0093 181.151C88.0256 181.423 88.0337 181.544 88.0337 181.515C88.0337 181.557 87.9824 181.581 87.8799 181.588C87.9076 181.586 87.8351 181.585 87.6626 181.585C87.3582 181.585 87.1621 181.575 87.0742 181.554C87.027 181.542 87.0034 181.517 87.0034 181.478C87.0034 181.297 87.0091 181.026 87.0205 180.665C87.0335 180.302 87.04 180.03 87.04 179.85C87.04 179.635 87.0303 179.365 87.0107 179.039C86.9814 178.536 86.966 178.266 86.9644 178.229L86.9619 178.199C86.9603 178.159 86.9847 178.138 87.0352 178.138C87.1556 178.138 87.3371 178.141 87.5796 178.146C87.8237 178.15 88.0068 178.153 88.1289 178.153C88.2591 178.153 88.4544 178.143 88.7148 178.124C88.9769 178.104 89.173 178.094 89.3032 178.094C89.3846 178.094 89.4302 178.128 89.4399 178.194C89.4399 178.264 89.4432 178.369 89.4497 178.509C89.453 178.545 89.4635 178.614 89.4814 178.717C89.4977 178.806 89.5059 178.875 89.5059 178.924ZM92.0156 180.228C92.0156 180.392 91.9627 180.486 91.8569 180.509C91.839 180.512 91.6706 180.53 91.3516 180.562C91.1595 180.584 90.873 180.609 90.4922 180.638C90.515 180.744 90.5841 180.825 90.6997 180.88C90.7941 180.925 90.9015 180.948 91.022 180.948C91.1668 180.948 91.3125 180.909 91.459 180.831C91.5208 180.792 91.5827 180.753 91.6445 180.714C91.6787 180.73 91.7357 180.813 91.8154 180.963C91.8968 181.113 91.9375 181.208 91.9375 181.249C91.9375 181.26 91.9253 181.279 91.9009 181.305C91.7023 181.518 91.3939 181.625 90.9756 181.625C90.5882 181.625 90.2757 181.511 90.0381 181.285C89.7939 181.056 89.6719 180.749 89.6719 180.365C89.6719 179.99 89.7809 179.684 89.999 179.444C90.2236 179.197 90.5215 179.073 90.8926 179.073C91.2051 179.073 91.4704 179.187 91.6885 179.415C91.9066 179.643 92.0156 179.914 92.0156 180.228ZM91.1611 180.079C91.1611 179.978 91.1253 179.889 91.0537 179.813C90.9821 179.736 90.8966 179.698 90.7974 179.698C90.6948 179.698 90.6102 179.741 90.5435 179.828C90.4816 179.907 90.4507 180.001 90.4507 180.108C90.4507 180.152 90.4735 180.174 90.519 180.174C90.6395 180.174 90.8267 180.156 91.0806 180.118C91.1343 180.11 91.1611 180.097 91.1611 180.079Z" fill="#FFF7CD"/>
<path d="M376.368 268.658L375.222 268.494H373.071C372.375 268.617 371.679 268.678 371.024 268.822C367.974 269.48 365.205 271.072 363.102 273.377C360.999 275.682 359.667 278.585 359.29 281.682L359.167 282.562V284.364C359.29 285.265 359.392 286.146 359.597 287.027C360.317 289.984 361.918 292.652 364.189 294.679C366.46 296.705 369.294 297.993 372.314 298.371L373.235 298.494H375.099C375.959 298.371 376.839 298.289 377.699 298.085C380.641 297.369 383.297 295.782 385.322 293.531C387.346 291.28 388.643 288.471 389.044 285.47L389.167 284.651V282.358C389.024 281.559 388.942 280.76 388.757 279.982C388.055 277.075 386.501 274.444 384.294 272.427C382.086 270.409 379.327 269.097 376.368 268.658Z" fill="#EE7D57"/>
<path d="M344.738 270.49V254.776C343.838 249.395 343.286 243.952 341.998 238.612C337.192 218.853 326.618 200.972 311.622 187.246C296.626 173.52 277.887 164.571 257.791 161.537C255.194 161.148 252.617 160.841 250.02 160.493H235.297C230.655 161.332 225.911 161.721 221.27 162.703C200.529 167.189 181.697 178.022 167.385 193.699C153.073 209.375 143.991 229.119 141.398 250.193C141.152 252.239 140.866 254.285 140.58 256.331V268.607L141.193 273.252H344.349C344.493 272.29 344.615 271.39 344.738 270.49Z" fill="#EE7D57"/>
<path d="M121.767 324.24L120.172 324.035H117.146C116.185 324.199 115.224 324.281 114.263 324.485C110.009 325.409 106.149 327.636 103.217 330.855C100.286 334.074 98.4288 338.126 97.9038 342.45L97.7197 343.698V346.235C97.8833 347.483 98.0265 348.731 98.3127 349.959C99.3306 354.092 101.575 357.821 104.75 360.655C107.925 363.489 111.883 365.295 116.103 365.836L117.391 366H120.009C121.215 365.816 122.442 365.693 123.628 365.427C127.744 364.428 131.462 362.207 134.294 359.056C137.126 355.905 138.939 351.971 139.496 347.77L139.68 346.624V343.411C139.476 342.286 139.373 341.181 139.108 340.076C138.115 336.013 135.935 332.337 132.847 329.516C129.759 326.696 125.902 324.859 121.767 324.24Z" fill="#EE7D57"/>
<path d="M119.1 340.35C119.1 340.414 119.041 340.446 118.924 340.446C118.484 340.446 117.816 340.408 116.92 340.332C116.029 340.256 115.361 340.218 114.916 340.218C114.354 340.218 114.025 340.238 113.932 340.279C113.715 340.379 113.606 340.66 113.606 341.123C113.606 341.68 113.747 341.996 114.028 342.072C114.146 342.102 114.324 342.116 114.564 342.116C114.969 342.116 115.572 342.096 116.375 342.055C117.184 342.008 117.79 341.984 118.194 341.984C118.388 341.984 118.484 342.5 118.484 343.531C118.484 344.428 118.452 344.949 118.388 345.096C118.347 345.201 118.268 345.254 118.15 345.254C118.227 345.254 118.042 345.233 117.597 345.192C116.97 345.134 116.021 345.104 114.749 345.104C114.339 345.104 114.107 345.107 114.055 345.113C113.756 345.16 113.606 345.286 113.606 345.491C113.606 346.323 113.642 347.281 113.712 348.365C113.771 349.344 113.8 349.78 113.8 349.675C113.8 349.827 113.615 349.915 113.246 349.938C113.346 349.933 113.085 349.93 112.464 349.93C111.368 349.93 110.662 349.892 110.346 349.815C110.176 349.774 110.091 349.684 110.091 349.543C110.091 348.893 110.111 347.917 110.152 346.616C110.199 345.31 110.223 344.331 110.223 343.681C110.223 342.907 110.188 341.935 110.117 340.763C110.012 338.952 109.956 337.979 109.95 337.845L109.941 337.739C109.936 337.593 110.023 337.52 110.205 337.52C110.639 337.52 111.292 337.528 112.165 337.546C113.044 337.563 113.703 337.572 114.143 337.572C114.611 337.572 115.314 337.537 116.252 337.467C117.195 337.396 117.901 337.361 118.37 337.361C118.663 337.361 118.827 337.481 118.862 337.722C118.862 337.974 118.874 338.352 118.897 338.855C118.909 338.984 118.947 339.233 119.012 339.603C119.07 339.925 119.1 340.174 119.1 340.35ZM128.135 345.043C128.135 345.635 127.944 345.972 127.563 346.054C127.499 346.065 126.893 346.13 125.744 346.247C125.053 346.323 124.021 346.414 122.65 346.52C122.732 346.9 122.981 347.19 123.397 347.39C123.737 347.554 124.124 347.636 124.558 347.636C125.079 347.636 125.604 347.495 126.131 347.214C126.354 347.073 126.576 346.933 126.799 346.792C126.922 346.851 127.127 347.149 127.414 347.688C127.707 348.228 127.854 348.57 127.854 348.717C127.854 348.758 127.81 348.825 127.722 348.919C127.007 349.687 125.896 350.07 124.391 350.07C122.996 350.07 121.871 349.663 121.016 348.849C120.137 348.022 119.697 346.918 119.697 345.535C119.697 344.188 120.09 343.083 120.875 342.222C121.684 341.331 122.756 340.886 124.092 340.886C125.217 340.886 126.172 341.296 126.957 342.116C127.742 342.937 128.135 343.912 128.135 345.043ZM125.059 344.507C125.059 344.144 124.93 343.824 124.672 343.549C124.414 343.273 124.106 343.136 123.749 343.136C123.38 343.136 123.075 343.291 122.835 343.602C122.612 343.889 122.501 344.226 122.501 344.612C122.501 344.771 122.583 344.85 122.747 344.85C123.181 344.85 123.854 344.782 124.769 344.647C124.962 344.618 125.059 344.571 125.059 344.507Z" fill="#FFF7CD"/>
<path d="M268.772 245.814C264.007 245.814 260.96 250.397 260.592 250.97C260.289 251.448 260.187 252.026 260.31 252.579C260.432 253.132 260.769 253.613 261.247 253.917C261.724 254.22 262.302 254.322 262.854 254.199C263.407 254.077 263.888 253.739 264.191 253.262C264.191 253.098 266.625 249.436 269.61 250.172C270.579 250.544 271.461 251.112 272.2 251.841C272.939 252.57 273.519 253.444 273.904 254.408C274.146 254.915 274.578 255.306 275.108 255.494C275.637 255.682 276.219 255.652 276.726 255.41C277.233 255.169 277.624 254.736 277.812 254.206C278 253.676 277.969 253.094 277.728 252.587C277.077 251.051 276.105 249.672 274.878 248.543C273.65 247.414 272.196 246.56 270.612 246.039C270.011 245.886 269.392 245.81 268.772 245.814Z" fill="#FFF7CD"/>
<path d="M245.088 254.735C247.21 254.735 249.245 254.208 250.745 253.27C252.246 252.333 253.088 251.061 253.088 249.735H237.088C237.088 251.061 237.931 252.333 239.432 253.27C240.932 254.208 242.967 254.735 245.088 254.735Z" fill="#FFF7CD"/>
<path d="M293.088 254.735C295.21 254.735 297.245 254.208 298.745 253.27C300.245 252.333 301.088 251.061 301.088 249.735H285.088C285.088 251.061 285.931 252.333 287.432 253.27C288.932 254.208 290.967 254.735 293.088 254.735Z" fill="#FFF7CD"/>
<path d="M85.5 161C85.7967 161 86.0867 161.117 86.3334 161.337C86.58 161.557 86.7723 161.869 86.8858 162.235C86.9994 162.6 87.0291 163.002 86.9712 163.39C86.9133 163.778 86.7704 164.134 86.5607 164.414C86.3509 164.694 86.0836 164.884 85.7926 164.962C85.5017 165.039 85.2001 164.999 84.926 164.848C84.6519 164.696 84.4176 164.44 84.2528 164.111C84.088 163.782 84 163.396 84 163C84 162.47 84.158 161.961 84.4393 161.586C84.7206 161.211 85.1022 161 85.5 161ZM86.7287 163C86.7246 162.567 86.5938 162.154 86.3643 161.848C86.1347 161.542 85.8246 161.367 85.5 161.362C85.1769 161.367 84.8684 161.542 84.6415 161.849C84.4145 162.156 84.2872 162.569 84.2872 163H86.7287Z" fill="#FFF7CD"/>
<path d="M75.5 161C75.7967 161 76.0867 161.117 76.3334 161.337C76.58 161.557 76.7723 161.869 76.8858 162.235C76.9994 162.6 77.0291 163.002 76.9712 163.39C76.9133 163.778 76.7704 164.134 76.5607 164.414C76.3509 164.694 76.0836 164.884 75.7926 164.962C75.5017 165.039 75.2001 164.999 74.926 164.848C74.6519 164.696 74.4176 164.44 74.2528 164.111C74.088 163.782 74 163.396 74 163C74 162.47 74.158 161.961 74.4393 161.586C74.7206 161.211 75.1022 161 75.5 161ZM76.7128 163C76.7128 162.569 76.5855 162.156 76.3585 161.849C76.1316 161.542 75.8231 161.367 75.5 161.362C75.1754 161.367 74.8653 161.542 74.6357 161.848C74.4062 162.154 74.2754 162.567 74.2713 163H76.7128Z" fill="#FFF7CD"/>
<path d="M82 164.162C82 163.695 81.1573 162.779 80.2809 163.049C79.8852 163.24 79.5674 163.473 79.3471 163.732C79.1268 163.991 79.0086 164.272 79 164.557C79.1348 165.365 81.9326 164.97 82 164.162Z" fill="#FFF7CD"/>
<path d="M407.144 94.8467C407.279 94.1473 405.778 92.5822 404.141 92.9818C402.925 93.2815 401.949 94.6469 402.189 95.2296C402.549 96.4118 406.934 95.9289 407.144 94.8467Z" fill="#FFF7CD"/>
<path d="M399.605 90.8052C399.227 90.2368 398.715 89.9175 398.18 89.9175C397.646 89.9175 397.133 90.2368 396.755 90.8052C396.564 91.0838 396.413 91.4171 396.309 91.7855C396.206 92.1538 396.152 92.5497 396.152 92.9497C396.152 93.3497 396.206 93.7456 396.309 94.1139C396.413 94.4823 396.564 94.8157 396.755 95.0942C397.137 95.6342 397.643 95.9293 398.167 95.9171C398.691 95.9049 399.191 95.5863 399.562 95.0288C399.932 94.4712 400.144 93.7186 400.152 92.9302C400.16 92.1419 399.964 91.3797 399.605 90.8052ZM399.348 94.7064C399.036 95.1662 398.617 95.4238 398.18 95.4238C397.744 95.4238 397.325 95.1662 397.013 94.7064L399.348 91.193C399.653 91.6621 399.824 92.2928 399.824 92.9497C399.824 93.6066 399.653 94.2373 399.348 94.7064Z" fill="#FFF7CD"/>
<path d="M412.572 90.7972C412.292 90.3773 411.936 90.0913 411.547 89.9753C411.158 89.8593 410.755 89.9186 410.389 90.1456C410.023 90.3725 409.71 90.7571 409.49 91.2505C409.27 91.7439 409.152 92.324 409.152 92.9175C409.152 93.5109 409.27 94.0911 409.49 94.5845C409.71 95.0779 410.023 95.4624 410.389 95.6894C410.755 95.9164 411.158 95.9756 411.547 95.8596C411.936 95.7436 412.292 95.4576 412.572 95.0378C412.944 94.4724 413.152 93.7108 413.152 92.9175C413.152 92.1241 412.944 91.3626 412.572 90.7972ZM412.316 94.6543C412.007 95.1089 411.59 95.3636 411.157 95.3636C410.723 95.3636 410.307 95.1089 409.997 94.6543L412.316 91.1806C412.62 91.6444 412.79 92.268 412.79 92.9175C412.79 93.5669 412.62 94.1905 412.316 94.6543Z" fill="#FFF7CD"/>
<path d="M410.959 251.715C403.682 251.715 396.762 245.23 395.856 236.298C393.47 236.749 390.869 237.177 388.244 237.533C381.79 238.426 375.289 238.942 368.774 239.077C374.163 237.23 379.157 234.394 383.496 230.715C385.305 229.164 386.996 227.48 388.554 225.679C387.746 224.105 387.283 222.379 387.196 220.613C387.11 218.848 387.402 217.084 388.053 215.44C389.307 212.498 391.66 210.156 394.615 208.907C394.831 204.987 395.961 201.17 397.915 197.76C399.87 194.35 402.596 191.44 405.877 189.261C409.498 187.044 413.646 185.822 417.897 185.722C422.147 185.622 426.348 186.646 430.071 188.691C432.024 188.319 434.032 188.337 435.978 188.745C437.924 189.153 439.768 189.942 441.405 191.067C443.944 192.897 445.819 195.498 446.749 198.479C450.897 198.251 455.026 199.172 458.679 201.139C459.586 201.662 469.774 207.553 469.774 218.861C469.661 222.703 468.47 226.437 466.337 229.64C464.203 232.843 461.212 235.388 457.701 236.987C452.878 239.174 447.427 239.57 442.335 238.103C439.672 241.582 435.801 243.945 431.479 244.731C428.825 245.155 426.108 244.935 423.557 244.09C423.366 244.541 418.666 251.763 410.959 251.715Z" fill="#231815"/>
<path d="M450.13 194.162H449.632C449.466 194.186 449.296 194.161 449.144 194.088C448.992 194.016 448.865 193.9 448.778 193.754L448.469 193.275C447.515 191.671 446.393 190.175 445.123 188.813C443.917 187.523 442.525 186.423 440.994 185.551C437.77 183.833 434.076 183.235 430.482 183.849C430.407 183.883 430.327 183.901 430.245 183.901C430.163 183.901 430.082 183.883 430.007 183.849L429.367 183.609C423.269 181.184 416.558 180.822 410.24 182.577C408.299 183.186 406.423 183.989 404.64 184.976C401.085 186.998 397.989 189.752 395.551 193.059C394.266 194.78 393.183 196.648 392.324 198.623C391.83 199.641 391.402 200.691 391.043 201.765C390.758 202.868 390.283 203.996 390.022 205.171C390.089 205.344 390.09 205.535 390.024 205.708C389.958 205.881 389.831 206.023 389.666 206.106L389.263 206.322C386.237 207.914 383.94 210.632 382.856 213.901C381.878 216.864 382.1 220.098 383.473 222.896L383.615 223.831C383.705 224.475 383.608 225.131 383.333 225.719C383.059 226.307 382.621 226.801 382.073 227.141C369.064 235.511 355.085 242.229 340.451 247.144L340.071 244.746C348.495 244.746 356.895 244.458 365.272 243.834C373.579 243.255 381.849 242.222 390.046 240.74C390.951 240.58 391.882 240.757 392.667 241.238C393.452 241.718 394.039 242.47 394.318 243.355L394.507 243.93C395.357 246.721 396.873 249.258 398.921 251.317C400.986 253.362 403.548 254.818 406.349 255.539C409.296 256.229 412.369 256.138 415.271 255.275C418.475 254.307 421.404 252.58 423.814 250.238C423.869 250.043 423.995 249.876 424.166 249.769C424.337 249.663 424.542 249.625 424.739 249.662L425.309 249.782C428.4 250.459 431.612 250.319 434.635 249.375C437.622 248.342 440.328 246.617 442.537 244.338C442.596 244.144 442.722 243.977 442.891 243.868C443.061 243.758 443.263 243.712 443.462 243.738H443.842C450.648 244.63 457.529 242.796 463.016 238.63C465.582 236.635 467.73 234.145 469.335 231.304C470.94 228.463 471.97 225.327 472.365 222.08C473.072 215.516 471.273 208.928 467.334 203.66C465.283 200.879 462.659 198.582 459.644 196.925C456.628 195.269 453.294 194.294 449.869 194.066L450.13 194.162ZM450.13 191.763C454.116 191.525 458.106 192.136 461.843 193.558C465.579 194.979 468.979 197.179 471.819 200.014C474.781 202.963 477.023 206.568 478.369 210.543C479.688 214.566 480.086 218.839 479.532 223.039C479.005 227.216 477.573 231.224 475.337 234.777C473.102 238.33 470.118 241.341 466.599 243.594C463.207 245.783 459.364 247.154 455.364 247.604C451.365 248.053 447.318 247.567 443.533 246.185L444.839 245.633C444.148 247.543 442.998 249.249 441.493 250.598C439.972 251.983 438.164 253.008 436.201 253.596C434.271 254.222 432.226 254.403 430.218 254.125C428.21 253.847 426.289 253.117 424.597 251.989L426.092 251.509C424.663 255.587 421.811 258.999 418.071 261.103C414.152 263.309 409.625 264.152 405.186 263.502C400.627 262.886 396.38 260.819 393.06 257.601C389.761 254.39 387.587 250.181 386.866 245.609L391.304 248.799C382.749 249.374 374.17 249.47 365.604 249.087C357.085 248.775 348.614 248.103 340.166 247.144C339.851 247.195 339.529 247.117 339.271 246.929C339.013 246.74 338.84 246.455 338.79 246.137C338.739 245.819 338.816 245.493 339.003 245.233C339.19 244.972 339.471 244.797 339.786 244.746C353.363 238.415 366.115 230.416 377.754 220.929L376.449 225.15C375.356 220.566 376.071 215.732 378.442 211.671C380.669 207.902 384.247 205.145 388.432 203.972L387.673 205.123C386.121 199.802 386.595 194.087 389.002 189.101C391.399 183.891 395.405 179.607 400.416 176.893C405.429 174.189 411.165 173.172 416.79 173.991C422.217 174.734 427.193 177.444 430.79 181.618L429.533 181.57C431.549 180.404 433.83 179.784 436.153 179.771C438.535 179.76 440.885 180.319 443.011 181.402C445.154 182.42 446.989 183.996 448.328 185.969C449.667 187.942 450.461 190.24 450.629 192.627L449.466 191.739L450.13 191.763Z" fill="white"/>
</svg>
