<svg width="480" height="285" viewBox="0 0 480 285" fill="none" xmlns="http://www.w3.org/2000/svg">
<path d="M262.716 52.0752H272.039C272.711 52.2675 273.394 52.4242 274.083 52.5444C286.553 53.9579 298.323 59.0342 307.899 67.1301C317.475 75.2259 324.426 85.9767 327.872 98.0196C330.8 108.418 331.303 119.346 329.344 129.969C327.893 138.333 331.144 145.005 337.522 150.227C356.045 165.386 364.427 184.91 362.219 208.678C361.018 221.95 355.662 234.508 346.911 244.574C338.16 254.64 326.457 261.703 313.459 264.762C309.636 265.7 305.69 265.7 301.867 266.537H296.96C296.176 266.322 295.376 266.165 294.568 266.068C286.06 265.48 277.754 263.205 270.137 259.376C254.886 252.077 241.35 241.649 230.414 228.773C211.72 207.353 200.662 180.357 198.97 152.002C197.291 130.727 201.047 109.373 209.887 89.9406C213.928 80.5141 220.239 72.2296 228.261 65.8231C236.282 59.4167 245.765 55.0866 255.867 53.2177C258.198 52.7484 260.467 52.4424 262.716 52.0752Z" fill="#FEEAB6"/>
<path d="M172.494 52.4629H174.661L175.806 52.6261C178.739 53.0804 181.47 54.3932 183.653 56.3981C185.837 58.4029 187.375 61.0096 188.073 63.8878C188.257 64.6834 188.339 65.4791 188.482 66.2544V68.621L188.359 69.437C187.955 72.428 186.656 75.2276 184.631 77.4698C182.607 79.7119 179.952 81.2924 177.013 82.0044C176.174 82.2084 175.295 82.29 174.437 82.4124H172.556L171.636 82.29C168.623 81.9072 165.797 80.6223 163.53 78.6046C161.264 76.5869 159.663 73.9312 158.94 70.9876C158.735 70.1103 158.653 69.2126 158.531 68.3353V66.5808L158.653 65.6831C159.028 62.599 160.358 59.7084 162.458 57.4151C164.558 55.1218 167.324 53.5403 170.368 52.8913C171.125 52.6465 171.82 52.5853 172.494 52.4629Z" fill="#FEEAB6"/>
<path d="M211.585 0.5H214.529L216.123 0.724419C220.25 1.3496 224.097 3.18447 227.177 5.99602C230.256 8.80757 232.429 12.469 233.419 16.5153C233.685 17.5965 233.787 18.7186 233.971 19.8203V23.0438C233.971 23.4314 233.869 23.7986 233.808 24.1863C233.25 28.3725 231.436 32.2924 228.604 35.431C225.773 38.5697 222.056 40.7803 217.943 41.7724C216.757 42.0581 215.53 42.1805 214.324 42.3641H211.707L210.44 42.0989C206.221 41.5635 202.264 39.7637 199.092 36.937C195.92 34.1104 193.682 30.39 192.673 26.2672C192.387 25.0431 192.244 23.7986 192.081 22.5541V20.1263C192.081 19.7183 192.203 19.2899 192.244 18.8818C192.775 14.5732 194.634 10.5354 197.564 7.32661C200.493 4.11778 204.35 1.89632 208.6 0.969236C209.663 0.76522 210.624 0.683614 211.585 0.5Z" fill="#FEEAB6"/>
<path d="M13.8049 64.7243L18.2618 61.8069C18.6578 61.6855 19.0469 61.5424 19.4272 61.3784C25.8076 58.1719 32.9983 56.9275 40.0881 57.8027C47.178 58.678 53.848 61.6337 59.253 66.2952C63.8873 70.347 67.5368 75.3981 69.925 81.066C70.7855 83.0902 72.2016 84.8307 74.0102 86.0868C75.8187 87.3429 77.9461 88.0636 80.1472 88.1658C87.0804 88.7377 93.7139 91.2388 99.2938 95.385C104.874 99.5312 109.176 105.156 111.713 111.621C114.249 118.085 114.917 125.13 113.642 131.955C112.366 138.779 109.198 145.11 104.497 150.227C102.963 151.86 101.082 153.084 99.5285 154.675L97.1979 156.205C96.7559 156.341 96.3253 156.512 95.9099 156.715C91.671 159.088 87.0003 160.593 82.1712 161.142C72.6367 162.42 62.9393 161.676 53.7125 158.959C38.1175 154.565 24.417 145.147 14.7454 132.172C7.28963 122.569 2.40678 111.23 0.556935 99.2234C-0.476639 93.4735 -0.0672333 87.5576 1.7486 82.0041C3.56444 76.4505 6.73018 71.4321 10.9632 67.3969C11.8627 66.4381 12.8645 65.6016 13.8049 64.7243Z" fill="#FEEAB6"/>
<path d="M36.2117 22.3093H37.4384H38.0721C39.7506 22.5644 41.3153 23.3115 42.5675 24.4557C43.8197 25.6 44.7029 27.0897 45.105 28.7358C45.2277 29.1847 45.2686 29.6335 45.3504 30.0823V31.388C45.3504 31.5513 45.3504 31.6941 45.3504 31.8573C45.1255 33.5574 44.3898 35.1497 43.2402 36.4243C42.0906 37.699 40.581 38.5962 38.9103 38.9978C38.4251 39.1092 37.9335 39.1909 37.4384 39.2427H36.3752H35.8437C34.1083 39.0433 32.4748 38.3218 31.1602 37.1739C29.8455 36.026 28.912 34.5061 28.4837 32.8161C28.3815 32.3265 28.3201 31.8165 28.2588 31.3064V30.2864V29.7763C28.4738 28.0218 29.2312 26.3777 30.4256 25.0725C31.62 23.7672 33.1922 22.8656 34.9237 22.4929C35.4144 22.4113 35.8232 22.3705 36.2117 22.3093Z" fill="#FEEAB6"/>
<path d="M105.478 54.1152H107.195L108.095 54.2376C110.447 54.5917 112.64 55.6364 114.395 57.2387C116.15 58.841 117.387 60.9283 117.949 63.2348C118.089 63.8545 118.199 64.481 118.276 65.1117V66.9478C118.276 67.1519 118.276 67.3763 118.276 67.6007C117.951 69.9825 116.916 72.2117 115.304 73.9983C113.692 75.7848 111.579 77.0461 109.24 77.6179C108.565 77.7811 107.87 77.8423 107.195 77.9443H105.703H104.967C102.544 77.6632 100.265 76.6483 98.4377 75.0362C96.6102 73.424 95.3213 71.2919 94.7445 68.9268C94.581 68.2331 94.4992 67.5191 94.397 66.8866V65.4381C94.397 65.2137 94.397 64.9689 94.4992 64.7445C94.7979 62.2849 95.8588 59.9798 97.5338 58.1511C99.2088 56.3223 101.414 55.0611 103.842 54.5437C104.374 54.3397 104.926 54.2172 105.478 54.1152Z" fill="#FEEAB6"/>
<path d="M26.4395 88.7367C25.6086 89.2815 24.9581 90.0599 24.5703 90.9734C24.1825 91.8869 24.0747 92.8946 24.2605 93.8692C24.4463 94.8439 24.9175 95.7417 25.6144 96.4492C26.3113 97.1568 27.2027 97.6423 28.176 97.8446C29.1494 98.0468 30.1609 97.9566 31.0829 97.5854C32.0049 97.2142 32.7959 96.5787 33.3561 95.7591C33.9163 94.9394 34.2205 93.9725 34.2303 92.9805C34.2401 91.9884 33.955 91.0157 33.411 90.1853C33.0491 89.6327 32.5815 89.1569 32.0351 88.7849C31.4886 88.413 30.874 88.1523 30.2264 88.0177C29.5788 87.8832 28.911 87.8774 28.2612 88.0008C27.6113 88.1242 26.9923 88.3743 26.4395 88.7367ZM31.4484 96.3669C30.9973 96.6616 30.4925 96.8648 29.9628 96.9648C29.4331 97.0649 28.8888 97.0598 28.361 96.9499C27.8332 96.8401 27.3323 96.6275 26.8869 96.3245C26.4414 96.0214 26.0601 95.6337 25.7648 95.1836C25.4695 94.7335 25.2659 94.2298 25.1656 93.7012C25.0654 93.1726 25.0705 92.6294 25.1806 92.1028C25.2907 91.5761 25.5037 91.0762 25.8074 90.6317C26.1111 90.1872 26.4995 89.8067 26.9506 89.512L31.4484 96.3669Z" fill="#7E7551"/>
<path d="M51.0749 72.7011C50.2411 73.2438 49.5875 74.0211 49.1967 74.9346C48.8059 75.8482 48.6956 76.8569 48.8797 77.8331C49.0638 78.8093 49.5341 79.709 50.2309 80.4183C50.9278 81.1276 51.8199 81.6147 52.7942 81.8177C53.7686 82.0207 54.7815 81.9307 55.7045 81.5589C56.6276 81.1872 57.4194 80.5505 57.9796 79.7294C58.5398 78.9083 58.8432 77.9398 58.8515 76.9466C58.8597 75.9533 58.5724 74.9799 58.026 74.1496C57.2917 73.0437 56.15 72.2714 54.8487 72.0002C53.5473 71.729 52.1913 71.9809 51.0749 72.7011ZM56.0633 80.3313C55.6123 80.6247 55.1077 80.8265 54.5785 80.9253C54.0493 81.0241 53.5058 81.0179 52.979 80.9071C52.4521 80.7963 51.9524 80.583 51.5081 80.2794C51.0639 79.9758 50.684 79.5879 50.39 79.1378C50.096 78.6877 49.8937 78.1843 49.7947 77.6561C49.6957 77.128 49.7019 76.5856 49.813 76.0599C49.9241 75.5342 50.1378 75.0355 50.442 74.5922C50.7462 74.1489 51.1349 73.7697 51.586 73.4764L56.0633 80.3313Z" fill="#7E7551"/>
<path d="M44.5327 89.8182C43.6066 90.2828 42.5844 90.5249 41.5478 90.5249C40.5112 90.5249 39.489 90.2828 38.5629 89.8182C38.3923 89.7573 38.2361 89.6617 38.1044 89.5375C37.9727 89.4132 37.8683 89.2631 37.7978 89.0965C37.7274 88.9299 37.6923 88.7504 37.695 88.5696C37.6976 88.3888 37.7378 88.2105 37.8132 88.046C37.8885 87.8815 37.9972 87.7344 38.1325 87.6141C38.2677 87.4937 38.4266 87.4027 38.5989 87.3468C38.7713 87.2909 38.9534 87.2714 39.1337 87.2894C39.3141 87.3074 39.4886 87.3627 39.6465 87.4516C39.6465 87.4516 42.1816 88.5941 43.49 87.2067C43.8608 86.6902 44.1212 86.1031 44.2548 85.4818C44.3885 84.8606 44.3926 84.2186 44.2669 83.5957C44.2317 83.2494 44.3357 82.9033 44.5562 82.6336C44.7766 82.3638 45.0954 82.1925 45.4425 82.1574C45.7895 82.1222 46.1363 82.226 46.4066 82.446C46.6769 82.666 46.8486 82.9841 46.8838 83.3304C47.0545 84.3306 47.0097 85.3555 46.7524 86.337C46.495 87.3185 46.0311 88.234 45.3914 89.0225C45.1354 89.3185 44.8474 89.5853 44.5327 89.8182Z" fill="#7E7551"/>
<path d="M110.77 62.3604C110.77 62.8057 110.75 63.4756 110.711 64.3701C110.676 65.2607 110.658 65.9307 110.658 66.3799V70.2412C110.658 70.3467 110.602 70.3994 110.488 70.3994C110.395 70.3994 110.252 70.4033 110.061 70.4111C109.873 70.4189 109.732 70.4229 109.639 70.4229C109.537 70.4229 109.385 70.415 109.182 70.3994C108.979 70.3838 108.826 70.376 108.725 70.376C108.654 70.376 108.57 70.3115 108.473 70.1826C108.191 69.8037 107.559 68.9639 106.574 67.6631C106.305 67.2998 105.895 66.7646 105.344 66.0576C105.328 66.0342 105.299 66.0107 105.256 65.9873C105.225 66.0146 105.209 66.0576 105.209 66.1162C105.209 66.5693 105.221 67.249 105.244 68.1553C105.271 69.0615 105.285 69.7412 105.285 70.1943C105.285 70.3311 105.232 70.3994 105.127 70.3994H103.1C102.986 70.3994 102.93 70.3389 102.93 70.2178C102.93 69.7959 102.949 69.1592 102.988 68.3076C103.031 67.4561 103.053 66.8174 103.053 66.3916C103.053 65.9424 103.033 65.2705 102.994 64.376C102.959 63.4814 102.941 62.8115 102.941 62.3662C102.941 62.2803 103.018 62.2373 103.17 62.2373C103.396 62.2373 103.676 62.2217 104.008 62.1904C104.086 62.1826 104.24 62.1572 104.471 62.1143C104.666 62.0791 104.82 62.0615 104.934 62.0615C104.98 62.0615 105.053 62.1279 105.15 62.2607L107.336 65.2549C107.531 65.5244 107.826 65.9189 108.221 66.4385C108.318 66.5596 108.402 66.6201 108.473 66.6201C108.523 66.6201 108.549 66.4678 108.549 66.1631C108.549 65.7529 108.525 65.1357 108.479 64.3115C108.436 63.4873 108.414 62.8682 108.414 62.4541C108.414 62.3096 108.455 62.2373 108.537 62.2373C108.771 62.2373 109.125 62.2275 109.598 62.208C110.07 62.1885 110.424 62.1787 110.658 62.1787C110.732 62.1787 110.77 62.2393 110.77 62.3604Z" fill="#7E7551"/>
<path d="M159.43 200.048L155.546 197.518C155.204 197.411 154.87 197.281 154.544 197.131C148.981 194.315 142.702 193.218 136.511 193.981C130.32 194.744 124.498 197.333 119.789 201.415C115.742 204.932 112.56 209.329 110.486 214.268C109.723 216.018 108.483 217.52 106.908 218.602C105.332 219.684 103.483 220.303 101.573 220.389C95.5361 220.898 89.7639 223.088 84.9119 226.707C80.0599 230.327 76.3227 235.233 74.125 240.866C71.9273 246.5 71.3572 252.636 72.4795 258.577C73.6019 264.517 76.3716 270.025 80.474 274.473C81.8029 275.901 83.4385 276.962 84.8082 278.35L86.8527 279.676C87.2389 279.795 87.6149 279.945 87.9771 280.125C91.6618 282.186 95.7202 283.497 99.9167 283.98C108.226 285.082 116.675 284.428 124.716 282.063C138.295 278.246 150.222 270.046 158.633 258.744C165.09 250.373 169.31 240.503 170.9 230.059C171.801 225.054 171.445 219.904 169.865 215.069C168.284 210.235 165.528 205.866 161.843 202.354C161.107 201.538 160.248 200.803 159.43 200.048Z" fill="#FEEAB6"/>
<path d="M139.927 163.121H138.884H138.312C136.848 163.336 135.481 163.983 134.388 164.98C133.295 165.976 132.526 167.275 132.179 168.711C132.091 169.095 132.022 169.483 131.974 169.874V171.017V171.425C132.191 172.889 132.843 174.254 133.845 175.345C134.847 176.436 136.154 177.202 137.596 177.545C138.015 177.634 138.438 177.703 138.864 177.749H139.804H140.254C141.746 177.559 143.145 176.924 144.269 175.926C145.393 174.929 146.188 173.615 146.551 172.159C146.551 171.71 146.694 171.282 146.755 170.833V169.935V169.507C146.544 167.997 145.871 166.59 144.828 165.476C143.785 164.363 142.424 163.597 140.929 163.284C140.602 163.203 140.275 163.182 139.927 163.121Z" fill="#FEEAB6"/>
<path d="M79.5953 190.806H78.1029L77.3056 190.908C75.2609 191.221 73.3553 192.133 71.8303 193.527C70.3053 194.922 69.2296 196.737 68.7393 198.742C68.5962 199.293 68.5553 199.844 68.4531 200.395V201.986C68.463 202.17 68.463 202.354 68.4531 202.537C68.7286 204.615 69.6279 206.562 71.0328 208.12C72.4377 209.679 74.2824 210.776 76.3242 211.269C76.9185 211.396 77.519 211.491 78.1233 211.555H79.5953H80.2496C82.3411 211.286 84.3022 210.392 85.8749 208.99C87.4477 207.588 88.5584 205.744 89.0611 203.7C89.1838 203.088 89.2656 202.476 89.3473 201.864V200.619C89.3473 200.415 89.3473 200.211 89.3473 200.007C89.0831 197.859 88.1529 195.847 86.6867 194.252C85.2205 192.657 83.2916 191.56 81.1696 191.112C80.5767 191.031 80.086 190.888 79.5953 190.806Z" fill="#FEEAB6"/>
<path d="M148.411 220.96C149.125 221.44 149.68 222.12 150.008 222.914C150.336 223.709 150.422 224.582 150.255 225.424C150.088 226.267 149.676 227.042 149.07 227.652C148.464 228.262 147.691 228.68 146.848 228.854C146.006 229.028 145.13 228.949 144.331 228.629C143.533 228.309 142.846 227.76 142.359 227.053C141.871 226.345 141.603 225.51 141.588 224.651C141.574 223.792 141.814 222.948 142.278 222.225C142.593 221.734 143.002 221.311 143.483 220.981C143.964 220.651 144.506 220.42 145.078 220.303C145.649 220.185 146.238 220.182 146.811 220.295C147.384 220.408 147.928 220.634 148.411 220.96ZM144.057 227.59C144.449 227.846 144.887 228.022 145.348 228.109C145.808 228.196 146.281 228.191 146.739 228.096C147.198 228 147.633 227.815 148.02 227.552C148.406 227.288 148.738 226.951 148.994 226.56C149.25 226.169 149.427 225.731 149.514 225.272C149.601 224.812 149.596 224.341 149.5 223.883C149.404 223.426 149.219 222.991 148.955 222.605C148.691 222.219 148.353 221.889 147.962 221.633L144.057 227.59Z" fill="#7E7551"/>
<path d="M126.985 206.964C127.698 207.445 128.254 208.125 128.582 208.919C128.91 209.713 128.996 210.586 128.829 211.429C128.662 212.272 128.25 213.046 127.644 213.656C127.038 214.266 126.265 214.684 125.422 214.858C124.579 215.032 123.704 214.954 122.905 214.634C122.106 214.313 121.42 213.765 120.932 213.057C120.444 212.35 120.177 211.514 120.162 210.656C120.148 209.797 120.388 208.953 120.852 208.229C121.166 207.739 121.576 207.316 122.057 206.986C122.538 206.656 123.08 206.425 123.651 206.307C124.223 206.189 124.812 206.187 125.385 206.3C125.957 206.412 126.501 206.638 126.985 206.964ZM122.63 213.595C123.422 214.122 124.391 214.315 125.325 214.129C126.258 213.943 127.08 213.395 127.609 212.605C128.137 211.815 128.33 210.848 128.144 209.917C127.958 208.985 127.409 208.165 126.617 207.638L122.63 213.595Z" fill="#7E7551"/>
<path d="M132.751 221.898C133.546 222.314 134.427 222.54 135.325 222.558C136.223 222.576 137.112 222.385 137.923 222C138.086 221.959 138.239 221.883 138.369 221.777C138.499 221.671 138.605 221.537 138.677 221.386C138.75 221.234 138.789 221.069 138.79 220.901C138.791 220.733 138.755 220.567 138.685 220.414C138.615 220.262 138.512 220.127 138.383 220.018C138.254 219.91 138.103 219.832 137.941 219.788C137.778 219.745 137.608 219.738 137.443 219.767C137.277 219.797 137.12 219.863 136.983 219.96C136.983 219.96 134.775 220.96 133.65 219.756C133.328 219.303 133.102 218.788 132.986 218.244C132.87 217.701 132.866 217.139 132.976 216.594C132.976 216.317 132.876 216.049 132.694 215.84C132.512 215.631 132.26 215.496 131.985 215.458C131.71 215.421 131.431 215.484 131.2 215.637C130.968 215.789 130.8 216.021 130.727 216.288C130.558 217.166 130.584 218.07 130.803 218.937C131.022 219.804 131.428 220.613 131.994 221.306C132.218 221.537 132.473 221.736 132.751 221.898Z" fill="#7E7551"/>
<path d="M83.2075 198.048C83.2075 198.456 83.1896 199.07 83.1538 199.89C83.1216 200.707 83.1055 201.321 83.1055 201.732V205.272C83.1055 205.369 83.0535 205.417 82.9497 205.417C82.8638 205.417 82.7331 205.421 82.5576 205.428C82.3857 205.435 82.2568 205.438 82.1709 205.438C82.0778 205.438 81.9382 205.431 81.752 205.417C81.5658 205.403 81.4261 205.396 81.333 205.396C81.2686 205.396 81.1916 205.336 81.1021 205.218C80.8442 204.871 80.2642 204.101 79.3618 202.909C79.1147 202.576 78.7388 202.085 78.2339 201.437C78.2196 201.416 78.1927 201.394 78.1533 201.373C78.1247 201.398 78.1104 201.437 78.1104 201.491C78.1104 201.906 78.1211 202.529 78.1426 203.36C78.1676 204.191 78.1802 204.814 78.1802 205.229C78.1802 205.354 78.1318 205.417 78.0352 205.417H76.1768C76.0729 205.417 76.021 205.361 76.021 205.25C76.021 204.864 76.0389 204.28 76.0747 203.5C76.1141 202.719 76.1338 202.133 76.1338 201.743C76.1338 201.331 76.1159 200.715 76.0801 199.896C76.0479 199.076 76.0317 198.461 76.0317 198.053C76.0317 197.974 76.1016 197.935 76.2412 197.935C76.4489 197.935 76.7049 197.921 77.0093 197.892C77.0809 197.885 77.2223 197.862 77.4336 197.822C77.6126 197.79 77.7541 197.774 77.8579 197.774C77.9009 197.774 77.9671 197.835 78.0566 197.957L80.0601 200.701C80.2391 200.948 80.5094 201.31 80.8711 201.786C80.9606 201.897 81.0376 201.953 81.1021 201.953C81.1486 201.953 81.1719 201.813 81.1719 201.534C81.1719 201.158 81.1504 200.592 81.1074 199.836C81.068 199.081 81.0483 198.513 81.0483 198.134C81.0483 198.001 81.0859 197.935 81.1611 197.935C81.376 197.935 81.7 197.926 82.1333 197.908C82.5666 197.89 82.8906 197.881 83.1055 197.881C83.1735 197.881 83.2075 197.937 83.2075 198.048Z" fill="#7E7551"/>
<path d="M385.056 135.538C378.432 126.602 371.971 117.177 365.245 107.445L364.775 106.772L365.266 106.14L404.662 56.7065L407.115 53.6462L409.65 56.5229L435.574 85.738L436.474 86.758L435.308 87.3701L393.581 108.873L394.154 106.405L413.249 132.131L413.862 132.947L413.085 133.559L376.653 162.468L373.791 164.733L375.079 161.244C378.432 152.268 381.621 143.658 385.056 135.538ZM391.843 134.763C386.978 144.291 381.887 153.43 376.939 162.04L375.386 160.816L411.818 131.866L411.634 133.294L391.557 108.323L390.269 106.752L392.109 105.854L434.388 85.4523L434.122 87.0845L404.846 61.3172L409.834 61.1132L366.901 107.466V106.18C375.058 115.259 383.522 124.787 391.843 134.763Z" fill="white"/>
<path d="M408.403 132.253L388.409 106.384L429.952 85.656L407.402 63.1531L369.804 106.894L391.823 134.763L383.87 151.696L408.403 132.253Z" fill="#231815"/>
<path d="M416.622 174.709C418.074 165.569 419.914 156.225 421.897 146.371L422.04 145.555H422.817L476.075 139.129L480 138.639L479.714 142.495L477.342 175.484L477.24 176.851L475.993 176.464L438.068 164.508L440.113 163.162L436.024 189.99L435.881 190.969L434.9 190.867L395.769 186.379L392.252 185.971L395.524 184.4C402.986 180.83 409.855 177.565 416.622 174.709ZM421.999 178.973C413.208 181.748 404.54 184.114 396.321 186.216L396.096 184.176L435.247 188.664L434.102 189.541L436.964 162.57L437.189 160.53L439.111 161.203L476.647 174.342L475.298 175.301L472.926 142.311L476.586 145.698L422.98 147.391L423.921 146.494C423.512 157.001 422.94 167.895 421.999 178.994V178.973Z" fill="white"/>
<path d="M432.998 187.072L436.535 159.612L473.866 172.036V145.086L425.106 148.799L421.569 178.647L406.645 184.033L432.998 187.072Z" fill="#231815"/>
<path d="M318.959 119.237C317.095 120.165 315.559 121.64 314.558 123.463C313.557 125.286 313.138 127.371 313.357 129.438L313.05 128.255L321.228 143.78C321.267 143.853 321.291 143.932 321.298 144.013C321.306 144.095 321.297 144.177 321.272 144.255C321.247 144.333 321.207 144.405 321.154 144.467C321.101 144.529 321.035 144.58 320.962 144.617C320.832 144.684 320.682 144.702 320.54 144.669C320.397 144.635 320.271 144.551 320.185 144.433L309.677 130.377C309.438 130.062 309.328 129.668 309.37 129.275C309.928 126.767 311.046 124.416 312.641 122.4C314.189 120.52 316.176 119.048 318.427 118.115C318.501 118.082 318.58 118.064 318.661 118.063C318.741 118.061 318.822 118.076 318.896 118.107C318.971 118.138 319.038 118.183 319.095 118.241C319.151 118.298 319.195 118.367 319.224 118.442C319.29 118.583 319.299 118.744 319.25 118.892C319.2 119.04 319.096 119.163 318.959 119.237Z" fill="#7E7551"/>
<path d="M223.647 120.829C226.101 121.166 228.418 122.16 230.352 123.705C232.362 125.308 233.902 127.423 234.809 129.826C234.89 130.126 234.89 130.443 234.809 130.744C231.967 142.721 225.115 153.372 215.387 160.938C215.276 161.049 215.125 161.111 214.968 161.111C214.811 161.111 214.66 161.049 214.549 160.938C214.444 160.828 214.385 160.682 214.385 160.53C214.385 160.378 214.444 160.232 214.549 160.122C223.263 152.253 229.026 141.651 230.884 130.071V130.989C230.608 129.013 229.795 127.15 228.533 125.603C227.172 123.963 225.392 122.722 223.381 122.012C223.304 121.987 223.234 121.947 223.174 121.893C223.113 121.84 223.064 121.776 223.03 121.703C222.996 121.631 222.976 121.552 222.973 121.472C222.97 121.391 222.984 121.312 223.013 121.237C223.058 121.108 223.145 120.998 223.259 120.924C223.374 120.85 223.511 120.816 223.647 120.829Z" fill="#7E7551"/>
<path d="M245.911 108.077C244.26 108.077 242.647 108.566 241.274 109.482C239.902 110.397 238.833 111.698 238.202 113.221C237.572 114.743 237.408 116.417 237.731 118.033C238.055 119.648 238.851 121.131 240.02 122.294C241.188 123.458 242.677 124.249 244.296 124.568C245.915 124.887 247.593 124.719 249.117 124.086C250.641 123.453 251.942 122.382 252.856 121.011C253.77 119.639 254.256 118.028 254.252 116.381C254.252 115.289 254.036 114.207 253.617 113.199C253.197 112.19 252.582 111.274 251.808 110.502C251.033 109.731 250.113 109.12 249.101 108.704C248.089 108.288 247.005 108.075 245.911 108.077ZM239.062 116.381C239.157 114.646 239.915 113.014 241.179 111.819C242.444 110.625 244.119 109.959 245.86 109.959C247.601 109.959 249.275 110.625 250.54 111.819C251.804 113.014 252.562 114.646 252.657 116.381H239.062Z" fill="#7E7551"/>
<path d="M294.671 108.077C293.019 108.073 291.404 108.559 290.029 109.472C288.654 110.385 287.582 111.685 286.948 113.206C286.314 114.728 286.147 116.404 286.468 118.02C286.79 119.637 287.584 121.122 288.752 122.287C289.92 123.452 291.408 124.246 293.028 124.566C294.648 124.887 296.327 124.72 297.852 124.088C299.377 123.455 300.679 122.385 301.594 121.013C302.509 119.641 302.996 118.029 302.992 116.381C302.986 114.18 302.108 112.071 300.549 110.515C298.989 108.959 296.876 108.083 294.671 108.077ZM287.863 116.381C287.958 114.646 288.716 113.014 289.98 111.819C291.245 110.625 292.92 109.959 294.661 109.959C296.402 109.959 298.077 110.625 299.341 111.819C300.605 113.014 301.363 114.646 301.458 116.381H287.863Z" fill="#7E7551"/>
<path d="M280.707 122.563C281.28 119.951 274.983 114.096 268.195 115.585C263.125 116.707 259.118 121.706 260.017 123.991C261.796 128.092 279.951 126.602 280.707 122.563Z" fill="#7E7551"/>
<path d="M222.261 15.0317C222.261 15.9224 222.222 17.2622 222.144 19.0513C222.073 20.8325 222.038 22.1724 222.038 23.0708V30.7935C222.038 31.0044 221.925 31.1099 221.698 31.1099C221.511 31.1099 221.226 31.1177 220.843 31.1333C220.468 31.1489 220.187 31.1567 219.999 31.1567C219.796 31.1567 219.491 31.1411 219.085 31.1099C218.679 31.0786 218.374 31.063 218.171 31.063C218.03 31.063 217.862 30.9341 217.667 30.6763C217.104 29.9185 215.839 28.2388 213.87 25.6372C213.331 24.9106 212.511 23.8403 211.409 22.4263C211.378 22.3794 211.319 22.3325 211.233 22.2856C211.171 22.3403 211.14 22.4263 211.14 22.5435C211.14 23.4497 211.163 24.8091 211.21 26.6216C211.265 28.4341 211.292 29.7935 211.292 30.6997C211.292 30.9731 211.187 31.1099 210.976 31.1099H206.921C206.694 31.1099 206.581 30.9888 206.581 30.7466C206.581 29.9028 206.62 28.6294 206.698 26.9263C206.784 25.2231 206.827 23.9458 206.827 23.0942C206.827 22.1958 206.788 20.8521 206.71 19.063C206.64 17.2739 206.604 15.9341 206.604 15.0435C206.604 14.8716 206.757 14.7856 207.062 14.7856C207.515 14.7856 208.073 14.7544 208.737 14.6919C208.894 14.6763 209.202 14.6255 209.663 14.5396C210.054 14.4692 210.362 14.4341 210.589 14.4341C210.683 14.4341 210.827 14.5669 211.022 14.8325L215.394 20.8208C215.784 21.3599 216.374 22.1489 217.163 23.188C217.358 23.4302 217.526 23.5513 217.667 23.5513C217.769 23.5513 217.819 23.2466 217.819 22.6372C217.819 21.8169 217.772 20.5825 217.679 18.9341C217.593 17.2856 217.55 16.0474 217.55 15.2192C217.55 14.9302 217.632 14.7856 217.796 14.7856C218.265 14.7856 218.972 14.7661 219.917 14.7271C220.862 14.688 221.569 14.6685 222.038 14.6685C222.187 14.6685 222.261 14.7896 222.261 15.0317Z" fill="#7E7551"/>
<path d="M293.669 128.336C295.54 128.508 297.423 128.185 299.128 127.398C300.642 126.7 301.966 125.65 302.992 124.338" stroke="#7E7551" stroke-width="4" stroke-linecap="round" stroke-linejoin="round"/>
</svg>
