<svg width="200" height="55" viewBox="0 0 200 55" fill="none" xmlns="http://www.w3.org/2000/svg">
<path d="M25.3624 0C11.3472 0 0 11.3867 0 25.4508C0 39.5148 11.3472 50.9015 25.3624 50.9015C39.3777 50.9015 50.7249 39.5148 50.7249 25.4508C50.7249 11.4174 39.3777 0 25.3624 0ZM25.3624 46.2545C13.9233 46.2545 4.66154 36.9605 4.66154 25.4815C4.66154 14.0025 13.9233 4.70855 25.3624 4.70855V46.2545Z" fill="#3DCE94"/>
<path d="M173.796 0C159.781 0 148.434 11.3867 148.434 25.4508C148.434 39.5148 159.781 50.9015 173.796 50.9015C187.811 50.9015 199.158 39.5148 199.158 25.4508C199.189 11.4174 187.811 0 173.796 0ZM173.796 46.2545C162.357 46.2545 153.095 36.9605 153.095 25.4815C153.095 14.0025 162.357 4.70855 173.796 4.70855V46.2545Z" fill="#3DCE94"/>
<path d="M98.629 54.718C83.8164 54.718 74.3093 40.4385 73.1746 38.6228C71.2118 35.5453 72.1318 31.4522 75.2293 29.4826C78.3268 27.5131 82.375 28.4363 84.3377 31.5445C84.6444 32.0369 91.9127 43.4544 101.205 41.1771C107.093 39.7614 111.939 33.4218 114.515 27.9439C116.079 24.651 119.974 23.2046 123.317 24.7741C126.598 26.3436 128.009 30.2828 126.476 33.6065C124.053 38.7151 117.06 50.9635 104.303 54.0409C102.309 54.5333 100.408 54.718 98.629 54.718Z" fill="#3DCE94"/>
</svg>
