<svg width="200" height="55" viewBox="0 0 200 55" fill="none" xmlns="http://www.w3.org/2000/svg">
<path d="M173.796 0C187.811 0 199.158 11.3867 199.158 25.4508C199.158 39.5148 187.811 50.9015 173.796 50.9015C159.78 50.9015 148.433 39.5148 148.433 25.4508C148.433 11.4174 159.78 0 173.796 0ZM173.796 46.2545C185.235 46.2545 194.497 36.9605 194.497 25.4815C194.497 14.0025 185.235 4.70855 173.796 4.70855V46.2545Z" fill="#3DCE94"/>
<path d="M25.3641 0C39.3794 0 50.7266 11.3867 50.7266 25.4508C50.7266 39.5148 39.3794 50.9015 25.3641 50.9015C11.3489 50.9015 0.00168991 39.5148 0.00168991 25.4508C-0.0289764 11.4174 11.3489 0 25.3641 0ZM25.3641 46.2545C36.8033 46.2545 46.065 36.9605 46.065 25.4815C46.065 14.0025 36.8033 4.70855 25.3641 4.70855V46.2545Z" fill="#3DCE94"/>
<path d="M98.629 54.718C83.8164 54.718 74.3093 40.4385 73.1746 38.6228C71.2118 35.5453 72.1318 31.4522 75.2293 29.4826C78.3268 27.5131 82.375 28.4363 84.3377 31.5445C84.6444 32.0369 91.9127 43.4544 101.205 41.1771C107.093 39.7614 111.939 33.4218 114.515 27.9439C116.079 24.651 119.974 23.2046 123.317 24.7741C126.598 26.3436 128.009 30.2828 126.476 33.6065C124.053 38.7151 117.06 50.9635 104.303 54.0409C102.309 54.5333 100.408 54.718 98.629 54.718Z" fill="#3DCE94"/>
</svg>
