<svg width="117" height="39" viewBox="0 0 117 39" fill="none" xmlns="http://www.w3.org/2000/svg">
<g id="LOGO">
<path id="Vector" d="M18.362 0H3.22727V6.67438H18.362V9.94093C18.362 14.3805 18.362 18.8244 18.362 23.264V24.7667C18.362 30.2038 16.2776 32.1004 12.1001 32.1004C9.4892 32.1004 6.81836 30.5977 4.62689 27.7464L0 32.6655C3.21443 37.2721 8.1067 38.9888 12.3484 38.9888C22.7279 38.9888 26.3318 32.8496 26.3318 25.4217V10.5917V7.97586C26.3361 3.57052 22.7664 0 18.362 0Z" fill="#AAA6A8"/>
<path id="Vector_2" d="M39.3821 18.6403C40.8502 17.1718 42.772 16.4398 44.6938 16.4398V8.92627C40.8459 8.92627 37.0023 10.3947 34.0661 13.3273C31.1299 16.2642 29.666 20.1087 29.666 23.9575H37.1821C37.1778 22.031 37.914 20.1087 39.3821 18.6403Z" fill="#AAA6A8"/>
<path id="Vector_3" d="M39.3821 29.2705C37.914 27.8021 37.1821 25.8798 37.1821 23.9576H29.666C29.666 27.8063 31.1342 31.6509 34.0661 34.5878C37.0023 37.5247 40.8459 38.9888 44.6938 38.9888V31.471C42.772 31.471 40.8459 30.739 39.3821 29.2705Z" fill="#AAA6A8"/>
<path id="Vector_4" d="M52.2056 23.9576C52.2056 25.8798 51.4737 27.8063 50.0056 29.2705C48.5375 30.739 46.6157 31.471 44.6938 31.471V38.9888C48.5417 38.9888 52.3854 37.5204 55.3216 34.5878C58.2535 31.6509 59.7216 27.8021 59.7216 23.9576H52.2056Z" fill="#AAA6A8"/>
<path id="Vector_5" d="M63.6722 8.92627H47.7584V16.444H63.6722V8.92627Z" fill="#51B98B"/>
<path id="Vector_6" d="M59.723 20.7416V4.82413L52.2069 4.82413V20.7416H59.723Z" fill="#51B98B"/>
<path id="Vector_7" d="M59.7202 32.9275V23.9541H52.2042V32.9275H59.7202Z" fill="#AAA6A8"/>
<path id="Vector_8" d="M59.7214 38.9854V23.9542H55.0475V38.9854H59.7214Z" fill="#AAA6A8"/>
<path id="Vector_9" d="M112.073 13.3274C106.205 7.45784 96.6897 7.45784 90.8215 13.3274C84.9534 19.1969 84.9534 28.714 90.8215 34.5835C96.6897 40.453 106.205 40.453 112.073 34.5835C117.945 28.714 117.945 19.1969 112.073 13.3274ZM110.117 32.627C105.327 37.4176 97.5671 37.4133 92.7819 32.627L110.117 15.2881C114.902 20.0745 114.906 27.8363 110.117 32.627Z" fill="#AAA6A8"/>
<path id="Vector_10" d="M82.7106 0.325363C72.3311 0.325363 68.7272 6.46459 68.7272 13.8925C68.7486 17.5186 68.77 21.1448 68.7914 24.7667C68.7914 30.2038 66.7069 32.1004 62.5294 32.1004C59.9185 32.1004 57.2477 30.5977 55.0562 27.7464L50.4293 32.6655C51.2426 33.83 52.1628 34.8104 53.1558 35.6238C53.6395 34.7333 54.4227 33.9285 55.3729 33.7144C55.6041 33.663 55.8267 33.7829 55.8994 34.0141C56.2161 35.0416 55.9037 36.1889 55.313 37.088C57.7228 38.4237 60.3551 38.9845 62.7777 38.9845C73.1572 38.9845 76.7611 32.8453 76.7611 25.4174C76.7397 21.7913 76.7183 18.1651 76.6969 14.5432C76.6969 9.10609 78.7814 7.20952 82.9588 7.20952C84.9491 7.20952 86.9736 8.08717 88.797 9.7654C90.5776 8.17707 92.585 6.98262 94.7037 6.17775C91.5021 1.93081 86.8067 0.325363 82.7106 0.325363Z" fill="#AAA6A8"/>
<path id="Vector_11" d="M63.0602 32.734H55.0476V38.9846H63.0602V32.734Z" fill="#AAA6A8"/>
</g>
</svg>
