<svg width="450" height="255" viewBox="0 0 450 255" fill="none" xmlns="http://www.w3.org/2000/svg">
<path d="M47.1716 224.911C75.3359 224.019 103.493 223.127 131.657 222.235C132.017 184.144 132.377 146.052 132.738 107.961C104.213 110.187 75.6886 112.414 47.1641 114.641V224.911H47.1716Z" fill="#FFAD5C"/>
<path d="M103.92 118.457C111.38 117.603 118.839 116.756 126.306 115.901C127.192 93.6579 128.077 71.4223 128.963 49.1792C129.608 32.8811 118.306 20.5263 106.727 24.867C104.701 25.6241 102.675 26.3888 100.648 27.146C94.7873 29.3501 91.2001 37.3717 92.4684 45.4532C96.2882 69.7879 100.108 94.1227 103.92 118.457Z" fill="#5F634C"/>
<path d="M116.979 118.457C120.911 129.485 125.234 146.278 123.733 166.437C121.602 195.059 108.581 218.967 105.722 218.165C103.238 217.468 109.444 198.433 109.474 167.186C109.497 147.207 106.983 130.819 104.792 119.896C104.664 119.971 104.499 120.061 104.304 120.166C104.004 120.324 103.598 120.519 103.163 120.698C87.4188 127.101 76.7323 139.583 76.7323 153.932C76.7398 153.962 76.7549 153.992 76.7624 154.022C78.676 159.742 78.676 165.927 76.7624 171.647L76.7323 171.737C76.7323 174.256 77.0701 187.645 91.5237 198.463C94.0002 200.315 97.8425 203.703 104.019 205.308C112.679 207.557 120.026 205.105 122.975 203.921C123.388 208.164 123.418 213.577 122.225 219.664C119.29 234.583 110.758 244.419 106.405 248.789C105.204 249.396 103.854 249.741 102.413 249.741H72.3422C52.8981 249.741 35.2926 241.87 22.55 229.14C2.393 209.004 1.92773 184.084 1.92773 179.399C2.5356 176.962 3.15093 174.518 3.7663 172.082C5.2897 166.009 5.2897 159.652 3.7663 153.58C3.15093 151.143 2.5431 148.699 1.92773 146.263C1.92773 107.414 33.454 75.9199 72.3422 75.9199H98.3903C101.557 75.9199 104.461 77.0669 106.705 78.9636C108.716 84.9236 110.675 91.3484 112.469 98.2155C114.337 105.315 115.808 112.085 116.979 118.457Z" fill="url(#paint0_radial_2620_1602)"/>
<path d="M101.954 80.2228C95.7932 79.2332 86.8329 78.4385 76.2516 79.8105C69.1073 80.7326 42.2338 84.2186 23.9078 106.462C13.334 119.304 11.623 132.955 9.73184 145.783C8.74876 152.447 1.85961 199.347 29.2134 226.381C38.6166 235.677 49.8583 240.437 50.7888 240.82C58.7511 244.111 67.3662 245.843 76.244 245.843C84.2813 246.705 92.3262 247.574 100.363 248.437C102.007 248.699 103.65 248.954 105.301 249.216C105.294 249.231 105.279 249.246 105.271 249.261C103.403 251.99 100.311 253.624 96.9939 253.624H76.244C56.3947 253.624 37.731 245.903 23.6977 231.884C20.2756 228.465 17.2363 224.769 14.5947 220.818C8.74874 212.077 6.29478 204.288 4.83891 199.527C-1.73502 178.071 0.111033 153.212 0.65886 146.945C1.16166 138.96 3.75071 114.138 22.8946 94.5867C26.0015 91.4156 34.3465 83.2065 47.7945 77.6439C58.1282 73.3707 67.0661 72.7484 76.244 72.0287C86.0824 71.2566 94.3448 71.6914 100.228 72.2761L122.209 75.7322C122.209 75.7322 114.735 77.9737 114.705 77.9812C110.457 78.7234 106.202 79.4731 101.954 80.2228Z" fill="#51422A"/>
<path d="M95.0204 114.206C91.5533 114.303 88.0936 114.408 84.6266 114.506C66.3231 114.506 51.4193 131.674 51.2917 152.837L52.1547 156.81C52.5749 158.752 52.7851 160.739 52.7851 162.733C52.7851 164.727 52.5749 166.721 52.1547 168.655L51.2917 172.629C51.3293 176.707 52.1998 189.399 61.0551 199.655C67.3513 206.949 75.7188 210.96 84.6266 210.96C88.6565 211.462 92.6864 211.965 96.7163 212.467C97.5418 212.617 98.3673 212.767 99.1928 212.917C99.1853 212.924 99.1853 212.932 99.1778 212.939C98.2397 214.528 96.6938 215.473 95.0278 215.473H84.6266C74.6831 215.473 65.3251 210.99 58.2934 202.841C53.7907 197.623 50.6088 191.303 48.8378 184.039C47.637 179.113 47.3818 174.96 47.3818 172.344V172.066L48.3575 167.546C49.0404 164.39 49.0404 161.054 48.3575 157.89L47.3818 153.369V153.354C47.3818 142.072 51.0966 131.171 57.8881 123.075C61.4903 118.771 65.7303 115.45 70.3681 113.231C75.5462 110.75 80.0263 110.39 84.6266 109.97C89.557 109.52 93.6995 109.775 96.6488 110.113C96.8589 110.188 97.2116 110.353 97.5118 110.735C98.1797 111.56 98.0371 112.677 98.0146 112.834C97.0165 113.299 96.0184 113.756 95.0204 114.206Z" fill="url(#paint1_radial_2620_1602)"/>
<path d="M73.3181 198.666C75.3593 199.131 76.3724 199.385 78.4661 200.143C79.119 200.375 79.3516 200.9 79.0965 201.545C78.271 203.614 77.8658 204.506 76.7851 206.372C75.0891 209.289 71.2694 210.361 68.4402 208.682C67.5922 208.179 66.9468 207.227 66.5415 206.335C66.1363 205.443 65.8586 204.333 66.0462 203.359C66.6691 200.135 70.0311 197.916 73.3181 198.666Z" fill="#FFAD5C"/>
<path d="M61.7375 180.771C63.6812 181.55 64.6343 181.963 66.593 183.042C67.2009 183.38 67.3509 183.934 66.9982 184.527C65.8575 186.438 65.3172 187.263 63.9589 188.935C61.8277 191.551 57.8802 192.008 55.3512 189.902C54.5933 189.272 54.1055 188.23 53.8503 187.285C53.5952 186.341 53.4902 185.201 53.8279 184.272C54.946 181.176 58.6082 179.519 61.7375 180.771Z" fill="#FFAD5C"/>
<path d="M59.2244 158.257C60.9879 159.389 61.8509 159.974 63.562 161.399C64.0948 161.841 64.1398 162.411 63.6746 162.928C62.1962 164.592 61.5132 165.297 59.8547 166.684C57.2657 168.85 53.3108 168.565 51.217 166.024C50.5867 165.259 50.309 164.15 50.234 163.175C50.159 162.201 50.2715 161.061 50.7743 160.207C52.4703 157.38 56.3877 156.436 59.2244 158.257Z" fill="#FFAD5C"/>
<path d="M74.6158 126.568C76.6571 126.103 77.6702 125.849 79.7639 125.091C80.4168 124.859 80.6494 124.334 80.3943 123.69C79.5688 121.62 79.1636 120.728 78.0829 118.862C76.3869 115.945 72.5671 114.873 69.7379 116.553C68.8899 117.055 68.2445 118.007 67.8393 118.899C67.434 119.791 67.1564 120.901 67.3441 121.875C67.9669 125.091 71.3289 127.31 74.6158 126.568Z" fill="#FFAD5C"/>
<path d="M60.4388 145.498C62.3824 144.718 63.3355 144.306 65.2941 143.226C65.902 142.889 66.0521 142.334 65.6994 141.742C64.5587 139.83 64.0184 139.006 62.6601 137.334C60.5288 134.717 56.5815 134.26 54.0524 136.367C53.2945 136.996 52.8067 138.039 52.5515 138.983C52.2964 139.928 52.1913 141.067 52.529 141.997C53.6397 145.086 57.3094 146.75 60.4388 145.498Z" fill="#FFAD5C"/>
<path d="M191.258 81.7222C218.229 100.502 222.904 133.788 226.529 159.689C229.253 179.136 231.152 192.683 224.278 207.669C209.982 238.841 170.636 247.559 154.486 251.15C132.303 256.076 113.301 254.569 101.227 252.65C108.011 233.75 116.236 203.83 116.236 166.436C116.236 146.352 113.864 115.42 101.227 80.2228C103.741 78.9933 153.713 55.5807 191.258 81.7222Z" fill="#3A3E26"/>
<path d="M134.238 76.4749C144.602 77.9293 162.087 82.0225 177.764 95.217C208.743 121.276 217.23 169.863 199.527 206.17C188.458 228.878 169.907 241.105 159.754 246.653C167.273 244.201 179.07 239.194 189.771 228.66C214.761 204.063 212.96 169.78 212.48 160.604C212.09 153.092 209.748 108.404 173.99 86.9705C158.583 77.7269 143.041 76.4524 134.238 76.4749Z" fill="#5F634C"/>
<path d="M125.233 78.7236C124.978 78.9785 135.777 87.8098 145.322 101.184C166.455 130.789 167.386 163.003 167.461 167.816C167.873 193.89 159.213 213.209 154.5 223.412C149.262 234.755 143.379 243.534 138.741 249.651C144.294 245.416 152.174 238.414 159.003 227.911C172.031 207.872 172.901 187.975 173.239 176.932C173.427 170.882 174.005 136.014 150.726 104.213C139.259 88.537 125.518 78.4388 125.233 78.7236Z" fill="#5F634C"/>
<path d="M114.727 77.9736C118.089 86.3026 122.501 98.6199 125.983 113.958C129.871 131.074 136.002 159.367 129.736 194.174C127.402 207.136 122.231 227.198 109.474 249.651C120.558 235.115 126.486 221.808 129.736 212.917C147.619 164 132.062 118.944 126.734 104.213C122.569 92.6749 117.939 83.6862 114.727 77.9736Z" fill="#5F634C"/>
<path d="M312.815 82.2177C289.589 51.4058 277.582 36.4121 248.99 6.88209C240.104 -2.29403 229.508 -2.29403 220.623 6.88209C192.031 36.4121 180.024 49.9064 156.797 82.2177C120.491 132.724 131.327 205.046 180.999 239.891C195.933 250.364 216.743 254 234.814 254C252.877 254 273.695 250.364 288.628 239.891C338.286 205.046 350.263 131.884 312.815 82.2177Z" fill="url(#paint2_radial_2620_1602)"/>
<path d="M234.424 122.281C228.661 122.281 224.968 116.748 224.518 116.044C223.76 114.852 224.113 113.262 225.314 112.505C226.514 111.748 228.098 112.1 228.856 113.3C228.976 113.487 231.805 117.91 235.415 117.026C237.704 116.478 239.595 114.019 240.593 111.898C241.201 110.616 242.724 110.061 244.015 110.676C245.298 111.283 245.846 112.812 245.238 114.094C244.3 116.081 241.576 120.827 236.615 122.019C235.857 122.198 235.122 122.281 234.424 122.281Z" fill="#FFFFF7"/>
<path d="M205.922 121.201C211.377 121.201 215.79 116.785 215.79 111.343H196.046C196.053 116.785 200.473 121.201 205.922 121.201Z" fill="#FFFFF7"/>
<path d="M263.684 121.201C269.139 121.201 273.552 116.785 273.552 111.343H253.808C253.808 116.785 258.228 121.201 263.684 121.201Z" fill="#FFFFF7"/>
<path d="M403.169 149.187C402.216 150.259 401.428 151.503 400.866 152.89C394.457 168.618 381.962 179.294 367.598 179.294C367.568 179.286 367.538 179.271 367.508 179.264C361.782 177.352 355.591 177.352 349.865 179.264L349.775 179.294C347.253 179.294 333.85 178.956 323.021 164.518C320.282 160.867 317.963 156.661 316.17 152.035C315.892 151.323 315.547 150.656 315.142 150.026C310.752 149.959 306.369 149.921 301.979 149.704C295.938 149.404 289.949 149.261 283.893 149.471C280.141 149.599 276.381 149.741 272.629 149.651C272.021 150.851 271.676 152.2 271.676 153.64V183.679C271.676 203.104 279.555 220.691 292.298 233.421C312.455 253.557 337.4 254.022 342.09 254.022C344.529 253.407 346.976 252.8 349.415 252.185C355.493 250.664 361.857 250.664 367.936 252.185C370.375 252.8 372.821 253.407 375.26 254.022C414.148 254.022 445.675 222.528 445.675 183.679V157.658C445.675 154.494 444.526 151.593 442.628 149.351C429.48 149.254 416.325 149.202 403.169 149.187Z" fill="url(#paint3_radial_2620_1602)"/>
<path d="M442.313 159.053C442.14 165.957 441.967 172.869 441.795 179.774C441.795 216.253 412.212 245.963 375.748 246.226L368.896 244.509C365.557 243.677 362.12 243.257 358.69 243.257C355.253 243.257 351.824 243.677 348.484 244.509L341.632 246.226C334.608 246.158 312.733 244.411 295.067 226.764C282.505 214.214 275.586 197.526 275.586 179.774C274.723 171.745 273.852 163.708 272.989 155.679C272.726 154.037 272.471 152.395 272.209 150.746C272.194 150.754 272.178 150.769 272.163 150.776C269.432 152.643 267.796 155.731 267.796 159.045V179.774C267.796 199.603 275.526 218.248 289.559 232.267C298.549 241.248 309.446 247.583 321.948 251.114C330.443 253.505 337.595 254.007 342.105 254.007H342.585L350.375 252.058C355.816 250.694 361.564 250.694 367.005 252.058L374.795 254.007H374.825C394.269 254.007 413.045 246.593 427.003 233.069C434.418 225.879 440.136 217.43 443.964 208.194C448.241 197.871 448.864 188.942 449.584 179.774C450.357 169.945 449.922 161.691 449.337 155.814C449.209 155.402 448.924 154.697 448.271 154.09C446.845 152.755 444.924 153.04 444.646 153.085C443.873 155.072 443.093 157.058 442.313 159.053Z" fill="#51422A"/>
<path d="M407.356 161.017C407.258 164.48 407.153 167.936 407.056 171.4C407.056 189.685 389.87 204.573 368.685 204.701L364.708 203.839C362.764 203.419 360.776 203.209 358.779 203.209C356.783 203.209 354.787 203.419 352.851 203.839L348.873 204.701C344.791 204.663 332.086 203.794 321.82 194.948C314.518 188.658 310.503 180.299 310.503 171.4C310 167.374 309.497 163.348 308.995 159.323C308.844 158.498 308.694 157.673 308.544 156.849C308.537 156.856 308.529 156.856 308.522 156.864C306.931 157.801 305.985 159.345 305.985 161.009V171.4C305.985 181.333 310.473 190.682 318.63 197.706C323.854 202.204 330.18 205.383 337.452 207.152C342.382 208.352 346.539 208.607 349.159 208.607H349.436L353.962 207.632C357.121 206.95 360.46 206.95 363.627 207.632L368.152 208.607H368.167C379.462 208.607 390.373 204.896 398.478 198.111C402.786 194.513 406.11 190.277 408.331 185.644C410.815 180.471 411.176 175.996 411.596 171.4C412.046 166.475 411.791 162.336 411.453 159.39C411.378 159.18 411.213 158.828 410.83 158.528C410.005 157.861 408.887 158.003 408.729 158.026C408.264 159.023 407.806 160.02 407.356 161.017Z" fill="url(#paint4_radial_2620_1602)"/>
<path d="M322.811 182.698C322.346 180.659 322.09 179.647 321.332 177.555C321.1 176.903 320.574 176.671 319.929 176.925C317.858 177.75 316.965 178.155 315.096 179.234C312.177 180.929 311.104 184.745 312.785 187.571C313.288 188.418 314.241 189.063 315.134 189.468C316.027 189.872 317.137 190.15 318.113 189.962C321.34 189.34 323.561 185.989 322.811 182.698Z" fill="#FFAD5C"/>
<path d="M340.724 194.265C339.944 192.323 339.531 191.371 338.45 189.414C338.113 188.807 337.557 188.657 336.965 189.01C335.051 190.149 334.226 190.689 332.552 192.046C329.933 194.175 329.475 198.118 331.584 200.645C332.214 201.402 333.257 201.889 334.203 202.144C335.149 202.399 336.289 202.504 337.22 202.167C340.319 201.057 341.978 197.399 340.724 194.265Z" fill="#FFAD5C"/>
<path d="M363.26 196.776C362.127 195.015 361.542 194.152 360.116 192.443C359.673 191.911 359.103 191.866 358.585 192.331C356.919 193.808 356.213 194.49 354.825 196.147C352.656 198.733 352.941 202.684 355.485 204.776C356.251 205.405 357.361 205.683 358.337 205.758C359.313 205.833 360.453 205.72 361.309 205.218C364.138 203.524 365.084 199.618 363.26 196.776Z" fill="#FFAD5C"/>
<path d="M394.982 181.401C395.447 179.362 395.702 178.35 396.46 176.258C396.693 175.606 397.218 175.374 397.863 175.629C399.935 176.453 400.828 176.858 402.696 177.938C405.616 179.632 406.689 183.448 405.008 186.274C404.505 187.121 403.552 187.766 402.659 188.171C401.766 188.576 400.655 188.853 399.679 188.666C396.46 188.043 394.239 184.692 394.982 181.401Z" fill="#FFAD5C"/>
<path d="M376.033 195.562C376.813 193.62 377.226 192.668 378.307 190.711C378.645 190.104 379.2 189.954 379.793 190.307C381.706 191.446 382.532 191.986 384.205 193.343C386.824 195.472 387.282 199.415 385.173 201.942C384.543 202.699 383.5 203.186 382.554 203.441C381.609 203.696 380.468 203.801 379.537 203.463C376.446 202.354 374.78 198.695 376.033 195.562Z" fill="#FFAD5C"/>
<defs>
<radialGradient id="paint0_radial_2620_1602" cx="0" cy="0" r="1" gradientUnits="userSpaceOnUse" gradientTransform="translate(62.8852 162.739) rotate(-0.612478) scale(53.2629 103.208)">
<stop stop-color="#FE601C"/>
<stop offset="0.2511" stop-color="#FE691A"/>
<stop offset="0.6565" stop-color="#FD8116"/>
<stop offset="1" stop-color="#FC9A11"/>
</radialGradient>
<radialGradient id="paint1_radial_2620_1602" cx="0" cy="0" r="1" gradientUnits="userSpaceOnUse" gradientTransform="translate(73.2885 162.618) rotate(-90) scale(41.623 41.6655)">
<stop stop-color="#FE601C"/>
<stop offset="0.2511" stop-color="#FE691A"/>
<stop offset="0.6565" stop-color="#FD8116"/>
<stop offset="1" stop-color="#FC9A11"/>
</radialGradient>
<radialGradient id="paint2_radial_2620_1602" cx="0" cy="0" r="1" gradientUnits="userSpaceOnUse" gradientTransform="translate(235.048 126.993) scale(114.255 151.963)">
<stop stop-color="#D2C96A"/>
<stop offset="0.346" stop-color="#C2BB5E"/>
<stop offset="1" stop-color="#999940"/>
</radialGradient>
<radialGradient id="paint3_radial_2620_1602" cx="0" cy="0" r="1" gradientUnits="userSpaceOnUse" gradientTransform="translate(358.733 201.661) rotate(-89.3863) scale(50.8616 98.7567)">
<stop stop-color="#FE601C"/>
<stop offset="0.2511" stop-color="#FE691A"/>
<stop offset="0.6565" stop-color="#FD8116"/>
<stop offset="1" stop-color="#FC9A11"/>
</radialGradient>
<radialGradient id="paint4_radial_2620_1602" cx="0" cy="0" r="1" gradientUnits="userSpaceOnUse" gradientTransform="translate(358.894 182.731) scale(41.6654 41.623)">
<stop stop-color="#FE601C"/>
<stop offset="0.2511" stop-color="#FE691A"/>
<stop offset="0.6565" stop-color="#FD8116"/>
<stop offset="1" stop-color="#FC9A11"/>
</radialGradient>
</defs>
</svg>
