<svg width="519" height="280" viewBox="0 0 519 280" fill="none" xmlns="http://www.w3.org/2000/svg">
<path d="M505.698 23.9618L354.912 1.48581C344.396 -0.0845689 333.444 -0.265766 322.369 0.949766C229.505 11.0968 136.641 21.2363 43.7685 31.3834C34.7886 32.3649 26.9013 39.2353 25.4142 47.3816L0.372256 183.997C-0.556138 189.048 2.04008 193.57 6.87101 195.322C81.9559 222.615 157.033 249.9 232.117 277.193C244.877 281.828 260.232 280.681 274.043 274.06C345.891 239.617 417.747 205.167 489.595 170.724C493.769 168.723 496.792 164.994 497.507 160.97C504.589 121.091 511.663 81.2051 518.745 41.3266C520.281 32.6669 514.752 25.3133 505.698 23.9618Z" fill="#E5CA9A"/>
<path d="M25.743 45.5924L0.158784 185.145C-0.58886 189.222 1.35009 192.853 4.99794 194.189C81.8985 222.32 158.799 250.451 235.708 278.575C241.582 280.719 248.96 276.106 250.16 269.53L283.516 87.5547C284.371 82.8965 281.717 78.9177 277.231 78.1249L38.7488 36.1626C33.0387 35.1585 26.8275 39.6582 25.743 45.5924Z" fill="url(#paint0_radial_208_675)"/>
<path d="M290.927 86.9356L257.998 266.57C256.675 273.773 263.551 278.393 270.584 275.034C343.96 240.055 417.344 205.069 490.72 170.09C494.229 168.422 496.825 165.115 497.441 161.529C504.466 120.91 511.482 80.2917 518.507 39.6658C519.566 33.5277 514.596 29.0355 508.311 30.4549L300.038 77.6266C295.511 78.6534 291.74 82.5039 290.927 86.9356Z" fill="url(#paint1_radial_208_675)"/>
<path d="M322.747 0.882031L43.5715 31.7384L288.043 72.2587C289.234 72.455 290.5 72.4173 291.757 72.1379L510.102 24.5736L358.93 1.51622C347.239 -0.265553 335.071 -0.47695 322.747 0.882031Z" fill="url(#paint2_radial_208_675)"/>
<path d="M121.59 169.743C113.686 167.539 110.12 157.905 109.701 156.682C108.987 154.613 109.907 152.401 111.755 151.729C113.612 151.065 115.682 152.197 116.397 154.266C116.512 154.591 119.182 162.246 124.383 162.314C127.678 162.374 130.931 159.445 132.887 156.682C134.07 155.013 136.304 154.772 137.915 156.176C139.509 157.565 139.837 160.049 138.662 161.718C136.83 164.307 131.81 170.317 124.671 170.181C123.578 170.174 122.551 170.015 121.59 169.743Z" fill="#FF9A00"/>
<path d="M82.7776 157.218C90.2541 159.309 97.5251 154.439 99.004 146.346L71.9162 138.781C70.4374 146.874 75.3012 155.126 82.7776 157.218Z" fill="#FF9A00"/>
<path d="M162.02 179.339C169.496 181.43 176.768 176.56 178.246 168.467L151.159 160.902C149.68 168.995 154.544 177.247 162.02 179.339Z" fill="#FF9A00"/>
<defs>
<radialGradient id="paint0_radial_208_675" cx="0" cy="0" r="1" gradientUnits="userSpaceOnUse" gradientTransform="translate(137.939 157.559) scale(195.519 179.67)">
<stop stop-color="#F3EBD9"/>
<stop offset="0.4134" stop-color="#F4EAD7"/>
<stop offset="0.6395" stop-color="#F6E7CF"/>
<stop offset="0.8198" stop-color="#F9E2C1"/>
<stop offset="0.9759" stop-color="#FEDAAE"/>
<stop offset="1" stop-color="#FFD9AA"/>
</radialGradient>
<radialGradient id="paint1_radial_208_675" cx="0" cy="0" r="1" gradientUnits="userSpaceOnUse" gradientTransform="translate(388.858 153.164) scale(200.244 184.012)">
<stop stop-color="#F3EBD9"/>
<stop offset="0.4134" stop-color="#F4EAD7"/>
<stop offset="0.6395" stop-color="#F6E7CF"/>
<stop offset="0.8198" stop-color="#F9E2C1"/>
<stop offset="0.9759" stop-color="#FEDAAE"/>
<stop offset="1" stop-color="#FFD9AA"/>
</radialGradient>
<radialGradient id="paint2_radial_208_675" cx="0" cy="0" r="1" gradientUnits="userSpaceOnUse" gradientTransform="translate(275.349 36.1904) scale(239.25 219.856)">
<stop stop-color="#F3EBDA"/>
<stop offset="0.416" stop-color="#F4EAD8"/>
<stop offset="0.6436" stop-color="#F6E7D0"/>
<stop offset="0.825" stop-color="#F9E2C2"/>
<stop offset="0.9821" stop-color="#FEDBAF"/>
<stop offset="1" stop-color="#FFDAAC"/>
</radialGradient>
</defs>
</svg>
