<svg width="780" height="520" viewBox="0 0 780 520" fill="none" xmlns="http://www.w3.org/2000/svg">
<path d="M700.032 128.957L530.361 103.672C518.528 101.905 506.205 101.701 493.743 103.069C389.248 114.484 284.754 125.891 180.25 137.306C170.145 138.411 161.27 146.14 159.597 155.304L131.419 308.997C130.374 314.679 133.296 319.766 138.731 321.737C223.22 352.441 307.699 383.137 392.188 413.842C406.545 419.057 423.824 417.766 439.364 410.317C520.211 371.569 601.066 332.813 681.912 294.065C686.608 291.814 690.011 287.618 690.815 283.091C698.784 238.228 706.744 193.356 714.713 148.492C716.442 138.75 710.22 130.477 700.032 128.957Z" fill="#E5CA9A"/>
<path d="M159.967 153.292L131.179 310.288C130.337 314.874 132.519 318.96 136.624 320.463C223.156 352.111 309.687 383.758 396.228 415.397C402.838 417.809 411.14 412.619 412.49 405.221L450.024 200.499C450.985 195.259 447.999 190.783 442.952 189.891L174.602 142.683C168.177 141.553 161.187 146.616 159.967 153.292Z" fill="url(#paint0_radial_222_365)"/>
<path d="M458.363 199.803L421.309 401.891C419.821 409.994 427.559 415.192 435.472 411.413C518.038 372.062 600.613 332.702 683.179 293.351C687.126 291.474 690.048 287.754 690.741 283.72C698.645 238.024 706.54 192.328 714.445 146.624C715.637 139.719 710.044 134.665 702.972 136.262L468.615 189.33C463.521 190.485 459.278 194.817 458.363 199.803Z" fill="url(#paint1_radial_222_365)"/>
<path d="M494.168 102.992L180.028 137.706L455.118 183.291C456.458 183.512 457.882 183.469 459.296 183.155L704.987 129.645L534.882 103.706C521.727 101.701 508.035 101.463 494.168 102.992Z" fill="url(#paint2_radial_222_365)"/>
<path d="M267.818 292.961C258.924 290.48 254.912 279.643 254.44 278.267C253.636 275.939 254.671 273.451 256.751 272.695C258.841 271.947 261.171 273.221 261.975 275.549C262.104 275.914 265.109 284.526 270.961 284.603C274.668 284.671 278.329 281.375 280.529 278.267C281.86 276.39 284.375 276.118 286.187 277.698C287.981 279.26 288.35 282.055 287.028 283.932C284.967 286.845 279.318 293.606 271.284 293.453C270.055 293.445 268.899 293.266 267.818 292.961Z" fill="#FF9A00"/>
<path d="M224.145 278.87C232.558 281.223 240.739 275.744 242.403 266.639L211.923 258.128C210.259 267.234 215.732 276.517 224.145 278.87Z" fill="#FF9A00"/>
<path d="M313.311 303.756C321.724 306.109 329.906 300.63 331.57 291.525L301.09 283.015C299.426 292.12 304.899 301.403 313.311 303.756Z" fill="#FF9A00"/>
<defs>
<radialGradient id="paint0_radial_222_365" cx="0" cy="0" r="1" gradientUnits="userSpaceOnUse" gradientTransform="translate(286.215 279.254) scale(220.006 202.129)">
<stop stop-color="#F3EBD9"/>
<stop offset="0.4134" stop-color="#F4EAD7"/>
<stop offset="0.6395" stop-color="#F6E7CF"/>
<stop offset="0.8198" stop-color="#F9E2C1"/>
<stop offset="0.9759" stop-color="#FEDAAE"/>
<stop offset="1" stop-color="#FFD9AA"/>
</radialGradient>
<radialGradient id="paint1_radial_222_365" cx="0" cy="0" r="1" gradientUnits="userSpaceOnUse" gradientTransform="translate(568.559 274.309) scale(225.323 207.014)">
<stop stop-color="#F3EBD9"/>
<stop offset="0.4134" stop-color="#F4EAD7"/>
<stop offset="0.6395" stop-color="#F6E7CF"/>
<stop offset="0.8198" stop-color="#F9E2C1"/>
<stop offset="0.9759" stop-color="#FEDAAE"/>
<stop offset="1" stop-color="#FFD9AA"/>
</radialGradient>
<radialGradient id="paint2_radial_222_365" cx="0" cy="0" r="1" gradientUnits="userSpaceOnUse" gradientTransform="translate(440.833 142.714) scale(269.214 247.338)">
<stop stop-color="#F3EBDA"/>
<stop offset="0.416" stop-color="#F4EAD8"/>
<stop offset="0.6436" stop-color="#F6E7D0"/>
<stop offset="0.825" stop-color="#F9E2C2"/>
<stop offset="0.9821" stop-color="#FEDBAF"/>
<stop offset="1" stop-color="#FFDAAC"/>
</radialGradient>
</defs>
</svg>
