<svg width="344" height="425" viewBox="0 0 344 425" fill="none" xmlns="http://www.w3.org/2000/svg">
<path d="M54.0837 314.353C55.2937 311.763 62.6937 295.153 54.7337 277.233C49.0137 264.373 38.6737 258.223 35.1037 256.313C31.7837 256.493 20.0237 257.513 10.7637 266.873C3.05372 274.663 -3.58628 288.923 2.18372 302.013C9.52372 318.653 30.7837 319.473 33.6937 319.543C43.0837 319.753 50.3437 316.423 54.0837 314.353Z" fill="url(#paint0_linear_208_684)"/>
<path d="M84.6539 108.133C81.3939 100.293 76.8639 86.4832 77.6539 69.1332C78.1239 58.7932 79.3639 31.7532 100.654 14.1332C121.244 -2.91676 152.544 -4.48676 175.654 9.13324C194.934 20.5032 202.414 38.8432 204.654 45.1332C196.144 56.1132 181.674 71.9232 159.654 85.1332C129.164 103.433 100.034 107.243 84.6539 108.133Z" fill="url(#paint1_linear_208_684)"/>
<path d="M239.874 416.303C194.094 428.963 136.304 427.253 94.6039 407.673C43.8039 383.823 29.6039 336.553 29.7839 294.813C32.0939 252.783 38.2139 211.153 48.3939 169.773C61.6339 127.883 85.6539 87.1434 132.024 59.7434C161.694 42.2134 197.354 31.7034 235.064 40.0434C266.954 50.1434 283.564 74.5934 294.704 97.3834C308.824 126.273 317.414 155.783 320.004 186.543C322.384 212.733 327.814 238.213 336.414 263.673C359.834 326.403 325.564 393.243 239.874 416.303Z" fill="url(#paint2_radial_208_684)"/>
<path d="M289.654 158.133C285.044 157.253 265.984 153.063 252.654 135.133C236.404 113.273 241.814 88.663 242.654 85.133C251.444 66.013 271.194 54.883 290.724 57.573C311.964 60.493 324.774 78.653 328.654 94.133C335.264 120.473 316.454 140.653 313.794 143.413C305.014 152.513 295.104 156.433 289.654 158.133Z" fill="url(#paint3_linear_208_684)"/>
<path d="M169.034 223.043C168.084 227.443 178.594 237.223 189.914 234.723C198.384 232.853 205.104 224.603 203.464 220.683C200.604 213.813 170.484 216.303 169.034 223.043Z" fill="#F37343"/>
<path d="M155.394 208.503C149.964 203.073 141.154 203.073 135.724 208.503C130.294 213.933 130.294 222.743 135.724 228.173C141.154 233.603 149.964 233.603 155.394 228.173C160.824 222.743 160.824 213.933 155.394 208.503ZM153.584 226.363C149.154 230.793 141.974 230.793 137.544 226.363L153.584 210.323C158.014 214.743 158.014 221.923 153.584 226.363Z" fill="#F37343"/>
<path d="M236.774 208.503C231.344 203.073 222.534 203.073 217.104 208.503C211.674 213.933 211.674 222.743 217.104 228.173C222.534 233.603 231.344 233.603 236.774 228.173C242.204 222.743 242.204 213.933 236.774 208.503ZM234.954 226.363C230.524 230.793 223.344 230.793 218.914 226.363L234.954 210.323C239.384 214.743 239.384 221.923 234.954 226.363Z" fill="#F37343"/>
<defs>
<linearGradient id="paint0_linear_208_684" x1="4.80193" y1="305.126" x2="32.8365" y2="289.605" gradientUnits="userSpaceOnUse">
<stop stop-color="#FFB5B5"/>
<stop offset="0.1947" stop-color="#FFB7AB"/>
<stop offset="0.5228" stop-color="#FFBD91"/>
<stop offset="0.9419" stop-color="#FEC766"/>
<stop offset="1" stop-color="#FEC860"/>
</linearGradient>
<linearGradient id="paint1_linear_208_684" x1="89.72" y1="-12.5737" x2="133.155" y2="56.6871" gradientUnits="userSpaceOnUse">
<stop stop-color="#FFB5B5"/>
<stop offset="0.1947" stop-color="#FFB7AB"/>
<stop offset="0.5228" stop-color="#FFBD91"/>
<stop offset="0.9419" stop-color="#FEC766"/>
<stop offset="1" stop-color="#FEC860"/>
</linearGradient>
<radialGradient id="paint2_radial_208_684" cx="0" cy="0" r="1" gradientUnits="userSpaceOnUse" gradientTransform="translate(192.523 299.789) scale(165.705 165.705)">
<stop stop-color="#FFDF9C"/>
<stop offset="0.2933" stop-color="#FCD894"/>
<stop offset="0.7483" stop-color="#F5C67E"/>
<stop offset="1" stop-color="#F0BA6F"/>
</radialGradient>
<linearGradient id="paint3_linear_208_684" x1="361.126" y1="77.1759" x2="244.238" y2="122.994" gradientUnits="userSpaceOnUse">
<stop stop-color="white"/>
<stop offset="0.2538" stop-color="#FFB5B5"/>
<stop offset="0.3991" stop-color="#FFB7AB"/>
<stop offset="0.6439" stop-color="#FFBD91"/>
<stop offset="0.9567" stop-color="#FEC766"/>
<stop offset="1" stop-color="#FEC860"/>
</linearGradient>
</defs>
</svg>
