<svg width="350" height="425" viewBox="0 0 350 425" fill="none" xmlns="http://www.w3.org/2000/svg">
<path d="M37.317 200.503L35.157 219.213C35.137 219.393 34.967 219.533 34.787 219.503C34.627 219.483 34.507 219.363 34.497 219.213L32.327 200.493C32.167 199.113 33.157 197.863 34.537 197.703C35.917 197.543 37.167 198.533 37.327 199.913C37.337 200.113 37.337 200.313 37.317 200.503Z" fill="#F37343"/>
<path d="M59.317 211.313L44.607 223.073C44.427 223.213 44.167 223.183 44.027 223.013C43.907 222.863 43.907 222.643 44.027 222.493L55.787 207.783C56.657 206.693 58.237 206.523 59.327 207.393C60.417 208.263 60.587 209.843 59.717 210.933C59.587 211.063 59.447 211.203 59.317 211.313Z" fill="#F37343"/>
<path d="M13.8568 207.773L25.8768 222.223C26.1568 222.553 26.1068 223.053 25.7768 223.323C25.4868 223.563 25.0568 223.563 24.7768 223.323L10.3268 211.303C9.25677 210.413 9.11677 208.833 9.99677 207.763C10.8868 206.693 12.4668 206.553 13.5368 207.433C13.6568 207.553 13.7668 207.663 13.8568 207.773Z" fill="#F37343"/>
<path d="M2.80696 229.523L21.527 231.693C21.707 231.713 21.847 231.883 21.817 232.063C21.797 232.223 21.677 232.343 21.527 232.353L2.80696 234.523C1.42696 234.683 0.176961 233.693 0.0169608 232.313C-0.143039 230.933 0.84696 229.683 2.22696 229.523C2.41696 229.503 2.61696 229.503 2.80696 229.523Z" fill="#F37343"/>
<path d="M10.077 252.983L24.527 240.963C24.857 240.683 25.357 240.733 25.627 241.063C25.867 241.353 25.867 241.783 25.627 242.063L13.607 256.513C12.717 257.583 11.137 257.723 10.067 256.843C8.99701 255.953 8.85701 254.373 9.73701 253.303C9.84701 253.193 9.967 253.073 10.077 252.983Z" fill="#F37343"/>
<path d="M31.827 264.043L33.997 245.323C34.017 245.143 34.187 245.003 34.367 245.033C34.527 245.053 34.647 245.173 34.657 245.323L36.827 264.043C36.987 265.423 35.997 266.673 34.617 266.833C33.237 266.993 31.987 266.003 31.827 264.623C31.807 264.423 31.807 264.223 31.827 264.043Z" fill="#F37343"/>
<path d="M55.2872 256.763L43.2672 242.313C42.9872 241.983 43.0372 241.483 43.3672 241.213C43.6572 240.973 44.0872 240.973 44.3672 241.213L58.8172 253.233C59.8872 254.123 60.0272 255.703 59.1472 256.773C58.2572 257.843 56.6772 257.983 55.6072 257.103C55.4972 256.993 55.3772 256.873 55.2872 256.763Z" fill="#F37343"/>
<path d="M66.3471 235.013L47.6271 232.843C47.4471 232.823 47.3071 232.653 47.3371 232.473C47.3571 232.313 47.4771 232.193 47.6271 232.183L66.3471 230.013C67.7271 229.853 68.9771 230.843 69.1371 232.223C69.2971 233.603 68.3071 234.853 66.9271 235.013C66.7271 235.043 66.5271 235.033 66.3471 235.013Z" fill="#F37343"/>
<path d="M59.927 314.353C61.137 311.763 68.537 295.153 60.577 277.233C54.857 264.373 44.517 258.223 40.947 256.313C37.627 256.493 25.867 257.513 16.607 266.873C8.89697 274.663 2.25698 288.923 8.02698 302.013C15.367 318.653 36.627 319.473 39.537 319.543C48.927 319.753 56.187 316.423 59.927 314.353Z" fill="url(#paint0_linear_208_692)"/>
<path d="M90.4971 108.133C87.2371 100.293 82.7071 86.4832 83.4971 69.1332C83.9671 58.7932 85.2071 31.7532 106.497 14.1332C127.087 -2.91676 158.387 -4.48676 181.497 9.13324C200.777 20.5032 208.257 38.8432 210.497 45.1332C201.987 56.1132 187.517 71.9232 165.497 85.1332C135.017 103.433 105.877 107.243 90.4971 108.133Z" fill="url(#paint1_linear_208_692)"/>
<path d="M245.717 416.303C199.937 428.963 142.147 427.253 100.447 407.673C49.6472 383.823 35.4472 336.553 35.6272 294.813C37.9372 252.783 44.0572 211.153 54.2372 169.773C67.4772 127.883 91.4972 87.1434 137.867 59.7434C167.537 42.2134 203.197 31.7034 240.907 40.0434C272.797 50.1434 289.407 74.5934 300.547 97.3834C314.667 126.273 323.257 155.783 325.847 186.543C328.227 212.733 333.657 238.213 342.257 263.673C365.687 326.403 331.407 393.243 245.717 416.303Z" fill="url(#paint2_radial_208_692)"/>
<path d="M295.497 158.133C290.887 157.253 271.827 153.063 258.497 135.133C242.247 113.273 247.657 88.663 248.497 85.133C257.287 66.013 277.037 54.883 296.567 57.573C317.807 60.493 330.617 78.653 334.497 94.133C341.107 120.473 322.297 140.653 319.637 143.413C310.857 152.513 300.947 156.433 295.497 158.133Z" fill="url(#paint3_linear_208_692)"/>
<path d="M174.877 223.043C173.927 227.443 184.437 237.223 195.757 234.723C204.227 232.853 210.947 224.603 209.307 220.683C206.447 213.813 176.327 216.303 174.877 223.043Z" fill="#F37343"/>
<path d="M161.237 208.503C155.807 203.073 146.997 203.073 141.567 208.503C136.137 213.933 136.137 222.743 141.567 228.173C146.997 233.603 155.807 233.603 161.237 228.173C166.677 222.743 166.677 213.933 161.237 208.503ZM159.427 226.363C154.997 230.793 147.817 230.793 143.387 226.363L159.427 210.323C163.857 214.743 163.857 221.923 159.427 226.363Z" fill="#F37343"/>
<path d="M242.617 208.503C237.187 203.073 228.377 203.073 222.947 208.503C217.517 213.933 217.517 222.743 222.947 228.173C228.377 233.603 237.187 233.603 242.617 228.173C248.047 222.743 248.047 213.933 242.617 208.503ZM240.797 226.363C236.367 230.793 229.187 230.793 224.757 226.363L240.797 210.323C245.237 214.743 245.237 221.923 240.797 226.363Z" fill="#F37343"/>
<path d="M289.097 16.3934L286.927 37.6834C286.907 37.8634 286.747 38.0034 286.557 37.9834C286.397 37.9634 286.277 37.8434 286.257 37.6834L284.087 16.3934C283.947 15.0134 284.947 13.7834 286.337 13.6434C287.717 13.5034 288.947 14.5034 289.087 15.8934C289.117 16.0434 289.117 16.2234 289.097 16.3934Z" fill="#F37343"/>
<path d="M314.217 28.4431L297.687 42.0131C297.507 42.1531 297.247 42.1331 297.107 41.9531C296.977 41.8031 296.987 41.5831 297.107 41.4331L310.677 24.9031C311.557 23.8331 313.137 23.6731 314.217 24.5531C315.287 25.4331 315.447 27.0131 314.567 28.0931C314.457 28.2231 314.337 28.3431 314.217 28.4431Z" fill="#F37343"/>
<path d="M262.527 24.9031L276.367 41.1731C276.647 41.5031 276.607 41.9931 276.277 42.2731C275.977 42.5231 275.547 42.5131 275.267 42.2731L258.997 28.4331C257.937 27.5331 257.817 25.9531 258.707 24.8931C259.597 23.8331 261.187 23.7131 262.247 24.6031C262.337 24.7031 262.437 24.8131 262.527 24.9031Z" fill="#F37343"/>
<path d="M250.187 49.7434L271.477 51.9134C271.657 51.9334 271.797 52.0934 271.777 52.2834C271.757 52.4434 271.637 52.5634 271.477 52.5834L250.187 54.7534C248.807 54.8934 247.577 53.8934 247.437 52.5034C247.297 51.1234 248.297 49.8934 249.687 49.7534C249.847 49.7234 250.027 49.7234 250.187 49.7434Z" fill="#F37343"/>
<path d="M258.707 76.3232L274.977 62.4832C275.307 62.2032 275.797 62.2432 276.077 62.5732C276.327 62.8732 276.317 63.3032 276.077 63.5832L262.237 79.8532C261.337 80.9132 259.757 81.0332 258.697 80.1432C257.637 79.2432 257.517 77.6632 258.407 76.6032C258.507 76.5032 258.607 76.4032 258.707 76.3232Z" fill="#F37343"/>
<path d="M283.537 88.6534L285.707 67.3634C285.727 67.1834 285.887 67.0434 286.077 67.0634C286.237 67.0834 286.357 67.2034 286.377 67.3634L288.547 88.6534C288.687 90.0334 287.687 91.2634 286.297 91.4034C284.917 91.5434 283.687 90.5434 283.547 89.1534C283.527 88.9934 283.527 88.8134 283.537 88.6534Z" fill="#F37343"/>
<path d="M310.117 80.1334L296.277 63.8634C295.997 63.5334 296.037 63.0434 296.367 62.7634C296.667 62.5134 297.097 62.5234 297.377 62.7634L313.657 76.6034C314.717 77.5034 314.837 79.0834 313.947 80.1434C313.057 81.2034 311.467 81.3234 310.407 80.4334C310.307 80.3334 310.207 80.2334 310.117 80.1334Z" fill="#F37343"/>
<path d="M322.457 55.3033L301.167 53.1333C300.987 53.1133 300.847 52.9533 300.867 52.7633C300.887 52.6033 301.007 52.4833 301.167 52.4633L322.457 50.2933C323.837 50.1533 325.067 51.1533 325.207 52.5433C325.347 53.9233 324.347 55.1533 322.957 55.2933C322.797 55.3233 322.617 55.3133 322.457 55.3033Z" fill="#F37343"/>
<defs>
<linearGradient id="paint0_linear_208_692" x1="10.6469" y1="305.124" x2="38.6815" y2="289.603" gradientUnits="userSpaceOnUse">
<stop stop-color="#FFB5B5"/>
<stop offset="0.1947" stop-color="#FFB7AB"/>
<stop offset="0.5228" stop-color="#FFBD91"/>
<stop offset="0.9419" stop-color="#FEC766"/>
<stop offset="1" stop-color="#FEC860"/>
</linearGradient>
<linearGradient id="paint1_linear_208_692" x1="95.5648" y1="-12.5737" x2="139" y2="56.6871" gradientUnits="userSpaceOnUse">
<stop stop-color="#FFB5B5"/>
<stop offset="0.1947" stop-color="#FFB7AB"/>
<stop offset="0.5228" stop-color="#FFBD91"/>
<stop offset="0.9419" stop-color="#FEC766"/>
<stop offset="1" stop-color="#FEC860"/>
</linearGradient>
<radialGradient id="paint2_radial_208_692" cx="0" cy="0" r="1" gradientUnits="userSpaceOnUse" gradientTransform="translate(198.368 299.789) scale(165.705 165.705)">
<stop stop-color="#FFDF9C"/>
<stop offset="0.2933" stop-color="#FCD894"/>
<stop offset="0.7483" stop-color="#F5C67E"/>
<stop offset="1" stop-color="#F0BA6F"/>
</radialGradient>
<linearGradient id="paint3_linear_208_692" x1="366.972" y1="77.1777" x2="250.084" y2="122.996" gradientUnits="userSpaceOnUse">
<stop stop-color="white"/>
<stop offset="0.2538" stop-color="#FFB5B5"/>
<stop offset="0.3991" stop-color="#FFB7AB"/>
<stop offset="0.6439" stop-color="#FFBD91"/>
<stop offset="0.9567" stop-color="#FEC766"/>
<stop offset="1" stop-color="#FEC860"/>
</linearGradient>
</defs>
</svg>
