<svg width="613" height="439" viewBox="0 0 613 439" fill="none" xmlns="http://www.w3.org/2000/svg">
<path d="M58.4421 403.78C93.6721 374.62 128.192 344.59 161.882 313.63C178.722 298.15 195.372 282.46 211.822 266.56C228.242 250.63 244.472 234.5 260.512 218.17C276.522 201.81 292.312 185.25 307.932 168.52C323.512 151.75 338.892 134.79 354.032 117.62C384.322 83.2799 413.712 48.1499 442.182 12.2599C442.632 11.6899 443.462 11.5999 444.032 12.0499C444.592 12.4999 444.692 13.3099 444.262 13.8799C416.302 50.2199 387.392 85.8399 357.562 120.69C342.652 138.11 327.492 155.33 312.132 172.37C296.732 189.37 281.152 206.21 265.352 222.84C249.512 239.44 233.482 255.86 217.252 272.08C200.992 288.27 184.522 304.26 167.862 320.04C134.522 351.6 100.332 382.26 65.3921 412.06C63.1221 414 59.7121 413.73 57.7721 411.46C55.8321 409.19 56.1021 405.78 58.3721 403.84C58.3821 403.83 58.4021 403.82 58.4121 403.81L58.4421 403.78Z" fill="url(#paint0_radial_208_718)"/>
<path d="M441.082 19.66C446.511 19.66 450.912 15.2589 450.912 9.82996C450.912 4.401 446.511 0 441.082 0C435.653 0 431.252 4.401 431.252 9.82996C431.252 15.2589 435.653 19.66 441.082 19.66Z" fill="url(#paint1_radial_208_718)"/>
<path d="M435.582 56.3199C441.011 56.3199 445.412 51.9189 445.412 46.4899C445.412 41.061 441.011 36.6599 435.582 36.6599C430.153 36.6599 425.752 41.061 425.752 46.4899C425.752 51.9189 430.153 56.3199 435.582 56.3199Z" fill="url(#paint2_radial_208_718)"/>
<path d="M388.532 72.42C393.961 72.42 398.362 68.0189 398.362 62.59C398.362 57.161 393.961 52.76 388.532 52.76C383.103 52.76 378.702 57.161 378.702 62.59C378.702 68.0189 383.103 72.42 388.532 72.42Z" fill="url(#paint3_radial_208_718)"/>
<path d="M358.302 113.17C363.731 113.17 368.132 108.769 368.132 103.34C368.132 97.911 363.731 93.51 358.302 93.51C352.873 93.51 348.472 97.911 348.472 103.34C348.472 108.769 352.873 113.17 358.302 113.17Z" fill="url(#paint4_radial_208_718)"/>
<path d="M346.882 159.69C352.311 159.69 356.712 155.289 356.712 149.86C356.712 144.431 352.311 140.03 346.882 140.03C341.453 140.03 337.052 144.431 337.052 149.86C337.052 155.289 341.453 159.69 346.882 159.69Z" fill="url(#paint5_radial_208_718)"/>
<path d="M293.752 183.52C299.181 183.52 303.582 179.119 303.582 173.69C303.582 168.261 299.181 163.86 293.752 163.86C288.323 163.86 283.922 168.261 283.922 173.69C283.922 179.119 288.323 183.52 293.752 183.52Z" fill="url(#paint6_radial_208_718)"/>
<path d="M314.922 146.37C318.048 146.37 320.582 143.836 320.582 140.71C320.582 137.584 318.048 135.05 314.922 135.05C311.796 135.05 309.262 137.584 309.262 140.71C309.262 143.836 311.796 146.37 314.922 146.37Z" fill="url(#paint7_radial_208_718)"/>
<path d="M326.372 116.41C329.498 116.41 332.032 113.876 332.032 110.75C332.032 107.624 329.498 105.09 326.372 105.09C323.246 105.09 320.712 107.624 320.712 110.75C320.712 113.876 323.246 116.41 326.372 116.41Z" fill="url(#paint8_radial_208_718)"/>
<path d="M377.642 133.96C380.768 133.96 383.302 131.426 383.302 128.3C383.302 125.174 380.768 122.64 377.642 122.64C374.516 122.64 371.982 125.174 371.982 128.3C371.982 131.426 374.516 133.96 377.642 133.96Z" fill="url(#paint9_radial_208_718)"/>
<path d="M366.522 77.7699C369.648 77.7699 372.182 75.2359 372.182 72.1099C372.182 68.984 369.648 66.45 366.522 66.45C363.396 66.45 360.862 68.984 360.862 72.1099C360.862 75.2359 363.396 77.7699 366.522 77.7699Z" fill="url(#paint10_radial_208_718)"/>
<path d="M417.922 80.9001C421.048 80.9001 423.582 78.366 423.582 75.2401C423.582 72.1142 421.048 69.5801 417.922 69.5801C414.796 69.5801 412.262 72.1142 412.262 75.2401C412.262 78.366 414.796 80.9001 417.922 80.9001Z" fill="url(#paint11_radial_208_718)"/>
<path d="M358.493 144.55C350.853 123.95 342.733 109.82 326.493 81.5499C290.113 18.2199 276.573 15.5999 270.203 15.8199C269.963 15.8299 269.733 15.8499 269.493 15.8699C269.253 15.8499 269.023 15.8299 268.783 15.8199C262.413 15.5999 248.873 18.2099 212.493 81.5499C196.253 109.82 188.133 123.95 180.493 144.55C170.163 172.4 160.673 197.98 162.493 231.55C163.473 249.53 165.983 295.91 202.493 326.55C213.243 335.57 236.953 351.63 269.043 350.79C269.193 350.79 269.343 350.78 269.493 350.77C269.643 350.77 269.793 350.78 269.943 350.79C302.033 351.63 325.743 335.57 336.493 326.55C373.003 295.91 375.513 249.53 376.493 231.55C378.313 197.99 368.823 172.41 358.493 144.55Z" fill="url(#paint12_radial_208_718)"/>
<path d="M253.202 159.95C252.302 164.11 262.242 173.36 272.952 171C280.962 169.23 287.312 161.43 285.772 157.72C283.072 151.22 254.582 153.58 253.202 159.95Z" fill="white"/>
<path d="M240.312 146.2C235.172 141.06 226.842 141.06 221.712 146.2C216.572 151.34 216.572 159.67 221.712 164.8C226.852 169.94 235.182 169.94 240.312 164.8C245.452 159.66 245.452 151.33 240.312 146.2ZM238.602 163.09C234.412 167.28 227.622 167.28 223.422 163.09L238.592 147.91C242.792 152.1 242.792 158.9 238.602 163.09Z" fill="white"/>
<path d="M317.272 146.2C312.132 141.06 303.802 141.06 298.672 146.2C293.532 151.34 293.532 159.67 298.672 164.8C303.812 169.94 312.142 169.94 317.272 164.8C322.412 159.66 322.412 151.33 317.272 146.2ZM315.562 163.09C311.372 167.28 304.582 167.28 300.382 163.09L315.552 147.91C319.752 152.1 319.752 158.9 315.562 163.09Z" fill="white"/>
<path d="M4.13237 425.11C56.4924 403.14 108.322 379.88 159.492 355.22C185.072 342.88 210.502 330.23 235.782 317.26C261.032 304.24 286.122 290.91 311.052 277.29C335.962 263.62 360.682 249.61 385.262 235.35C409.802 221.03 434.182 206.41 458.362 191.46C506.712 161.56 554.282 130.38 601.022 97.9899C601.762 97.4799 602.782 97.6598 603.292 98.3998C603.802 99.1298 603.622 100.14 602.902 100.66C556.602 133.78 509.432 165.7 461.452 196.38C437.462 211.72 413.252 226.72 388.872 241.44C364.452 256.1 339.882 270.5 315.112 284.58C290.322 298.61 265.362 312.35 240.232 325.78C215.082 339.17 189.762 352.23 164.282 365C113.312 390.5 61.6424 414.63 9.40237 437.47C6.00237 438.95 2.05237 437.41 0.562372 434.01C-0.917628 430.61 0.622372 426.66 4.02237 425.17C4.04237 425.16 4.06237 425.15 4.08237 425.14L4.13237 425.11Z" fill="url(#paint13_radial_208_718)"/>
<path d="M600.582 106.89C607.32 106.89 612.782 101.428 612.782 94.69C612.782 87.9521 607.32 82.49 600.582 82.49C593.844 82.49 588.382 87.9521 588.382 94.69C588.382 101.428 593.844 106.89 600.582 106.89Z" fill="url(#paint14_radial_208_718)"/>
<path d="M580.853 148.47C587.591 148.47 593.053 143.008 593.053 136.27C593.053 129.532 587.591 124.07 580.853 124.07C574.115 124.07 568.653 129.532 568.653 136.27C568.653 143.008 574.115 148.47 580.853 148.47Z" fill="url(#paint15_radial_208_718)"/>
<path d="M519.142 150.68C525.88 150.68 531.342 145.218 531.342 138.48C531.342 131.742 525.88 126.28 519.142 126.28C512.404 126.28 506.942 131.742 506.942 138.48C506.942 145.218 512.404 150.68 519.142 150.68Z" fill="url(#paint16_radial_208_718)"/>
<path d="M468.573 188.22C475.31 188.22 480.773 182.758 480.773 176.02C480.773 169.282 475.31 163.82 468.573 163.82C461.835 163.82 456.373 169.282 456.373 176.02C456.373 182.758 461.835 188.22 468.573 188.22Z" fill="url(#paint17_radial_208_718)"/>
<path d="M438.252 239.39C444.99 239.39 450.452 233.928 450.452 227.19C450.452 220.452 444.99 214.99 438.252 214.99C431.514 214.99 426.052 220.452 426.052 227.19C426.052 233.928 431.514 239.39 438.252 239.39Z" fill="url(#paint18_radial_208_718)"/>
<path d="M366.542 248.58C373.28 248.58 378.742 243.118 378.742 236.38C378.742 229.642 373.28 224.18 366.542 224.18C359.804 224.18 354.342 229.642 354.342 236.38C354.342 243.118 359.804 248.58 366.542 248.58Z" fill="url(#paint19_radial_208_718)"/>
<path d="M403.572 211.85C407.455 211.85 410.602 208.703 410.602 204.82C410.602 200.937 407.455 197.79 403.572 197.79C399.69 197.79 396.542 200.937 396.542 204.82C396.542 208.703 399.69 211.85 403.572 211.85Z" fill="url(#paint20_radial_208_718)"/>
<path d="M427.952 180.36C431.835 180.36 434.982 177.212 434.982 173.33C434.982 169.447 431.835 166.3 427.952 166.3C424.07 166.3 420.922 169.447 420.922 173.33C420.922 177.212 424.07 180.36 427.952 180.36Z" fill="url(#paint21_radial_208_718)"/>
<path d="M482.563 219.66C486.445 219.66 489.593 216.513 489.593 212.63C489.593 208.748 486.445 205.6 482.563 205.6C478.68 205.6 475.533 208.748 475.533 212.63C475.533 216.513 478.68 219.66 482.563 219.66Z" fill="url(#paint22_radial_208_718)"/>
<path d="M489.563 148.9C493.445 148.9 496.593 145.752 496.593 141.87C496.593 137.987 493.445 134.84 489.563 134.84C485.68 134.84 482.533 137.987 482.533 141.87C482.533 145.752 485.68 148.9 489.563 148.9Z" fill="url(#paint23_radial_208_718)"/>
<path d="M549.512 171.11C553.395 171.11 556.542 167.963 556.542 164.08C556.542 160.197 553.395 157.05 549.512 157.05C545.629 157.05 542.482 160.197 542.482 164.08C542.482 167.963 545.629 171.11 549.512 171.11Z" fill="url(#paint24_radial_208_718)"/>
<defs>
<radialGradient id="paint0_radial_208_718" cx="0" cy="0" r="1" gradientUnits="userSpaceOnUse" gradientTransform="translate(252.573 210.467) rotate(-37.7649) scale(198.418 264.184)">
<stop stop-color="#E1BD38"/>
<stop offset="0.4305" stop-color="#D1AE3F"/>
<stop offset="1" stop-color="#B5954C"/>
</radialGradient>
<radialGradient id="paint1_radial_208_718" cx="0" cy="0" r="1" gradientUnits="userSpaceOnUse" gradientTransform="translate(441.093 9.78284) rotate(-37.7649) scale(9.82812 13.0857)">
<stop stop-color="#E1BD38"/>
<stop offset="0.4305" stop-color="#D1AE3F"/>
<stop offset="1" stop-color="#B5954C"/>
</radialGradient>
<radialGradient id="paint2_radial_208_718" cx="0" cy="0" r="1" gradientUnits="userSpaceOnUse" gradientTransform="translate(435.591 46.4458) rotate(-37.765) scale(9.82813 13.0857)">
<stop stop-color="#E1BD38"/>
<stop offset="0.4305" stop-color="#D1AE3F"/>
<stop offset="1" stop-color="#B5954C"/>
</radialGradient>
<radialGradient id="paint3_radial_208_718" cx="0" cy="0" r="1" gradientUnits="userSpaceOnUse" gradientTransform="translate(388.542 62.5504) rotate(-37.7649) scale(9.82811 13.0857)">
<stop stop-color="#E1BD38"/>
<stop offset="0.4305" stop-color="#D1AE3F"/>
<stop offset="1" stop-color="#B5954C"/>
</radialGradient>
<radialGradient id="paint4_radial_208_718" cx="0" cy="0" r="1" gradientUnits="userSpaceOnUse" gradientTransform="translate(358.321 103.293) rotate(-37.7649) scale(9.82812 13.0857)">
<stop stop-color="#E1BD38"/>
<stop offset="0.4305" stop-color="#D1AE3F"/>
<stop offset="1" stop-color="#B5954C"/>
</radialGradient>
<radialGradient id="paint5_radial_208_718" cx="0" cy="0" r="1" gradientUnits="userSpaceOnUse" gradientTransform="translate(346.896 149.818) rotate(-37.765) scale(9.82813 13.0857)">
<stop stop-color="#E1BD38"/>
<stop offset="0.4305" stop-color="#D1AE3F"/>
<stop offset="1" stop-color="#B5954C"/>
</radialGradient>
<radialGradient id="paint6_radial_208_718" cx="0" cy="0" r="1" gradientUnits="userSpaceOnUse" gradientTransform="translate(293.772 173.643) rotate(-37.765) scale(9.82812 13.0857)">
<stop stop-color="#E1BD38"/>
<stop offset="0.4305" stop-color="#D1AE3F"/>
<stop offset="1" stop-color="#B5954C"/>
</radialGradient>
<radialGradient id="paint7_radial_208_718" cx="0" cy="0" r="1" gradientUnits="userSpaceOnUse" gradientTransform="translate(314.941 140.667) rotate(-37.765) scale(5.65858 7.53414)">
<stop stop-color="#E1BD38"/>
<stop offset="0.4305" stop-color="#D1AE3F"/>
<stop offset="1" stop-color="#B5954C"/>
</radialGradient>
<radialGradient id="paint8_radial_208_718" cx="0" cy="0" r="1" gradientUnits="userSpaceOnUse" gradientTransform="translate(326.386 110.702) rotate(-37.7649) scale(5.65859 7.53415)">
<stop stop-color="#E1BD38"/>
<stop offset="0.4305" stop-color="#D1AE3F"/>
<stop offset="1" stop-color="#B5954C"/>
</radialGradient>
<radialGradient id="paint9_radial_208_718" cx="0" cy="0" r="1" gradientUnits="userSpaceOnUse" gradientTransform="translate(377.655 128.249) rotate(-37.7649) scale(5.65857 7.53411)">
<stop stop-color="#E1BD38"/>
<stop offset="0.4305" stop-color="#D1AE3F"/>
<stop offset="1" stop-color="#B5954C"/>
</radialGradient>
<radialGradient id="paint10_radial_208_718" cx="0" cy="0" r="1" gradientUnits="userSpaceOnUse" gradientTransform="translate(366.53 72.0684) rotate(-37.7648) scale(5.65858 7.53412)">
<stop stop-color="#E1BD38"/>
<stop offset="0.4305" stop-color="#D1AE3F"/>
<stop offset="1" stop-color="#B5954C"/>
</radialGradient>
<radialGradient id="paint11_radial_208_718" cx="0" cy="0" r="1" gradientUnits="userSpaceOnUse" gradientTransform="translate(417.931 75.1971) rotate(-37.765) scale(5.65858 7.53414)">
<stop stop-color="#E1BD38"/>
<stop offset="0.4305" stop-color="#D1AE3F"/>
<stop offset="1" stop-color="#B5954C"/>
</radialGradient>
<radialGradient id="paint12_radial_208_718" cx="0" cy="0" r="1" gradientUnits="userSpaceOnUse" gradientTransform="translate(384.772 183.301) scale(142.312 189.474)">
<stop stop-color="#E18929"/>
<stop offset="0.4305" stop-color="#D17F31"/>
<stop offset="1" stop-color="#B56E40"/>
</radialGradient>
<radialGradient id="paint13_radial_208_718" cx="0" cy="0" r="1" gradientUnits="userSpaceOnUse" gradientTransform="translate(304.364 265.29) rotate(-20.9162) scale(246.357 328.008)">
<stop stop-color="#E1BD38"/>
<stop offset="0.4305" stop-color="#D1AE3F"/>
<stop offset="1" stop-color="#B5954C"/>
</radialGradient>
<radialGradient id="paint14_radial_208_718" cx="0" cy="0" r="1" gradientUnits="userSpaceOnUse" gradientTransform="translate(600.588 94.6802) rotate(-20.9162) scale(12.2027 16.247)">
<stop stop-color="#E1BD38"/>
<stop offset="0.4305" stop-color="#D1AE3F"/>
<stop offset="1" stop-color="#B5954C"/>
</radialGradient>
<radialGradient id="paint15_radial_208_718" cx="0" cy="0" r="1" gradientUnits="userSpaceOnUse" gradientTransform="translate(580.855 136.267) rotate(-20.9162) scale(12.2026 16.247)">
<stop stop-color="#E1BD38"/>
<stop offset="0.4305" stop-color="#D1AE3F"/>
<stop offset="1" stop-color="#B5954C"/>
</radialGradient>
<radialGradient id="paint16_radial_208_718" cx="0" cy="0" r="1" gradientUnits="userSpaceOnUse" gradientTransform="translate(519.15 138.472) rotate(-20.9162) scale(12.2027 16.247)">
<stop stop-color="#E1BD38"/>
<stop offset="0.4305" stop-color="#D1AE3F"/>
<stop offset="1" stop-color="#B5954C"/>
</radialGradient>
<radialGradient id="paint17_radial_208_718" cx="0" cy="0" r="1" gradientUnits="userSpaceOnUse" gradientTransform="translate(468.576 176.011) rotate(-20.9162) scale(12.2026 16.247)">
<stop stop-color="#E1BD38"/>
<stop offset="0.4305" stop-color="#D1AE3F"/>
<stop offset="1" stop-color="#B5954C"/>
</radialGradient>
<radialGradient id="paint18_radial_208_718" cx="0" cy="0" r="1" gradientUnits="userSpaceOnUse" gradientTransform="translate(438.254 227.187) rotate(-20.9162) scale(12.2027 16.247)">
<stop stop-color="#E1BD38"/>
<stop offset="0.4305" stop-color="#D1AE3F"/>
<stop offset="1" stop-color="#B5954C"/>
</radialGradient>
<radialGradient id="paint19_radial_208_718" cx="0" cy="0" r="1" gradientUnits="userSpaceOnUse" gradientTransform="translate(366.554 236.38) rotate(-20.9162) scale(12.2026 16.247)">
<stop stop-color="#E1BD38"/>
<stop offset="0.4305" stop-color="#D1AE3F"/>
<stop offset="1" stop-color="#B5954C"/>
</radialGradient>
<radialGradient id="paint20_radial_208_718" cx="0" cy="0" r="1" gradientUnits="userSpaceOnUse" gradientTransform="translate(403.576 204.812) rotate(-20.9161) scale(7.02577 9.35431)">
<stop stop-color="#E1BD38"/>
<stop offset="0.4305" stop-color="#D1AE3F"/>
<stop offset="1" stop-color="#B5954C"/>
</radialGradient>
<radialGradient id="paint21_radial_208_718" cx="0" cy="0" r="1" gradientUnits="userSpaceOnUse" gradientTransform="translate(427.962 173.323) rotate(-20.9162) scale(7.02577 9.35438)">
<stop stop-color="#E1BD38"/>
<stop offset="0.4305" stop-color="#D1AE3F"/>
<stop offset="1" stop-color="#B5954C"/>
</radialGradient>
<radialGradient id="paint22_radial_208_718" cx="0" cy="0" r="1" gradientUnits="userSpaceOnUse" gradientTransform="translate(482.569 212.626) rotate(-20.9162) scale(7.02577 9.35438)">
<stop stop-color="#E1BD38"/>
<stop offset="0.4305" stop-color="#D1AE3F"/>
<stop offset="1" stop-color="#B5954C"/>
</radialGradient>
<radialGradient id="paint23_radial_208_718" cx="0" cy="0" r="1" gradientUnits="userSpaceOnUse" gradientTransform="translate(489.569 141.861) rotate(-20.9162) scale(7.02577 9.35434)">
<stop stop-color="#E1BD38"/>
<stop offset="0.4305" stop-color="#D1AE3F"/>
<stop offset="1" stop-color="#B5954C"/>
</radialGradient>
<radialGradient id="paint24_radial_208_718" cx="0" cy="0" r="1" gradientUnits="userSpaceOnUse" gradientTransform="translate(549.52 164.077) rotate(-20.9162) scale(7.02577 9.35434)">
<stop stop-color="#E1BD38"/>
<stop offset="0.4305" stop-color="#D1AE3F"/>
<stop offset="1" stop-color="#B5954C"/>
</radialGradient>
</defs>
</svg>
