<svg width="631" height="523" viewBox="0 0 631 523" fill="none" xmlns="http://www.w3.org/2000/svg">
<path d="M96.6583 478.617C127.238 442.752 156.943 406.127 185.642 368.704C199.987 349.993 214.101 331.102 227.976 312.033C241.814 292.939 255.425 273.675 268.807 254.242C282.154 234.783 295.242 215.16 308.127 195.394C320.965 175.594 333.566 155.636 345.887 135.508C370.539 95.2486 394.137 54.3454 416.668 12.832C417.024 12.1731 417.85 11.935 418.508 12.2918C419.156 12.6504 419.4 13.4562 419.065 14.1116C397.131 55.9924 374.106 97.309 350.012 138.005C337.968 158.347 325.636 178.53 313.069 198.566C300.455 218.567 287.629 238.438 274.544 258.135C261.412 277.807 248.056 297.331 234.461 316.686C220.831 336.016 206.952 355.18 192.843 374.164C164.606 412.136 135.346 449.342 105.174 485.807C103.215 488.18 99.7075 488.508 97.3377 486.543C94.9679 484.578 94.6384 481.063 96.5979 478.69C96.6063 478.678 96.6248 478.665 96.6332 478.653L96.6583 478.617Z" fill="url(#paint0_radial_222_305)"/>
<path d="M416.862 20.549C422.369 19.5903 426.055 14.339 425.094 8.81992C424.134 3.30083 418.89 -0.396028 413.383 0.562684C407.875 1.5214 404.189 6.77264 405.15 12.2917C406.111 17.8108 411.354 21.5077 416.862 20.549Z" fill="url(#paint1_radial_222_305)"/>
<path d="M417.769 58.7888C423.277 57.8301 426.963 52.5788 426.002 47.0597C425.042 41.5406 419.798 37.8437 414.29 38.8024C408.783 39.7611 405.097 45.0124 406.058 50.5315C407.018 56.0506 412.262 59.7475 417.769 58.7888Z" fill="url(#paint2_radial_222_305)"/>
<path d="M372.888 83.4648C378.395 82.5061 382.081 77.2548 381.121 71.7357C380.16 66.2166 374.916 62.5197 369.409 63.4785C363.901 64.4372 360.215 69.6884 361.176 75.2075C362.137 80.7266 367.38 84.4235 372.888 83.4648Z" fill="url(#paint3_radial_222_305)"/>
<path d="M349.432 130.23C354.939 129.271 358.625 124.02 357.664 118.501C356.704 112.981 351.46 109.285 345.952 110.243C340.445 111.202 336.759 116.453 337.72 121.972C338.68 127.491 343.924 131.188 349.432 130.23Z" fill="url(#paint4_radial_222_305)"/>
<path d="M346.079 179.539C351.586 178.58 355.272 173.329 354.311 167.81C353.351 162.291 348.107 158.594 342.599 159.552C337.092 160.511 333.406 165.762 334.367 171.282C335.327 176.801 340.571 180.498 346.079 179.539Z" fill="url(#paint5_radial_222_305)"/>
<path d="M296.397 213.146C301.904 212.188 305.59 206.936 304.63 201.417C303.669 195.898 298.425 192.201 292.918 193.16C287.41 194.119 283.724 199.37 284.685 204.889C285.646 210.408 290.889 214.105 296.397 213.146Z" fill="url(#paint6_radial_222_305)"/>
<path d="M311.299 171.641C314.47 171.089 316.592 168.066 316.039 164.888C315.486 161.71 312.467 159.582 309.296 160.134C306.124 160.686 304.002 163.709 304.555 166.887C305.108 170.065 308.128 172.193 311.299 171.641Z" fill="url(#paint7_radial_222_305)"/>
<path d="M317.613 139.162C320.784 138.61 322.906 135.586 322.353 132.409C321.8 129.231 318.781 127.102 315.609 127.654C312.438 128.206 310.316 131.23 310.869 134.408C311.422 137.585 314.441 139.714 317.613 139.162Z" fill="url(#paint8_radial_222_305)"/>
<path d="M372.73 147.95C375.902 147.397 378.024 144.374 377.471 141.196C376.918 138.018 373.898 135.89 370.727 136.442C367.556 136.994 365.434 140.017 365.987 143.195C366.54 146.373 369.559 148.502 372.73 147.95Z" fill="url(#paint9_radial_222_305)"/>
<path d="M351.506 92.7903C354.678 92.2383 356.8 89.2147 356.247 86.0369C355.694 82.8591 352.674 80.7305 349.503 81.2825C346.332 81.8345 344.21 84.8581 344.763 88.0359C345.316 91.2137 348.335 93.3423 351.506 92.7903Z" fill="url(#paint10_radial_222_305)"/>
<path d="M404.204 86.8956C407.375 86.3436 409.498 83.32 408.944 80.1422C408.391 76.9644 405.372 74.8357 402.201 75.3877C399.03 75.9397 396.907 78.9634 397.461 82.1412C398.014 85.319 401.033 87.4476 404.204 86.8956Z" fill="url(#paint11_radial_222_305)"/>
<path d="M375.266 189.141C371.773 166.746 366.471 150.796 355.87 118.886C332.121 47.4024 318.993 41.9859 312.519 40.9068C312.274 40.8679 312.038 40.8411 311.792 40.8122C311.554 40.743 311.326 40.6758 311.086 40.6166C304.702 39.0925 290.502 38.9654 240.815 95.5914C218.636 120.864 207.548 133.496 195.619 152.769C179.491 178.824 164.675 202.756 159.638 237.079C156.945 255.464 149.981 302.884 180.555 341.333C189.557 352.652 210.198 373.739 242.757 379.447C242.908 379.478 243.062 379.498 243.215 379.519C243.367 379.55 243.516 379.59 243.665 379.631C275.88 387.038 303.098 375.64 315.794 368.714C358.916 345.186 370.947 298.792 375.617 280.808C384.326 247.238 379.986 219.429 375.266 189.141Z" fill="url(#paint12_radial_222_305)"/>
<path d="M265.848 183.201C264.088 187.224 272.226 198.611 283.518 198.412C291.965 198.259 299.971 191.668 299.176 187.601C297.782 180.475 268.545 177.041 265.848 183.201Z" fill="white"/>
<path d="M255.654 166.661C251.519 160.412 243.112 158.71 236.882 162.86C230.642 167.008 228.937 175.433 233.074 181.671C237.209 187.92 245.616 189.622 251.846 185.472C258.086 181.324 259.791 172.899 255.654 166.661ZM250.47 183.393C245.383 186.775 238.53 185.387 235.15 180.291L253.568 168.039C256.949 173.135 255.557 180.012 250.47 183.393Z" fill="white"/>
<path d="M333.326 182.387C329.191 176.138 320.784 174.436 314.554 178.586C308.314 182.734 306.608 191.159 310.745 197.398C314.881 203.646 323.288 205.348 329.518 201.198C335.758 197.05 337.463 188.626 333.326 182.387ZM328.142 199.119C323.055 202.501 316.202 201.113 312.821 196.018L331.24 183.765C334.621 188.861 333.229 195.738 328.142 199.119Z" fill="white"/>
<path d="M45.3372 509.892C94.5672 478.311 143.031 445.512 190.578 411.406C214.345 394.344 237.904 376.993 261.255 359.344C284.566 341.649 307.66 323.667 330.541 305.418C353.392 287.122 375.991 268.514 398.403 249.677C420.764 230.786 442.91 211.618 464.795 192.149C508.553 153.215 551.294 113.117 592.979 71.9352C593.639 71.286 594.706 71.2889 595.354 71.9511C596.001 72.6031 595.997 73.6617 595.358 74.3175C554.249 116.164 512.045 156.943 468.8 196.605C447.177 216.437 425.271 235.961 403.143 255.23C380.964 274.446 358.587 293.424 335.95 312.112C313.284 330.753 290.394 349.129 267.277 367.219C244.132 385.273 220.757 403.021 197.168 420.503C149.973 455.427 101.825 489.082 52.8707 521.526C49.6834 523.631 45.4037 522.763 43.2905 519.57C41.1874 516.375 42.0507 512.087 45.2362 509.972C45.2547 509.958 45.2733 509.945 45.2918 509.931L45.3372 509.892Z" fill="url(#paint13_radial_222_305)"/>
<path d="M594.107 81.0606C600.942 79.8707 605.517 73.3533 604.325 66.5036C603.132 59.6539 596.625 55.0656 589.789 56.2555C582.954 57.4453 578.379 63.9627 579.572 70.8124C580.764 77.6622 587.272 82.2504 594.107 81.0606Z" fill="url(#paint14_radial_222_305)"/>
<path d="M581.45 126.815C588.286 125.625 592.86 119.108 591.668 112.258C590.476 105.408 583.968 100.82 577.132 102.01C570.297 103.2 565.722 109.717 566.915 116.567C568.107 123.417 574.615 128.005 581.45 126.815Z" fill="url(#paint15_radial_222_305)"/>
<path d="M519.237 139.959C526.073 138.77 530.647 132.252 529.455 125.403C528.263 118.553 521.755 113.965 514.919 115.154C508.084 116.344 503.509 122.862 504.702 129.711C505.894 136.561 512.402 141.149 519.237 139.959Z" fill="url(#paint16_radial_222_305)"/>
<path d="M474.579 187.053C481.414 185.863 485.989 179.345 484.797 172.496C483.604 165.646 477.097 161.058 470.261 162.247C463.426 163.437 458.851 169.955 460.043 176.804C461.236 183.654 467.744 188.242 474.579 187.053Z" fill="url(#paint17_radial_222_305)"/>
<path d="M452.875 244.427C459.711 243.237 464.285 236.719 463.093 229.869C461.9 223.02 455.393 218.432 448.557 219.621C441.722 220.811 437.147 227.329 438.34 234.178C439.532 241.028 446.04 245.616 452.875 244.427Z" fill="url(#paint18_radial_222_305)"/>
<path d="M381.754 266.432C388.589 265.243 393.164 258.725 391.971 251.875C390.779 245.026 384.271 240.437 377.436 241.627C370.6 242.817 366.026 249.335 367.218 256.184C368.41 263.034 374.918 267.622 381.754 266.432Z" fill="url(#paint19_radial_222_305)"/>
<path d="M412.82 222.554C416.759 221.868 419.395 218.112 418.707 214.165C418.02 210.218 414.27 207.575 410.332 208.26C406.393 208.946 403.757 212.701 404.444 216.648C405.131 220.595 408.881 223.239 412.82 222.554Z" fill="url(#paint20_radial_222_305)"/>
<path d="M431.98 186.235C435.919 185.55 438.555 181.794 437.868 177.847C437.181 173.9 433.431 171.256 429.492 171.942C425.553 172.628 422.917 176.383 423.604 180.33C424.291 184.277 428.041 186.921 431.98 186.235Z" fill="url(#paint21_radial_222_305)"/>
<path d="M494.335 216.544C498.274 215.859 500.91 212.103 500.223 208.156C499.536 204.209 495.786 201.565 491.847 202.251C487.909 202.936 485.273 206.692 485.96 210.639C486.647 214.586 490.397 217.23 494.335 216.544Z" fill="url(#paint22_radial_222_305)"/>
<path d="M488.915 143.373C492.854 142.688 495.49 138.932 494.803 134.985C494.116 131.038 490.366 128.394 486.427 129.08C482.488 129.765 479.852 133.521 480.539 137.468C481.226 141.415 484.976 144.059 488.915 143.373Z" fill="url(#paint23_radial_222_305)"/>
<path d="M553.662 155.365C557.601 154.68 560.237 150.924 559.55 146.977C558.863 143.03 555.113 140.386 551.174 141.072C547.236 141.758 544.599 145.513 545.287 149.46C545.974 153.407 549.724 156.051 553.662 155.365Z" fill="url(#paint24_radial_222_305)"/>
<defs>
<radialGradient id="paint0_radial_222_305" cx="0" cy="0" r="1" gradientUnits="userSpaceOnUse" gradientTransform="translate(259.39 247.813) rotate(-47.6977) scale(204.477 272.394)">
<stop stop-color="#E1BD38"/>
<stop offset="0.4305" stop-color="#D1AE3F"/>
<stop offset="1" stop-color="#B5954C"/>
</radialGradient>
<radialGradient id="paint1_radial_222_305" cx="0" cy="0" r="1" gradientUnits="userSpaceOnUse" gradientTransform="translate(415.125 10.5059) rotate(-47.6977) scale(10.1283 13.4923)">
<stop stop-color="#E1BD38"/>
<stop offset="0.4305" stop-color="#D1AE3F"/>
<stop offset="1" stop-color="#B5954C"/>
</radialGradient>
<radialGradient id="paint2_radial_222_305" cx="0" cy="0" r="1" gradientUnits="userSpaceOnUse" gradientTransform="translate(416.031 48.7492) rotate(-47.6977) scale(10.1283 13.4924)">
<stop stop-color="#E1BD38"/>
<stop offset="0.4305" stop-color="#D1AE3F"/>
<stop offset="1" stop-color="#B5954C"/>
</radialGradient>
<radialGradient id="paint3_radial_222_305" cx="0" cy="0" r="1" gradientUnits="userSpaceOnUse" gradientTransform="translate(371.151 73.4297) rotate(-47.6977) scale(10.1283 13.4923)">
<stop stop-color="#E1BD38"/>
<stop offset="0.4305" stop-color="#D1AE3F"/>
<stop offset="1" stop-color="#B5954C"/>
</radialGradient>
<radialGradient id="paint4_radial_222_305" cx="0" cy="0" r="1" gradientUnits="userSpaceOnUse" gradientTransform="translate(347.702 120.186) rotate(-47.6977) scale(10.1283 13.4923)">
<stop stop-color="#E1BD38"/>
<stop offset="0.4305" stop-color="#D1AE3F"/>
<stop offset="1" stop-color="#B5954C"/>
</radialGradient>
<radialGradient id="paint5_radial_222_305" cx="0" cy="0" r="1" gradientUnits="userSpaceOnUse" gradientTransform="translate(344.346 169.501) rotate(-47.6977) scale(10.1283 13.4924)">
<stop stop-color="#E1BD38"/>
<stop offset="0.4305" stop-color="#D1AE3F"/>
<stop offset="1" stop-color="#B5954C"/>
</radialGradient>
<radialGradient id="paint6_radial_222_305" cx="0" cy="0" r="1" gradientUnits="userSpaceOnUse" gradientTransform="translate(294.669 203.102) rotate(-47.6978) scale(10.1283 13.4924)">
<stop stop-color="#E1BD38"/>
<stop offset="0.4305" stop-color="#D1AE3F"/>
<stop offset="1" stop-color="#B5954C"/>
</radialGradient>
<radialGradient id="paint7_radial_222_305" cx="0" cy="0" r="1" gradientUnits="userSpaceOnUse" gradientTransform="translate(310.308 165.84) rotate(-47.6978) scale(5.83139 7.76827)">
<stop stop-color="#E1BD38"/>
<stop offset="0.4305" stop-color="#D1AE3F"/>
<stop offset="1" stop-color="#B5954C"/>
</radialGradient>
<radialGradient id="paint8_radial_222_305" cx="0" cy="0" r="1" gradientUnits="userSpaceOnUse" gradientTransform="translate(316.617 133.357) rotate(-47.6977) scale(5.8314 7.76828)">
<stop stop-color="#E1BD38"/>
<stop offset="0.4305" stop-color="#D1AE3F"/>
<stop offset="1" stop-color="#B5954C"/>
</radialGradient>
<radialGradient id="paint9_radial_222_305" cx="0" cy="0" r="1" gradientUnits="userSpaceOnUse" gradientTransform="translate(371.733 142.142) rotate(-47.6976) scale(5.83138 7.76825)">
<stop stop-color="#E1BD38"/>
<stop offset="0.4305" stop-color="#D1AE3F"/>
<stop offset="1" stop-color="#B5954C"/>
</radialGradient>
<radialGradient id="paint10_radial_222_305" cx="0" cy="0" r="1" gradientUnits="userSpaceOnUse" gradientTransform="translate(350.505 86.9928) rotate(-47.6976) scale(5.83139 7.76826)">
<stop stop-color="#E1BD38"/>
<stop offset="0.4305" stop-color="#D1AE3F"/>
<stop offset="1" stop-color="#B5954C"/>
</radialGradient>
<radialGradient id="paint11_radial_222_305" cx="0" cy="0" r="1" gradientUnits="userSpaceOnUse" gradientTransform="translate(403.203 81.0965) rotate(-47.6978) scale(5.83139 7.76827)">
<stop stop-color="#E1BD38"/>
<stop offset="0.4305" stop-color="#D1AE3F"/>
<stop offset="1" stop-color="#B5954C"/>
</radialGradient>
<radialGradient id="paint12_radial_222_305" cx="0" cy="0" r="1" gradientUnits="userSpaceOnUse" gradientTransform="translate(393.853 233.703) rotate(11.4458) scale(146.543 195.516)">
<stop stop-color="#E18929"/>
<stop offset="0.4305" stop-color="#D17F31"/>
<stop offset="1" stop-color="#B56E40"/>
</radialGradient>
<radialGradient id="paint13_radial_222_305" cx="0" cy="0" r="1" gradientUnits="userSpaceOnUse" gradientTransform="translate(321.632 294.4) rotate(-30.8309) scale(253.749 338.377)">
<stop stop-color="#E1BD38"/>
<stop offset="0.4305" stop-color="#D1AE3F"/>
<stop offset="1" stop-color="#B5954C"/>
</radialGradient>
<radialGradient id="paint14_radial_222_305" cx="0" cy="0" r="1" gradientUnits="userSpaceOnUse" gradientTransform="translate(591.952 68.647) rotate(-30.8309) scale(12.5688 16.7606)">
<stop stop-color="#E1BD38"/>
<stop offset="0.4305" stop-color="#D1AE3F"/>
<stop offset="1" stop-color="#B5954C"/>
</radialGradient>
<radialGradient id="paint15_radial_222_305" cx="0" cy="0" r="1" gradientUnits="userSpaceOnUse" gradientTransform="translate(579.293 114.41) rotate(-30.8309) scale(12.5688 16.7606)">
<stop stop-color="#E1BD38"/>
<stop offset="0.4305" stop-color="#D1AE3F"/>
<stop offset="1" stop-color="#B5954C"/>
</radialGradient>
<radialGradient id="paint16_radial_222_305" cx="0" cy="0" r="1" gradientUnits="userSpaceOnUse" gradientTransform="translate(517.085 127.548) rotate(-30.8309) scale(12.5688 16.7606)">
<stop stop-color="#E1BD38"/>
<stop offset="0.4305" stop-color="#D1AE3F"/>
<stop offset="1" stop-color="#B5954C"/>
</radialGradient>
<radialGradient id="paint17_radial_222_305" cx="0" cy="0" r="1" gradientUnits="userSpaceOnUse" gradientTransform="translate(472.422 174.641) rotate(-30.8309) scale(12.5688 16.7606)">
<stop stop-color="#E1BD38"/>
<stop offset="0.4305" stop-color="#D1AE3F"/>
<stop offset="1" stop-color="#B5954C"/>
</radialGradient>
<radialGradient id="paint18_radial_222_305" cx="0" cy="0" r="1" gradientUnits="userSpaceOnUse" gradientTransform="translate(450.718 232.021) rotate(-30.8309) scale(12.5688 16.7606)">
<stop stop-color="#E1BD38"/>
<stop offset="0.4305" stop-color="#D1AE3F"/>
<stop offset="1" stop-color="#B5954C"/>
</radialGradient>
<radialGradient id="paint19_radial_222_305" cx="0" cy="0" r="1" gradientUnits="userSpaceOnUse" gradientTransform="translate(379.606 254.028) rotate(-30.8309) scale(12.5688 16.7606)">
<stop stop-color="#E1BD38"/>
<stop offset="0.4305" stop-color="#D1AE3F"/>
<stop offset="1" stop-color="#B5954C"/>
</radialGradient>
<radialGradient id="paint20_radial_222_305" cx="0" cy="0" r="1" gradientUnits="userSpaceOnUse" gradientTransform="translate(411.578 215.398) rotate(-30.8308) scale(7.23657 9.65001)">
<stop stop-color="#E1BD38"/>
<stop offset="0.4305" stop-color="#D1AE3F"/>
<stop offset="1" stop-color="#B5954C"/>
</radialGradient>
<radialGradient id="paint21_radial_222_305" cx="0" cy="0" r="1" gradientUnits="userSpaceOnUse" gradientTransform="translate(430.744 179.08) rotate(-30.831) scale(7.23658 9.65009)">
<stop stop-color="#E1BD38"/>
<stop offset="0.4305" stop-color="#D1AE3F"/>
<stop offset="1" stop-color="#B5954C"/>
</radialGradient>
<radialGradient id="paint22_radial_222_305" cx="0" cy="0" r="1" gradientUnits="userSpaceOnUse" gradientTransform="translate(493.097 209.392) rotate(-30.831) scale(7.23658 9.65009)">
<stop stop-color="#E1BD38"/>
<stop offset="0.4305" stop-color="#D1AE3F"/>
<stop offset="1" stop-color="#B5954C"/>
</radialGradient>
<radialGradient id="paint23_radial_222_305" cx="0" cy="0" r="1" gradientUnits="userSpaceOnUse" gradientTransform="translate(487.675 136.216) rotate(-30.8309) scale(7.23658 9.65005)">
<stop stop-color="#E1BD38"/>
<stop offset="0.4305" stop-color="#D1AE3F"/>
<stop offset="1" stop-color="#B5954C"/>
</radialGradient>
<radialGradient id="paint24_radial_222_305" cx="0" cy="0" r="1" gradientUnits="userSpaceOnUse" gradientTransform="translate(552.426 148.214) rotate(-30.8309) scale(7.23658 9.65005)">
<stop stop-color="#E1BD38"/>
<stop offset="0.4305" stop-color="#D1AE3F"/>
<stop offset="1" stop-color="#B5954C"/>
</radialGradient>
</defs>
</svg>
