<svg width="613" height="467" viewBox="0 0 613 467" fill="none" xmlns="http://www.w3.org/2000/svg">
<path d="M58.4421 431.78C93.6721 402.62 128.192 372.59 161.882 341.63C178.722 326.15 195.372 310.46 211.822 294.56C228.242 278.63 244.472 262.5 260.512 246.17C276.522 229.81 292.312 213.25 307.932 196.52C323.512 179.75 338.892 162.79 354.032 145.62C384.322 111.28 413.712 76.1499 442.182 40.2599C442.632 39.6899 443.462 39.5999 444.032 40.0499C444.592 40.4999 444.692 41.3099 444.262 41.8799C416.302 78.2199 387.392 113.84 357.562 148.69C342.652 166.11 327.492 183.33 312.132 200.37C296.732 217.37 281.152 234.21 265.352 250.84C249.512 267.44 233.482 283.86 217.252 300.08C200.992 316.27 184.522 332.26 167.862 348.04C134.522 379.6 100.332 410.26 65.3921 440.06C63.1221 442 59.7121 441.73 57.7721 439.46C55.8321 437.19 56.1021 433.78 58.3721 431.84C58.3821 431.83 58.4021 431.82 58.4121 431.81L58.4421 431.78Z" fill="url(#paint0_radial_208_776)"/>
<path d="M441.082 47.66C446.511 47.66 450.912 43.2589 450.912 37.83C450.912 32.401 446.511 28 441.082 28C435.653 28 431.252 32.401 431.252 37.83C431.252 43.2589 435.653 47.66 441.082 47.66Z" fill="url(#paint1_radial_208_776)"/>
<path d="M435.582 84.3199C441.011 84.3199 445.412 79.9189 445.412 74.4899C445.412 69.061 441.011 64.6599 435.582 64.6599C430.153 64.6599 425.752 69.061 425.752 74.4899C425.752 79.9189 430.153 84.3199 435.582 84.3199Z" fill="url(#paint2_radial_208_776)"/>
<path d="M388.532 100.42C393.961 100.42 398.362 96.0189 398.362 90.59C398.362 85.161 393.961 80.76 388.532 80.76C383.103 80.76 378.702 85.161 378.702 90.59C378.702 96.0189 383.103 100.42 388.532 100.42Z" fill="url(#paint3_radial_208_776)"/>
<path d="M358.302 141.17C363.731 141.17 368.132 136.769 368.132 131.34C368.132 125.911 363.731 121.51 358.302 121.51C352.873 121.51 348.472 125.911 348.472 131.34C348.472 136.769 352.873 141.17 358.302 141.17Z" fill="url(#paint4_radial_208_776)"/>
<path d="M346.882 187.69C352.311 187.69 356.712 183.289 356.712 177.86C356.712 172.431 352.311 168.03 346.882 168.03C341.453 168.03 337.052 172.431 337.052 177.86C337.052 183.289 341.453 187.69 346.882 187.69Z" fill="url(#paint5_radial_208_776)"/>
<path d="M293.752 211.52C299.181 211.52 303.582 207.119 303.582 201.69C303.582 196.261 299.181 191.86 293.752 191.86C288.323 191.86 283.922 196.261 283.922 201.69C283.922 207.119 288.323 211.52 293.752 211.52Z" fill="url(#paint6_radial_208_776)"/>
<path d="M314.922 174.37C318.048 174.37 320.582 171.836 320.582 168.71C320.582 165.584 318.048 163.05 314.922 163.05C311.796 163.05 309.262 165.584 309.262 168.71C309.262 171.836 311.796 174.37 314.922 174.37Z" fill="url(#paint7_radial_208_776)"/>
<path d="M326.372 144.41C329.498 144.41 332.032 141.876 332.032 138.75C332.032 135.624 329.498 133.09 326.372 133.09C323.246 133.09 320.712 135.624 320.712 138.75C320.712 141.876 323.246 144.41 326.372 144.41Z" fill="url(#paint8_radial_208_776)"/>
<path d="M377.642 161.96C380.768 161.96 383.302 159.426 383.302 156.3C383.302 153.174 380.768 150.64 377.642 150.64C374.516 150.64 371.982 153.174 371.982 156.3C371.982 159.426 374.516 161.96 377.642 161.96Z" fill="url(#paint9_radial_208_776)"/>
<path d="M366.522 105.77C369.648 105.77 372.182 103.236 372.182 100.11C372.182 96.984 369.648 94.45 366.522 94.45C363.396 94.45 360.862 96.984 360.862 100.11C360.862 103.236 363.396 105.77 366.522 105.77Z" fill="url(#paint10_radial_208_776)"/>
<path d="M417.922 108.9C421.048 108.9 423.582 106.366 423.582 103.24C423.582 100.114 421.048 97.5801 417.922 97.5801C414.796 97.5801 412.262 100.114 412.262 103.24C412.262 106.366 414.796 108.9 417.922 108.9Z" fill="url(#paint11_radial_208_776)"/>
<path d="M472.225 128.741C464.585 108.141 456.465 94.0106 440.225 65.7406C403.845 2.41058 390.305 -0.209404 383.935 0.0105964C383.695 0.0205964 383.465 0.0405841 383.225 0.0605841C382.985 0.0405841 382.755 0.0205964 382.515 0.0105964C376.145 -0.209404 362.605 2.40058 326.225 65.7406C309.985 94.0106 301.865 108.141 294.225 128.741C283.895 156.591 274.405 182.171 276.225 215.741C277.205 233.721 279.715 280.101 316.225 310.741C326.975 319.76 350.685 335.821 382.775 334.981C382.925 334.981 383.075 334.971 383.225 334.961C383.375 334.961 383.525 334.971 383.675 334.981C415.765 335.821 439.475 319.76 450.225 310.741C486.735 280.101 489.245 233.721 490.225 215.741C492.045 182.181 482.555 156.601 472.225 128.741Z" fill="url(#paint12_radial_208_776)"/>
<path d="M366.935 144.14C366.035 148.3 375.975 157.55 386.685 155.19C394.695 153.42 401.045 145.62 399.505 141.91C396.805 135.41 368.315 137.77 366.935 144.14Z" fill="white"/>
<path d="M354.045 130.39C348.905 125.25 340.575 125.25 335.445 130.39C330.305 135.53 330.305 143.86 335.445 148.99C340.585 154.13 348.915 154.13 354.045 148.99C359.185 143.85 359.185 135.52 354.045 130.39ZM352.335 147.28C348.145 151.47 341.355 151.47 337.155 147.28L352.325 132.1C356.525 136.29 356.525 143.09 352.335 147.28Z" fill="white"/>
<path d="M431.005 130.39C425.865 125.25 417.535 125.25 412.405 130.39C407.265 135.53 407.265 143.86 412.405 148.99C417.545 154.13 425.875 154.13 431.005 148.99C436.145 143.85 436.145 135.52 431.005 130.39ZM429.295 147.28C425.105 151.47 418.315 151.47 414.115 147.28L429.285 132.1C433.485 136.29 433.485 143.09 429.295 147.28Z" fill="white"/>
<path d="M4.13237 453.11C56.4924 431.14 108.322 407.88 159.492 383.22C185.072 370.88 210.502 358.23 235.782 345.26C261.032 332.24 286.122 318.91 311.052 305.29C335.962 291.62 360.682 277.61 385.262 263.35C409.802 249.03 434.182 234.41 458.362 219.46C506.712 189.56 554.282 158.38 601.022 125.99C601.762 125.48 602.782 125.66 603.292 126.4C603.802 127.13 603.622 128.14 602.902 128.66C556.602 161.78 509.432 193.7 461.452 224.38C437.462 239.72 413.252 254.72 388.872 269.44C364.452 284.1 339.882 298.5 315.112 312.58C290.322 326.61 265.362 340.35 240.232 353.78C215.082 367.17 189.762 380.23 164.282 393C113.312 418.5 61.6424 442.63 9.40237 465.47C6.00237 466.95 2.05237 465.41 0.562372 462.01C-0.917628 458.61 0.622372 454.66 4.02237 453.17C4.04237 453.16 4.06237 453.15 4.08237 453.14L4.13237 453.11Z" fill="url(#paint13_radial_208_776)"/>
<path d="M600.582 134.89C607.32 134.89 612.782 129.428 612.782 122.69C612.782 115.952 607.32 110.49 600.582 110.49C593.844 110.49 588.382 115.952 588.382 122.69C588.382 129.428 593.844 134.89 600.582 134.89Z" fill="url(#paint14_radial_208_776)"/>
<path d="M580.853 176.47C587.591 176.47 593.053 171.008 593.053 164.27C593.053 157.532 587.591 152.07 580.853 152.07C574.115 152.07 568.653 157.532 568.653 164.27C568.653 171.008 574.115 176.47 580.853 176.47Z" fill="url(#paint15_radial_208_776)"/>
<path d="M519.142 178.68C525.88 178.68 531.342 173.218 531.342 166.48C531.342 159.742 525.88 154.28 519.142 154.28C512.404 154.28 506.942 159.742 506.942 166.48C506.942 173.218 512.404 178.68 519.142 178.68Z" fill="url(#paint16_radial_208_776)"/>
<path d="M468.573 216.22C475.31 216.22 480.773 210.758 480.773 204.02C480.773 197.282 475.31 191.82 468.573 191.82C461.835 191.82 456.373 197.282 456.373 204.02C456.373 210.758 461.835 216.22 468.573 216.22Z" fill="url(#paint17_radial_208_776)"/>
<path d="M438.252 267.39C444.99 267.39 450.452 261.928 450.452 255.19C450.452 248.452 444.99 242.99 438.252 242.99C431.514 242.99 426.052 248.452 426.052 255.19C426.052 261.928 431.514 267.39 438.252 267.39Z" fill="url(#paint18_radial_208_776)"/>
<path d="M366.542 276.58C373.28 276.58 378.742 271.118 378.742 264.38C378.742 257.642 373.28 252.18 366.542 252.18C359.804 252.18 354.342 257.642 354.342 264.38C354.342 271.118 359.804 276.58 366.542 276.58Z" fill="url(#paint19_radial_208_776)"/>
<path d="M403.572 239.85C407.455 239.85 410.602 236.703 410.602 232.82C410.602 228.937 407.455 225.79 403.572 225.79C399.69 225.79 396.542 228.937 396.542 232.82C396.542 236.703 399.69 239.85 403.572 239.85Z" fill="url(#paint20_radial_208_776)"/>
<path d="M427.952 208.36C431.835 208.36 434.982 205.212 434.982 201.33C434.982 197.447 431.835 194.3 427.952 194.3C424.07 194.3 420.922 197.447 420.922 201.33C420.922 205.212 424.07 208.36 427.952 208.36Z" fill="url(#paint21_radial_208_776)"/>
<path d="M482.563 247.66C486.445 247.66 489.593 244.513 489.593 240.63C489.593 236.748 486.445 233.6 482.563 233.6C478.68 233.6 475.533 236.748 475.533 240.63C475.533 244.513 478.68 247.66 482.563 247.66Z" fill="url(#paint22_radial_208_776)"/>
<path d="M489.563 176.9C493.445 176.9 496.593 173.752 496.593 169.87C496.593 165.987 493.445 162.84 489.563 162.84C485.68 162.84 482.533 165.987 482.533 169.87C482.533 173.752 485.68 176.9 489.563 176.9Z" fill="url(#paint23_radial_208_776)"/>
<path d="M549.512 199.11C553.395 199.11 556.542 195.963 556.542 192.08C556.542 188.197 553.395 185.05 549.512 185.05C545.629 185.05 542.482 188.197 542.482 192.08C542.482 195.963 545.629 199.11 549.512 199.11Z" fill="url(#paint24_radial_208_776)"/>
<defs>
<radialGradient id="paint0_radial_208_776" cx="0" cy="0" r="1" gradientUnits="userSpaceOnUse" gradientTransform="translate(252.573 238.467) rotate(-37.7649) scale(198.418 264.184)">
<stop stop-color="#E1BD38"/>
<stop offset="0.4305" stop-color="#D1AE3F"/>
<stop offset="1" stop-color="#B5954C"/>
</radialGradient>
<radialGradient id="paint1_radial_208_776" cx="0" cy="0" r="1" gradientUnits="userSpaceOnUse" gradientTransform="translate(441.093 37.7828) rotate(-37.7649) scale(9.82812 13.0857)">
<stop stop-color="#E1BD38"/>
<stop offset="0.4305" stop-color="#D1AE3F"/>
<stop offset="1" stop-color="#B5954C"/>
</radialGradient>
<radialGradient id="paint2_radial_208_776" cx="0" cy="0" r="1" gradientUnits="userSpaceOnUse" gradientTransform="translate(435.591 74.4458) rotate(-37.765) scale(9.82813 13.0857)">
<stop stop-color="#E1BD38"/>
<stop offset="0.4305" stop-color="#D1AE3F"/>
<stop offset="1" stop-color="#B5954C"/>
</radialGradient>
<radialGradient id="paint3_radial_208_776" cx="0" cy="0" r="1" gradientUnits="userSpaceOnUse" gradientTransform="translate(388.542 90.5504) rotate(-37.7649) scale(9.82811 13.0857)">
<stop stop-color="#E1BD38"/>
<stop offset="0.4305" stop-color="#D1AE3F"/>
<stop offset="1" stop-color="#B5954C"/>
</radialGradient>
<radialGradient id="paint4_radial_208_776" cx="0" cy="0" r="1" gradientUnits="userSpaceOnUse" gradientTransform="translate(358.321 131.293) rotate(-37.7649) scale(9.82812 13.0857)">
<stop stop-color="#E1BD38"/>
<stop offset="0.4305" stop-color="#D1AE3F"/>
<stop offset="1" stop-color="#B5954C"/>
</radialGradient>
<radialGradient id="paint5_radial_208_776" cx="0" cy="0" r="1" gradientUnits="userSpaceOnUse" gradientTransform="translate(346.896 177.818) rotate(-37.765) scale(9.82813 13.0857)">
<stop stop-color="#E1BD38"/>
<stop offset="0.4305" stop-color="#D1AE3F"/>
<stop offset="1" stop-color="#B5954C"/>
</radialGradient>
<radialGradient id="paint6_radial_208_776" cx="0" cy="0" r="1" gradientUnits="userSpaceOnUse" gradientTransform="translate(293.772 201.643) rotate(-37.765) scale(9.82812 13.0857)">
<stop stop-color="#E1BD38"/>
<stop offset="0.4305" stop-color="#D1AE3F"/>
<stop offset="1" stop-color="#B5954C"/>
</radialGradient>
<radialGradient id="paint7_radial_208_776" cx="0" cy="0" r="1" gradientUnits="userSpaceOnUse" gradientTransform="translate(314.941 168.667) rotate(-37.765) scale(5.65858 7.53414)">
<stop stop-color="#E1BD38"/>
<stop offset="0.4305" stop-color="#D1AE3F"/>
<stop offset="1" stop-color="#B5954C"/>
</radialGradient>
<radialGradient id="paint8_radial_208_776" cx="0" cy="0" r="1" gradientUnits="userSpaceOnUse" gradientTransform="translate(326.386 138.702) rotate(-37.7649) scale(5.65859 7.53415)">
<stop stop-color="#E1BD38"/>
<stop offset="0.4305" stop-color="#D1AE3F"/>
<stop offset="1" stop-color="#B5954C"/>
</radialGradient>
<radialGradient id="paint9_radial_208_776" cx="0" cy="0" r="1" gradientUnits="userSpaceOnUse" gradientTransform="translate(377.655 156.249) rotate(-37.7649) scale(5.65857 7.53411)">
<stop stop-color="#E1BD38"/>
<stop offset="0.4305" stop-color="#D1AE3F"/>
<stop offset="1" stop-color="#B5954C"/>
</radialGradient>
<radialGradient id="paint10_radial_208_776" cx="0" cy="0" r="1" gradientUnits="userSpaceOnUse" gradientTransform="translate(366.53 100.068) rotate(-37.7648) scale(5.65858 7.53412)">
<stop stop-color="#E1BD38"/>
<stop offset="0.4305" stop-color="#D1AE3F"/>
<stop offset="1" stop-color="#B5954C"/>
</radialGradient>
<radialGradient id="paint11_radial_208_776" cx="0" cy="0" r="1" gradientUnits="userSpaceOnUse" gradientTransform="translate(417.931 103.197) rotate(-37.765) scale(5.65858 7.53414)">
<stop stop-color="#E1BD38"/>
<stop offset="0.4305" stop-color="#D1AE3F"/>
<stop offset="1" stop-color="#B5954C"/>
</radialGradient>
<radialGradient id="paint12_radial_208_776" cx="0" cy="0" r="1" gradientUnits="userSpaceOnUse" gradientTransform="translate(498.505 167.492) scale(142.312 189.474)">
<stop stop-color="#E18929"/>
<stop offset="0.4305" stop-color="#D17F31"/>
<stop offset="1" stop-color="#B56E40"/>
</radialGradient>
<radialGradient id="paint13_radial_208_776" cx="0" cy="0" r="1" gradientUnits="userSpaceOnUse" gradientTransform="translate(304.364 293.29) rotate(-20.9162) scale(246.357 328.008)">
<stop stop-color="#E1BD38"/>
<stop offset="0.4305" stop-color="#D1AE3F"/>
<stop offset="1" stop-color="#B5954C"/>
</radialGradient>
<radialGradient id="paint14_radial_208_776" cx="0" cy="0" r="1" gradientUnits="userSpaceOnUse" gradientTransform="translate(600.588 122.68) rotate(-20.9162) scale(12.2027 16.247)">
<stop stop-color="#E1BD38"/>
<stop offset="0.4305" stop-color="#D1AE3F"/>
<stop offset="1" stop-color="#B5954C"/>
</radialGradient>
<radialGradient id="paint15_radial_208_776" cx="0" cy="0" r="1" gradientUnits="userSpaceOnUse" gradientTransform="translate(580.855 164.267) rotate(-20.9162) scale(12.2026 16.247)">
<stop stop-color="#E1BD38"/>
<stop offset="0.4305" stop-color="#D1AE3F"/>
<stop offset="1" stop-color="#B5954C"/>
</radialGradient>
<radialGradient id="paint16_radial_208_776" cx="0" cy="0" r="1" gradientUnits="userSpaceOnUse" gradientTransform="translate(519.15 166.472) rotate(-20.9162) scale(12.2027 16.247)">
<stop stop-color="#E1BD38"/>
<stop offset="0.4305" stop-color="#D1AE3F"/>
<stop offset="1" stop-color="#B5954C"/>
</radialGradient>
<radialGradient id="paint17_radial_208_776" cx="0" cy="0" r="1" gradientUnits="userSpaceOnUse" gradientTransform="translate(468.576 204.011) rotate(-20.9162) scale(12.2026 16.247)">
<stop stop-color="#E1BD38"/>
<stop offset="0.4305" stop-color="#D1AE3F"/>
<stop offset="1" stop-color="#B5954C"/>
</radialGradient>
<radialGradient id="paint18_radial_208_776" cx="0" cy="0" r="1" gradientUnits="userSpaceOnUse" gradientTransform="translate(438.254 255.187) rotate(-20.9162) scale(12.2027 16.247)">
<stop stop-color="#E1BD38"/>
<stop offset="0.4305" stop-color="#D1AE3F"/>
<stop offset="1" stop-color="#B5954C"/>
</radialGradient>
<radialGradient id="paint19_radial_208_776" cx="0" cy="0" r="1" gradientUnits="userSpaceOnUse" gradientTransform="translate(366.554 264.38) rotate(-20.9162) scale(12.2026 16.247)">
<stop stop-color="#E1BD38"/>
<stop offset="0.4305" stop-color="#D1AE3F"/>
<stop offset="1" stop-color="#B5954C"/>
</radialGradient>
<radialGradient id="paint20_radial_208_776" cx="0" cy="0" r="1" gradientUnits="userSpaceOnUse" gradientTransform="translate(403.576 232.812) rotate(-20.9161) scale(7.02577 9.35431)">
<stop stop-color="#E1BD38"/>
<stop offset="0.4305" stop-color="#D1AE3F"/>
<stop offset="1" stop-color="#B5954C"/>
</radialGradient>
<radialGradient id="paint21_radial_208_776" cx="0" cy="0" r="1" gradientUnits="userSpaceOnUse" gradientTransform="translate(427.962 201.323) rotate(-20.9162) scale(7.02577 9.35438)">
<stop stop-color="#E1BD38"/>
<stop offset="0.4305" stop-color="#D1AE3F"/>
<stop offset="1" stop-color="#B5954C"/>
</radialGradient>
<radialGradient id="paint22_radial_208_776" cx="0" cy="0" r="1" gradientUnits="userSpaceOnUse" gradientTransform="translate(482.569 240.626) rotate(-20.9162) scale(7.02577 9.35438)">
<stop stop-color="#E1BD38"/>
<stop offset="0.4305" stop-color="#D1AE3F"/>
<stop offset="1" stop-color="#B5954C"/>
</radialGradient>
<radialGradient id="paint23_radial_208_776" cx="0" cy="0" r="1" gradientUnits="userSpaceOnUse" gradientTransform="translate(489.569 169.861) rotate(-20.9162) scale(7.02577 9.35434)">
<stop stop-color="#E1BD38"/>
<stop offset="0.4305" stop-color="#D1AE3F"/>
<stop offset="1" stop-color="#B5954C"/>
</radialGradient>
<radialGradient id="paint24_radial_208_776" cx="0" cy="0" r="1" gradientUnits="userSpaceOnUse" gradientTransform="translate(549.52 192.077) rotate(-20.9162) scale(7.02577 9.35434)">
<stop stop-color="#E1BD38"/>
<stop offset="0.4305" stop-color="#D1AE3F"/>
<stop offset="1" stop-color="#B5954C"/>
</radialGradient>
</defs>
</svg>
