<svg width="480" height="292" viewBox="0 0 480 292" fill="none" xmlns="http://www.w3.org/2000/svg">
<path d="M165.061 68H166.001L166.498 68.0763C167.771 68.2887 168.956 68.9023 169.904 69.8395C170.852 70.7767 171.52 71.9952 171.823 73.3406C171.902 73.7125 171.938 74.0845 172 74.4469V75.5531L171.947 75.9346C171.771 77.3327 171.207 78.6414 170.329 79.6895C169.45 80.7376 168.297 81.4764 167.022 81.8093C166.658 81.9046 166.276 81.9428 165.904 82H165.087L164.688 81.9428C163.38 81.7638 162.154 81.1632 161.17 80.22C160.186 79.2768 159.492 78.0354 159.177 76.6594C159.089 76.2493 159.053 75.8297 159 75.4196V74.5995L159.053 74.1798C159.216 72.7381 159.793 71.3869 160.705 70.3149C161.616 69.2429 162.816 68.5036 164.138 68.2003C164.466 68.0858 164.768 68.0572 165.061 68Z" fill="#FEEAB6"/>
<path d="M211.585 0H214.529L216.123 0.224419C220.25 0.849604 224.097 2.68447 227.177 5.49602C230.256 8.30757 232.429 11.969 233.419 16.0153C233.685 17.0965 233.787 18.2186 233.971 19.3203V22.5438C233.971 22.9314 233.869 23.2986 233.808 23.6863C233.25 27.8725 231.436 31.7924 228.604 34.931C225.773 38.0697 222.056 40.2803 217.943 41.2724C216.757 41.5581 215.53 41.6805 214.324 41.8641H211.707L210.44 41.5989C206.221 41.0635 202.264 39.2637 199.092 36.437C195.92 33.6104 193.682 29.89 192.673 25.7672C192.387 24.5431 192.244 23.2986 192.081 22.0541V19.6263C192.081 19.2183 192.203 18.7899 192.244 18.3818C192.775 14.0732 194.634 10.0354 197.564 6.82661C200.493 3.61778 204.35 1.39632 208.6 0.469236C209.663 0.26522 210.624 0.183614 211.585 0Z" fill="#FEEAB6"/>
<path d="M39.6328 14H41.427H42.3541C44.8092 14.3766 47.0979 15.4796 48.9295 17.1689C50.7611 18.8582 52.053 21.0577 52.6412 23.488C52.8206 24.1506 52.8804 24.8133 53 25.4759V27.4036C53 27.6446 53 27.8554 53 28.0964C52.6711 30.6064 51.595 32.9572 49.9135 34.8391C48.232 36.721 46.0239 38.0456 43.5801 38.6386C42.8704 38.803 42.1514 38.9236 41.427 39H39.872H39.0945C36.5561 38.7057 34.1668 37.6404 32.2439 35.9457C30.321 34.251 28.9555 32.007 28.3289 29.512C28.1794 28.7892 28.0897 28.0361 28 27.2831V25.7771V25.0241C28.3146 22.4338 29.4223 20.0065 31.1694 18.0794C32.9165 16.1524 35.2162 14.8213 37.7488 14.2711C38.4665 14.1506 39.0646 14.0904 39.6328 14Z" fill="#FEEAB6"/>
<path d="M105.478 53.6152H107.195L108.095 53.7376C110.447 54.0917 112.64 55.1364 114.395 56.7387C116.15 58.341 117.387 60.4283 117.949 62.7348C118.089 63.3545 118.199 63.981 118.276 64.6117V66.4478C118.276 66.6519 118.276 66.8763 118.276 67.1007C117.951 69.4825 116.916 71.7117 115.304 73.4983C113.692 75.2848 111.579 76.5461 109.24 77.1179C108.565 77.2811 107.87 77.3423 107.195 77.4443H105.703H104.967C102.544 77.1632 100.265 76.1483 98.4377 74.5362C96.6102 72.924 95.3213 70.7919 94.7445 68.4268C94.581 67.7331 94.4992 67.0191 94.397 66.3866V64.9381C94.397 64.7137 94.397 64.4689 94.4992 64.2445C94.7979 61.7849 95.8588 59.4798 97.5338 57.6511C99.2088 55.8223 101.414 54.5611 103.842 54.0437C104.374 53.8397 104.926 53.7172 105.478 53.6152Z" fill="#FEEAB6"/>
<path d="M58.9088 46.7555L64.1115 47.8985C64.4754 48.0965 64.8498 48.2743 65.233 48.4313C71.9882 50.7464 77.9084 55.0131 82.2437 60.6909C86.5789 66.3688 89.134 73.2022 89.5853 80.3254C89.933 86.4714 88.8776 92.613 86.4991 98.2849C85.6549 100.316 85.4023 102.546 85.7702 104.717C86.1382 106.888 87.1118 108.912 88.5788 110.556C93.0213 115.909 95.8756 122.399 96.8174 129.286C97.7592 136.174 96.7508 143.184 93.9068 149.519C91.0627 155.854 86.4971 161.261 80.7286 165.124C74.9602 168.988 68.2203 171.154 61.2748 171.375C59.0359 171.422 56.8453 170.935 54.6213 170.938L51.8973 170.343C51.4907 170.123 51.0676 169.935 50.6318 169.78C45.9705 168.412 41.6272 166.128 37.8561 163.062C30.272 157.144 24.0184 149.695 19.5039 141.202C11.732 126.985 8.875 110.607 11.378 94.6189C13.0223 82.5732 17.7071 71.1509 24.9912 61.4285C28.3761 56.6669 32.8892 52.8203 38.1275 50.2319C43.3658 47.6436 49.1663 46.3941 55.011 46.5951C56.3254 46.5669 57.624 46.6974 58.9088 46.7555Z" fill="#FEEAB6"/>
<path d="M50.5928 72.5834C49.6222 72.3709 48.611 72.4508 47.687 72.8129C46.763 73.1749 45.9676 73.803 45.4013 74.6177C44.835 75.4324 44.5232 76.3971 44.5052 77.3901C44.4873 78.3831 44.7641 79.3597 45.3006 80.1966C45.8372 81.0335 46.6094 81.6931 47.5197 82.0921C48.4299 82.4912 49.4375 82.6117 50.4151 82.4384C51.3926 82.2652 52.2963 81.806 53.0119 81.1189C53.7275 80.4317 54.223 79.5475 54.4357 78.5778C54.5773 77.9326 54.5901 77.2656 54.4735 76.6149C54.3569 75.9643 54.1131 75.3427 53.7561 74.7859C53.3992 74.2291 52.936 73.7479 52.3932 73.37C51.8504 72.9921 51.2386 72.7247 50.5928 72.5834ZM48.6459 81.5007C48.1198 81.3847 47.6214 81.1661 47.1793 80.8577C46.7372 80.5492 46.36 80.1568 46.0692 79.7028C45.7785 79.2489 45.5799 78.7423 45.4847 78.212C45.3896 77.6817 45.3998 77.138 45.5147 76.6121C45.6296 76.0862 45.8471 75.5883 46.1546 75.1468C46.4622 74.7053 46.8538 74.3289 47.3071 74.0391C47.7604 73.7493 48.2666 73.5517 48.7967 73.4576C49.3267 73.3636 49.8704 73.3749 50.3965 73.491L48.6459 81.5007Z" fill="#7E7551"/>
<path d="M79.2864 78.9645C78.3154 78.7485 77.3027 78.8253 76.3765 79.1853C75.4504 79.5454 74.6525 80.1723 74.0839 80.9869C73.5153 81.8014 73.2015 82.7669 73.1823 83.7611C73.163 84.7552 73.4393 85.7333 73.976 86.5715C74.5126 87.4098 75.2856 88.0704 76.1971 88.4698C77.1085 88.8692 78.1174 88.9894 79.096 88.8151C80.0746 88.6409 80.9788 88.1801 81.6943 87.491C82.4097 86.8019 82.9042 85.9156 83.115 84.9443C83.3914 83.6459 83.1444 82.2898 82.4276 81.1703C81.7108 80.0508 80.5821 79.2582 79.2864 78.9645ZM77.3252 87.8672C76.8 87.7502 76.3028 87.531 75.8619 87.222C75.4211 86.913 75.0452 86.5203 74.7558 86.0664C74.4664 85.6125 74.2691 85.1061 74.1751 84.5764C74.0812 84.0466 74.0925 83.5037 74.2084 82.9788C74.3243 82.4538 74.5425 81.957 74.8505 81.5168C75.1586 81.0765 75.5505 80.7015 76.0038 80.413C76.4571 80.1245 76.9629 79.9283 77.4925 79.8355C78.0221 79.7426 78.5649 79.7551 79.0901 79.8721L77.3252 87.8672Z" fill="#7E7551"/>
<path d="M62.4795 86.2668C61.4995 85.9302 60.6114 85.3692 59.8861 84.6286C59.1608 83.888 58.6185 82.9884 58.3026 82.0016C58.2267 81.8371 58.1857 81.6587 58.1823 81.4776C58.1789 81.2966 58.2132 81.117 58.2829 80.95C58.3526 80.7831 58.4563 80.6325 58.5873 80.5079C58.7184 80.3833 58.8739 80.2873 59.0441 80.226C59.2143 80.1647 59.3955 80.1395 59.5761 80.1519C59.7568 80.1643 59.9329 80.2142 60.0934 80.2982C60.254 80.3822 60.3954 80.4987 60.5086 80.6401C60.6219 80.7816 60.7046 80.945 60.7515 81.1199C60.7515 81.1199 61.709 83.7305 63.6157 83.6947C64.2442 83.5982 64.8458 83.3734 65.3832 83.0342C65.9206 82.695 66.3822 82.2488 66.7393 81.7232C66.962 81.4557 67.2821 81.2879 67.629 81.2567C67.976 81.2254 68.3214 81.3334 68.5894 81.5567C68.8573 81.78 69.0258 82.1004 69.0577 82.4475C69.0897 82.7945 68.9825 83.1398 68.7597 83.4073C68.1646 84.229 67.401 84.9141 66.5197 85.417C65.6384 85.9198 64.6597 86.2289 63.6487 86.3235C63.2582 86.3478 62.866 86.3287 62.4795 86.2668Z" fill="#7E7551"/>
<path d="M110.77 61.8604C110.77 62.3057 110.75 62.9756 110.711 63.8701C110.676 64.7607 110.658 65.4307 110.658 65.8799V69.7412C110.658 69.8467 110.602 69.8994 110.488 69.8994C110.395 69.8994 110.252 69.9033 110.061 69.9111C109.873 69.9189 109.732 69.9229 109.639 69.9229C109.537 69.9229 109.385 69.915 109.182 69.8994C108.979 69.8838 108.826 69.876 108.725 69.876C108.654 69.876 108.57 69.8115 108.473 69.6826C108.191 69.3037 107.559 68.4639 106.574 67.1631C106.305 66.7998 105.895 66.2646 105.344 65.5576C105.328 65.5342 105.299 65.5107 105.256 65.4873C105.225 65.5146 105.209 65.5576 105.209 65.6162C105.209 66.0693 105.221 66.749 105.244 67.6553C105.271 68.5615 105.285 69.2412 105.285 69.6943C105.285 69.8311 105.232 69.8994 105.127 69.8994H103.1C102.986 69.8994 102.93 69.8389 102.93 69.7178C102.93 69.2959 102.949 68.6592 102.988 67.8076C103.031 66.9561 103.053 66.3174 103.053 65.8916C103.053 65.4424 103.033 64.7705 102.994 63.876C102.959 62.9814 102.941 62.3115 102.941 61.8662C102.941 61.7803 103.018 61.7373 103.17 61.7373C103.396 61.7373 103.676 61.7217 104.008 61.6904C104.086 61.6826 104.24 61.6572 104.471 61.6143C104.666 61.5791 104.82 61.5615 104.934 61.5615C104.98 61.5615 105.053 61.6279 105.15 61.7607L107.336 64.7549C107.531 65.0244 107.826 65.4189 108.221 65.9385C108.318 66.0596 108.402 66.1201 108.473 66.1201C108.523 66.1201 108.549 65.9678 108.549 65.6631C108.549 65.2529 108.525 64.6357 108.479 63.8115C108.436 62.9873 108.414 62.3682 108.414 61.9541C108.414 61.8096 108.455 61.7373 108.537 61.7373C108.771 61.7373 109.125 61.7275 109.598 61.708C110.07 61.6885 110.424 61.6787 110.658 61.6787C110.732 61.6787 110.77 61.7393 110.77 61.8604Z" fill="#7E7551"/>
<path d="M146.527 151H144.622H143.577C140.902 151.382 138.406 152.533 136.409 154.303C134.413 156.074 133.008 158.384 132.373 160.936C132.213 161.618 132.088 162.308 132 163.003V165.033V165.759C132.396 168.361 133.587 170.788 135.417 172.727C137.248 174.666 139.634 176.028 142.27 176.637C143.035 176.796 143.807 176.917 144.585 177H146.303H147.124C149.85 176.662 152.406 175.533 154.458 173.76C156.511 171.987 157.964 169.653 158.627 167.064C158.627 166.266 158.888 165.505 159 164.707V163.112V162.35C158.614 159.667 157.384 157.165 155.479 155.186C153.575 153.207 151.087 151.846 148.357 151.29C147.759 151.145 147.162 151.109 146.527 151Z" fill="#FEEAB6"/>
<path d="M79.5953 190.306H78.1029L77.3056 190.408C75.2609 190.721 73.3553 191.633 71.8303 193.027C70.3053 194.422 69.2296 196.237 68.7393 198.242C68.5962 198.793 68.5553 199.344 68.4531 199.895V201.486C68.463 201.67 68.463 201.854 68.4531 202.037C68.7286 204.115 69.6279 206.062 71.0328 207.62C72.4377 209.179 74.2824 210.276 76.3242 210.769C76.9185 210.896 77.519 210.991 78.1233 211.055H79.5953H80.2496C82.3411 210.786 84.3022 209.892 85.8749 208.49C87.4477 207.088 88.5584 205.244 89.0611 203.2C89.1838 202.588 89.2656 201.976 89.3473 201.364V200.119C89.3473 199.915 89.3473 199.711 89.3473 199.507C89.0831 197.359 88.1529 195.347 86.6867 193.752C85.2205 192.157 83.2916 191.06 81.1696 190.612C80.5767 190.531 80.086 190.388 79.5953 190.306Z" fill="#FEEAB6"/>
<path d="M135.267 186.005L130.641 185.718C130.29 185.792 129.935 185.845 129.578 185.874C123.349 186.166 117.346 188.305 112.335 192.021C107.324 195.736 103.533 200.857 101.447 206.731C99.6596 211.785 99.0575 217.18 99.6876 222.499C99.8861 224.398 99.5472 226.315 98.7093 228.033C97.8714 229.751 96.5682 231.201 94.9478 232.217C89.9464 235.636 86.0027 240.385 83.5648 245.926C81.1269 251.467 80.2926 257.577 81.1567 263.562C82.0208 269.547 84.5487 275.167 88.453 279.783C92.3573 284.4 97.4816 287.827 103.243 289.676C105.104 290.263 107.05 290.381 108.925 290.913L111.358 291.059C111.753 290.973 112.154 290.918 112.557 290.895C116.779 290.873 120.957 290.014 124.846 288.366C132.62 285.229 139.649 280.497 145.48 274.476C155.414 264.463 161.752 251.449 163.5 237.47C164.993 227.004 163.801 216.336 160.037 206.466C158.354 201.666 155.507 197.361 151.749 193.933C147.991 190.505 143.44 188.062 138.503 186.822C137.46 186.474 136.351 186.259 135.267 186.005Z" fill="#FEEAB6"/>
<path d="M135.985 209.631C136.842 209.698 137.661 210.016 138.338 210.545C139.014 211.074 139.519 211.792 139.789 212.607C140.06 213.422 140.083 214.3 139.856 215.129C139.63 215.959 139.163 216.703 138.515 217.27C137.868 217.837 137.067 218.2 136.214 218.315C135.362 218.43 134.494 218.291 133.721 217.916C132.948 217.54 132.303 216.945 131.867 216.205C131.432 215.465 131.224 214.612 131.271 213.754C131.303 213.172 131.452 212.603 131.707 212.078C131.963 211.554 132.321 211.086 132.76 210.702C133.199 210.318 133.711 210.025 134.265 209.841C134.819 209.657 135.403 209.586 135.985 209.631ZM135.463 217.547C135.931 217.576 136.399 217.513 136.842 217.362C137.286 217.21 137.695 216.973 138.047 216.664C138.398 216.355 138.686 215.98 138.893 215.56C139.099 215.14 139.221 214.684 139.252 214.217C139.282 213.75 139.22 213.282 139.069 212.84C138.919 212.397 138.682 211.989 138.373 211.638C138.064 211.287 137.689 211.001 137.269 210.795C136.849 210.589 136.392 210.468 135.925 210.438L135.463 217.547Z" fill="#7E7551"/>
<path d="M110.444 208.013C111.301 208.079 112.12 208.397 112.797 208.927C113.473 209.456 113.978 210.173 114.248 210.989C114.519 211.804 114.542 212.681 114.315 213.511C114.089 214.34 113.622 215.085 112.974 215.652C112.327 216.218 111.526 216.582 110.673 216.697C109.821 216.811 108.953 216.673 108.18 216.297C107.407 215.922 106.762 215.327 106.326 214.587C105.89 213.847 105.683 212.994 105.73 212.136C105.762 211.554 105.911 210.984 106.166 210.46C106.422 209.936 106.78 209.468 107.219 209.084C107.658 208.699 108.17 208.407 108.724 208.223C109.278 208.039 109.862 207.967 110.444 208.013ZM109.922 215.928C110.871 215.997 111.809 215.687 112.53 215.065C113.251 214.443 113.696 213.562 113.766 212.614C113.837 211.666 113.528 210.729 112.907 210.01C112.286 209.291 111.404 208.849 110.455 208.78L109.922 215.928Z" fill="#7E7551"/>
<path d="M122.821 218.165C123.718 218.136 124.596 217.898 125.386 217.471C126.176 217.044 126.856 216.439 127.372 215.705C127.494 215.589 127.589 215.448 127.65 215.291C127.711 215.135 127.737 214.967 127.725 214.799C127.714 214.631 127.666 214.468 127.584 214.322C127.503 214.175 127.39 214.048 127.253 213.95C127.117 213.852 126.961 213.785 126.795 213.754C126.63 213.723 126.46 213.729 126.297 213.772C126.134 213.814 125.983 213.892 125.853 213.999C125.724 214.107 125.62 214.241 125.548 214.393C125.548 214.393 124.12 216.351 122.548 215.858C122.044 215.623 121.594 215.286 121.225 214.87C120.856 214.454 120.576 213.967 120.402 213.439C120.267 213.198 120.048 213.014 119.786 212.922C119.525 212.83 119.239 212.836 118.981 212.939C118.724 213.042 118.512 213.235 118.386 213.482C118.259 213.729 118.227 214.013 118.295 214.281C118.581 215.128 119.049 215.903 119.667 216.549C120.285 217.196 121.037 217.699 121.871 218.023C122.18 218.113 122.499 218.161 122.821 218.165Z" fill="#7E7551"/>
<path d="M83.2075 197.548C83.2075 197.956 83.1896 198.57 83.1538 199.39C83.1216 200.207 83.1055 200.821 83.1055 201.232V204.772C83.1055 204.869 83.0535 204.917 82.9497 204.917C82.8638 204.917 82.7331 204.921 82.5576 204.928C82.3857 204.935 82.2568 204.938 82.1709 204.938C82.0778 204.938 81.9382 204.931 81.752 204.917C81.5658 204.903 81.4261 204.896 81.333 204.896C81.2686 204.896 81.1916 204.836 81.1021 204.718C80.8442 204.371 80.2642 203.601 79.3618 202.409C79.1147 202.076 78.7388 201.585 78.2339 200.937C78.2196 200.916 78.1927 200.894 78.1533 200.873C78.1247 200.898 78.1104 200.937 78.1104 200.991C78.1104 201.406 78.1211 202.029 78.1426 202.86C78.1676 203.691 78.1802 204.314 78.1802 204.729C78.1802 204.854 78.1318 204.917 78.0352 204.917H76.1768C76.0729 204.917 76.021 204.861 76.021 204.75C76.021 204.364 76.0389 203.78 76.0747 203C76.1141 202.219 76.1338 201.633 76.1338 201.243C76.1338 200.831 76.1159 200.215 76.0801 199.396C76.0479 198.576 76.0317 197.961 76.0317 197.553C76.0317 197.474 76.1016 197.435 76.2412 197.435C76.4489 197.435 76.7049 197.421 77.0093 197.392C77.0809 197.385 77.2223 197.362 77.4336 197.322C77.6126 197.29 77.7541 197.274 77.8579 197.274C77.9009 197.274 77.9671 197.335 78.0566 197.457L80.0601 200.201C80.2391 200.448 80.5094 200.81 80.8711 201.286C80.9606 201.397 81.0376 201.453 81.1021 201.453C81.1486 201.453 81.1719 201.313 81.1719 201.034C81.1719 200.658 81.1504 200.092 81.1074 199.336C81.068 198.581 81.0483 198.013 81.0483 197.634C81.0483 197.501 81.0859 197.435 81.1611 197.435C81.376 197.435 81.7 197.426 82.1333 197.408C82.5666 197.39 82.8906 197.381 83.1055 197.381C83.1735 197.381 83.2075 197.437 83.2075 197.548Z" fill="#7E7551"/>
<path d="M406.86 127.286L395.772 96.5274L441.672 89.5529L427.118 61.2141L377.909 91.3017L390.31 124.584L377.543 138.258L406.86 127.286Z" fill="#231815"/>
<path d="M413.439 187.008L425.235 161.959L456.95 185.243L465.223 159.594L417.677 148.16L405.149 175.48L389.291 176.025L413.439 187.008Z" fill="#231815"/>
<path d="M222.261 14.5317C222.261 15.4224 222.222 16.7622 222.144 18.5513C222.073 20.3325 222.038 21.6724 222.038 22.5708V30.2935C222.038 30.5044 221.925 30.6099 221.698 30.6099C221.511 30.6099 221.226 30.6177 220.843 30.6333C220.468 30.6489 220.187 30.6567 219.999 30.6567C219.796 30.6567 219.491 30.6411 219.085 30.6099C218.679 30.5786 218.374 30.563 218.171 30.563C218.03 30.563 217.862 30.4341 217.667 30.1763C217.104 29.4185 215.839 27.7388 213.87 25.1372C213.331 24.4106 212.511 23.3403 211.409 21.9263C211.378 21.8794 211.319 21.8325 211.233 21.7856C211.171 21.8403 211.14 21.9263 211.14 22.0435C211.14 22.9497 211.163 24.3091 211.21 26.1216C211.265 27.9341 211.292 29.2935 211.292 30.1997C211.292 30.4731 211.187 30.6099 210.976 30.6099H206.921C206.694 30.6099 206.581 30.4888 206.581 30.2466C206.581 29.4028 206.62 28.1294 206.698 26.4263C206.784 24.7231 206.827 23.4458 206.827 22.5942C206.827 21.6958 206.788 20.3521 206.71 18.563C206.64 16.7739 206.604 15.4341 206.604 14.5435C206.604 14.3716 206.757 14.2856 207.062 14.2856C207.515 14.2856 208.073 14.2544 208.737 14.1919C208.894 14.1763 209.202 14.1255 209.663 14.0396C210.054 13.9692 210.362 13.9341 210.589 13.9341C210.683 13.9341 210.827 14.0669 211.022 14.3325L215.394 20.3208C215.784 20.8599 216.374 21.6489 217.163 22.688C217.358 22.9302 217.526 23.0513 217.667 23.0513C217.769 23.0513 217.819 22.7466 217.819 22.1372C217.819 21.3169 217.772 20.0825 217.679 18.4341C217.593 16.7856 217.55 15.5474 217.55 14.7192C217.55 14.4302 217.632 14.2856 217.796 14.2856C218.265 14.2856 218.972 14.2661 219.917 14.2271C220.862 14.188 221.569 14.1685 222.038 14.1685C222.187 14.1685 222.261 14.2896 222.261 14.5317Z" fill="#7E7551"/>
<path d="M198.13 87.9499L205.285 81.9739C205.925 81.6903 206.549 81.373 207.155 81.0235C217.633 74.1145 229.92 70.4666 242.459 70.5419C254.999 70.6173 267.226 74.4126 277.591 81.4468C286.503 87.5512 293.894 95.6165 299.2 105.025C303.448 112.375 310.219 115.412 318.463 115.332C342.397 115.093 361.346 124.705 374.887 144.363C382.472 155.32 386.412 168.391 386.148 181.727C385.883 195.062 381.428 207.985 373.413 218.665C371.08 221.836 368.052 224.365 365.654 227.458L361.888 230.603C361.147 230.941 360.433 231.333 359.751 231.776C352.844 236.78 345.011 240.358 336.71 242.301C320.326 246.475 303.252 247.148 286.604 244.277C258.525 239.819 232.733 226.187 213.259 205.509C198.331 190.256 187.527 171.459 181.855 150.877C178.914 141.051 178.448 130.647 180.498 120.588C182.547 110.529 187.05 101.127 193.606 93.217C195.094 91.3629 196.639 89.6733 198.13 87.9499Z" fill="#FEEAB6"/>
<path d="M284.35 103.446C283.514 105.353 283.281 107.469 283.681 109.51C284.081 111.551 285.096 113.42 286.589 114.866L285.596 114.154L301.824 120.829C301.9 120.859 301.969 120.904 302.027 120.962C302.085 121.02 302.131 121.088 302.162 121.164C302.193 121.24 302.209 121.321 302.208 121.403C302.207 121.485 302.189 121.566 302.157 121.641C302.1 121.776 301.996 121.886 301.865 121.951C301.734 122.017 301.585 122.033 301.443 121.998L284.367 117.945C283.981 117.857 283.644 117.625 283.425 117.296C282.245 115.014 281.597 112.493 281.528 109.922C281.511 107.488 282.093 105.085 283.223 102.925C283.258 102.853 283.308 102.788 283.369 102.735C283.43 102.682 283.501 102.643 283.578 102.618C283.654 102.594 283.735 102.585 283.816 102.593C283.896 102.601 283.974 102.626 284.044 102.665C284.185 102.731 284.295 102.849 284.352 102.994C284.409 103.139 284.408 103.301 284.35 103.446Z" fill="#7E7551"/>
<path d="M212.216 165.764C214.316 164.449 216.732 163.727 219.207 163.673C221.777 163.616 224.314 164.251 226.551 165.514C226.805 165.693 227.008 165.936 227.139 166.219C232.635 177.234 234.204 189.8 231.587 201.844C231.573 202 231.497 202.145 231.377 202.245C231.256 202.346 231.1 202.395 230.944 202.381C230.793 202.364 230.654 202.289 230.557 202.173C230.46 202.056 230.411 201.906 230.421 201.755C232.065 190.129 229.692 178.298 223.695 168.218L224.283 168.923C222.805 167.583 220.987 166.674 219.026 166.296C216.931 165.91 214.769 166.099 212.77 166.843C212.696 166.872 212.616 166.887 212.535 166.885C212.455 166.883 212.376 166.864 212.303 166.831C212.23 166.797 212.165 166.749 212.111 166.689C212.058 166.63 212.017 166.56 211.991 166.484C211.943 166.356 211.939 166.216 211.98 166.085C212.021 165.955 212.104 165.842 212.216 165.764Z" fill="#7E7551"/>
<path d="M221.13 141.706C219.863 142.764 218.938 144.173 218.472 145.755C218.006 147.338 218.019 149.022 218.511 150.594C219.002 152.167 219.95 153.557 221.234 154.59C222.517 155.622 224.079 156.25 225.722 156.394C227.365 156.537 229.014 156.191 230.461 155.397C231.909 154.604 233.089 153.4 233.853 151.937C234.616 150.474 234.929 148.819 234.752 147.18C234.574 145.541 233.914 143.993 232.855 142.732C232.155 141.893 231.296 141.202 230.328 140.696C229.359 140.191 228.3 139.882 227.211 139.787C226.122 139.691 225.024 139.812 223.98 140.141C222.937 140.47 221.969 141.002 221.13 141.706ZM221.196 152.469C220.157 151.076 219.693 149.338 219.897 147.61C220.102 145.883 220.961 144.299 222.297 143.183C223.634 142.067 225.346 141.504 227.082 141.61C228.818 141.716 230.446 142.484 231.631 143.754L221.196 152.469Z" fill="#7E7551"/>
<path d="M258.555 110.449C257.284 111.505 256.356 112.913 255.886 114.495C255.416 116.077 255.426 117.762 255.915 119.336C256.404 120.911 257.35 122.304 258.632 123.339C259.915 124.373 261.477 125.004 263.121 125.15C264.764 125.295 266.415 124.95 267.863 124.158C269.312 123.365 270.494 122.161 271.259 120.698C272.024 119.235 272.338 117.579 272.161 115.94C271.983 114.3 271.323 112.751 270.264 111.489C268.849 109.803 266.823 108.747 264.629 108.553C262.434 108.358 260.251 109.04 258.555 110.449ZM258.652 121.186C257.613 119.794 257.148 118.055 257.353 116.328C257.558 114.601 258.417 113.016 259.753 111.9C261.089 110.784 262.802 110.221 264.538 110.328C266.274 110.434 267.902 111.201 269.087 112.471L258.652 121.186Z" fill="#7E7551"/>
<path d="M257.123 130.518C255.888 128.147 247.302 127.689 243.047 133.183C239.874 137.295 240.003 143.7 242.158 144.877C246.152 146.884 259.131 134.103 257.123 130.518Z" fill="#7E7551"/>
<path d="M270.772 126.641C272.318 125.574 273.556 124.118 274.36 122.421C275.075 120.915 275.419 119.26 275.364 117.596" stroke="#7E7551" stroke-width="4" stroke-linecap="round" stroke-linejoin="round"/>
<path d="M383.61 123.3C379.737 112.873 376.158 102.021 372.409 90.8008L372.145 90.0232L372.792 89.5525L424.398 53.0494L427.607 50.7937L429.241 54.2626L446.001 89.5423L446.58 90.7726L445.291 91.0358L399.225 100.065L400.463 97.8538L411.636 127.881L411.998 128.835L411.081 129.207L368.039 146.824L364.659 148.202L366.868 145.21C372.588 137.522 378.05 130.142 383.61 123.3ZM390.345 124.446C383.018 132.241 375.583 139.602 368.433 146.492L367.282 144.884L410.336 127.228L409.761 128.548L397.435 98.9724L396.635 97.1049L398.653 96.7553L444.941 88.9377L444.231 90.4312L423.291 57.529L428.139 58.7225L373.993 91.2817L374.351 90.0473C379.657 101.039 385.132 112.547 390.345 124.446Z" fill="white"/>
<path d="M403.016 169.714C406.956 161.34 411.326 152.878 415.976 143.966L416.34 143.223L417.087 143.439L470.027 152.101L473.933 152.725L472.584 156.348L461.117 187.371L460.639 188.656L459.549 187.936L426.455 165.89L428.794 165.166L417.394 189.794L416.984 190.694L416.07 190.323L379.738 175.113L376.474 173.741L380.053 173.144C388.215 171.793 395.722 170.572 403.016 169.714ZM406.993 175.306C397.777 175.522 388.792 175.381 380.313 175.11L380.666 173.088L417.017 188.304L415.673 188.827L425.935 163.721L426.719 161.824L428.377 163.006L460.768 186.08L459.205 186.625L466.116 154.281L468.688 158.553L416.732 145.248L417.885 144.648C414.566 154.625 410.982 164.929 406.987 175.326L406.993 175.306Z" fill="white"/>
</svg>
