<svg width="480" height="287" viewBox="0 0 480 287" fill="none" xmlns="http://www.w3.org/2000/svg">
<path d="M165.061 68H166.001L166.498 68.0763C167.771 68.2887 168.956 68.9023 169.904 69.8395C170.852 70.7767 171.52 71.9952 171.823 73.3406C171.902 73.7125 171.938 74.0845 172 74.4469V75.5531L171.947 75.9346C171.771 77.3327 171.207 78.6414 170.329 79.6895C169.45 80.7376 168.297 81.4764 167.022 81.8093C166.658 81.9046 166.276 81.9428 165.904 82H165.087L164.688 81.9428C163.38 81.7638 162.154 81.1632 161.17 80.22C160.186 79.2768 159.492 78.0354 159.177 76.6594C159.089 76.2493 159.053 75.8297 159 75.4196V74.5995L159.053 74.1798C159.216 72.7381 159.793 71.3869 160.705 70.3149C161.616 69.2429 162.816 68.5036 164.138 68.2003C164.466 68.0858 164.768 68.0572 165.061 68Z" fill="#FEEAB6"/>
<path d="M211.585 0H214.529L216.123 0.224419C220.25 0.849604 224.097 2.68447 227.177 5.49602C230.256 8.30757 232.429 11.969 233.419 16.0153C233.685 17.0965 233.787 18.2186 233.971 19.3203V22.5438C233.971 22.9314 233.869 23.2986 233.808 23.6863C233.25 27.8725 231.436 31.7924 228.604 34.931C225.773 38.0697 222.056 40.2803 217.943 41.2724C216.757 41.5581 215.53 41.6805 214.324 41.8641H211.707L210.44 41.5989C206.221 41.0635 202.264 39.2637 199.092 36.437C195.92 33.6104 193.682 29.89 192.673 25.7672C192.387 24.5431 192.244 23.2986 192.081 22.0541V19.6263C192.081 19.2183 192.203 18.7899 192.244 18.3818C192.775 14.0732 194.634 10.0354 197.564 6.82661C200.493 3.61778 204.35 1.39632 208.6 0.469236C209.663 0.26522 210.624 0.183614 211.585 0Z" fill="#FEEAB6"/>
<path d="M39.6328 14H41.427H42.3541C44.8092 14.3766 47.0979 15.4796 48.9295 17.1689C50.7611 18.8582 52.053 21.0577 52.6412 23.488C52.8206 24.1506 52.8804 24.8133 53 25.4759V27.4036C53 27.6446 53 27.8554 53 28.0964C52.6711 30.6064 51.595 32.9572 49.9135 34.8391C48.232 36.721 46.0239 38.0456 43.5801 38.6386C42.8704 38.803 42.1514 38.9236 41.427 39H39.872H39.0945C36.5561 38.7057 34.1668 37.6404 32.2439 35.9457C30.321 34.251 28.9555 32.007 28.3289 29.512C28.1794 28.7892 28.0897 28.0361 28 27.2831V25.7771V25.0241C28.3146 22.4338 29.4223 20.0065 31.1694 18.0794C32.9165 16.1524 35.2162 14.8213 37.7488 14.2711C38.4665 14.1506 39.0646 14.0904 39.6328 14Z" fill="#FEEAB6"/>
<path d="M105.478 53.6152H107.195L108.095 53.7376C110.447 54.0917 112.64 55.1364 114.395 56.7387C116.15 58.341 117.387 60.4283 117.949 62.7348C118.089 63.3545 118.199 63.981 118.276 64.6117V66.4478C118.276 66.6519 118.276 66.8763 118.276 67.1007C117.951 69.4825 116.916 71.7117 115.304 73.4983C113.692 75.2848 111.579 76.5461 109.24 77.1179C108.565 77.2811 107.87 77.3423 107.195 77.4443H105.703H104.967C102.544 77.1632 100.265 76.1483 98.4377 74.5362C96.6102 72.924 95.3213 70.7919 94.7445 68.4268C94.581 67.7331 94.4992 67.0191 94.397 66.3866V64.9381C94.397 64.7137 94.397 64.4689 94.4992 64.2445C94.7979 61.7849 95.8588 59.4798 97.5338 57.6511C99.2088 55.8223 101.414 54.5611 103.842 54.0437C104.374 53.8397 104.926 53.7172 105.478 53.6152Z" fill="#FEEAB6"/>
<path d="M24.2793 56.0794L29.2522 54.1701C29.6649 54.1351 30.0754 54.0776 30.4818 53.9977C37.3959 52.2124 44.6871 52.5162 51.4317 54.8705C58.1763 57.2248 64.0707 61.5236 68.3681 67.2224C72.0412 72.1623 74.5404 77.8708 75.6764 83.9154C76.0896 86.0758 77.1058 88.0763 78.6079 89.6863C80.11 91.2964 82.037 92.4505 84.1668 93.0157C90.8224 95.0403 96.7773 98.8872 101.355 104.119C105.932 109.351 108.948 115.759 110.061 122.613C111.173 129.468 110.337 136.495 107.647 142.896C104.958 149.296 100.523 154.814 94.8462 158.822C93.0024 160.093 90.9053 160.892 89.0502 162.119L86.4488 163.122C85.988 163.162 85.531 163.237 85.0821 163.348C80.4374 164.771 75.554 165.255 70.718 164.771C61.1288 164.004 51.8078 161.227 43.3639 156.621C29.0503 149.029 17.6504 136.928 10.9402 122.202C5.68297 111.24 3.30751 99.1247 4.03766 86.9983C4.24297 81.1598 5.89372 75.4642 8.84252 70.42C11.7913 65.3758 15.9464 61.14 20.9367 58.0909C22.0187 57.3438 23.1746 56.7381 24.2793 56.0794Z" fill="#FEEAB6"/>
<path d="M31.5523 82.2202C30.6251 82.577 29.8248 83.2002 29.2526 84.0111C28.6804 84.822 28.362 85.7842 28.3376 86.776C28.3132 87.7679 28.5839 88.745 29.1155 89.5839C29.6471 90.4228 30.4157 91.0859 31.3243 91.4893C32.2328 91.8927 33.2406 92.0184 34.2202 91.8505C35.1998 91.6826 36.1074 91.2286 36.8282 90.546C37.549 89.8633 38.0507 88.9825 38.27 88.015C38.4892 87.0474 38.4162 86.0364 38.0601 85.1097C37.8232 84.4932 37.4668 83.9292 37.0113 83.4502C36.5558 82.9711 36.0102 82.5864 35.4057 82.318C34.8012 82.0495 34.1496 81.9028 33.4884 81.886C32.8272 81.8692 32.1693 81.9828 31.5523 82.2202ZM34.835 90.7368C34.3319 90.9295 33.7955 91.0214 33.2566 91.0071C32.7177 90.9929 32.1868 90.8729 31.6942 90.654C31.2016 90.435 30.7569 90.1214 30.3856 89.731C30.0143 89.3406 29.7236 88.8811 29.5301 88.3788C29.3365 87.8764 29.244 87.341 29.2578 86.8031C29.2716 86.2653 29.3914 85.7355 29.6103 85.244C29.8293 84.7525 30.1431 84.309 30.5339 83.9387C30.9247 83.5684 31.3849 83.2787 31.888 83.086L34.835 90.7368Z" fill="#7E7551"/>
<path d="M59.0206 71.7546C58.091 72.1087 57.2878 72.7303 56.7127 73.5406C56.1377 74.3509 55.8166 75.3136 55.7902 76.3066C55.7638 77.2996 56.0332 78.2784 56.5643 79.119C57.0955 79.9596 57.8645 80.6242 58.7739 81.0286C59.6833 81.4331 60.6923 81.5592 61.6731 81.391C62.6539 81.2227 63.5624 80.7678 64.2835 80.0837C65.0046 79.3996 65.5059 78.5171 65.724 77.5481C65.942 76.579 65.867 75.5668 65.5084 74.6398C65.0245 73.4037 64.0719 72.4075 62.8573 71.8673C61.6427 71.3272 60.2641 71.2867 59.0206 71.7546ZM62.2833 80.2669C61.7804 80.4583 61.2446 80.5489 60.7065 80.5336C60.1684 80.5183 59.6384 80.3974 59.1469 80.1777C58.6554 79.958 58.212 79.6438 57.842 79.2532C57.472 78.8626 57.1827 78.4032 56.9905 77.9011C56.7983 77.399 56.707 76.8641 56.7219 76.327C56.7368 75.7899 56.8575 75.2611 57.0772 74.7708C57.2969 74.2804 57.6112 73.8381 58.0023 73.4692C58.3933 73.1002 58.8534 72.8118 59.3563 72.6204L62.2833 80.2669Z" fill="#7E7551"/>
<path d="M49.0078 87.1018C48.0043 87.3603 46.9541 87.3807 45.9409 87.1616C44.9278 86.9425 43.9798 86.4898 43.1729 85.8399C43.019 85.7443 42.8866 85.6179 42.7841 85.4686C42.6817 85.3193 42.6114 85.1505 42.5777 84.9728C42.544 84.795 42.5477 84.6122 42.5885 84.4361C42.6293 84.2599 42.7063 84.0941 42.8147 83.9492C42.9231 83.8044 43.0605 83.6836 43.2181 83.5946C43.3758 83.5055 43.5503 83.4502 43.7305 83.432C43.9108 83.4138 44.0929 83.4332 44.2654 83.4889C44.4378 83.5447 44.5968 83.6356 44.7322 83.7558C44.7322 83.7558 46.9685 85.4084 48.5407 84.329C49.0123 83.9026 49.3909 83.3837 49.6528 82.8048C49.9148 82.2258 50.0546 81.5992 50.0634 80.9638C50.1022 80.6179 50.277 80.3016 50.5495 80.0846C50.822 79.8676 51.1698 79.7675 51.5164 79.8065C51.8631 79.8455 52.1801 80.0203 52.3978 80.2925C52.6155 80.5646 52.716 80.9119 52.6772 81.2578C52.6327 82.2714 52.3722 83.2637 51.9132 84.1686C51.4542 85.0735 50.8072 85.8702 50.0152 86.5057C49.7025 86.7409 49.3646 86.9408 49.0078 87.1018Z" fill="#7E7551"/>
<path d="M110.77 61.8604C110.77 62.3057 110.75 62.9756 110.711 63.8701C110.676 64.7607 110.658 65.4307 110.658 65.8799V69.7412C110.658 69.8467 110.602 69.8994 110.488 69.8994C110.395 69.8994 110.252 69.9033 110.061 69.9111C109.873 69.9189 109.732 69.9229 109.639 69.9229C109.537 69.9229 109.385 69.915 109.182 69.8994C108.979 69.8838 108.826 69.876 108.725 69.876C108.654 69.876 108.57 69.8115 108.473 69.6826C108.191 69.3037 107.559 68.4639 106.574 67.1631C106.305 66.7998 105.895 66.2646 105.344 65.5576C105.328 65.5342 105.299 65.5107 105.256 65.4873C105.225 65.5146 105.209 65.5576 105.209 65.6162C105.209 66.0693 105.221 66.749 105.244 67.6553C105.271 68.5615 105.285 69.2412 105.285 69.6943C105.285 69.8311 105.232 69.8994 105.127 69.8994H103.1C102.986 69.8994 102.93 69.8389 102.93 69.7178C102.93 69.2959 102.949 68.6592 102.988 67.8076C103.031 66.9561 103.053 66.3174 103.053 65.8916C103.053 65.4424 103.033 64.7705 102.994 63.876C102.959 62.9814 102.941 62.3115 102.941 61.8662C102.941 61.7803 103.018 61.7373 103.17 61.7373C103.396 61.7373 103.676 61.7217 104.008 61.6904C104.086 61.6826 104.24 61.6572 104.471 61.6143C104.666 61.5791 104.82 61.5615 104.934 61.5615C104.98 61.5615 105.053 61.6279 105.15 61.7607L107.336 64.7549C107.531 65.0244 107.826 65.4189 108.221 65.9385C108.318 66.0596 108.402 66.1201 108.473 66.1201C108.523 66.1201 108.549 65.9678 108.549 65.6631C108.549 65.2529 108.525 64.6357 108.479 63.8115C108.436 62.9873 108.414 62.3682 108.414 61.9541C108.414 61.8096 108.455 61.7373 108.537 61.7373C108.771 61.7373 109.125 61.7275 109.598 61.708C110.07 61.6885 110.424 61.6787 110.658 61.6787C110.732 61.6787 110.77 61.7393 110.77 61.8604Z" fill="#7E7551"/>
<path d="M146.527 151H144.622H143.577C140.902 151.382 138.406 152.533 136.409 154.303C134.413 156.074 133.008 158.384 132.373 160.936C132.213 161.618 132.088 162.308 132 163.003V165.033V165.759C132.396 168.361 133.587 170.788 135.417 172.727C137.248 174.666 139.634 176.028 142.27 176.637C143.035 176.796 143.807 176.917 144.585 177H146.303H147.124C149.85 176.662 152.406 175.533 154.458 173.76C156.511 171.987 157.964 169.653 158.627 167.064C158.627 166.266 158.888 165.505 159 164.707V163.112V162.35C158.614 159.667 157.384 157.165 155.479 155.186C153.575 153.207 151.087 151.846 148.357 151.29C147.759 151.145 147.162 151.109 146.527 151Z" fill="#FEEAB6"/>
<path d="M79.5953 190.306H78.1029L77.3056 190.408C75.2609 190.721 73.3553 191.633 71.8303 193.027C70.3053 194.422 69.2296 196.237 68.7393 198.242C68.5962 198.793 68.5553 199.344 68.4531 199.895V201.486C68.463 201.67 68.463 201.854 68.4531 202.037C68.7286 204.115 69.6279 206.062 71.0328 207.62C72.4377 209.179 74.2824 210.276 76.3242 210.769C76.9185 210.896 77.519 210.991 78.1233 211.055H79.5953H80.2496C82.3411 210.786 84.3022 209.892 85.8749 208.49C87.4477 207.088 88.5584 205.244 89.0611 203.2C89.1838 202.588 89.2656 201.976 89.3473 201.364V200.119C89.3473 199.915 89.3473 199.711 89.3473 199.507C89.0831 197.359 88.1529 195.347 86.6867 193.752C85.2205 192.157 83.2916 191.06 81.1696 190.612C80.5767 190.531 80.086 190.388 79.5953 190.306Z" fill="#FEEAB6"/>
<path d="M151.45 193.168L147.16 191.41C146.804 191.368 146.451 191.303 146.104 191.217C140.112 189.491 133.739 189.589 127.8 191.498C121.861 193.406 116.626 197.038 112.764 201.93C109.447 206.142 107.144 211.057 106.032 216.297C105.61 218.159 104.673 219.866 103.327 221.224C101.982 222.582 100.282 223.536 98.4211 223.978C92.5866 225.608 87.3261 228.839 83.2373 233.303C79.1486 237.767 76.3956 243.285 75.2911 249.231C74.1866 255.176 74.775 261.31 76.9894 266.936C79.2038 272.562 82.9554 277.453 87.8179 281.055C89.3906 282.21 91.1958 282.946 92.801 284.052L95.0575 284.972C95.4593 285.017 95.8567 285.094 96.2461 285.203C100.252 286.538 104.484 287.066 108.696 286.756C117.065 286.282 125.243 284.059 132.698 280.23C145.323 273.94 155.505 263.652 161.652 250.975C166.427 241.544 168.726 231.058 168.333 220.502C168.281 215.416 166.968 210.424 164.511 205.971C162.053 201.517 158.528 197.742 154.251 194.981C153.375 194.317 152.394 193.756 151.45 193.168Z" fill="#FEEAB6"/>
<path d="M144.539 215.772C145.33 216.111 146.003 216.675 146.473 217.394C146.944 218.112 147.192 218.954 147.186 219.813C147.18 220.672 146.92 221.51 146.439 222.223C145.958 222.935 145.277 223.491 144.481 223.819C143.686 224.148 142.811 224.235 141.967 224.07C141.122 223.904 140.345 223.494 139.734 222.89C139.122 222.287 138.702 221.516 138.528 220.675C138.353 219.834 138.43 218.96 138.751 218.163C138.968 217.622 139.291 217.13 139.702 216.716C140.112 216.301 140.602 215.973 141.141 215.751C141.681 215.528 142.259 215.415 142.843 215.419C143.426 215.422 144.003 215.543 144.539 215.772ZM141.502 223.101C141.935 223.279 142.399 223.37 142.867 223.369C143.336 223.368 143.799 223.275 144.232 223.095C144.664 222.915 145.057 222.652 145.388 222.321C145.719 221.99 145.981 221.597 146.16 221.164C146.338 220.732 146.43 220.269 146.429 219.802C146.429 219.334 146.336 218.872 146.156 218.44C145.976 218.009 145.713 217.617 145.381 217.287C145.05 216.957 144.656 216.696 144.223 216.518L141.502 223.101Z" fill="#7E7551"/>
<path d="M120.872 206.034C121.663 206.373 122.336 206.937 122.806 207.656C123.277 208.374 123.525 209.216 123.519 210.075C123.513 210.934 123.253 211.772 122.772 212.485C122.291 213.197 121.61 213.753 120.814 214.081C120.019 214.41 119.144 214.497 118.3 214.332C117.455 214.167 116.678 213.756 116.067 213.153C115.455 212.549 115.035 211.778 114.861 210.937C114.686 210.096 114.763 209.222 115.084 208.425C115.301 207.884 115.624 207.392 116.035 206.978C116.445 206.564 116.935 206.236 117.474 206.013C118.014 205.79 118.592 205.677 119.176 205.681C119.759 205.685 120.336 205.805 120.872 206.034ZM117.835 213.363C118.712 213.733 119.7 213.74 120.582 213.383C121.465 213.026 122.169 212.334 122.54 211.459C122.912 210.584 122.92 209.598 122.563 208.718C122.206 207.837 121.513 207.135 120.637 206.765L117.835 213.363Z" fill="#7E7551"/>
<path d="M129.331 219.625C130.19 219.885 131.098 219.942 131.983 219.792C132.868 219.641 133.706 219.287 134.431 218.757C134.584 218.687 134.719 218.583 134.827 218.455C134.935 218.326 135.014 218.175 135.057 218.013C135.1 217.85 135.107 217.681 135.077 217.515C135.047 217.35 134.98 217.194 134.883 217.057C134.785 216.92 134.659 216.807 134.512 216.725C134.365 216.642 134.202 216.593 134.034 216.581C133.867 216.569 133.698 216.594 133.541 216.654C133.384 216.714 133.242 216.808 133.125 216.929C133.125 216.929 131.143 218.324 129.814 217.353C129.412 216.967 129.094 216.504 128.878 215.992C128.662 215.48 128.554 214.928 128.559 214.372C128.508 214.1 128.36 213.856 128.142 213.685C127.924 213.514 127.651 213.428 127.374 213.442C127.097 213.457 126.834 213.572 126.636 213.765C126.437 213.958 126.315 214.217 126.293 214.493C126.291 215.387 126.486 216.271 126.863 217.081C127.241 217.892 127.791 218.61 128.477 219.186C128.74 219.37 129.028 219.518 129.331 219.625Z" fill="#7E7551"/>
<path d="M83.2075 197.548C83.2075 197.956 83.1896 198.57 83.1538 199.39C83.1216 200.207 83.1055 200.821 83.1055 201.232V204.772C83.1055 204.869 83.0535 204.917 82.9497 204.917C82.8638 204.917 82.7331 204.921 82.5576 204.928C82.3857 204.935 82.2568 204.938 82.1709 204.938C82.0778 204.938 81.9382 204.931 81.752 204.917C81.5658 204.903 81.4261 204.896 81.333 204.896C81.2686 204.896 81.1916 204.836 81.1021 204.718C80.8442 204.371 80.2642 203.601 79.3618 202.409C79.1147 202.076 78.7388 201.585 78.2339 200.937C78.2196 200.916 78.1927 200.894 78.1533 200.873C78.1247 200.898 78.1104 200.937 78.1104 200.991C78.1104 201.406 78.1211 202.029 78.1426 202.86C78.1676 203.691 78.1802 204.314 78.1802 204.729C78.1802 204.854 78.1318 204.917 78.0352 204.917H76.1768C76.0729 204.917 76.021 204.861 76.021 204.75C76.021 204.364 76.0389 203.78 76.0747 203C76.1141 202.219 76.1338 201.633 76.1338 201.243C76.1338 200.831 76.1159 200.215 76.0801 199.396C76.0479 198.576 76.0317 197.961 76.0317 197.553C76.0317 197.474 76.1016 197.435 76.2412 197.435C76.4489 197.435 76.7049 197.421 77.0093 197.392C77.0809 197.385 77.2223 197.362 77.4336 197.322C77.6126 197.29 77.7541 197.274 77.8579 197.274C77.9009 197.274 77.9671 197.335 78.0566 197.457L80.0601 200.201C80.2391 200.448 80.5094 200.81 80.8711 201.286C80.9606 201.397 81.0376 201.453 81.1021 201.453C81.1486 201.453 81.1719 201.313 81.1719 201.034C81.1719 200.658 81.1504 200.092 81.1074 199.336C81.068 198.581 81.0483 198.013 81.0483 197.634C81.0483 197.501 81.0859 197.435 81.1611 197.435C81.376 197.435 81.7 197.426 82.1333 197.408C82.5666 197.39 82.8906 197.381 83.1055 197.381C83.1735 197.381 83.2075 197.437 83.2075 197.548Z" fill="#7E7551"/>
<path d="M382.971 125.689C378.686 115.424 374.677 104.723 370.484 93.6612L370.189 92.8948L370.818 92.3986L420.93 53.8695L424.046 51.4878L425.816 54.8889L443.968 89.4733L444.596 90.6795L443.318 90.9939L397.649 101.85L398.797 99.5915L411.157 129.15L411.557 130.089L410.656 130.497L368.349 149.814L365.027 151.325L367.114 148.248C372.524 140.338 377.687 132.747 382.971 125.689ZM389.746 126.566C382.735 134.646 375.599 142.297 368.73 149.467L367.515 147.905L409.832 128.549L409.31 129.891L395.816 100.83L394.943 98.9956L396.945 98.5659L442.885 88.9113L442.235 90.4319L420.001 58.3896L424.893 59.3892L372.087 94.0786L372.396 92.8309C378.135 103.602 384.064 114.883 389.746 126.566Z" fill="white"/>
<path d="M407.082 128.319L393.884 98.4055L439.189 88.2597L422.702 61.0002L375.702 94.4331L390.384 126.774L378.598 141.302L407.082 128.319Z" fill="#231815"/>
<path d="M404.21 171.293C407.814 162.768 411.843 154.14 416.134 145.05L416.469 144.292L417.223 144.479L470.466 151.026L474.394 151.493L473.191 155.168L462.968 186.623L462.541 187.925L461.423 187.249L427.478 166.539L429.786 165.723L419.376 190.784L419.002 191.701L418.074 191.366L381.165 177.615L377.85 176.374L381.402 175.635C389.503 173.96 396.955 172.441 404.21 171.293ZM408.406 176.723C399.206 177.306 390.223 177.522 381.74 177.589L382.012 175.554L418.94 189.311L417.618 189.887L426.872 164.392L427.58 162.466L429.284 163.581L462.568 185.347L461.028 185.954L466.646 153.36L469.385 157.526L416.941 146.3L418.069 145.655C415.15 155.756 411.979 166.194 408.401 176.742L408.406 176.723Z" fill="white"/>
<path d="M417.793 187.44L427.821 161.632L461.076 182.658L467.548 156.496L419.323 148.392L408.722 176.516L392.941 178.161L417.793 187.44Z" fill="#231815"/>
<path d="M222.261 14.5317C222.261 15.4224 222.222 16.7622 222.144 18.5513C222.073 20.3325 222.038 21.6724 222.038 22.5708V30.2935C222.038 30.5044 221.925 30.6099 221.698 30.6099C221.511 30.6099 221.226 30.6177 220.843 30.6333C220.468 30.6489 220.187 30.6567 219.999 30.6567C219.796 30.6567 219.491 30.6411 219.085 30.6099C218.679 30.5786 218.374 30.563 218.171 30.563C218.03 30.563 217.862 30.4341 217.667 30.1763C217.104 29.4185 215.839 27.7388 213.87 25.1372C213.331 24.4106 212.511 23.3403 211.409 21.9263C211.378 21.8794 211.319 21.8325 211.233 21.7856C211.171 21.8403 211.14 21.9263 211.14 22.0435C211.14 22.9497 211.163 24.3091 211.21 26.1216C211.265 27.9341 211.292 29.2935 211.292 30.1997C211.292 30.4731 211.187 30.6099 210.976 30.6099H206.921C206.694 30.6099 206.581 30.4888 206.581 30.2466C206.581 29.4028 206.62 28.1294 206.698 26.4263C206.784 24.7231 206.827 23.4458 206.827 22.5942C206.827 21.6958 206.788 20.3521 206.71 18.563C206.64 16.7739 206.604 15.4341 206.604 14.5435C206.604 14.3716 206.757 14.2856 207.062 14.2856C207.515 14.2856 208.073 14.2544 208.737 14.1919C208.894 14.1763 209.202 14.1255 209.663 14.0396C210.054 13.9692 210.362 13.9341 210.589 13.9341C210.683 13.9341 210.827 14.0669 211.022 14.3325L215.394 20.3208C215.784 20.8599 216.374 21.6489 217.163 22.688C217.358 22.9302 217.526 23.0513 217.667 23.0513C217.769 23.0513 217.819 22.7466 217.819 22.1372C217.819 21.3169 217.772 20.0825 217.679 18.4341C217.593 16.7856 217.55 15.5474 217.55 14.7192C217.55 14.4302 217.632 14.2856 217.796 14.2856C218.265 14.2856 218.972 14.2661 219.917 14.2271C220.862 14.188 221.569 14.1685 222.038 14.1685C222.187 14.1685 222.261 14.2896 222.261 14.5317Z" fill="#7E7551"/>
<path d="M224.798 65.497L233.477 62.0933C234.174 62.0267 234.866 61.9234 235.552 61.7837C247.678 58.5466 260.488 58.9756 272.358 63.0163C284.229 67.057 294.626 74.5276 302.231 84.481C308.753 93.0925 313.211 103.083 315.266 113.687C316.969 122.004 322.431 127.028 330.276 129.561C353.054 136.911 367.986 152.027 374.608 174.96C378.336 187.755 377.935 201.401 373.463 213.967C368.991 226.534 360.674 237.382 349.691 244.975C346.474 247.244 342.801 248.685 339.547 250.86L334.979 252.651C334.17 252.737 333.369 252.883 332.581 253.088C324.445 255.647 315.882 256.562 307.393 255.778C290.53 254.551 274.121 249.785 259.239 241.791C234.015 228.675 213.864 207.579 201.937 181.8C192.605 162.606 188.306 141.355 189.441 120.036C189.761 109.785 192.612 99.7684 197.741 90.8756C202.87 81.9827 210.117 74.4893 218.839 69.0612C220.838 67.7734 222.839 66.6599 224.798 65.497Z" fill="#FEEAB6"/>
<path d="M301.68 107.488C300.283 109.033 299.392 110.966 299.125 113.029C298.859 115.091 299.23 117.185 300.189 119.03L299.471 118.04L312.753 129.508C312.815 129.561 312.866 129.626 312.903 129.699C312.94 129.773 312.962 129.852 312.967 129.934C312.973 130.016 312.962 130.097 312.935 130.175C312.908 130.252 312.866 130.323 312.811 130.384C312.714 130.494 312.581 130.566 312.436 130.587C312.291 130.607 312.144 130.575 312.021 130.497L297.105 121.247C296.768 121.041 296.522 120.715 296.418 120.334C296.021 117.795 296.204 115.199 296.953 112.739C297.707 110.423 299.02 108.328 300.775 106.638C300.831 106.58 300.899 106.534 300.973 106.504C301.048 106.473 301.128 106.458 301.209 106.459C301.289 106.46 301.369 106.478 301.442 106.51C301.516 106.543 301.582 106.591 301.636 106.65C301.749 106.758 301.816 106.905 301.824 107.061C301.832 107.216 301.781 107.369 301.68 107.488Z" fill="#7E7551"/>
<path d="M213.528 143.768C215.936 143.186 218.457 143.265 220.821 143.998C223.278 144.757 225.483 146.163 227.205 148.069C227.39 148.319 227.506 148.614 227.54 148.924C229.267 161.112 226.777 173.529 220.483 184.125C220.42 184.268 220.302 184.382 220.156 184.439C220.01 184.496 219.847 184.493 219.703 184.431C219.565 184.367 219.457 184.252 219.401 184.111C219.346 183.969 219.347 183.812 219.405 183.671C224.644 173.163 226.138 161.19 223.64 149.73L223.975 150.585C222.997 148.846 221.56 147.408 219.82 146.429C217.955 145.399 215.844 144.894 213.713 144.967C213.633 144.972 213.552 144.96 213.477 144.932C213.401 144.905 213.332 144.863 213.273 144.808C213.215 144.753 213.168 144.686 213.136 144.613C213.104 144.539 213.087 144.46 213.087 144.38C213.082 144.243 213.123 144.109 213.203 143.998C213.282 143.888 213.397 143.807 213.528 143.768Z" fill="#7E7551"/>
<path d="M229.6 123.769C228.063 124.372 226.739 125.416 225.796 126.769C224.853 128.122 224.333 129.724 224.301 131.372C224.27 133.019 224.728 134.638 225.619 136.023C226.51 137.409 227.793 138.499 229.306 139.155C230.818 139.812 232.493 140.005 234.117 139.71C235.741 139.416 237.242 138.647 238.429 137.502C239.617 136.356 240.437 134.884 240.788 133.274C241.138 131.663 241.002 129.986 240.397 128.454C239.998 127.437 239.402 126.509 238.643 125.723C237.884 124.937 236.978 124.309 235.975 123.873C234.972 123.438 233.892 123.205 232.798 123.187C231.704 123.169 230.617 123.367 229.6 123.769ZM226.255 134C225.71 132.35 225.82 130.554 226.561 128.98C227.302 127.407 228.618 126.175 230.239 125.54C231.86 124.904 233.662 124.912 235.275 125.563C236.888 126.213 238.19 127.456 238.912 129.036L226.255 134Z" fill="#7E7551"/>
<path d="M274.994 105.967C273.455 106.566 272.128 107.607 271.182 108.959C270.235 110.312 269.711 111.913 269.677 113.561C269.642 115.209 270.099 116.83 270.988 118.218C271.877 119.605 273.159 120.698 274.672 121.356C276.185 122.015 277.86 122.21 279.485 121.917C281.11 121.624 282.612 120.856 283.801 119.71C284.99 118.565 285.812 117.093 286.163 115.481C286.513 113.87 286.378 112.192 285.772 110.659C284.964 108.612 283.376 106.97 281.356 106.09C279.336 105.211 277.049 105.167 274.994 105.967ZM271.688 116.183C271.143 114.533 271.252 112.736 271.993 111.163C272.734 109.589 274.051 108.358 275.672 107.722C277.292 107.087 279.095 107.095 280.708 107.745C282.321 108.396 283.622 109.639 284.345 111.219L271.688 116.183Z" fill="#7E7551"/>
<path d="M267.283 124.55C266.862 121.91 258.862 118.758 253.087 122.622C248.777 125.518 246.871 131.634 248.543 133.433C251.696 136.602 268.053 128.587 267.283 124.55Z" fill="#7E7551"/>
<path d="M281.457 125.193C283.262 124.67 284.897 123.681 286.197 122.326C287.351 121.123 288.201 119.663 288.677 118.066" stroke="#7E7551" stroke-width="4" stroke-linecap="round" stroke-linejoin="round"/>
</svg>
