<svg width="34" height="34" viewBox="0 0 34 34" fill="none" xmlns="http://www.w3.org/2000/svg">
<path opacity="0.5" d="M20.6057 14.4979V21.1449C20.2884 21.3347 19.0474 22.0317 17.1746 22.0317C15.3046 22.0317 14.0607 21.3347 13.7434 21.1449C13.7434 18.9292 13.7434 16.7135 13.7434 14.4979C16.0327 14.4979 18.3192 14.4979 20.6057 14.4979Z" fill="#3DCE94"/>
<path d="M28.0404 29.0245C20.7701 29.0245 13.4998 29.0245 6.22659 29.0245C5.77042 29.0245 5.33126 28.5258 5.34543 28.0186C5.48143 22.6523 5.92342 17.2576 6.65159 11.9395C6.69976 11.5825 7.03409 11.3303 7.45343 11.3303C13.9078 11.3303 20.3593 11.3303 26.8136 11.3303C27.2329 11.3303 27.5673 11.5825 27.6154 11.9395C28.3464 17.2576 28.7856 22.6523 28.9216 28.0186C28.9358 28.5258 28.4966 29.0245 28.0404 29.0245Z" stroke="#2A2324" stroke-width="1.5" stroke-miterlimit="10" stroke-linecap="round" stroke-linejoin="round"/>
<path d="M13.7462 11.3331V7.9161C13.7462 6.18776 15.2819 4.78526 17.1774 4.78526C19.0729 4.78526 20.6085 6.18776 20.6085 7.9161V11.3359" stroke="#2A2324" stroke-width="1.5" stroke-miterlimit="10" stroke-linecap="round" stroke-linejoin="round"/>
<path d="M13.7462 15.4839V18.9037C13.7462 20.632 15.2819 22.0345 17.1774 22.0345C19.0729 22.0345 20.6085 20.632 20.6085 18.9037V15.4839" stroke="#2A2324" stroke-width="1.5" stroke-miterlimit="10" stroke-linecap="round" stroke-linejoin="round"/>
</svg>
