<svg width="30" height="30" viewBox="0 0 30 30" fill="none" xmlns="http://www.w3.org/2000/svg">
<path d="M8.64986 6H1.51918V9.08102H8.64986V10.5891C8.64986 12.6395 8.64986 14.69 8.64986 16.7404V17.4339C8.64986 19.9446 7.66867 20.8196 5.69749 20.8196C4.46715 20.8196 3.20814 20.126 2.17625 18.8102L0 21.0789C1.51257 23.2049 3.8189 23.9978 5.81876 23.9978C10.7092 23.9978 12.407 21.1631 12.407 17.7343V10.8895V9.68167C12.4092 7.64854 10.7269 6 8.64986 6Z" fill="#3DCE94"/>
<path d="M28.139 13.5902V15.5753H24.5979V13.5902H22.5032V10.1203H24.5979V8.22925H28.139V10.1203H29.9999V13.5902H28.139Z" fill="#3DCE94"/>
<path d="M18.5542 14.6058C19.2465 13.9273 20.1506 13.5903 21.0568 13.5903V10.1204C19.2443 10.1204 17.4319 10.7988 16.0494 12.1535C14.6669 13.5082 13.9746 15.2842 13.9746 17.0602H13.9768C13.9768 18.8362 14.6691 20.6123 16.0516 21.967C17.4341 23.3217 19.2465 24.0001 21.059 24.0001V23.9979C22.8149 23.9979 24.5709 23.3611 25.9358 22.0895V23.9977H28.1385V21.202H28.1395V17.2091C28.1406 17.1588 28.1411 17.1084 28.1411 17.0581H24.5979V17.0602C24.5979 17.9482 24.2517 18.8362 23.5615 19.5125C22.8692 20.1909 21.9652 20.528 21.059 20.528C20.1528 20.528 19.2465 20.1909 18.5542 19.5125C17.8619 18.8341 17.5179 17.9482 17.5179 17.0602H17.5157C17.5179 16.1722 17.8641 15.2842 18.5542 14.6058Z" fill="#3DCE94"/>
</svg>
