<svg width="158" height="193" viewBox="0 0 158 193" fill="none" xmlns="http://www.w3.org/2000/svg">
<path d="M78.999 178.193C65.8047 178.193 55.7297 175.685 47.282 170.296C13.7027 148.879 6.6414 116.119 28.8592 84.8052C34.9629 76.2044 37.3833 72.1068 48.5039 57.6422C54.4373 49.9271 62.2153 39.4908 71.0918 26.6269C74.7458 21.3288 83.2522 21.3288 86.9062 26.6269C95.7769 39.4908 103.561 49.9271 109.494 57.6422C120.615 72.1014 123.035 76.1991 129.139 84.8052C151.357 116.119 144.295 148.874 110.716 170.296C102.268 175.685 92.1934 178.193 78.999 178.193Z" fill="url(#paint0_radial_2816_956)"/>
<path d="M140.065 78.4133C123.411 54.9424 106.756 33.1629 90.1019 8.79035C84.8265 1.06988 73.1712 1.06988 67.8958 8.79035C51.2413 33.1629 34.5868 54.9424 17.9323 78.4133C-8.46236 115.612 0.931139 155.159 39.8152 179.959C51.5057 187.412 64.8587 190 79.0047 190C93.1508 190 106.504 187.412 118.194 179.959C157.073 155.159 166.46 115.612 140.065 78.4133Z" stroke="url(#paint1_linear_2816_956)" stroke-width="5" stroke-miterlimit="10"/>
<path d="M59.6246 96.6123C55.9647 96.6123 52.998 99.3067 52.998 102.631C52.998 105.955 55.9647 108.649 59.6246 108.649C63.2845 108.649 66.2512 105.955 66.2512 102.631C66.2453 99.3067 63.2786 96.6123 59.6246 96.6123ZM54.22 102.625C54.22 99.915 56.6403 97.7168 59.6246 97.7168C62.6089 97.7168 65.0292 99.915 65.0292 102.625H54.22Z" fill="white"/>
<path d="M98.3736 96.6123C94.7137 96.6123 91.7471 99.3067 91.7471 102.631C91.7471 105.955 94.7137 108.649 98.3736 108.649C102.033 108.649 105 105.955 105 102.631C105 99.3067 102.033 96.6123 98.3736 96.6123ZM92.9749 102.625C92.9749 99.915 95.3952 97.7168 98.3795 97.7168C101.364 97.7168 103.784 99.915 103.784 102.625H92.9749Z" fill="white"/>
<path d="M75.8565 106.862C75.786 105.176 77.6306 101.927 79.4635 102.861C80.8616 103.57 82.2715 106.708 82.1364 108.244C81.8721 111.136 75.9739 109.765 75.8565 106.862Z" fill="white"/>
<defs>
<radialGradient id="paint0_radial_2816_956" cx="0" cy="0" r="1" gradientUnits="userSpaceOnUse" gradientTransform="translate(78.9988 100.425) scale(75.1434 90.8648)">
<stop stop-color="#605E5D"/>
<stop offset="0.346" stop-color="#706C69"/>
<stop offset="1" stop-color="#998E87"/>
</radialGradient>
<linearGradient id="paint1_linear_2816_956" x1="1.52853" y1="96.5014" x2="156.469" y2="96.5014" gradientUnits="userSpaceOnUse">
<stop stop-color="#9EA1A2"/>
<stop offset="0.3097" stop-color="#8E9497"/>
<stop offset="0.9148" stop-color="#63727C"/>
<stop offset="1" stop-color="#5D6D78"/>
</linearGradient>
</defs>
</svg>
