<svg width="555" height="315" viewBox="0 0 555 315" fill="none" xmlns="http://www.w3.org/2000/svg">
<path d="M535.907 26.9564L361.514 1.67155C349.35 -0.0950716 336.983 -0.298913 324.763 1.06852C222.299 12.4836 119.826 23.8903 17.3625 35.3054C7.45562 36.4095 0 44.13 0 53.3029V206.999C0 212.682 3.84806 217.769 9.65715 219.74C99.8275 250.443 189.989 281.138 280.159 311.842C295.477 317.057 312.535 315.766 326.715 308.317C400.503 269.57 474.292 230.815 548.08 192.068C552.363 189.817 554.999 185.622 554.972 181.095C554.713 136.232 554.454 91.3618 554.185 46.4997C554.13 36.7493 546.387 28.4767 535.907 26.9564Z" fill="#E5CA9A"/>
<path d="M0 51.2899V208.29C0 212.877 2.9323 216.962 7.31686 218.465C99.7073 250.112 192.098 281.758 284.479 313.396C291.537 315.808 298.891 310.619 298.891 303.221V98.4962C298.891 93.2558 295.08 88.7798 289.872 87.888L12.7004 40.6817C6.06809 39.552 0 44.6141 0 51.2899Z" fill="url(#paint0_radial_208_673)"/>
<path d="M307.095 97.7999V299.883C307.095 307.986 315.781 313.184 323.015 309.404C398.413 270.054 473.811 230.696 549.199 191.346C552.798 189.469 555.046 185.749 554.999 181.715C554.518 136.02 554.047 90.3257 553.566 44.6227C553.492 37.7176 546.97 32.664 540.19 34.2608L315.43 87.3275C310.555 88.4826 307.095 92.8143 307.095 97.7999Z" fill="url(#paint1_radial_208_673)"/>
<path d="M325.161 0.992257L17.2053 35.7133L300.815 81.2973C302.193 81.5182 303.608 81.4757 304.977 81.1614L540.995 27.653L366.037 1.7057C352.504 -0.298739 338.759 -0.536554 325.161 0.992257Z" fill="url(#paint2_radial_208_673)"/>
<path d="M133.535 190.956C124.174 188.476 118.18 177.638 117.449 176.262C116.219 173.935 116.792 171.446 118.735 170.69C120.687 169.943 123.258 171.217 124.488 173.544C124.683 173.909 129.271 182.522 135.135 182.598C138.854 182.666 141.916 179.371 143.544 176.262C144.524 174.385 147.003 174.113 149.094 175.693C151.175 177.256 152.063 180.05 151.083 181.927C149.556 184.84 145.144 191.601 137.078 191.448C135.857 191.44 134.673 191.261 133.535 190.956Z" fill="#FF9A00"/>
<path d="M87.2566 176.865C96.109 179.218 103.287 173.739 103.287 164.634L71.2261 156.124C71.2261 165.229 78.4042 174.512 87.2566 176.865Z" fill="#FF9A00"/>
<path d="M181.044 201.751C189.896 204.103 197.074 198.625 197.074 189.52L165.013 181.01C165.013 190.115 172.182 199.398 181.044 201.751Z" fill="#FF9A00"/>
<defs>
<radialGradient id="paint0_radial_208_673" cx="0" cy="0" r="1" gradientUnits="userSpaceOnUse" gradientTransform="translate(149.438 177.249) scale(220.132 202.124)">
<stop stop-color="#F3EBD9"/>
<stop offset="0.4134" stop-color="#F4EAD7"/>
<stop offset="0.6395" stop-color="#F6E7CF"/>
<stop offset="0.8198" stop-color="#F9E2C1"/>
<stop offset="0.9759" stop-color="#FEDAAE"/>
<stop offset="1" stop-color="#FFD9AA"/>
</radialGradient>
<radialGradient id="paint1_radial_208_673" cx="0" cy="0" r="1" gradientUnits="userSpaceOnUse" gradientTransform="translate(431.037 172.304) scale(225.452 207.008)">
<stop stop-color="#F3EBD9"/>
<stop offset="0.4134" stop-color="#F4EAD7"/>
<stop offset="0.6395" stop-color="#F6E7CF"/>
<stop offset="0.8198" stop-color="#F9E2C1"/>
<stop offset="0.9759" stop-color="#FEDAAE"/>
<stop offset="1" stop-color="#FFD9AA"/>
</radialGradient>
<radialGradient id="paint2_radial_208_673" cx="0" cy="0" r="1" gradientUnits="userSpaceOnUse" gradientTransform="translate(279.091 40.713) scale(269.368 247.331)">
<stop stop-color="#F3EBDA"/>
<stop offset="0.416" stop-color="#F4EAD8"/>
<stop offset="0.6436" stop-color="#F6E7D0"/>
<stop offset="0.825" stop-color="#F9E2C2"/>
<stop offset="0.9821" stop-color="#FEDBAF"/>
<stop offset="1" stop-color="#FFDAAC"/>
</radialGradient>
</defs>
</svg>
