<svg width="350" height="425" viewBox="0 0 350 425" fill="none" xmlns="http://www.w3.org/2000/svg">
<path d="M43.317 208.817L41.157 227.527C41.137 227.707 40.967 227.847 40.787 227.817C40.627 227.797 40.507 227.677 40.497 227.527L38.327 208.807C38.167 207.427 39.157 206.177 40.537 206.017C41.917 205.857 43.167 206.847 43.327 208.227C43.337 208.427 43.337 208.627 43.317 208.817Z" fill="#F37343"/>
<path d="M59.317 211.313L44.607 223.073C44.427 223.213 44.167 223.183 44.027 223.013C43.907 222.863 43.907 222.643 44.027 222.493L55.787 207.783C56.657 206.693 58.237 206.523 59.327 207.393C60.417 208.263 60.587 209.843 59.717 210.933C59.587 211.063 59.447 211.203 59.317 211.313Z" fill="#F37343"/>
<path d="M19.8568 216.087L31.8768 230.537C32.1568 230.867 32.1068 231.367 31.7768 231.637C31.4868 231.877 31.0568 231.877 30.7768 231.637L16.3268 219.617C15.2568 218.727 15.1168 217.147 15.9968 216.077C16.8868 215.007 18.4668 214.867 19.5368 215.747C19.6568 215.867 19.7668 215.977 19.8568 216.087Z" fill="#F37343"/>
<path d="M8.80696 237.837L27.527 240.007C27.707 240.027 27.847 240.197 27.817 240.377C27.797 240.537 27.677 240.657 27.527 240.667L8.80696 242.837C7.42696 242.997 6.17696 242.007 6.01696 240.627C5.85696 239.247 6.84696 237.997 8.22696 237.837C8.41696 237.817 8.61696 237.817 8.80696 237.837Z" fill="#F37343"/>
<path d="M16.077 261.297L30.527 249.277C30.857 248.997 31.357 249.047 31.627 249.377C31.867 249.667 31.867 250.097 31.627 250.377L19.607 264.827C18.717 265.897 17.137 266.037 16.067 265.157C14.997 264.267 14.857 262.687 15.737 261.617C15.847 261.507 15.967 261.387 16.077 261.297Z" fill="#F37343"/>
<path d="M37.827 272.357L39.997 253.637C40.017 253.457 40.187 253.317 40.367 253.347C40.527 253.367 40.647 253.487 40.657 253.637L42.827 272.357C42.987 273.737 41.997 274.987 40.617 275.147C39.237 275.307 37.987 274.317 37.827 272.937C37.807 272.737 37.807 272.537 37.827 272.357Z" fill="#F37343"/>
<path d="M55.2872 256.763L43.2672 242.313C42.9872 241.983 43.0372 241.483 43.3672 241.213C43.6572 240.973 44.0872 240.973 44.3672 241.213L58.8172 253.233C59.8872 254.123 60.0272 255.703 59.1472 256.773C58.2572 257.843 56.6772 257.983 55.6072 257.103C55.4972 256.993 55.3772 256.873 55.2872 256.763Z" fill="#F37343"/>
<path d="M66.3471 235.013L47.6271 232.843C47.4471 232.823 47.3071 232.653 47.3371 232.473C47.3571 232.313 47.4771 232.193 47.6271 232.183L66.3471 230.013C67.7271 229.853 68.9771 230.843 69.1371 232.223C69.2971 233.603 68.3071 234.853 66.9271 235.013C66.7271 235.043 66.5271 235.033 66.3471 235.013Z" fill="#F37343"/>
<path d="M59.927 314.353C61.137 311.763 68.537 295.153 60.577 277.233C54.857 264.373 44.517 258.223 40.947 256.313C37.627 256.493 25.867 257.513 16.607 266.873C8.89697 274.663 2.25698 288.923 8.02698 302.013C15.367 318.653 36.627 319.473 39.537 319.543C48.927 319.753 56.187 316.423 59.927 314.353Z" fill="url(#paint0_linear_209_1005)"/>
<path d="M90.4971 108.133C87.2371 100.293 82.7071 86.4832 83.4971 69.1332C83.9671 58.7932 85.2071 31.7532 106.497 14.1332C127.087 -2.91676 158.387 -4.48676 181.497 9.13324C200.777 20.5032 208.257 38.8432 210.497 45.1332C201.987 56.1132 187.517 71.9232 165.497 85.1332C135.017 103.433 105.877 107.243 90.4971 108.133Z" fill="url(#paint1_linear_209_1005)"/>
<path d="M245.717 416.303C199.937 428.963 142.147 427.253 100.447 407.673C49.6472 383.823 35.4472 336.553 35.6272 294.813C37.9372 252.783 44.0572 211.153 54.2372 169.773C67.4772 127.883 91.4972 87.1434 137.867 59.7434C167.537 42.2134 203.197 31.7034 240.907 40.0434C272.797 50.1434 289.407 74.5934 300.547 97.3834C314.667 126.273 323.257 155.783 325.847 186.543C328.227 212.733 333.657 238.213 342.257 263.673C365.687 326.403 331.407 393.243 245.717 416.303Z" fill="url(#paint2_radial_209_1005)"/>
<path d="M295.497 158.133C290.887 157.253 271.827 153.063 258.497 135.133C242.247 113.273 247.657 88.663 248.497 85.133C257.287 66.013 277.037 54.883 296.567 57.573C317.807 60.493 330.617 78.653 334.497 94.133C341.107 120.473 322.297 140.653 319.637 143.413C310.857 152.513 300.947 156.433 295.497 158.133Z" fill="url(#paint3_linear_209_1005)"/>
<path d="M175.383 236.613C174.433 241.013 184.943 250.793 196.263 248.293C204.733 246.423 211.453 238.173 209.813 234.253C206.953 227.383 176.833 229.873 175.383 236.613Z" fill="#F37343"/>
<path d="M161.742 222.072C156.312 216.642 147.502 216.642 142.072 222.072C136.642 227.502 136.642 236.312 142.072 241.742C147.502 247.172 156.312 247.172 161.742 241.742C167.182 236.312 167.182 227.502 161.742 222.072ZM159.933 239.933C155.503 244.363 148.322 244.363 143.892 239.933L159.933 223.893C164.363 228.313 164.363 235.493 159.933 239.933Z" fill="#F37343"/>
<path d="M243.122 222.072C237.692 216.642 228.882 216.642 223.452 222.072C218.022 227.502 218.022 236.312 223.452 241.742C228.882 247.172 237.692 247.172 243.122 241.742C248.552 236.312 248.552 227.502 243.122 222.072ZM241.302 239.933C236.872 244.363 229.692 244.363 225.262 239.933L241.302 223.893C245.742 228.313 245.742 235.493 241.302 239.933Z" fill="#F37343"/>
<path d="M278.986 23.3825L276.832 41.7397C276.812 41.8949 276.653 42.0156 276.465 41.9984C276.306 41.9811 276.187 41.8776 276.167 41.7397L274.013 23.3825C273.874 22.1926 274.867 21.132 276.246 21.0113C277.616 20.8906 278.837 21.7528 278.976 22.9513C279.006 23.0807 279.006 23.2359 278.986 23.3825Z" fill="#F37343"/>
<path d="M300.189 33.9369L285.595 45.9189C285.436 46.0425 285.206 46.0248 285.083 45.8659C284.968 45.7335 284.977 45.5392 285.083 45.4068L297.063 30.8112C297.84 29.8664 299.235 29.7251 300.189 30.5022C301.134 31.2792 301.275 32.6743 300.498 33.6279C300.401 33.7427 300.295 33.8486 300.189 33.9369Z" fill="#F37343"/>
<path d="M255.83 30.7756L267.838 44.8866C268.081 45.1728 268.047 45.5978 267.76 45.8406C267.5 46.0574 267.127 46.0488 266.884 45.8406L252.767 33.8372C251.848 33.0566 251.743 31.6863 252.516 30.767C253.288 29.8476 254.667 29.7436 255.587 30.5155C255.665 30.6022 255.752 30.6976 255.83 30.7756Z" fill="#F37343"/>
<path d="M244.496 52.0138L263.727 54.1679C263.89 54.1877 264.016 54.3466 263.998 54.5352C263.98 54.694 263.872 54.8131 263.727 54.833L244.496 56.987C243.249 57.126 242.138 56.1333 242.012 54.7536C241.885 53.3837 242.789 52.1627 244.044 52.0238C244.189 51.994 244.351 51.994 244.496 52.0138Z" fill="#F37343"/>
<path d="M251.776 75.1699L265.887 63.1617C266.173 62.9187 266.598 62.9534 266.841 63.2398C267.057 63.5001 267.049 63.8732 266.841 64.1161L254.837 78.2327C254.057 79.1524 252.686 79.2565 251.767 78.4843C250.848 77.7035 250.744 76.3326 251.515 75.4129C251.602 75.3261 251.689 75.2393 251.776 75.1699Z" fill="#F37343"/>
<path d="M274.005 85.6175L275.731 67.2603C275.747 67.1051 275.874 66.9844 276.025 67.0016C276.152 67.0189 276.248 67.1224 276.264 67.2603L277.99 85.6175C278.101 86.8075 277.306 87.868 276.2 87.9887C275.103 88.1094 274.125 87.2472 274.013 86.0487C273.997 85.9107 273.997 85.7555 274.005 85.6175Z" fill="#F37343"/>
<path d="M297.163 78.2244L285.162 64.1134C284.919 63.8272 284.953 63.4022 285.24 63.1594C285.5 62.9426 285.873 62.9512 286.115 63.1594L300.233 75.1628C301.152 75.9434 301.256 77.3137 300.485 78.233C299.713 79.1524 298.334 79.2564 297.415 78.4845C297.328 78.3978 297.241 78.3111 297.163 78.2244Z" fill="#F37343"/>
<path d="M307.618 56.9921L289.26 55.2675C289.105 55.2516 288.984 55.1244 289.002 54.9734C289.019 54.8462 289.122 54.7509 289.26 54.735L307.618 53.0104C308.807 52.8991 309.868 53.6939 309.989 54.7986C310.109 55.8953 309.247 56.8728 308.049 56.9841C307.911 57.0079 307.756 57 307.618 56.9921Z" fill="#F37343"/>
<defs>
<linearGradient id="paint0_linear_209_1005" x1="10.6469" y1="305.124" x2="38.6815" y2="289.603" gradientUnits="userSpaceOnUse">
<stop stop-color="#FFB5B5"/>
<stop offset="0.1947" stop-color="#FFB7AB"/>
<stop offset="0.5228" stop-color="#FFBD91"/>
<stop offset="0.9419" stop-color="#FEC766"/>
<stop offset="1" stop-color="#FEC860"/>
</linearGradient>
<linearGradient id="paint1_linear_209_1005" x1="95.5648" y1="-12.5737" x2="139" y2="56.6871" gradientUnits="userSpaceOnUse">
<stop stop-color="#FFB5B5"/>
<stop offset="0.1947" stop-color="#FFB7AB"/>
<stop offset="0.5228" stop-color="#FFBD91"/>
<stop offset="0.9419" stop-color="#FEC766"/>
<stop offset="1" stop-color="#FEC860"/>
</linearGradient>
<radialGradient id="paint2_radial_209_1005" cx="0" cy="0" r="1" gradientUnits="userSpaceOnUse" gradientTransform="translate(198.368 299.789) scale(165.705 165.705)">
<stop stop-color="#FFDF9C"/>
<stop offset="0.2933" stop-color="#FCD894"/>
<stop offset="0.7483" stop-color="#F5C67E"/>
<stop offset="1" stop-color="#F0BA6F"/>
</radialGradient>
<linearGradient id="paint3_linear_209_1005" x1="366.972" y1="77.1777" x2="250.084" y2="122.996" gradientUnits="userSpaceOnUse">
<stop stop-color="white"/>
<stop offset="0.2538" stop-color="#FFB5B5"/>
<stop offset="0.3991" stop-color="#FFB7AB"/>
<stop offset="0.6439" stop-color="#FFBD91"/>
<stop offset="0.9567" stop-color="#FEC766"/>
<stop offset="1" stop-color="#FEC860"/>
</linearGradient>
</defs>
</svg>
