<svg width="600" height="377" viewBox="0 0 600 377" fill="none" xmlns="http://www.w3.org/2000/svg">
<path d="M109.477 290.478C144.12 275.992 178.752 261.51 213.394 247.024C195.736 199.378 178.079 151.733 160.421 104.088C125.964 120.408 91.5081 136.728 57.0518 153.048L109.468 290.481L109.477 290.478Z" fill="#FFAD5C"/>
<path d="M129.531 130.853C138.412 126.245 147.297 121.647 156.187 117.036C146.717 88.8937 137.25 60.7603 127.779 32.6176C120.836 11.9984 100.892 1.96697 88.5381 12.8754C86.3752 14.7813 84.216 16.6964 82.0532 18.6023C75.8036 24.1324 75.1503 35.8334 80.5709 45.3034C96.894 73.8186 113.217 102.334 129.531 130.853Z" fill="#5F634C"/>
<path d="M145.789 124.652C155.927 136.529 169.291 155.406 177.005 181.243C187.957 217.928 183.11 253.908 179.169 254.266C175.745 254.576 174.424 227.906 159.608 188.948C150.14 164.037 139.22 144.806 131.299 132.233C131.176 132.387 131.013 132.577 130.82 132.801C130.521 133.14 130.109 133.575 129.653 134.006C113.094 149.461 105.722 170.093 112.542 187.976C112.566 188.01 112.599 188.04 112.622 188.074C117.724 194.295 120.664 202.003 121 210.041L121.006 210.167C122.203 213.307 128.988 229.834 152.126 236.453C156.089 237.585 162.484 239.984 170.936 239.05C182.788 237.741 190.77 231.197 193.879 228.32C196.41 233.413 199.02 240.145 200.428 248.298C203.866 268.285 197.918 284.595 194.576 292.11C193.37 293.437 191.852 294.508 190.058 295.192L152.618 309.471C128.409 318.704 102.748 317.254 80.8317 307.439C46.1633 291.914 33.7388 261.077 31.5116 255.238C31.1103 251.912 30.7147 248.574 30.3227 245.245C29.333 236.954 26.3111 229.03 21.5279 222.186C19.6036 219.441 17.6851 216.684 15.7607 213.939C-2.70557 165.521 21.576 111.299 69.9941 92.8325L102.425 80.4634C106.368 78.9596 110.53 79.0101 114.225 80.3085C119.562 86.7816 125.055 93.8589 130.552 101.566C136.253 109.527 141.302 117.266 145.789 124.652Z" fill="url(#paint0_radial_209_1029)"/>
<path d="M108.909 84.134C100.767 85.8263 89.2334 89.0908 76.7112 95.8253C68.2545 100.367 36.4525 117.473 24.2087 153.897C17.148 174.924 21.5069 192.751 25.2496 209.635C27.1935 218.409 40.9097 280.133 87.817 300.836C103.943 307.957 120.203 308.552 121.543 308.587C133.021 308.908 144.57 306.975 155.624 302.759C166.04 300.017 176.47 297.281 186.887 294.539C189.058 294.086 191.225 293.623 193.405 293.166C193.403 293.188 193.392 293.214 193.389 293.236C192.36 297.525 189.287 301.03 185.157 302.605L159.323 312.458C134.609 321.884 107.701 321.122 83.5651 310.314C77.6795 307.678 72.1386 304.515 66.9717 300.845C55.538 292.727 48.7801 284.184 44.7046 278.942C26.3208 255.323 16.8026 223.463 14.5055 215.392C11.3364 205.202 2.76098 173.037 17.3025 139.578C19.6634 134.151 26.1513 119.957 40.2507 106.638C51.0855 96.4052 61.9179 91.3854 73.0029 86.1303C84.8852 80.4961 95.3791 77.1145 102.982 75.0495L131.992 68.9192C131.992 68.9192 123.752 75.2622 123.718 75.2858C118.782 78.2278 113.841 81.1827 108.909 84.134Z" fill="#51422A"/>
<path d="M116.428 129.781C112.157 131.549 107.9 133.323 103.629 135.091C80.8407 143.782 70.445 172.256 80.3461 198.693L83.3092 203.236C84.7554 205.456 85.9614 207.832 86.9093 210.318C87.8572 212.803 88.5434 215.388 88.9396 217.998L89.7539 223.36C91.7392 228.425 98.8561 243.83 114.756 252.407C126.063 258.509 138.387 259.534 149.478 255.304C154.734 254.017 159.99 252.729 165.247 251.441C166.346 251.236 167.445 251.031 168.544 250.826C168.538 250.839 168.542 250.848 168.536 250.861C168.123 253.287 166.648 255.199 164.573 255.99L151.623 260.929C139.243 265.651 125.461 264.507 112.832 257.69C104.746 253.325 97.7804 246.959 92.1222 238.746C88.286 233.178 85.9941 228.123 84.7504 224.862L84.6186 224.516L83.6844 218.419C83.0344 214.161 81.4487 210.003 79.0946 206.384L75.7311 201.213L75.7239 201.195C70.3608 187.133 69.8044 171.783 74.4117 158.467C76.8511 151.394 80.5515 145.241 85.271 140.273C90.5385 134.721 95.9455 132.146 101.474 129.438C107.398 126.536 112.677 124.887 116.51 123.907C116.807 123.9 117.324 123.938 117.88 124.272C119.103 124.983 119.457 126.443 119.504 126.65C118.482 127.703 117.457 128.747 116.428 129.781Z" fill="url(#paint1_radial_209_1029)"/>
<path d="M129.556 245.35C132.318 244.96 133.701 244.797 136.668 244.746C137.591 244.726 138.13 245.269 138.119 246.194C138.074 249.165 137.994 250.469 137.536 253.309C136.81 257.749 132.564 260.899 128.243 260.149C126.949 259.926 125.693 259.046 124.764 258.126C123.836 257.207 122.962 255.956 122.733 254.652C121.976 250.339 125.107 245.977 129.556 245.35Z" fill="#FFAD5C"/>
<path d="M106.631 228.546C109.422 228.595 110.804 228.656 113.756 229.072C114.673 229.204 115.124 229.824 114.966 230.729C114.455 233.654 114.174 234.938 113.278 237.667C111.868 241.94 107.17 244.384 103.02 242.959C101.777 242.534 100.674 241.467 99.9077 240.411C99.141 239.355 98.4687 237.985 98.4472 236.666C98.3677 232.276 102.14 228.472 106.631 228.546Z" fill="#FFAD5C"/>
<path d="M92.8 201.681C95.5339 202.255 96.8864 202.574 99.6938 203.537C100.567 203.835 100.894 204.524 100.561 205.389C99.5113 208.166 98.996 209.368 97.5903 211.884C95.3966 215.814 90.3372 217.337 86.5223 215.164C85.374 214.51 84.5009 213.259 83.9442 212.08C83.3875 210.901 82.986 209.427 83.2058 208.123C83.974 203.795 88.4023 200.758 92.8 201.681Z" fill="#FFAD5C"/>
<path d="M96.9 154.878C99.2205 153.329 100.361 152.53 102.608 150.592C103.31 149.993 103.35 149.228 102.726 148.546C100.715 146.359 99.7862 145.44 97.5534 143.626C94.0555 140.797 88.7901 141.275 86.0658 144.711C85.2488 145.74 84.8978 147.233 84.8173 148.537C84.7368 149.841 84.9186 151.356 85.6154 152.482C87.9197 156.194 93.1604 157.364 96.9 154.878Z" fill="#FFAD5C"/>
<path d="M88.2479 185.202C90.2972 183.307 91.2878 182.341 93.2133 180.065C93.8098 179.356 93.733 178.593 93.0123 178.022C90.6834 176.182 89.6187 175.41 87.1328 173.972C83.2356 171.723 78.1035 173.027 75.9561 176.854C75.3118 177.999 75.1998 179.529 75.3311 180.827C75.4624 182.126 75.8733 183.596 76.7356 184.594C79.5866 187.916 84.9467 188.248 88.2479 185.202Z" fill="#FFAD5C"/>
<path d="M220.808 43.597C263.315 54.1951 284.958 93.4602 301.783 124.021C314.419 146.964 323.222 162.946 321.787 184.888C318.805 230.527 273.961 260.077 255.561 272.222C230.283 288.894 205.909 296.039 189.963 299.381C189.426 272.604 185.444 231.409 167.669 184.803C158.122 159.772 140.467 122.347 108.001 84.4802C110.547 81.7541 161.636 28.8446 220.808 43.597Z" fill="#3A3E26"/>
<path d="M147.324 64.1317C160.918 61.0231 184.634 57.8216 210.425 66.8219C261.382 84.5896 295.045 141.115 290.261 194.772C287.274 228.329 269.989 252.378 259.984 264.113C268.181 257.487 280.489 245.644 288.806 227.435C308.227 184.912 289.689 143.039 284.729 131.831C280.673 122.654 256.515 68.0693 201.805 58.3365C178.229 54.1319 158.273 59.9236 147.324 64.1317Z" fill="#5F634C"/>
<path d="M137.179 71.2115C136.982 71.6504 154.625 77.529 172.868 89.665C213.251 116.528 229.723 156.235 232.104 162.198C245.012 194.498 243.413 222.689 242.395 237.643C241.265 254.267 238.112 268.003 235.246 277.829C240.147 269.913 246.629 257.444 250.139 241.111C256.834 209.95 248.46 184.739 243.632 170.815C240.99 163.186 225.135 119.455 181.035 90.874C159.307 76.7819 137.398 70.721 137.179 71.2115Z" fill="#5F634C"/>
<path d="M123.743 75.2655C131.888 84.0497 143.237 97.3057 154.863 114.769C167.839 134.254 188.921 166.605 197.665 212.963C200.921 230.226 204.019 257.685 198.808 291.726C205.698 268.346 206.755 248.946 206.574 236.322C205.587 166.863 164.801 118.096 151.165 102.266C140.495 89.8642 130.458 80.8601 123.743 75.2655Z" fill="#5F634C"/>
<path d="M445.975 114.536C437.897 74.9569 433.3 55.3802 419.577 14.6016C415.311 1.92986 405.301 -2.83331 392.778 1.85034C352.479 16.9239 335.063 24.2878 298.581 44.4036C241.555 75.8461 219.25 149.111 250.497 204.392C259.893 221.009 277.916 233.802 294.988 241.925C312.053 250.045 333.355 255.964 352.176 252.773C414.768 242.142 459.004 178.338 445.975 114.536Z" fill="url(#paint2_radial_209_1029)"/>
<path d="M353.889 117.184C348.444 114.594 347.445 107.702 347.337 106.833C347.157 105.365 348.206 104.021 349.681 103.844C351.156 103.668 352.493 104.713 352.669 106.188C352.699 106.419 353.381 111.874 357.189 112.66C359.598 113.171 362.491 111.696 364.388 110.138C365.54 109.199 367.228 109.359 368.171 110.521C369.11 111.672 368.94 113.365 367.789 114.304C366.008 115.761 361.3 119.024 356.077 117.921C355.28 117.751 354.548 117.498 353.889 117.184Z" fill="#FFFFF7"/>
<path d="M327.448 103.351C332.602 105.804 338.758 103.611 341.207 98.4644L322.554 89.5891C320.112 94.7396 322.301 100.902 327.448 103.351Z" fill="#FFFFF7"/>
<path d="M382.016 129.316C387.17 131.768 393.326 129.576 395.775 124.429L377.122 115.554C374.673 120.701 376.862 126.864 382.016 129.316Z" fill="#FFFFF7"/>
<path d="M500.676 166.831C500.42 168.726 500.476 170.69 500.886 172.643C505.51 194.818 499.643 215.927 483.762 226.61C483.723 226.624 483.678 226.629 483.64 226.643C475.885 228.786 469.04 233.391 464.132 239.766L464.055 239.866C461.267 241.741 446.197 251.336 423.474 243.41C417.727 241.406 412.032 238.476 406.605 234.69C405.768 234.108 404.889 233.627 403.973 233.231C399.068 236.422 394.195 239.64 389.179 242.664C382.276 246.826 375.549 251.122 369.009 255.858C364.955 258.79 360.904 261.744 356.689 264.435C356.91 266.215 357.533 267.965 358.604 269.559L380.969 302.806C395.431 324.305 417.237 337.91 440.804 342.522C478.082 349.816 506.009 331.778 511.195 328.29C513.434 325.795 515.687 323.304 517.926 320.809C523.514 314.604 530.55 309.871 538.404 307.034C541.558 305.9 544.715 304.753 547.87 303.619C590.867 274.696 602.276 216.391 573.353 173.394L553.98 144.593C551.624 141.092 548.195 138.735 544.427 137.666C529.817 147.337 515.232 157.063 500.676 166.831Z" fill="url(#paint3_radial_209_1029)"/>
<path d="M551.301 148.637C556.25 156.407 561.205 164.186 566.155 171.956C593.315 212.331 582.726 267.216 542.604 294.627L533.751 297.823C529.439 299.386 525.326 301.477 521.534 304.028C517.734 306.585 514.254 309.6 511.182 313.005L504.884 320.001C497.068 325.15 471.58 339.487 438.909 333.094C415.676 328.547 395.601 315.223 382.384 295.575C375.452 287.331 368.507 279.083 361.575 270.839C360.062 269.217 358.557 267.589 357.039 265.959C357.028 265.979 357.023 266.007 357.012 266.026C355.381 270.124 355.872 274.759 358.339 278.426L373.772 301.369C388.535 323.315 410.962 338.202 436.916 343.281C453.543 346.535 470.307 345.442 486.759 340.051C497.932 336.379 506.214 331.616 511.201 328.262L511.732 327.905L518.893 319.954C523.893 314.397 530.249 310.121 537.28 307.585L547.344 303.949L547.377 303.926C568.876 289.465 584.116 267.294 589.48 241.944C592.325 228.472 592.357 214.868 589.713 201.799C586.757 187.192 580.798 176.846 574.768 166.163C568.305 154.71 561.679 145.898 556.656 139.828C556.208 139.467 555.368 138.899 554.194 138.713C551.624 138.296 549.712 140.04 549.438 140.297C550.063 143.07 550.679 145.849 551.301 148.637Z" fill="#51422A"/>
<path d="M514.114 176.809C516.585 180.715 519.042 184.619 521.513 188.524C535.126 208.762 527.21 238.022 503.881 253.92L498.841 255.924C496.38 256.905 494.025 258.151 491.818 259.636C489.611 261.121 487.56 262.838 485.731 264.743L481.976 268.655C477.434 271.65 462.739 280.137 444.802 277.981C432.046 276.451 421.383 270.185 414.758 260.336C411.205 256.254 407.652 252.173 404.098 248.091C403.319 247.29 402.539 246.489 401.759 245.688C401.756 245.701 401.748 245.707 401.745 245.721C400.684 247.941 400.788 250.354 402.027 252.196L409.763 263.696C417.159 274.69 429.081 281.699 443.33 283.407C452.454 284.501 461.815 283.313 471.172 279.863C477.517 277.524 482.303 274.714 485.199 272.766L485.506 272.559L489.784 268.115C492.769 265.01 496.461 262.526 500.471 260.926L506.2 258.639L506.216 258.628C518.704 250.228 528.005 238.005 531.915 224.468C533.999 217.281 534.521 210.121 533.528 203.341C532.423 195.768 529.489 190.547 526.532 185.148C523.363 179.362 520 174.971 517.433 171.961C517.194 171.785 516.749 171.518 516.103 171.47C514.693 171.346 513.563 172.335 513.406 172.477C513.633 173.927 513.87 175.371 514.114 176.809Z" fill="url(#paint4_radial_209_1029)"/>
<path d="M436.776 263.687C434.744 261.776 433.708 260.846 431.313 259.095C430.57 258.546 429.816 258.679 429.292 259.441C427.616 261.895 426.93 263.007 425.668 265.592C423.702 269.638 425.356 274.659 429.319 276.537C430.506 277.101 432.039 277.106 433.328 276.89C434.617 276.673 436.051 276.154 436.991 275.221C440.095 272.133 440.056 266.771 436.776 263.687Z" fill="#FFAD5C"/>
<path d="M465.196 263.166C462.887 261.598 461.722 260.851 459.071 259.489C458.245 259.068 457.519 259.315 457.126 260.146C455.859 262.83 455.348 264.042 454.508 266.788C453.197 271.093 455.627 275.798 459.84 277.025C461.1 277.395 462.616 277.158 463.852 276.737C465.087 276.316 466.426 275.584 467.204 274.518C469.805 270.985 468.915 265.702 465.196 263.166Z" fill="#FFAD5C"/>
<path d="M491.982 249.185C489.417 248.078 488.128 247.559 485.279 246.728C484.393 246.468 483.729 246.843 483.503 247.742C482.76 250.616 482.488 251.896 482.187 254.762C481.714 259.237 484.971 263.398 489.341 263.821C490.656 263.949 492.091 263.43 493.225 262.787C494.36 262.144 495.537 261.172 496.109 259.979C497.976 256 496.113 250.974 491.982 249.185Z" fill="#FFAD5C"/>
<path d="M515.608 208.574C514.604 205.971 514.133 204.661 513.413 201.782C513.185 200.887 513.593 200.239 514.496 200.041C517.4 199.414 518.689 199.198 521.559 199.003C526.048 198.707 530.075 202.132 530.321 206.51C530.396 207.822 529.822 209.244 529.136 210.357C528.45 211.469 527.429 212.602 526.21 213.12C522.188 214.826 517.237 212.769 515.608 208.574Z" fill="#FFAD5C"/>
<path d="M505.201 238.341C504.618 235.611 504.366 234.25 504.104 231.281C504.025 230.358 504.527 229.779 505.445 229.728C508.409 229.566 509.724 229.549 512.584 229.806C517.065 230.215 520.507 234.239 520.057 238.603C519.923 239.91 519.133 241.226 518.277 242.211C517.422 243.196 516.238 244.161 514.958 244.48C510.714 245.551 506.148 242.741 505.201 238.341Z" fill="#FFAD5C"/>
<defs>
<radialGradient id="paint0_radial_209_1029" cx="0" cy="0" r="1" gradientUnits="userSpaceOnUse" gradientTransform="translate(99.4882 205.528) rotate(-21.4896) scale(70.9748 137.669)">
<stop stop-color="#FE601C"/>
<stop offset="0.2511" stop-color="#FE691A"/>
<stop offset="0.6565" stop-color="#FD8116"/>
<stop offset="1" stop-color="#FC9A11"/>
</radialGradient>
<radialGradient id="paint1_radial_209_1029" cx="0" cy="0" r="1" gradientUnits="userSpaceOnUse" gradientTransform="translate(112.383 200.438) rotate(-110.876) scale(55.5208 55.5208)">
<stop stop-color="#FE601C"/>
<stop offset="0.2511" stop-color="#FE691A"/>
<stop offset="0.6565" stop-color="#FD8116"/>
<stop offset="1" stop-color="#FC9A11"/>
</radialGradient>
<radialGradient id="paint2_radial_209_1029" cx="0" cy="0" r="1" gradientUnits="userSpaceOnUse" gradientTransform="translate(352.359 121.922) rotate(25.4459) scale(119.534 159.148)">
<stop stop-color="#D2C96A"/>
<stop offset="0.346" stop-color="#C2BB5E"/>
<stop offset="1" stop-color="#999940"/>
</radialGradient>
<radialGradient id="paint3_radial_209_1029" cx="0" cy="0" r="1" gradientUnits="userSpaceOnUse" gradientTransform="translate(490.613 257.959) rotate(-123.315) scale(67.8442 131.597)">
<stop stop-color="#FE601C"/>
<stop offset="0.2511" stop-color="#FE691A"/>
<stop offset="0.6565" stop-color="#FD8116"/>
<stop offset="1" stop-color="#FC9A11"/>
</radialGradient>
<radialGradient id="paint4_radial_209_1029" cx="0" cy="0" r="1" gradientUnits="userSpaceOnUse" gradientTransform="translate(476.698 236.886) rotate(-33.9279) scale(55.5207 55.5208)">
<stop stop-color="#FE601C"/>
<stop offset="0.2511" stop-color="#FE691A"/>
<stop offset="0.6565" stop-color="#FD8116"/>
<stop offset="1" stop-color="#FC9A11"/>
</radialGradient>
</defs>
</svg>
