<svg width="600" height="340" viewBox="0 0 600 340" fill="none" xmlns="http://www.w3.org/2000/svg">
<path d="M62.8577 300.01C100.388 298.82 137.908 297.63 175.438 296.44C175.918 245.63 176.398 194.82 176.878 144.01C138.868 146.98 100.858 149.95 62.8477 152.92V300.01H62.8577Z" fill="#FFAD5C"/>
<path d="M138.478 158.009C148.418 156.869 158.358 155.739 168.308 154.599C169.488 124.929 170.668 95.2695 171.848 65.5995C172.708 43.8595 157.648 27.3795 142.218 33.1695C139.518 34.1795 136.818 35.1995 134.118 36.2095C126.308 39.1495 121.528 49.8495 123.218 60.6295C128.308 93.0895 133.398 125.549 138.478 158.009Z" fill="#5F634C"/>
<path d="M155.878 158.01C161.118 172.72 166.878 195.12 164.878 222.01C162.038 260.19 144.688 292.08 140.878 291.01C137.568 290.08 145.838 264.69 145.878 223.01C145.908 196.36 142.558 174.5 139.638 159.93C139.468 160.03 139.248 160.15 138.988 160.29C138.588 160.5 138.048 160.76 137.468 161C116.488 169.54 102.248 186.19 102.248 205.33C102.258 205.37 102.278 205.41 102.288 205.45C104.838 213.08 104.838 221.33 102.288 228.96L102.248 229.08C102.248 232.44 102.698 250.3 121.958 264.73C125.258 267.2 130.378 271.72 138.608 273.86C150.148 276.86 159.938 273.59 163.868 272.01C164.418 277.67 164.458 284.89 162.868 293.01C158.958 312.91 147.588 326.03 141.788 331.86C140.188 332.67 138.388 333.13 136.468 333.13H96.3983C70.4883 333.13 47.0283 322.63 30.0483 305.65C3.18834 278.79 2.56836 245.55 2.56836 239.3C3.37836 236.05 4.19831 232.79 5.01831 229.54C7.04831 221.44 7.04831 212.96 5.01831 204.86C4.19831 201.61 3.38836 198.35 2.56836 195.1C2.56836 143.28 44.5783 101.27 96.3983 101.27H131.108C135.328 101.27 139.198 102.8 142.188 105.33C144.868 113.28 147.478 121.85 149.868 131.01C152.358 140.48 154.318 149.51 155.878 158.01Z" fill="url(#paint0_radial_208_716)"/>
<path d="M135.858 107.01C127.648 105.69 115.708 104.63 101.608 106.46C92.0881 107.69 56.2781 112.34 31.8581 142.01C17.7681 159.14 15.488 177.35 12.968 194.46C11.658 203.35 2.478 265.91 38.928 301.97C51.458 314.37 66.438 320.72 67.678 321.23C78.288 325.62 89.768 327.93 101.598 327.93C112.308 329.08 123.028 330.24 133.738 331.39C135.928 331.74 138.118 332.08 140.318 332.43C140.308 332.45 140.288 332.47 140.278 332.49C137.788 336.13 133.668 338.31 129.248 338.31H101.598C75.148 338.31 50.278 328.01 31.578 309.31C27.018 304.75 22.968 299.82 19.448 294.55C11.658 282.89 8.38802 272.5 6.44802 266.15C-2.31198 237.53 0.147956 204.37 0.877956 196.01C1.54796 185.36 4.99796 152.25 30.508 126.17C34.648 121.94 45.768 110.99 63.688 103.57C77.458 97.8696 89.368 97.0396 101.598 96.0796C114.708 95.0496 125.718 95.6296 133.558 96.4096L162.848 101.02C162.848 101.02 152.888 104.01 152.848 104.02C147.188 105.01 141.518 106.01 135.858 107.01Z" fill="#51422A"/>
<path d="M126.618 152.34C121.998 152.47 117.388 152.61 112.768 152.74C88.3777 152.74 68.5178 175.64 68.3478 203.87L69.4977 209.17C70.0577 211.76 70.3378 214.41 70.3378 217.07C70.3378 219.73 70.0577 222.39 69.4977 224.97L68.3478 230.27C68.3978 235.71 69.5578 252.64 81.3578 266.32C89.7478 276.05 100.898 281.4 112.768 281.4C118.138 282.07 123.508 282.74 128.878 283.41C129.978 283.61 131.078 283.81 132.178 284.01C132.168 284.02 132.168 284.03 132.158 284.04C130.908 286.16 128.848 287.42 126.628 287.42H112.768C99.5177 287.42 87.0477 281.44 77.6777 270.57C71.6777 263.61 67.4378 255.18 65.0778 245.49C63.4778 238.92 63.1377 233.38 63.1377 229.89V229.52L64.4377 223.49C65.3477 219.28 65.3477 214.83 64.4377 210.61L63.1377 204.58V204.56C63.1377 189.51 68.0877 174.97 77.1377 164.17C81.9377 158.43 87.5877 154 93.7677 151.04C100.668 147.73 106.638 147.25 112.768 146.69C119.338 146.09 124.858 146.43 128.788 146.88C129.068 146.98 129.538 147.2 129.938 147.71C130.828 148.81 130.638 150.3 130.608 150.51C129.278 151.13 127.948 151.74 126.618 152.34Z" fill="url(#paint1_radial_208_716)"/>
<path d="M97.6985 264.999C100.419 265.619 101.769 265.959 104.559 266.969C105.429 267.279 105.738 267.979 105.398 268.839C104.298 271.599 103.759 272.789 102.319 275.279C100.059 279.169 94.9685 280.599 91.1985 278.359C90.0685 277.689 89.2085 276.419 88.6685 275.229C88.1285 274.039 87.7585 272.559 88.0085 271.259C88.8385 266.959 93.3185 263.999 97.6985 264.999Z" fill="#FFAD5C"/>
<path d="M82.2679 241.13C84.8579 242.17 86.128 242.72 88.738 244.16C89.548 244.61 89.7479 245.35 89.2779 246.14C87.7579 248.69 87.038 249.79 85.228 252.02C82.388 255.51 77.1279 256.12 73.7579 253.31C72.7479 252.47 72.0979 251.08 71.7579 249.82C71.4179 248.56 71.278 247.04 71.728 245.8C73.218 241.67 78.0979 239.46 82.2679 241.13Z" fill="#FFAD5C"/>
<path d="M78.9183 211.1C81.2683 212.61 82.4183 213.39 84.6983 215.29C85.4083 215.88 85.4683 216.64 84.8483 217.33C82.8783 219.55 81.9682 220.49 79.7582 222.34C76.3082 225.23 71.0382 224.85 68.2482 221.46C67.4082 220.44 67.0383 218.96 66.9383 217.66C66.8383 216.36 66.9883 214.84 67.6583 213.7C69.9183 209.93 75.1383 208.67 78.9183 211.1Z" fill="#FFAD5C"/>
<path d="M99.4279 168.829C102.148 168.209 103.498 167.869 106.288 166.859C107.158 166.549 107.468 165.849 107.128 164.989C106.028 162.229 105.488 161.039 104.048 158.549C101.788 154.659 96.6979 153.229 92.9279 155.469C91.7979 156.139 90.9379 157.409 90.3979 158.599C89.8579 159.789 89.488 161.269 89.738 162.569C90.568 166.859 95.0479 169.819 99.4279 168.829Z" fill="#FFAD5C"/>
<path d="M80.5375 194.079C83.1275 193.039 84.3975 192.489 87.0075 191.049C87.8175 190.599 88.0175 189.859 87.5475 189.069C86.0275 186.519 85.3075 185.419 83.4975 183.189C80.6575 179.699 75.3975 179.089 72.0275 181.899C71.0175 182.739 70.3675 184.129 70.0275 185.389C69.6875 186.649 69.5475 188.169 69.9975 189.409C71.4775 193.529 76.3675 195.749 80.5375 194.079Z" fill="#FFAD5C"/>
<path d="M254.858 109.009C290.798 134.059 297.028 178.459 301.858 213.009C305.488 238.949 308.018 257.019 298.858 277.009C279.808 318.589 227.378 330.219 205.858 335.009C176.298 341.579 150.978 339.569 134.888 337.009C143.928 311.799 154.888 271.889 154.888 222.009C154.888 195.219 151.728 153.959 134.888 107.009C138.238 105.369 204.828 74.1394 254.858 109.009Z" fill="#3A3E26"/>
<path d="M178.878 102.009C192.688 103.949 215.988 109.409 236.878 127.009C278.158 161.769 289.468 226.579 265.878 275.009C251.128 305.299 226.408 321.609 212.878 329.009C222.898 325.739 238.618 319.059 252.878 305.009C286.178 272.199 283.778 226.469 283.138 214.229C282.618 204.209 279.498 144.599 231.848 116.009C211.318 103.679 190.608 101.979 178.878 102.009Z" fill="#5F634C"/>
<path d="M166.878 105.01C166.538 105.35 180.928 117.13 193.648 134.97C221.808 174.46 223.048 217.43 223.148 223.85C223.698 258.63 212.158 284.4 205.878 298.01C198.898 313.14 191.058 324.85 184.878 333.01C192.278 327.36 202.778 318.02 211.878 304.01C229.238 277.28 230.398 250.74 230.848 236.01C231.098 227.94 231.868 181.43 200.848 139.01C185.568 118.1 167.258 104.63 166.878 105.01Z" fill="#5F634C"/>
<path d="M152.878 104.01C157.358 115.12 163.238 131.55 167.878 152.01C173.058 174.84 181.228 212.58 172.878 259.01C169.768 276.3 162.878 303.06 145.878 333.01C160.648 313.62 168.548 295.87 172.878 284.01C196.708 218.76 175.978 158.66 168.878 139.01C163.328 123.62 157.158 111.63 152.878 104.01Z" fill="#5F634C"/>
<path d="M416.838 109.67C385.888 68.57 369.888 48.57 331.788 9.18C319.948 -3.06 305.828 -3.06 293.988 9.18C255.888 48.57 239.888 66.57 208.938 109.67C160.558 177.04 174.998 273.51 241.188 319.99C261.088 333.96 288.818 338.81 312.898 338.81C336.968 338.81 364.708 333.96 384.608 319.99C450.778 273.51 466.738 175.92 416.838 109.67Z" fill="url(#paint2_radial_208_716)"/>
<path d="M312.378 163.11C304.698 163.11 299.778 155.73 299.178 154.79C298.168 153.2 298.638 151.08 300.238 150.07C301.838 149.06 303.948 149.53 304.958 151.13C305.118 151.38 308.888 157.28 313.698 156.1C316.748 155.37 319.268 152.09 320.598 149.26C321.408 147.55 323.438 146.81 325.158 147.63C326.868 148.44 327.598 150.48 326.788 152.19C325.538 154.84 321.908 161.17 315.298 162.76C314.288 163 313.308 163.11 312.378 163.11Z" fill="#FFFFF7"/>
<path d="M274.398 161.67C281.668 161.67 287.548 155.78 287.548 148.52H261.238C261.248 155.78 267.138 161.67 274.398 161.67Z" fill="#FFFFF7"/>
<path d="M351.368 161.67C358.638 161.67 364.518 155.78 364.518 148.52H338.208C338.208 155.78 344.098 161.67 351.368 161.67Z" fill="#FFFFF7"/>
<path d="M537.238 199C535.968 200.43 534.918 202.09 534.168 203.94C525.628 224.92 508.978 239.16 489.838 239.16C489.798 239.15 489.758 239.13 489.718 239.12C482.088 236.57 473.838 236.57 466.208 239.12L466.088 239.16C462.728 239.16 444.868 238.71 430.438 219.45C426.787 214.58 423.698 208.97 421.308 202.8C420.938 201.85 420.478 200.96 419.938 200.12C414.088 200.03 408.248 199.98 402.398 199.69C394.348 199.29 386.368 199.1 378.298 199.38C373.298 199.55 368.288 199.74 363.288 199.62C362.478 201.22 362.018 203.02 362.018 204.94V245.01C362.018 270.92 372.518 294.38 389.498 311.36C416.358 338.22 449.598 338.84 455.848 338.84C459.098 338.02 462.358 337.21 465.608 336.39C473.708 334.36 482.188 334.36 490.288 336.39C493.538 337.21 496.798 338.02 500.048 338.84C551.868 338.84 593.878 296.83 593.878 245.01V210.3C593.878 206.08 592.348 202.21 589.818 199.22C572.298 199.09 554.768 199.02 537.238 199Z" fill="url(#paint3_radial_208_716)"/>
<path d="M589.398 212.16C589.168 221.37 588.938 230.59 588.708 239.8C588.708 288.46 549.288 328.09 500.698 328.44L491.568 326.15C487.118 325.04 482.538 324.48 477.968 324.48C473.388 324.48 468.818 325.04 464.368 326.15L455.238 328.44C445.878 328.35 416.728 326.02 393.188 302.48C376.448 285.74 367.228 263.48 367.228 239.8C366.078 229.09 364.918 218.37 363.768 207.66C363.418 205.47 363.078 203.28 362.728 201.08C362.708 201.09 362.688 201.11 362.668 201.12C359.028 203.61 356.848 207.73 356.848 212.15V239.8C356.848 266.25 367.148 291.12 385.848 309.82C397.828 321.8 412.348 330.25 429.008 334.96C440.328 338.15 449.858 338.82 455.868 338.82H456.508L466.888 336.22C474.138 334.4 481.798 334.4 489.048 336.22L499.428 338.82H499.468C525.378 338.82 550.398 328.93 568.998 310.89C578.878 301.3 586.498 290.03 591.598 277.71C597.298 263.94 598.128 252.03 599.088 239.8C600.118 226.69 599.538 215.68 598.758 207.84C598.588 207.29 598.208 206.35 597.338 205.54C595.438 203.76 592.878 204.14 592.508 204.2C591.478 206.85 590.438 209.5 589.398 212.16Z" fill="#51422A"/>
<path d="M542.817 214.78C542.687 219.4 542.547 224.01 542.417 228.63C542.417 253.02 519.517 272.88 491.287 273.05L485.987 271.9C483.397 271.34 480.747 271.06 478.087 271.06C475.427 271.06 472.767 271.34 470.187 271.9L464.887 273.05C459.447 273 442.517 271.84 428.837 260.04C419.107 251.65 413.757 240.5 413.757 228.63C413.087 223.26 412.417 217.89 411.747 212.52C411.547 211.42 411.347 210.32 411.147 209.22C411.137 209.23 411.127 209.23 411.117 209.24C408.997 210.49 407.737 212.55 407.737 214.77V228.63C407.737 241.88 413.717 254.35 424.587 263.72C431.547 269.72 439.977 273.96 449.667 276.32C456.237 277.92 461.777 278.26 465.267 278.26H465.637L471.667 276.96C475.877 276.05 480.327 276.05 484.547 276.96L490.577 278.26H490.597C505.647 278.26 520.187 273.31 530.987 264.26C536.727 259.46 541.157 253.81 544.117 247.63C547.427 240.73 547.907 234.76 548.467 228.63C549.067 222.06 548.727 216.54 548.277 212.61C548.177 212.33 547.957 211.86 547.447 211.46C546.347 210.57 544.857 210.76 544.647 210.79C544.027 212.12 543.417 213.45 542.817 214.78Z" fill="url(#paint4_radial_208_716)"/>
<path d="M430.158 243.7C429.538 240.98 429.198 239.63 428.188 236.84C427.878 235.97 427.178 235.66 426.318 236C423.558 237.1 422.368 237.64 419.878 239.08C415.988 241.34 414.558 246.43 416.798 250.2C417.468 251.33 418.738 252.19 419.928 252.73C421.118 253.27 422.598 253.64 423.898 253.39C428.198 252.56 431.158 248.09 430.158 243.7Z" fill="#FFAD5C"/>
<path d="M454.028 259.13C452.988 256.54 452.438 255.27 450.998 252.66C450.548 251.85 449.808 251.65 449.018 252.12C446.468 253.64 445.368 254.36 443.138 256.17C439.648 259.01 439.038 264.27 441.848 267.64C442.688 268.65 444.078 269.3 445.338 269.64C446.598 269.98 448.118 270.12 449.358 269.67C453.488 268.19 455.698 263.31 454.028 259.13Z" fill="#FFAD5C"/>
<path d="M484.058 262.48C482.548 260.13 481.768 258.98 479.868 256.7C479.278 255.99 478.518 255.93 477.828 256.55C475.608 258.52 474.668 259.43 472.818 261.64C469.928 265.09 470.308 270.36 473.698 273.15C474.718 273.99 476.198 274.36 477.498 274.46C478.798 274.56 480.318 274.41 481.458 273.74C485.228 271.48 486.488 266.27 484.058 262.48Z" fill="#FFAD5C"/>
<path d="M526.327 241.97C526.947 239.25 527.287 237.9 528.297 235.11C528.607 234.24 529.307 233.93 530.167 234.27C532.927 235.37 534.117 235.91 536.607 237.35C540.497 239.61 541.927 244.7 539.687 248.47C539.017 249.6 537.747 250.46 536.557 251C535.367 251.54 533.887 251.91 532.587 251.66C528.297 250.83 525.337 246.36 526.327 241.97Z" fill="#FFAD5C"/>
<path d="M501.078 260.86C502.118 258.27 502.668 257 504.108 254.39C504.558 253.58 505.298 253.38 506.088 253.85C508.638 255.37 509.738 256.09 511.968 257.9C515.458 260.74 516.068 266 513.258 269.37C512.418 270.38 511.028 271.03 509.768 271.37C508.508 271.71 506.988 271.85 505.748 271.4C501.628 269.92 499.408 265.04 501.078 260.86Z" fill="#FFAD5C"/>
<defs>
<radialGradient id="paint0_radial_208_716" cx="0" cy="0" r="1" gradientUnits="userSpaceOnUse" gradientTransform="translate(83.7965 217.077) rotate(-0.613103) scale(70.9748 137.669)">
<stop stop-color="#FE601C"/>
<stop offset="0.2511" stop-color="#FE691A"/>
<stop offset="0.6565" stop-color="#FD8116"/>
<stop offset="1" stop-color="#FC9A11"/>
</radialGradient>
<radialGradient id="paint1_radial_208_716" cx="0" cy="0" r="1" gradientUnits="userSpaceOnUse" gradientTransform="translate(97.6593 216.916) rotate(-90) scale(55.5208 55.5208)">
<stop stop-color="#FE601C"/>
<stop offset="0.2511" stop-color="#FE691A"/>
<stop offset="0.6565" stop-color="#FD8116"/>
<stop offset="1" stop-color="#FC9A11"/>
</radialGradient>
<radialGradient id="paint2_radial_208_716" cx="0" cy="0" r="1" gradientUnits="userSpaceOnUse" gradientTransform="translate(313.21 169.396) scale(152.249 202.704)">
<stop stop-color="#D2C96A"/>
<stop offset="0.346" stop-color="#C2BB5E"/>
<stop offset="1" stop-color="#999940"/>
</radialGradient>
<radialGradient id="paint3_radial_208_716" cx="0" cy="0" r="1" gradientUnits="userSpaceOnUse" gradientTransform="translate(478.024 268.996) rotate(-89.3869) scale(67.8442 131.597)">
<stop stop-color="#FE601C"/>
<stop offset="0.2511" stop-color="#FE691A"/>
<stop offset="0.6565" stop-color="#FD8116"/>
<stop offset="1" stop-color="#FC9A11"/>
</radialGradient>
<radialGradient id="paint4_radial_208_716" cx="0" cy="0" r="1" gradientUnits="userSpaceOnUse" gradientTransform="translate(478.24 243.744) scale(55.5207 55.5208)">
<stop stop-color="#FE601C"/>
<stop offset="0.2511" stop-color="#FE691A"/>
<stop offset="0.6565" stop-color="#FD8116"/>
<stop offset="1" stop-color="#FC9A11"/>
</radialGradient>
</defs>
</svg>
