<svg width="631" height="452" viewBox="0 0 631 452" fill="none" xmlns="http://www.w3.org/2000/svg">
<path d="M60.1795 416.656C96.4569 386.566 132.003 355.578 166.695 323.631C184.035 307.657 201.18 291.467 218.119 275.06C235.028 258.622 251.74 241.978 268.257 225.127C284.743 208.245 301.002 191.157 317.087 173.894C333.13 156.589 348.967 139.088 364.557 121.371C395.748 85.9356 426.011 49.6854 455.328 12.651C455.791 12.0628 456.646 11.9699 457.233 12.4343C457.81 12.8986 457.913 13.7345 457.47 14.3226C428.678 51.8214 398.909 88.5773 368.192 124.539C352.839 142.514 337.228 160.283 321.412 177.866C305.554 195.409 289.511 212.786 273.241 229.946C256.93 247.075 240.423 264.019 223.711 280.756C206.967 297.462 190.008 313.962 172.853 330.245C138.521 362.812 103.315 394.449 67.3361 425.2C64.9987 427.201 61.4873 426.923 59.4896 424.58C57.4919 422.238 57.77 418.719 60.1074 416.717C60.1177 416.707 60.1383 416.697 60.1486 416.686L60.1795 416.656Z" fill="url(#paint0_radial_208_718)"/>
<path d="M454.195 20.2869C459.785 20.2869 464.317 15.7455 464.317 10.1434C464.317 4.54133 459.785 0 454.195 0C448.605 0 444.073 4.54133 444.073 10.1434C444.073 15.7455 448.605 20.2869 454.195 20.2869Z" fill="url(#paint1_radial_208_718)"/>
<path d="M448.532 58.1158C454.122 58.1158 458.654 53.5744 458.654 47.9723C458.654 42.3703 454.122 37.8289 448.532 37.8289C442.941 37.8289 438.409 42.3703 438.409 47.9723C438.409 53.5744 442.941 58.1158 448.532 58.1158Z" fill="url(#paint2_radial_208_718)"/>
<path d="M400.083 74.7293C405.673 74.7293 410.205 70.1879 410.205 64.5858C410.205 58.9837 405.673 54.4424 400.083 54.4424C394.493 54.4424 389.961 58.9837 389.961 64.5858C389.961 70.1879 394.493 74.7293 400.083 74.7293Z" fill="url(#paint3_radial_208_718)"/>
<path d="M368.954 116.779C374.545 116.779 379.077 112.237 379.077 106.635C379.077 101.033 374.545 96.4917 368.954 96.4917C363.364 96.4917 358.832 101.033 358.832 106.635C358.832 112.237 363.364 116.779 368.954 116.779Z" fill="url(#paint4_radial_208_718)"/>
<path d="M357.195 164.782C362.785 164.782 367.317 160.241 367.317 154.639C367.317 149.037 362.785 144.495 357.195 144.495C351.605 144.495 347.073 149.037 347.073 154.639C347.073 160.241 351.605 164.782 357.195 164.782Z" fill="url(#paint5_radial_208_718)"/>
<path d="M302.485 189.372C308.076 189.372 312.608 184.83 312.608 179.228C312.608 173.626 308.076 169.085 302.485 169.085C296.895 169.085 292.363 173.626 292.363 179.228C292.363 184.83 296.895 189.372 302.485 189.372Z" fill="url(#paint6_radial_208_718)"/>
<path d="M324.285 151.037C327.504 151.037 330.113 148.423 330.113 145.197C330.113 141.971 327.504 139.356 324.285 139.356C321.066 139.356 318.456 141.971 318.456 145.197C318.456 148.423 321.066 151.037 324.285 151.037Z" fill="url(#paint7_radial_208_718)"/>
<path d="M336.075 120.122C339.294 120.122 341.903 117.507 341.903 114.281C341.903 111.056 339.294 108.441 336.075 108.441C332.856 108.441 330.246 111.056 330.246 114.281C330.246 117.507 332.856 120.122 336.075 120.122Z" fill="url(#paint8_radial_208_718)"/>
<path d="M388.869 138.232C392.088 138.232 394.697 135.617 394.697 132.391C394.697 129.166 392.088 126.551 388.869 126.551C385.65 126.551 383.041 129.166 383.041 132.391C383.041 135.617 385.65 138.232 388.869 138.232Z" fill="url(#paint9_radial_208_718)"/>
<path d="M377.419 80.2498C380.638 80.2498 383.247 77.6349 383.247 74.4093C383.247 71.1837 380.638 68.5688 377.419 68.5688C374.2 68.5688 371.591 71.1837 371.591 74.4093C371.591 77.6349 374.2 80.2498 377.419 80.2498Z" fill="url(#paint10_radial_208_718)"/>
<path d="M430.347 83.4798C433.566 83.4798 436.175 80.865 436.175 77.6393C436.175 74.4137 433.566 71.7988 430.347 71.7988C427.128 71.7988 424.519 74.4137 424.519 77.6393C424.519 80.865 427.128 83.4798 430.347 83.4798Z" fill="url(#paint11_radial_208_718)"/>
<path d="M369.15 149.159C361.283 127.902 352.922 113.322 336.199 84.1504C298.737 18.8009 284.795 16.0974 278.235 16.3244C277.988 16.3347 277.751 16.3554 277.504 16.376C277.257 16.3554 277.02 16.3347 276.773 16.3244C270.214 16.0974 256.271 18.7906 218.81 84.1504C202.087 113.322 193.726 127.902 185.858 149.159C175.221 177.897 165.449 204.293 167.323 238.933C168.332 257.487 170.917 305.346 208.513 336.963C219.582 346.27 243.997 362.843 277.041 361.976C277.195 361.976 277.35 361.966 277.504 361.955C277.659 361.955 277.813 361.966 277.968 361.976C311.012 362.843 335.427 346.27 346.496 336.963C384.092 305.346 386.676 257.487 387.685 238.933C389.559 204.303 379.787 177.908 369.15 149.159Z" fill="url(#paint12_radial_208_718)"/>
<path d="M260.73 165.05C259.803 169.343 270.039 178.888 281.067 176.453C289.315 174.626 295.854 166.578 294.268 162.749C291.488 156.042 262.151 158.477 260.73 165.05Z" fill="white"/>
<path d="M247.457 150.862C242.164 145.558 233.586 145.558 228.304 150.862C223.011 156.166 223.011 164.761 228.304 170.055C233.597 175.359 242.174 175.359 247.457 170.055C252.75 164.751 252.75 156.156 247.457 150.862ZM245.696 168.29C241.381 172.614 234.39 172.614 230.065 168.29L245.686 152.626C250.011 156.95 250.011 163.967 245.696 168.29Z" fill="white"/>
<path d="M326.705 150.862C321.412 145.558 312.834 145.558 307.552 150.862C302.259 156.166 302.259 164.761 307.552 170.055C312.845 175.359 321.422 175.359 326.705 170.055C331.998 164.751 331.998 156.156 326.705 150.862ZM324.944 168.29C320.629 172.614 313.637 172.614 309.313 168.29L324.934 152.626C329.258 156.95 329.258 163.967 324.944 168.29Z" fill="white"/>
<path d="M4.25522 438.666C58.1719 415.995 111.543 391.993 164.234 366.547C190.574 353.813 216.76 340.76 242.792 327.377C268.793 313.941 294.629 300.186 320.3 286.132C345.95 272.026 371.405 257.569 396.716 242.855C421.986 228.078 447.09 212.992 471.989 197.565C521.777 166.712 570.761 134.537 618.89 101.115C619.652 100.588 620.703 100.774 621.228 101.538C621.753 102.291 621.568 103.333 620.826 103.87C573.15 138.046 524.578 170.984 475.171 202.642C450.468 218.471 425.538 233.949 400.433 249.139C375.287 264.266 349.987 279.125 324.48 293.654C298.953 308.132 273.251 322.31 247.374 336.168C221.477 349.985 195.404 363.462 169.166 376.639C116.681 402.952 63.475 427.851 9.6819 451.42C6.18082 452.947 2.11339 451.358 0.579091 447.849C-0.944909 444.341 0.640874 440.265 4.14195 438.728C4.16255 438.717 4.18314 438.707 4.20374 438.697L4.25522 438.666Z" fill="url(#paint13_radial_208_718)"/>
<path d="M618.437 110.298C625.375 110.298 631 104.662 631 97.7094C631 90.7567 625.375 85.1204 618.437 85.1204C611.499 85.1204 605.875 90.7567 605.875 97.7094C605.875 104.662 611.499 110.298 618.437 110.298Z" fill="url(#paint14_radial_208_718)"/>
<path d="M598.121 153.204C605.059 153.204 610.684 147.568 610.684 140.615C610.684 133.663 605.059 128.026 598.121 128.026C591.183 128.026 585.559 133.663 585.559 140.615C585.559 147.568 591.183 153.204 598.121 153.204Z" fill="url(#paint15_radial_208_718)"/>
<path d="M534.576 155.485C541.514 155.485 547.138 149.849 547.138 142.896C547.138 135.943 541.514 130.307 534.576 130.307C527.637 130.307 522.013 135.943 522.013 142.896C522.013 149.849 527.637 155.485 534.576 155.485Z" fill="url(#paint16_radial_208_718)"/>
<path d="M482.503 194.222C489.441 194.222 495.066 188.586 495.066 181.633C495.066 174.68 489.441 169.044 482.503 169.044C475.565 169.044 469.94 174.68 469.94 181.633C469.94 188.586 475.565 194.222 482.503 194.222Z" fill="url(#paint17_radial_208_718)"/>
<path d="M451.281 247.024C458.219 247.024 463.844 241.387 463.844 234.434C463.844 227.482 458.219 221.845 451.281 221.845C444.343 221.845 438.719 227.482 438.719 234.434C438.719 241.387 444.343 247.024 451.281 247.024Z" fill="url(#paint18_radial_208_718)"/>
<path d="M377.439 256.507C384.378 256.507 390.002 250.87 390.002 243.918C390.002 236.965 384.378 231.329 377.439 231.329C370.501 231.329 364.877 236.965 364.877 243.918C364.877 250.87 370.501 256.507 377.439 256.507Z" fill="url(#paint19_radial_208_718)"/>
<path d="M415.57 218.605C419.568 218.605 422.809 215.358 422.809 211.351C422.809 207.345 419.568 204.097 415.57 204.097C411.572 204.097 408.331 207.345 408.331 211.351C408.331 215.358 411.572 218.605 415.57 218.605Z" fill="url(#paint20_radial_208_718)"/>
<path d="M440.675 186.111C444.673 186.111 447.914 182.863 447.914 178.857C447.914 174.851 444.673 171.603 440.675 171.603C436.677 171.603 433.436 174.851 433.436 178.857C433.436 182.863 436.677 186.111 440.675 186.111Z" fill="url(#paint21_radial_208_718)"/>
<path d="M496.909 226.665C500.907 226.665 504.148 223.417 504.148 219.41C504.148 215.404 500.907 212.156 496.909 212.156C492.911 212.156 489.67 215.404 489.67 219.41C489.67 223.417 492.911 226.665 496.909 226.665Z" fill="url(#paint22_radial_208_718)"/>
<path d="M504.117 153.648C508.115 153.648 511.356 150.4 511.356 146.394C511.356 142.387 508.115 139.14 504.117 139.14C500.119 139.14 496.878 142.387 496.878 146.394C496.878 150.4 500.119 153.648 504.117 153.648Z" fill="url(#paint23_radial_208_718)"/>
<path d="M565.849 176.566C569.847 176.566 573.088 173.319 573.088 169.312C573.088 165.306 569.847 162.058 565.849 162.058C561.851 162.058 558.61 165.306 558.61 169.312C558.61 173.319 561.851 176.566 565.849 176.566Z" fill="url(#paint24_radial_208_718)"/>
<defs>
<radialGradient id="paint0_radial_208_718" cx="0" cy="0" r="1" gradientUnits="userSpaceOnUse" gradientTransform="translate(260.082 217.178) rotate(-37.823) scale(204.477 272.394)">
<stop stop-color="#E1BD38"/>
<stop offset="0.4305" stop-color="#D1AE3F"/>
<stop offset="1" stop-color="#B5954C"/>
</radialGradient>
<radialGradient id="paint1_radial_208_718" cx="0" cy="0" r="1" gradientUnits="userSpaceOnUse" gradientTransform="translate(454.207 10.0948) rotate(-37.823) scale(10.1283 13.4923)">
<stop stop-color="#E1BD38"/>
<stop offset="0.4305" stop-color="#D1AE3F"/>
<stop offset="1" stop-color="#B5954C"/>
</radialGradient>
<radialGradient id="paint2_radial_208_718" cx="0" cy="0" r="1" gradientUnits="userSpaceOnUse" gradientTransform="translate(448.54 47.9268) rotate(-37.8231) scale(10.1283 13.4924)">
<stop stop-color="#E1BD38"/>
<stop offset="0.4305" stop-color="#D1AE3F"/>
<stop offset="1" stop-color="#B5954C"/>
</radialGradient>
<radialGradient id="paint3_radial_208_718" cx="0" cy="0" r="1" gradientUnits="userSpaceOnUse" gradientTransform="translate(400.093 64.545) rotate(-37.823) scale(10.1283 13.4923)">
<stop stop-color="#E1BD38"/>
<stop offset="0.4305" stop-color="#D1AE3F"/>
<stop offset="1" stop-color="#B5954C"/>
</radialGradient>
<radialGradient id="paint4_radial_208_718" cx="0" cy="0" r="1" gradientUnits="userSpaceOnUse" gradientTransform="translate(368.973 106.587) rotate(-37.823) scale(10.1283 13.4923)">
<stop stop-color="#E1BD38"/>
<stop offset="0.4305" stop-color="#D1AE3F"/>
<stop offset="1" stop-color="#B5954C"/>
</radialGradient>
<radialGradient id="paint5_radial_208_718" cx="0" cy="0" r="1" gradientUnits="userSpaceOnUse" gradientTransform="translate(357.209 154.596) rotate(-37.8231) scale(10.1283 13.4924)">
<stop stop-color="#E1BD38"/>
<stop offset="0.4305" stop-color="#D1AE3F"/>
<stop offset="1" stop-color="#B5954C"/>
</radialGradient>
<radialGradient id="paint6_radial_208_718" cx="0" cy="0" r="1" gradientUnits="userSpaceOnUse" gradientTransform="translate(302.506 179.18) rotate(-37.8231) scale(10.1283 13.4924)">
<stop stop-color="#E1BD38"/>
<stop offset="0.4305" stop-color="#D1AE3F"/>
<stop offset="1" stop-color="#B5954C"/>
</radialGradient>
<radialGradient id="paint7_radial_208_718" cx="0" cy="0" r="1" gradientUnits="userSpaceOnUse" gradientTransform="translate(324.304 145.153) rotate(-37.8231) scale(5.83139 7.76827)">
<stop stop-color="#E1BD38"/>
<stop offset="0.4305" stop-color="#D1AE3F"/>
<stop offset="1" stop-color="#B5954C"/>
</radialGradient>
<radialGradient id="paint8_radial_208_718" cx="0" cy="0" r="1" gradientUnits="userSpaceOnUse" gradientTransform="translate(336.089 114.232) rotate(-37.823) scale(5.8314 7.76828)">
<stop stop-color="#E1BD38"/>
<stop offset="0.4305" stop-color="#D1AE3F"/>
<stop offset="1" stop-color="#B5954C"/>
</radialGradient>
<radialGradient id="paint9_radial_208_718" cx="0" cy="0" r="1" gradientUnits="userSpaceOnUse" gradientTransform="translate(388.883 132.339) rotate(-37.8229) scale(5.83138 7.76825)">
<stop stop-color="#E1BD38"/>
<stop offset="0.4305" stop-color="#D1AE3F"/>
<stop offset="1" stop-color="#B5954C"/>
</radialGradient>
<radialGradient id="paint10_radial_208_718" cx="0" cy="0" r="1" gradientUnits="userSpaceOnUse" gradientTransform="translate(377.427 74.3664) rotate(-37.8229) scale(5.83139 7.76826)">
<stop stop-color="#E1BD38"/>
<stop offset="0.4305" stop-color="#D1AE3F"/>
<stop offset="1" stop-color="#B5954C"/>
</radialGradient>
<radialGradient id="paint11_radial_208_718" cx="0" cy="0" r="1" gradientUnits="userSpaceOnUse" gradientTransform="translate(430.356 77.595) rotate(-37.8231) scale(5.83139 7.76827)">
<stop stop-color="#E1BD38"/>
<stop offset="0.4305" stop-color="#D1AE3F"/>
<stop offset="1" stop-color="#B5954C"/>
</radialGradient>
<radialGradient id="paint12_radial_208_718" cx="0" cy="0" r="1" gradientUnits="userSpaceOnUse" gradientTransform="translate(396.211 189.146) scale(146.543 195.516)">
<stop stop-color="#E18929"/>
<stop offset="0.4305" stop-color="#D17F31"/>
<stop offset="1" stop-color="#B56E40"/>
</radialGradient>
<radialGradient id="paint13_radial_208_718" cx="0" cy="0" r="1" gradientUnits="userSpaceOnUse" gradientTransform="translate(313.412 273.749) rotate(-20.9562) scale(253.749 338.376)">
<stop stop-color="#E1BD38"/>
<stop offset="0.4305" stop-color="#D1AE3F"/>
<stop offset="1" stop-color="#B5954C"/>
</radialGradient>
<radialGradient id="paint14_radial_208_718" cx="0" cy="0" r="1" gradientUnits="userSpaceOnUse" gradientTransform="translate(618.443 97.6992) rotate(-20.9562) scale(12.5688 16.7606)">
<stop stop-color="#E1BD38"/>
<stop offset="0.4305" stop-color="#D1AE3F"/>
<stop offset="1" stop-color="#B5954C"/>
</radialGradient>
<radialGradient id="paint15_radial_208_718" cx="0" cy="0" r="1" gradientUnits="userSpaceOnUse" gradientTransform="translate(598.123 140.613) rotate(-20.9562) scale(12.5688 16.7606)">
<stop stop-color="#E1BD38"/>
<stop offset="0.4305" stop-color="#D1AE3F"/>
<stop offset="1" stop-color="#B5954C"/>
</radialGradient>
<radialGradient id="paint16_radial_208_718" cx="0" cy="0" r="1" gradientUnits="userSpaceOnUse" gradientTransform="translate(534.584 142.888) rotate(-20.9562) scale(12.5688 16.7606)">
<stop stop-color="#E1BD38"/>
<stop offset="0.4305" stop-color="#D1AE3F"/>
<stop offset="1" stop-color="#B5954C"/>
</radialGradient>
<radialGradient id="paint17_radial_208_718" cx="0" cy="0" r="1" gradientUnits="userSpaceOnUse" gradientTransform="translate(482.506 181.624) rotate(-20.9562) scale(12.5688 16.7606)">
<stop stop-color="#E1BD38"/>
<stop offset="0.4305" stop-color="#D1AE3F"/>
<stop offset="1" stop-color="#B5954C"/>
</radialGradient>
<radialGradient id="paint18_radial_208_718" cx="0" cy="0" r="1" gradientUnits="userSpaceOnUse" gradientTransform="translate(451.283 234.431) rotate(-20.9562) scale(12.5688 16.7606)">
<stop stop-color="#E1BD38"/>
<stop offset="0.4305" stop-color="#D1AE3F"/>
<stop offset="1" stop-color="#B5954C"/>
</radialGradient>
<radialGradient id="paint19_radial_208_718" cx="0" cy="0" r="1" gradientUnits="userSpaceOnUse" gradientTransform="translate(377.451 243.918) rotate(-20.9562) scale(12.5688 16.7606)">
<stop stop-color="#E1BD38"/>
<stop offset="0.4305" stop-color="#D1AE3F"/>
<stop offset="1" stop-color="#B5954C"/>
</radialGradient>
<radialGradient id="paint20_radial_208_718" cx="0" cy="0" r="1" gradientUnits="userSpaceOnUse" gradientTransform="translate(415.575 211.343) rotate(-20.9561) scale(7.23657 9.65001)">
<stop stop-color="#E1BD38"/>
<stop offset="0.4305" stop-color="#D1AE3F"/>
<stop offset="1" stop-color="#B5954C"/>
</radialGradient>
<radialGradient id="paint21_radial_208_718" cx="0" cy="0" r="1" gradientUnits="userSpaceOnUse" gradientTransform="translate(440.685 178.85) rotate(-20.9563) scale(7.23658 9.65009)">
<stop stop-color="#E1BD38"/>
<stop offset="0.4305" stop-color="#D1AE3F"/>
<stop offset="1" stop-color="#B5954C"/>
</radialGradient>
<radialGradient id="paint22_radial_208_718" cx="0" cy="0" r="1" gradientUnits="userSpaceOnUse" gradientTransform="translate(496.915 219.406) rotate(-20.9563) scale(7.23658 9.65009)">
<stop stop-color="#E1BD38"/>
<stop offset="0.4305" stop-color="#D1AE3F"/>
<stop offset="1" stop-color="#B5954C"/>
</radialGradient>
<radialGradient id="paint23_radial_208_718" cx="0" cy="0" r="1" gradientUnits="userSpaceOnUse" gradientTransform="translate(504.123 146.384) rotate(-20.9562) scale(7.23658 9.65005)">
<stop stop-color="#E1BD38"/>
<stop offset="0.4305" stop-color="#D1AE3F"/>
<stop offset="1" stop-color="#B5954C"/>
</radialGradient>
<radialGradient id="paint24_radial_208_718" cx="0" cy="0" r="1" gradientUnits="userSpaceOnUse" gradientTransform="translate(565.857 169.309) rotate(-20.9562) scale(7.23658 9.65005)">
<stop stop-color="#E1BD38"/>
<stop offset="0.4305" stop-color="#D1AE3F"/>
<stop offset="1" stop-color="#B5954C"/>
</radialGradient>
</defs>
</svg>
