<svg width="330" height="538" viewBox="0 0 330 538" fill="none" xmlns="http://www.w3.org/2000/svg">
<path d="M316.26 173.129C312.421 159.105 306.337 148.467 301.51 141.437C301.042 135.993 299.329 124.606 291.481 113.009C282.47 99.6911 270.58 93.7789 265.586 91.6242C252.829 70.094 239.585 62.7499 229.909 60.0004C224.677 58.5129 206.935 51.6698 190.862 58.5715C160.932 71.4258 170.988 116.151 144.349 137.103C130.772 147.775 105.838 153.711 56.2336 135.408C31.2453 134.424 9.8724 147.179 3.08481 165.992C-1.53355 178.796 1.9027 190.824 3.81522 196.13C1.80093 204.406 -0.0946333 216.52 1.29306 230.994C3.4097 252.97 12.0299 269.115 17.3964 277.563C20.6172 312.421 33.9198 331.474 41.7897 340.492C60.2806 361.674 79.8538 372.843 79.8538 372.843C84.2992 377.701 90.7996 385.498 96.9881 396.162C104.046 408.321 104.101 412.838 109.036 418.988C119.68 432.259 137.895 434.217 148.446 435.351C180.165 438.758 189.992 423.435 211.299 431.674C225.696 437.243 225.276 445.805 236.138 446.421C259.402 447.741 278.136 409.383 280.004 405.461C287.27 390.183 289.006 376.075 289.406 367.254C298.874 351.156 311.699 324.755 317.304 289.884C321.729 262.387 320.166 238.909 317.736 222.394C319.774 212.577 322.093 194.422 316.26 173.129Z" fill="url(#paint0_radial_208_594)"/>
<path d="M117.785 360.934C124.123 348.633 130.544 333.383 135.24 315.352C137.279 307.519 138.761 300.055 139.819 293.091C138.42 293.888 137.02 294.686 135.623 295.492C135.228 297.692 134.691 300.106 133.973 302.67C133.238 305.291 132.333 308.023 131.196 310.814C124.956 326.121 114.734 336.474 106.77 342.88C110.436 348.902 114.11 354.914 117.785 360.934Z" fill="url(#paint1_radial_208_594)"/>
<path d="M105.14 366.029C92.8329 360.549 73.4815 349.708 57.7371 329.051C52.6258 322.345 48.7566 315.737 45.8088 309.705C47.3966 309.975 48.9844 310.245 50.5738 310.524C55.2439 317.74 63.0081 327.84 75.0652 337.055C83.7998 343.725 92.2243 347.977 98.8677 350.711C100.957 355.811 103.049 360.92 105.14 366.029Z" fill="url(#paint2_radial_208_594)"/>
<path d="M79.0766 299.19C67.1092 286.71 53.275 269.831 40.8138 248.08C33.3394 235.032 27.7233 222.613 23.4705 211.487C25.0583 211.757 26.6461 212.027 28.2354 212.306C33.0117 222.265 39.9395 234.462 49.9247 247.192C59.6071 259.534 69.4729 268.938 77.7986 275.842C78.2265 283.618 78.6471 291.405 79.0766 299.19Z" fill="url(#paint3_radial_208_594)"/>
<path d="M242.681 337.447C231.051 327.895 217.657 314.783 205.408 297.245C200.756 290.585 196.814 284.079 193.48 277.899C195.068 278.169 196.656 278.439 198.245 278.718C199.37 280.649 200.702 282.734 202.255 284.896C202.255 284.896 204.665 288.243 207.653 291.596C211.48 295.875 224.623 306.748 243.762 319.396C243.411 325.414 243.041 331.427 242.681 337.447Z" fill="url(#paint4_radial_208_594)"/>
<path d="M232.309 177.82C237.368 163.425 242.024 145.013 243.204 123.397C243.61 115.907 243.563 108.857 243.209 102.314C241.633 102.827 240.068 103.347 238.492 103.86C239.098 108.31 239.42 113.344 239.151 118.86C238.265 137.193 231.322 151.326 226.237 159.606C228.264 165.674 230.281 171.744 232.309 177.82Z" fill="url(#paint5_radial_208_594)"/>
<path d="M254.557 255.333C260.531 246.273 268.759 231.363 273.163 211.326C278.396 187.514 275.777 167.589 273.418 156.273C272.078 156.744 270.731 157.226 269.392 157.697C270.338 166.979 270.694 182.205 265.423 199.832C261.134 214.2 254.659 224.964 249.698 231.905C251.32 239.714 252.934 247.524 254.557 255.333Z" fill="url(#paint6_radial_208_594)"/>
<path d="M253.738 335.494C261.772 327.794 276.11 311.886 283.733 287.327C288.243 272.785 288.956 259.889 288.68 250.732C287.186 251.709 285.702 252.684 284.208 253.661C283.745 260.574 282.257 270.404 277.67 281.25C270.747 297.635 260.285 308.003 254.092 313.275C253.978 320.687 253.863 328.09 253.738 335.494Z" fill="url(#paint7_radial_208_594)"/>
<path d="M239.298 253.741C236.352 231.961 232.382 216.832 227.072 196.606C216.127 154.939 203.276 121.497 193.301 98.2683C193.86 96.0305 194.41 93.7856 194.969 91.5478C224.574 144.937 285.807 274.235 245.532 414.108C239.62 434.638 232.053 453.546 223.477 470.873C216.989 461.063 210.509 451.251 204.023 441.449C207.625 435.993 212.04 428.815 216.838 419.159C216.838 419.159 225.745 401.566 231.898 382.05C239.017 359.484 245.173 313.109 239.298 253.741Z" fill="url(#paint8_radial_208_594)"/>
<path d="M97.6341 158.026C92.8503 156.489 88.0577 154.953 83.2739 153.415C78.4761 170.715 43.0035 306.572 124.647 399.73C144.171 422.003 166.441 437.329 187.347 447.95C183.764 435.722 180.173 423.496 176.59 411.268C159.451 401.38 146.539 390.232 136.792 379.715C63.8243 301.054 92.8337 177.249 97.6341 158.026Z" fill="url(#paint9_radial_208_594)"/>
<path d="M182.255 414.077C180.692 414.402 179.061 414.051 177.773 413.085C158.672 398.912 146.414 382.925 141.35 365.551C140.758 363.532 140.277 361.526 139.811 359.589C138.27 353.228 136.821 347.221 131.809 340.938C126.955 334.849 121.66 332.174 114.95 328.786C113.147 327.872 111.274 326.927 109.295 325.859C108.449 325.409 88.3969 314.457 69.0024 293.255C54.4874 277.393 45.1208 255.231 41.8593 229.103C32.5125 214.744 26.5188 198.343 24.5024 181.597C23.0884 169.836 23.5955 157.947 25.9899 146.247C23.8539 138.766 22.1334 127.623 24.8522 114.739C27.8928 100.353 35.0532 90.0944 40.9907 83.7121C44.3175 63.4301 52.0257 48.4457 63.915 39.1458C70.1086 34.2988 75.2725 32.6889 80.7331 30.981C85.8189 29.3873 91.5867 27.5883 100.198 22.6469C109.683 17.2059 114.65 12.5596 118.64 8.83369C122.628 5.09911 126.079 1.87561 131.593 0.728516C132.739 0.490063 133.916 0.354205 135.192 0.306518C155.31 -0.401958 170.294 23.5508 179.251 37.8641C188.289 52.3057 194.486 68.2915 197.699 85.3884C201.264 90.2023 204.267 95.4055 206.635 100.868C210.539 109.878 212.687 119.462 213.041 129.392C218.203 134.264 222.618 139.809 226.169 145.906C232.054 155.992 235.49 167.542 236.176 179.463C248.325 190.743 266.48 212.303 265.48 239.762C265.457 240.393 265.325 241.02 265.095 241.612C258.653 258.067 250.482 272.612 240.791 284.859C234.874 292.344 230.27 298.386 221.108 310.432C212.471 321.779 211.636 323.123 211.223 324.925C209.978 330.349 211.919 334.366 215.745 341.568C218.245 346.268 221.075 351.598 223.011 358.466C226.574 371.106 225.867 385.169 220.917 400.26C220.341 402.023 218.931 403.388 217.154 403.902L182.674 413.953C182.549 414.007 182.403 414.046 182.255 414.077Z" fill="url(#paint10_radial_208_594)"/>
<path d="M96.0439 164.798C105.309 169.533 113.904 171.44 120.006 172.249C119.557 169.002 119.117 165.753 118.668 162.506C113.771 162.571 105.554 162.047 96.3831 158.155C84.4712 153.107 77.3715 145.107 74.1895 141.003C72.0034 140.423 69.8086 139.845 67.6206 139.256C71.7327 145.436 80.5844 156.893 96.0439 164.798Z" fill="url(#paint11_radial_208_594)"/>
<path d="M129.838 110.082C135.602 107.612 143.484 103.476 151.517 96.5847C158.505 90.592 163.368 84.4423 166.613 79.6187C164.998 79.6096 163.393 79.5986 161.778 79.5896C158.89 82.9954 155.11 86.8592 150.277 90.6244C142.519 96.6593 134.935 100.18 129.251 102.252C129.441 104.863 129.64 107.472 129.838 110.082Z" fill="url(#paint12_radial_208_594)"/>
<path d="M151.17 225.898C152.9 231.992 154.628 238.078 156.349 244.174C163.992 239.806 175.376 232.082 186.014 219.339C197.328 205.792 202.991 192.341 205.854 183.766C203.659 184.794 201.456 185.834 199.26 186.862C194.994 194.268 186.612 206.406 171.887 216.051C164.299 221.033 157.024 224.035 151.17 225.898Z" fill="url(#paint13_radial_208_594)"/>
<path d="M134.02 160.011C134.287 162.951 134.555 165.891 134.822 168.831C140.677 165.707 147.364 161.493 154.182 155.817C167.565 144.681 175.924 132.521 180.935 123.644C179.174 124.582 177.423 125.528 175.661 126.466C170.018 133.522 161.954 142.054 150.883 149.931C144.944 154.171 139.204 157.453 134.02 160.011Z" fill="url(#paint14_radial_208_594)"/>
<path d="M215.852 230.478C212.88 238.922 206.278 253.912 191.868 267.204C183.782 274.669 175.639 279.377 169.327 282.351C171.204 288.37 173.075 294.398 174.952 300.417C182.538 294.772 192.157 286.316 201.131 274.282C214.509 256.33 220.307 238.611 222.998 227.421C220.62 228.443 218.233 229.466 215.852 230.478Z" fill="url(#paint15_radial_208_594)"/>
<path d="M93.3504 102.122C102.299 108.948 111.559 110.481 115.871 110.918C116.026 108.353 116.181 105.788 116.336 103.223C112.72 103.131 104.838 102.429 96.8232 97.2605C85.808 90.1657 82.0647 79.4882 81.0929 76.3407C79.5431 75.5102 77.9847 74.6815 76.4349 73.8511C77.0715 77.4769 80.042 91.9734 93.3504 102.122Z" fill="url(#paint16_radial_208_594)"/>
<path d="M142.019 248.19C139.708 241.526 137.409 234.87 135.098 228.206C128.717 227.319 120.92 225.591 112.47 222.202C95.7468 215.496 84.4208 205.47 77.908 198.637C75.7919 198.959 73.6775 199.29 71.5613 199.612C79.4005 209.338 91.9538 222.476 110.377 233.694C122.004 240.771 132.994 245.265 142.019 248.19Z" fill="url(#paint17_radial_208_594)"/>
<path d="M155.176 286.566C145.494 284.659 134.244 281.661 122.12 276.858C102.471 269.063 87.2337 259.179 76.3471 250.786C74.3438 251.085 72.3336 251.394 70.3303 251.693C79.7735 262.074 95.3054 276.554 117.909 288.101C133.833 296.235 148.573 300.503 159.941 302.85C158.35 297.425 156.768 291.999 155.176 286.566Z" fill="url(#paint18_radial_208_594)"/>
<path d="M134.804 165.258C126.224 125.803 126.773 90.3395 126.773 90.3395C127.098 69.1296 129.58 51.8376 131.602 40.6143L127.428 40.4479C125.267 50.311 122.337 65.4451 120.3 84.088C120.3 84.088 116.03 123.176 119.545 167.725C123.084 212.604 148.914 339.158 197.363 506.986C201.988 522.99 218.755 532.519 234.657 527.659C235.082 527.525 235.507 527.391 235.93 527.249C236.354 527.106 236.782 526.944 237.193 526.786C255.395 519.786 263.555 498.481 255.362 480.74C165.728 286.731 142.847 202.265 134.804 165.258Z" fill="url(#paint19_radial_208_594)"/>
<path d="M131.189 197.047C131.589 200.886 142.747 206.054 151.291 201.008C157.688 197.226 160.945 188.714 158.576 185.948C154.415 181.104 130.581 191.164 131.189 197.047Z" fill="#534741"/>
<path d="M116.216 188.824C110.35 185.841 103.185 188.194 100.213 194.069C97.2403 199.943 99.5949 207.124 105.461 210.107C111.326 213.089 118.492 210.736 121.464 204.862C124.436 198.987 122.09 191.805 116.216 188.824ZM119.509 203.871C117.083 208.669 111.238 210.575 106.457 208.147L115.23 190.79C120.019 193.216 121.935 199.072 119.509 203.871Z" fill="#534741"/>
<path d="M182.419 167.136C176.553 164.153 169.387 166.506 166.415 172.38C163.443 178.255 165.797 185.436 171.663 188.418C177.529 191.401 184.694 189.048 187.667 183.174C190.637 177.291 188.284 170.118 182.419 167.136ZM185.71 182.174C183.284 186.972 177.439 188.878 172.658 186.45L181.431 169.093C186.213 171.53 188.129 177.386 185.71 182.174Z" fill="#534741"/>
<defs>
<radialGradient id="paint0_radial_208_594" cx="0" cy="0" r="1" gradientUnits="userSpaceOnUse" gradientTransform="translate(169.501 260.414) rotate(-10.4102) scale(178.67 238.374)">
<stop stop-color="#5AA668"/>
<stop offset="0.4873" stop-color="#56965F"/>
<stop offset="1" stop-color="#508054"/>
</radialGradient>
<radialGradient id="paint1_radial_208_594" cx="0" cy="0" r="1" gradientUnits="userSpaceOnUse" gradientTransform="translate(337.133 628.324) rotate(-138.413) scale(91.0495 159.171)">
<stop stop-color="#C8DE90"/>
<stop offset="0.457" stop-color="#B8DE8E"/>
<stop offset="1" stop-color="#9FDE8C"/>
</radialGradient>
<radialGradient id="paint2_radial_208_594" cx="0" cy="0" r="1" gradientUnits="userSpaceOnUse" gradientTransform="translate(66.4912 631.38) rotate(-61.6213) scale(71.666 125.285)">
<stop stop-color="#C8DE90"/>
<stop offset="0.457" stop-color="#B8DE8E"/>
<stop offset="1" stop-color="#9FDE8C"/>
</radialGradient>
<radialGradient id="paint3_radial_208_594" cx="0" cy="0" r="1" gradientUnits="userSpaceOnUse" gradientTransform="translate(-177.472 877.23) rotate(-61.6213) scale(164.868 288.22)">
<stop stop-color="#C8DE90"/>
<stop offset="0.457" stop-color="#B8DE8E"/>
<stop offset="1" stop-color="#9FDE8C"/>
</radialGradient>
<radialGradient id="paint4_radial_208_594" cx="0" cy="0" r="1" gradientUnits="userSpaceOnUse" gradientTransform="translate(151.313 651.967) rotate(-61.6214) scale(86.7997 151.742)">
<stop stop-color="#C8DE90"/>
<stop offset="0.457" stop-color="#B8DE8E"/>
<stop offset="1" stop-color="#9FDE8C"/>
</radialGradient>
<radialGradient id="paint5_radial_208_594" cx="0" cy="0" r="1" gradientUnits="userSpaceOnUse" gradientTransform="translate(655.807 568.636) rotate(-138.413) scale(149.491 261.337)">
<stop stop-color="#C8DE90"/>
<stop offset="0.457" stop-color="#B8DE8E"/>
<stop offset="1" stop-color="#9FDE8C"/>
</radialGradient>
<radialGradient id="paint6_radial_208_594" cx="0" cy="0" r="1" gradientUnits="userSpaceOnUse" gradientTransform="translate(728.766 724.123) rotate(-138.413) scale(173.463 303.246)">
<stop stop-color="#C8DE90"/>
<stop offset="0.457" stop-color="#B8DE8E"/>
<stop offset="1" stop-color="#9FDE8C"/>
</radialGradient>
<radialGradient id="paint7_radial_208_594" cx="0" cy="0" r="1" gradientUnits="userSpaceOnUse" gradientTransform="translate(474.903 645.479) rotate(-138.413) scale(100.208 175.181)">
<stop stop-color="#C8DE90"/>
<stop offset="0.457" stop-color="#B8DE8E"/>
<stop offset="1" stop-color="#9FDE8C"/>
</radialGradient>
<radialGradient id="paint8_radial_208_594" cx="0" cy="0" r="1" gradientUnits="userSpaceOnUse" gradientTransform="translate(218.197 441.755) rotate(-89.9121) scale(252.632 335.721)">
<stop stop-color="#C8DE90"/>
<stop offset="0.457" stop-color="#B8DE8E"/>
<stop offset="1" stop-color="#9FDE8C"/>
</radialGradient>
<radialGradient id="paint9_radial_208_594" cx="0" cy="0" r="1" gradientUnits="userSpaceOnUse" gradientTransform="translate(165.587 433.306) rotate(-110.122) scale(238.005 316.283)">
<stop stop-color="#C8DE90"/>
<stop offset="0.457" stop-color="#B8DE8E"/>
<stop offset="1" stop-color="#9FDE8C"/>
</radialGradient>
<radialGradient id="paint10_radial_208_594" cx="0" cy="0" r="1" gradientUnits="userSpaceOnUse" gradientTransform="translate(145.497 209.748) rotate(-11.7521) scale(150.249 230.745)">
<stop stop-color="#4CCC4F"/>
<stop offset="0.4873" stop-color="#56BC5E"/>
<stop offset="1" stop-color="#64A671"/>
</radialGradient>
<radialGradient id="paint11_radial_208_594" cx="0" cy="0" r="1" gradientUnits="userSpaceOnUse" gradientTransform="translate(158.15 323.333) rotate(-108.409) scale(56.7602 99.0835)">
<stop stop-color="#E6FFA6"/>
<stop offset="0.4072" stop-color="#D6FFA4"/>
<stop offset="1" stop-color="#B7FFA1"/>
</radialGradient>
<radialGradient id="paint12_radial_208_594" cx="0" cy="0" r="1" gradientUnits="userSpaceOnUse" gradientTransform="translate(158.15 323.333) rotate(-108.409) scale(56.7601 99.0832)">
<stop stop-color="#E6FFA6"/>
<stop offset="0.4072" stop-color="#D6FFA4"/>
<stop offset="1" stop-color="#B7FFA1"/>
</radialGradient>
<radialGradient id="paint13_radial_208_594" cx="0" cy="0" r="1" gradientUnits="userSpaceOnUse" gradientTransform="translate(158.15 323.334) rotate(-108.409) scale(56.7602 99.0835)">
<stop stop-color="#E6FFA6"/>
<stop offset="0.4072" stop-color="#D6FFA4"/>
<stop offset="1" stop-color="#B7FFA1"/>
</radialGradient>
<radialGradient id="paint14_radial_208_594" cx="0" cy="0" r="1" gradientUnits="userSpaceOnUse" gradientTransform="translate(158.15 323.333) rotate(-108.409) scale(56.7602 99.0835)">
<stop stop-color="#E6FFA6"/>
<stop offset="0.4072" stop-color="#D6FFA4"/>
<stop offset="1" stop-color="#B7FFA1"/>
</radialGradient>
<radialGradient id="paint15_radial_208_594" cx="0" cy="0" r="1" gradientUnits="userSpaceOnUse" gradientTransform="translate(169.505 331.445) rotate(-119.738) scale(56.7569 99.1036)">
<stop stop-color="#E6FFA6"/>
<stop offset="0.4072" stop-color="#D6FFA4"/>
<stop offset="1" stop-color="#B7FFA1"/>
</radialGradient>
<radialGradient id="paint16_radial_208_594" cx="0" cy="0" r="1" gradientUnits="userSpaceOnUse" gradientTransform="translate(158.15 323.334) rotate(-108.409) scale(56.7602 99.0835)">
<stop stop-color="#E6FFA6"/>
<stop offset="0.4072" stop-color="#D6FFA4"/>
<stop offset="1" stop-color="#B7FFA1"/>
</radialGradient>
<radialGradient id="paint17_radial_208_594" cx="0" cy="0" r="1" gradientUnits="userSpaceOnUse" gradientTransform="translate(158.149 323.334) rotate(-108.409) scale(56.7602 99.0835)">
<stop stop-color="#E6FFA6"/>
<stop offset="0.4072" stop-color="#D6FFA4"/>
<stop offset="1" stop-color="#B7FFA1"/>
</radialGradient>
<radialGradient id="paint18_radial_208_594" cx="0" cy="0" r="1" gradientUnits="userSpaceOnUse" gradientTransform="translate(158.15 323.333) rotate(-108.409) scale(56.7602 99.0835)">
<stop stop-color="#E6FFA6"/>
<stop offset="0.4072" stop-color="#D6FFA4"/>
<stop offset="1" stop-color="#B7FFA1"/>
</radialGradient>
<radialGradient id="paint19_radial_208_594" cx="0" cy="0" r="1" gradientUnits="userSpaceOnUse" gradientTransform="translate(203.778 495.788) rotate(-93.6394) scale(212.204 281.978)">
<stop stop-color="#E6FFA6"/>
<stop offset="0.4072" stop-color="#D6FFA4"/>
<stop offset="1" stop-color="#B7FFA1"/>
</radialGradient>
</defs>
</svg>
