<svg width="481" height="481" viewBox="0 0 481 481" fill="none" xmlns="http://www.w3.org/2000/svg">
<path d="M442.62 225.667L399.712 223.16C397.061 198.548 388.797 175.502 376.149 155.383L408.276 126.803C419.239 117.042 420.22 100.244 410.469 89.2726C400.708 78.3098 383.91 77.3282 372.939 87.0796L340.811 115.66C322.302 100.763 300.375 89.8626 276.24 84.3629L278.746 41.4725C279.612 26.8189 268.425 14.2436 253.771 13.3874C239.117 12.5311 226.541 23.7178 225.685 38.372L223.178 81.2801C198.566 83.9314 175.52 92.1949 155.401 104.843L126.821 72.7159C117.06 61.7531 100.262 60.7715 89.2907 70.5229C78.3279 80.2837 77.3463 97.0819 87.0977 108.053L115.678 140.181C100.781 158.69 89.8808 180.616 84.3811 204.752L41.4729 202.244C26.8188 201.388 14.2436 212.575 13.3873 227.229C12.531 241.883 23.7177 254.458 38.3719 255.315L81.28 257.822C83.9313 282.434 92.1948 305.479 104.843 325.599L72.7158 354.179C61.753 363.94 60.7714 380.738 70.5228 391.709C75.4035 397.186 82.0473 400.179 88.8339 400.576C95.6205 400.972 102.568 398.773 108.053 393.902L140.18 365.322C158.69 380.219 180.616 391.119 204.752 396.619L202.244 439.527C201.388 454.181 212.575 466.756 227.229 467.613C241.883 468.469 254.458 457.282 255.315 442.628L257.822 399.72C282.433 397.069 305.479 388.805 325.599 376.157L354.179 408.284C359.059 413.761 365.703 416.754 372.49 417.151C379.276 417.547 386.224 415.348 391.709 410.477C402.672 400.716 403.653 383.918 393.902 372.947L365.322 340.819C380.219 322.31 391.119 300.383 396.619 276.248L439.527 278.756C454.181 279.612 466.756 268.425 467.612 253.771C468.452 239.098 457.274 226.523 442.62 225.667Z" fill="url(#paint0_radial_208_672)"/>
<path d="M229.873 163.122C222.873 162.713 216.872 168.052 216.463 175.051C216.054 182.051 221.393 188.052 228.392 188.461C235.391 188.87 241.393 183.531 241.802 176.532C242.219 169.542 236.872 163.531 229.873 163.122ZM228.528 186.131C222.822 185.798 218.459 180.902 218.793 175.188C219.126 169.482 224.022 165.118 229.737 165.452L228.528 186.131Z" fill="#733E34"/>
<path d="M304.03 167.455C297.031 167.046 291.03 172.385 290.621 179.385C290.212 186.384 295.55 192.386 302.55 192.794C309.549 193.203 315.551 187.865 315.96 180.865C316.368 173.875 311.03 167.864 304.03 167.455ZM302.686 190.464C296.98 190.131 292.617 185.235 292.951 179.521C293.284 173.815 298.18 169.452 303.894 169.786L302.686 190.464Z" fill="#733E34"/>
<path d="M264.873 192.504C257.475 192.072 253.15 184.689 252.627 183.752C251.742 182.162 252.322 180.151 253.912 179.266C255.51 178.382 257.521 178.962 258.397 180.551C258.534 180.799 261.834 186.699 266.534 185.836C269.517 185.299 272.12 182.286 273.564 179.632C274.44 178.03 276.43 177.435 278.041 178.321C279.643 179.197 280.229 181.195 279.353 182.798C277.999 185.279 274.152 191.171 267.683 192.331C266.722 192.506 265.777 192.557 264.873 192.504Z" fill="#733E34"/>
<defs>
<radialGradient id="paint0_radial_208_672" cx="0" cy="0" r="1" gradientUnits="userSpaceOnUse" gradientTransform="translate(240.501 240.485) rotate(3.34417) scale(227.485)">
<stop stop-color="#FFE642"/>
<stop offset="0.3865" stop-color="#FFE442"/>
<stop offset="0.5979" stop-color="#FFDC42"/>
<stop offset="0.767" stop-color="#FFCE42"/>
<stop offset="0.9128" stop-color="#FFBB42"/>
<stop offset="1" stop-color="#FFAB42"/>
</radialGradient>
</defs>
</svg>
