<svg width="455" height="455" viewBox="0 0 455 455" fill="none" xmlns="http://www.w3.org/2000/svg">
<path d="M428.411 200.902H385.429C381.347 176.487 371.753 153.962 357.953 134.615L388.358 104.209C398.733 93.8258 398.733 76.9989 388.358 66.6152C377.974 56.2404 361.148 56.2404 350.764 66.6152L320.358 97.0208C301.011 83.2291 278.486 73.6264 254.071 69.544V26.5804C254.08 11.9013 242.179 0 227.5 0C212.821 0 200.92 11.9013 200.92 26.5804V69.5617C176.505 73.6442 153.98 83.238 134.633 97.0385L104.227 66.633C93.8435 56.2582 77.0166 56.2582 66.6329 66.633C56.2581 77.0167 56.2581 93.8435 66.6329 104.227L97.0385 134.633C83.2468 153.98 73.6442 176.505 69.5617 200.92H26.5804C11.9012 200.92 0 212.821 0 227.5C0 242.179 11.9012 254.08 26.5804 254.08H69.5617C73.6442 278.495 83.2379 301.02 97.0385 320.367L66.6329 350.773C56.2581 361.156 56.2581 377.983 66.6329 388.367C71.8248 393.55 78.6319 396.15 85.4301 396.15C92.2283 396.15 99.0353 393.55 104.227 388.367L134.633 357.962C153.98 371.753 176.505 381.356 200.92 385.438V428.42C200.92 443.099 212.821 455 227.5 455C242.179 455 254.08 443.099 254.08 428.42V385.438C278.495 381.356 301.02 371.762 320.367 357.962L350.773 388.367C355.965 393.55 362.772 396.15 369.57 396.15C376.368 396.15 383.175 393.55 388.367 388.367C398.742 377.983 398.742 361.156 388.367 350.773L357.961 320.367C371.753 301.02 381.356 278.495 385.438 254.08H428.419C443.099 254.08 455 242.179 455 227.5C454.982 212.803 443.09 200.902 428.411 200.902Z" fill="url(#paint0_radial_208_669)"/>
<path d="M190.19 186.374C183.179 186.374 177.499 192.053 177.499 199.065C177.499 206.076 183.179 211.756 190.19 211.756C197.201 211.756 202.881 206.076 202.881 199.065C202.89 192.062 197.201 186.374 190.19 186.374ZM190.19 209.422C184.474 209.422 179.833 204.789 179.833 199.065C179.833 193.349 184.466 188.708 190.19 188.708V209.422Z" fill="#733E34"/>
<path d="M264.474 186.374C257.463 186.374 251.783 192.053 251.783 199.065C251.783 206.076 257.463 211.756 264.474 211.756C271.485 211.756 277.165 206.076 277.165 199.065C277.165 192.062 271.485 186.374 264.474 186.374ZM264.474 209.422C258.758 209.422 254.117 204.789 254.117 199.065C254.117 193.349 258.75 188.708 264.474 188.708V209.422Z" fill="#733E34"/>
<path d="M226.844 213.664C219.434 213.664 214.686 206.546 214.109 205.641C213.133 204.106 213.594 202.064 215.129 201.088C216.674 200.112 218.715 200.573 219.682 202.109C219.833 202.348 223.472 208.046 228.114 206.91C231.06 206.2 233.483 203.041 234.77 200.307C235.551 198.656 237.503 197.946 239.163 198.736C240.813 199.517 241.515 201.479 240.734 203.129C239.527 205.685 236.03 211.791 229.64 213.327C228.69 213.557 227.75 213.664 226.844 213.664Z" fill="#733E34"/>
<defs>
<radialGradient id="paint0_radial_208_669" cx="0" cy="0" r="1" gradientUnits="userSpaceOnUse" gradientTransform="translate(227.5 227.485) scale(227.485)">
<stop stop-color="#FFE642"/>
<stop offset="0.3865" stop-color="#FFE442"/>
<stop offset="0.5979" stop-color="#FFDC42"/>
<stop offset="0.767" stop-color="#FFCE42"/>
<stop offset="0.9128" stop-color="#FFBB42"/>
<stop offset="1" stop-color="#FFAB42"/>
</radialGradient>
</defs>
</svg>
