<svg width="455" height="455" viewBox="0 0 455 455" fill="none" xmlns="http://www.w3.org/2000/svg">
<path d="M428.411 200.902H385.429C381.347 176.487 371.753 153.962 357.953 134.615L388.358 104.209C398.733 93.8258 398.733 76.9989 388.358 66.6152C377.974 56.2404 361.148 56.2404 350.764 66.6152L320.358 97.0208C301.011 83.2291 278.486 73.6264 254.071 69.544V26.5804C254.08 11.9013 242.179 0 227.5 0C212.821 0 200.92 11.9013 200.92 26.5804V69.5617C176.505 73.6442 153.98 83.238 134.633 97.0385L104.227 66.633C93.8435 56.2582 77.0166 56.2582 66.6329 66.633C56.2581 77.0167 56.2581 93.8435 66.6329 104.227L97.0385 134.633C83.2468 153.98 73.6442 176.505 69.5617 200.92H26.5804C11.9012 200.92 0 212.821 0 227.5C0 242.179 11.9012 254.08 26.5804 254.08H69.5617C73.6442 278.495 83.2379 301.02 97.0385 320.367L66.6329 350.773C56.2581 361.156 56.2581 377.983 66.6329 388.367C71.8248 393.55 78.6319 396.15 85.4301 396.15C92.2283 396.15 99.0353 393.55 104.227 388.367L134.633 357.962C153.98 371.753 176.505 381.356 200.92 385.438V428.42C200.92 443.099 212.821 455 227.5 455C242.179 455 254.08 443.099 254.08 428.42V385.438C278.495 381.356 301.02 371.762 320.367 357.962L350.773 388.367C355.965 393.55 362.772 396.15 369.57 396.15C376.368 396.15 383.175 393.55 388.367 388.367C398.742 377.983 398.742 361.156 388.367 350.773L357.961 320.367C371.753 301.02 381.356 278.495 385.438 254.08H428.419C443.099 254.08 455 242.179 455 227.5C454.982 212.803 443.09 200.902 428.411 200.902Z" fill="url(#paint0_radial_208_672)"/>
<path d="M212.377 150.874C205.366 150.874 199.686 156.554 199.686 163.565C199.686 170.576 205.366 176.256 212.377 176.256C219.388 176.256 225.068 170.576 225.068 163.565C225.077 156.563 219.388 150.874 212.377 150.874ZM212.377 173.922C206.662 173.922 202.02 169.289 202.02 163.565C202.02 157.849 206.653 153.208 212.377 153.208V173.922Z" fill="#733E34"/>
<path d="M286.661 150.874C279.65 150.874 273.97 156.554 273.97 163.565C273.97 170.576 279.65 176.256 286.661 176.256C293.673 176.256 299.353 170.576 299.353 163.565C299.353 156.563 293.673 150.874 286.661 150.874ZM286.661 173.922C280.946 173.922 276.304 169.289 276.304 163.565C276.304 157.849 280.937 153.208 286.661 153.208V173.922Z" fill="#733E34"/>
<path d="M249.032 178.164C241.621 178.164 236.873 171.046 236.296 170.141C235.32 168.606 235.781 166.565 237.317 165.588C238.861 164.612 240.902 165.074 241.87 166.609C242.02 166.849 245.659 172.546 250.301 171.41C253.247 170.7 255.67 167.541 256.957 164.807C257.738 163.157 259.69 162.447 261.35 163.236C263.001 164.017 263.702 165.979 262.921 167.63C261.714 170.186 258.217 176.292 251.827 177.827C250.878 178.058 249.937 178.164 249.032 178.164Z" fill="#733E34"/>
<defs>
<radialGradient id="paint0_radial_208_672" cx="0" cy="0" r="1" gradientUnits="userSpaceOnUse" gradientTransform="translate(227.5 227.485) scale(227.485)">
<stop stop-color="#FFE642"/>
<stop offset="0.3865" stop-color="#FFE442"/>
<stop offset="0.5979" stop-color="#FFDC42"/>
<stop offset="0.767" stop-color="#FFCE42"/>
<stop offset="0.9128" stop-color="#FFBB42"/>
<stop offset="1" stop-color="#FFAB42"/>
</radialGradient>
</defs>
</svg>
