<svg width="467" height="367" viewBox="0 0 467 367" fill="none" xmlns="http://www.w3.org/2000/svg">
<path d="M2 283.225H450.089" stroke="#B71E22" stroke-width="4" stroke-linecap="round" stroke-linejoin="round"/>
<path d="M156.141 208.994C130.008 243.368 107.944 251.082 92.5668 251.736C72.1182 252.596 57.6611 240.688 41.4454 248.545C28.2765 254.826 22.1828 269.844 19.0542 282.12H33.2251C38.3985 283.778 40.3003 286.213 41.0977 287.952C42.6518 291.655 40.4843 295.195 42.9586 297.834C43.4615 298.348 44.0633 298.754 44.7276 299.028C45.3918 299.303 46.1048 299.439 46.8233 299.43C47.8379 299.315 48.8116 298.965 49.6671 298.407C50.5226 297.85 51.2363 297.1 51.7514 296.218C53.5714 293.333 51.6288 291.082 52.8148 287.42C53.6021 285.275 55.03 283.425 56.9045 282.12C60.7475 283.142 64.646 283.941 68.5806 284.514C78.1953 285.868 87.9554 285.82 97.5562 284.371C102.297 290.484 105.141 297.854 105.736 305.568C106.165 316.392 101.257 320.996 100.03 338.858C99.417 348.618 100.542 352.157 102.218 354.817C104.024 357.652 106.524 359.977 109.481 361.572C112.438 363.167 115.754 363.978 119.113 363.929C122.472 363.88 125.763 362.972 128.672 361.291C131.581 359.61 134.012 357.212 135.734 354.326C138.31 349.988 138.331 345.814 138.29 341.252C138.147 325.681 130.478 321.303 132.482 309.926C133.464 304.423 136.572 297.793 140.232 297.65C143.893 297.507 148.248 304.034 149.025 310.049C149.659 314.837 147.676 316.658 149.291 320.587C150.354 323.165 152.992 326.725 156.755 326.991C161.335 327.216 164.423 322.162 164.627 321.794C167.756 316.494 164.628 311.911 165.036 305.241C165.323 300.719 167.306 294.295 175.424 286.826C180.454 288.64 185.699 289.788 191.027 290.243C203.808 291.226 216.599 288.46 227.834 282.284H412.28C411.094 275.041 408.19 264.934 399.888 258.632C390.584 251.532 381.321 254.417 369.072 250.611C360.157 247.869 348.072 241.076 336.355 222.56L156.141 208.994Z" fill="#EE7D57"/>
<path d="M461.683 97.2378H462.399H462.767C463.747 97.3928 464.658 97.8353 465.386 98.5092C466.114 99.183 466.626 100.058 466.857 101.023C466.857 101.269 466.857 101.535 467 101.801V102.578C467 102.578 467 102.762 467 102.844C466.865 103.845 466.432 104.783 465.757 105.535C465.083 106.286 464.197 106.817 463.217 107.059L462.338 107.202H461.724H461.417C460.41 107.072 459.466 106.641 458.707 105.966C457.948 105.291 457.411 104.403 457.164 103.417C457.164 103.11 457.164 102.824 457.021 102.517V101.923C457.031 101.821 457.031 101.718 457.021 101.616C457.151 100.584 457.599 99.6177 458.302 98.8515C459.006 98.0852 459.93 97.557 460.947 97.3401C461.191 97.293 461.436 97.2589 461.683 97.2378Z" fill="#EE7D57"/>
<path d="M420.664 51.2017H425.592L428.189 51.5495C434.904 52.5635 441.167 55.5548 446.178 60.1423C451.188 64.7299 454.721 70.706 456.326 77.3094C456.755 79.0895 456.939 80.9105 457.246 82.7111V87.9694C457.246 88.5833 457.042 89.1971 456.98 89.8314C456.052 96.6504 453.091 103.031 448.484 108.141C443.877 113.251 437.837 116.853 431.154 118.476C429.109 118.926 427.228 119.131 425.265 119.417H421.073L419.028 119.131C412.162 118.263 405.721 115.33 400.558 110.719C395.395 106.108 391.753 100.037 390.113 93.3097C389.689 91.2812 389.368 89.2325 389.152 87.1715V83.0793C389.255 82.4041 389.336 81.7289 389.418 81.0333C390.307 74.035 393.337 67.4829 398.092 62.2744C402.847 57.0659 409.095 53.4557 415.981 51.9382C417.535 51.6109 419.028 51.4881 420.664 51.2017Z" fill="#EE7D57"/>
<path d="M380.564 106.036H381.566H382.097C383.477 106.241 384.765 106.852 385.796 107.792C386.827 108.733 387.554 109.959 387.884 111.315C387.884 111.683 388.007 112.052 388.068 112.44V113.504V113.893C387.887 115.297 387.284 116.612 386.338 117.665C385.392 118.717 384.148 119.457 382.772 119.786C382.363 119.786 381.954 119.929 381.566 119.99H380.686H380.257C378.847 119.81 377.525 119.207 376.463 118.261C375.401 117.316 374.649 116.071 374.307 114.691C374.307 114.261 374.163 113.852 374.102 113.443V112.604V112.174C374.274 110.725 374.895 109.366 375.878 108.287C376.861 107.209 378.156 106.464 379.582 106.159C379.909 106.159 380.175 106.159 380.564 106.036Z" fill="#EE7D57"/>
<path d="M381.324 112.298C381.324 112.319 381.305 112.33 381.266 112.33C381.119 112.33 380.896 112.317 380.598 112.292C380.301 112.267 380.078 112.254 379.93 112.254C379.742 112.254 379.633 112.261 379.602 112.274C379.529 112.308 379.493 112.401 379.493 112.556C379.493 112.741 379.54 112.847 379.634 112.872C379.673 112.882 379.732 112.887 379.812 112.887C379.947 112.887 380.148 112.88 380.416 112.866C380.686 112.851 380.888 112.843 381.022 112.843C381.087 112.843 381.119 113.015 381.119 113.358C381.119 113.657 381.108 113.831 381.087 113.88C381.073 113.915 381.047 113.933 381.008 113.933C381.033 113.933 380.972 113.926 380.823 113.912C380.614 113.893 380.298 113.883 379.874 113.883C379.737 113.883 379.66 113.884 379.643 113.886C379.543 113.901 379.493 113.943 379.493 114.012C379.493 114.289 379.505 114.608 379.528 114.97C379.548 115.296 379.558 115.441 379.558 115.406C379.558 115.457 379.496 115.486 379.373 115.494C379.406 115.492 379.319 115.491 379.112 115.491C378.747 115.491 378.512 115.479 378.406 115.453C378.35 115.439 378.321 115.409 378.321 115.362C378.321 115.146 378.328 114.82 378.342 114.387C378.357 113.951 378.365 113.625 378.365 113.408C378.365 113.15 378.354 112.826 378.33 112.436C378.295 111.832 378.276 111.508 378.274 111.463L378.271 111.428C378.27 111.379 378.299 111.354 378.359 111.354C378.504 111.354 378.722 111.357 379.013 111.363C379.306 111.369 379.525 111.372 379.672 111.372C379.828 111.372 380.062 111.36 380.375 111.337C380.689 111.313 380.925 111.302 381.081 111.302C381.179 111.302 381.233 111.342 381.245 111.422C381.245 111.506 381.249 111.632 381.257 111.8C381.261 111.843 381.273 111.926 381.295 112.049C381.314 112.156 381.324 112.239 381.324 112.298ZM384.336 113.862C384.336 114.06 384.272 114.172 384.146 114.199C384.124 114.203 383.922 114.225 383.539 114.264C383.309 114.289 382.965 114.319 382.508 114.354C382.535 114.481 382.618 114.578 382.757 114.645C382.87 114.699 382.999 114.727 383.144 114.727C383.317 114.727 383.492 114.68 383.668 114.586C383.742 114.539 383.816 114.492 383.891 114.445C383.932 114.465 384 114.564 384.096 114.744C384.193 114.924 384.242 115.038 384.242 115.087C384.242 115.101 384.228 115.123 384.198 115.154C383.96 115.41 383.59 115.538 383.088 115.538C382.623 115.538 382.248 115.402 381.963 115.131C381.67 114.855 381.523 114.487 381.523 114.026C381.523 113.577 381.654 113.209 381.916 112.922C382.186 112.625 382.543 112.477 382.988 112.477C383.363 112.477 383.682 112.613 383.943 112.887C384.205 113.16 384.336 113.485 384.336 113.862ZM383.311 113.684C383.311 113.562 383.268 113.456 383.182 113.364C383.096 113.272 382.993 113.227 382.874 113.227C382.751 113.227 382.649 113.278 382.569 113.382C382.495 113.478 382.458 113.59 382.458 113.719C382.458 113.771 382.485 113.798 382.54 113.798C382.685 113.798 382.909 113.775 383.214 113.73C383.278 113.721 383.311 113.705 383.311 113.684Z" fill="#FFF7CD"/>
<path d="M156.734 59.0996H155.814H155.241C153.992 59.2873 152.827 59.8429 151.895 60.6955C150.963 61.5482 150.305 62.6594 150.006 63.8874C149.932 64.2249 149.877 64.5665 149.843 64.9104V65.8721C149.832 65.9878 149.832 66.1042 149.843 66.2199C150.012 67.4935 150.561 68.6865 151.418 69.643C152.275 70.5994 153.401 71.2747 154.648 71.5806L155.753 71.7647H156.55H156.939C158.22 71.6063 159.422 71.0614 160.387 70.2025C161.351 69.3437 162.031 68.2115 162.337 66.9565C162.411 66.5777 162.466 66.1952 162.501 65.8107V65.0537C162.511 64.9311 162.511 64.8079 162.501 64.6854C162.37 63.3607 161.828 62.1101 160.952 61.1086C160.076 60.107 158.908 59.4046 157.613 59.0996C157.286 59.0996 157.02 59.0996 156.734 59.0996Z" fill="#EE7D57"/>
<path d="M208.817 0.5H202.56L199.268 0.950133C190.733 2.23586 182.775 6.03658 176.409 11.8673C170.042 17.6981 165.556 25.2945 163.523 33.6872C162.971 35.9583 162.746 38.2703 162.358 40.5619V47.2321C162.481 48.0096 162.603 48.7871 162.706 49.5851C163.856 58.2521 167.595 66.3696 173.432 72.8752C179.27 79.3808 186.935 83.9713 195.423 86.046C197.897 86.6393 200.413 86.8848 202.907 87.2531H208.408L211.066 86.9053C219.79 85.8127 227.978 82.0991 234.55 76.2546C241.121 70.41 245.767 62.7091 247.874 54.1683C248.467 51.6312 248.753 49.0531 249.101 46.4751V41.1553C248.978 40.296 248.855 39.4366 248.753 38.5773C247.658 29.627 243.802 21.2408 237.722 14.5851C231.642 7.92943 223.64 3.33512 214.829 1.44119C212.805 1.01151 210.801 0.847831 208.817 0.5Z" fill="#EE7D57"/>
<path d="M259.775 70.1685H258.486H257.812C256.057 70.4325 254.422 71.2141 253.114 72.4132C251.807 73.6124 250.886 75.1746 250.471 76.9C250.471 77.3501 250.307 77.8412 250.225 78.3118V79.6827C250.225 79.8259 250.225 79.9896 250.225 80.1533C250.446 81.9643 251.217 83.6638 252.435 85.0216C253.653 86.3793 255.259 87.3297 257.034 87.7442C257.54 87.8558 258.053 87.9378 258.568 87.9897H259.693H260.245C262.037 87.7597 263.718 86.9913 265.065 85.7858C266.412 84.5804 267.363 82.9946 267.79 81.2377C267.904 80.7179 267.986 80.1918 268.036 79.6622V78.5982V78.0663C267.807 76.2282 267.013 74.5066 265.764 73.1395C264.515 71.7723 262.872 70.8271 261.063 70.4344L259.775 70.1685Z" fill="#EE7D57"/>
<path d="M259.199 77.5288C259.199 77.5646 259.166 77.5825 259.101 77.5825C258.857 77.5825 258.486 77.5614 257.988 77.519C257.493 77.4767 257.122 77.4556 256.875 77.4556C256.562 77.4556 256.38 77.467 256.328 77.4897C256.207 77.5451 256.147 77.7013 256.147 77.9585C256.147 78.2677 256.225 78.4435 256.381 78.4858C256.446 78.5021 256.546 78.5103 256.679 78.5103C256.904 78.5103 257.239 78.4989 257.685 78.4761C258.134 78.45 258.471 78.437 258.696 78.437C258.803 78.437 258.857 78.7235 258.857 79.2964C258.857 79.7944 258.839 80.0841 258.803 80.1655C258.78 80.2241 258.736 80.2534 258.671 80.2534C258.714 80.2534 258.611 80.242 258.364 80.2192C258.015 80.1867 257.488 80.1704 256.782 80.1704C256.554 80.1704 256.425 80.172 256.396 80.1753C256.23 80.2013 256.147 80.2713 256.147 80.3853C256.147 80.8475 256.167 81.3797 256.206 81.9819C256.238 82.5256 256.254 82.7681 256.254 82.7095C256.254 82.7941 256.152 82.8429 255.947 82.856C256.002 82.8527 255.857 82.8511 255.512 82.8511C254.903 82.8511 254.511 82.8299 254.335 82.7876C254.241 82.7648 254.194 82.7144 254.194 82.6362C254.194 82.2749 254.205 81.7329 254.228 81.0103C254.254 80.2843 254.267 79.7407 254.267 79.3794C254.267 78.9497 254.248 78.4093 254.208 77.7583C254.15 76.7524 254.119 76.2121 254.116 76.1372L254.111 76.0786C254.108 75.9972 254.156 75.9565 254.257 75.9565C254.498 75.9565 254.861 75.9614 255.346 75.9712C255.834 75.981 256.201 75.9858 256.445 75.9858C256.705 75.9858 257.096 75.9663 257.617 75.9272C258.141 75.8882 258.533 75.8687 258.793 75.8687C258.956 75.8687 259.047 75.9354 259.067 76.0688C259.067 76.2088 259.073 76.4188 259.086 76.6987C259.093 76.7703 259.114 76.9087 259.15 77.1138C259.182 77.2928 259.199 77.4312 259.199 77.5288ZM264.218 80.1362C264.218 80.465 264.112 80.6522 263.901 80.6978C263.865 80.7043 263.528 80.7401 262.89 80.8052C262.506 80.8475 261.933 80.8979 261.171 80.9565C261.217 81.1681 261.355 81.3293 261.586 81.4399C261.775 81.5311 261.99 81.5767 262.231 81.5767C262.521 81.5767 262.812 81.4985 263.105 81.3423C263.229 81.2642 263.352 81.186 263.476 81.1079C263.544 81.1405 263.658 81.3065 263.818 81.606C263.981 81.9054 264.062 82.0959 264.062 82.1772C264.062 82.2 264.038 82.2375 263.989 82.2896C263.592 82.716 262.975 82.9292 262.138 82.9292C261.363 82.9292 260.738 82.703 260.263 82.2505C259.775 81.7915 259.531 81.1779 259.531 80.4097C259.531 79.661 259.749 79.0474 260.185 78.5688C260.634 78.0741 261.23 77.8267 261.972 77.8267C262.597 77.8267 263.128 78.0545 263.564 78.5103C264 78.966 264.218 79.508 264.218 80.1362ZM262.509 79.8384C262.509 79.6366 262.438 79.4591 262.294 79.3062C262.151 79.1532 261.98 79.0767 261.782 79.0767C261.577 79.0767 261.407 79.1629 261.274 79.3354C261.15 79.495 261.088 79.6821 261.088 79.897C261.088 79.9849 261.134 80.0288 261.225 80.0288C261.466 80.0288 261.84 79.9914 262.348 79.9165C262.456 79.9002 262.509 79.8742 262.509 79.8384Z" fill="#FFF7CD"/>
<path d="M225.605 51.2833C226.314 51.2113 226.997 50.9761 227.6 50.5964C228.203 50.2166 228.71 49.7024 229.081 49.094C229.144 48.9933 229.187 48.8811 229.207 48.7638C229.227 48.6466 229.223 48.5266 229.197 48.4107C229.17 48.2948 229.121 48.1852 229.052 48.0884C228.983 47.9915 228.896 47.9091 228.795 47.8459C228.592 47.7184 228.346 47.677 228.112 47.7307C227.878 47.7844 227.675 47.9289 227.548 48.1324C227.548 48.1324 226.525 49.7488 225.257 49.4419C224.847 49.2827 224.473 49.0407 224.16 48.7309C223.847 48.4212 223.601 48.0503 223.438 47.6413C223.387 47.5333 223.316 47.4364 223.228 47.3562C223.139 47.276 223.036 47.2142 222.924 47.1742C222.812 47.1342 222.693 47.117 222.574 47.1234C222.455 47.1298 222.338 47.1598 222.231 47.2117C222.017 47.3177 221.852 47.5029 221.772 47.7282C221.692 47.9536 221.703 48.2012 221.802 48.4188C222.074 49.0642 222.479 49.6453 222.989 50.1246C223.5 50.6039 224.106 50.9707 224.767 51.2015C225.042 51.2629 225.323 51.2904 225.605 51.2833Z" fill="#FFF7CD"/>
<path d="M235.604 50.9153C234.686 50.9099 233.807 50.5411 233.159 49.8893C232.512 49.2376 232.148 48.356 232.148 47.437H239.08C239.08 48.3595 238.714 49.2442 238.062 49.8966C237.41 50.5489 236.526 50.9153 235.604 50.9153Z" fill="#FFF7CD"/>
<path d="M215.319 50.9153C214.401 50.9099 213.522 50.5411 212.874 49.8893C212.227 49.2376 211.863 48.356 211.863 47.437H218.795C218.795 48.3595 218.429 49.2442 217.777 49.8966C217.125 50.5489 216.241 50.9153 215.319 50.9153Z" fill="#FFF7CD"/>
<path d="M32.8567 169.178H32.0797C31.3868 169.283 30.7409 169.593 30.2239 170.066C29.7069 170.54 29.3422 171.156 29.176 171.838C29.132 172.027 29.0979 172.218 29.0737 172.41V172.942C29.0737 172.942 29.0737 173.065 29.0737 173.147C29.1732 173.85 29.4819 174.507 29.9596 175.033C30.4374 175.558 31.0621 175.928 31.7525 176.093C31.9498 176.111 32.1482 176.111 32.3455 176.093H33.0203C33.7296 175.999 34.3939 175.692 34.9265 175.214C35.4591 174.736 35.8352 174.108 36.0058 173.413C36.0058 173.208 36.0058 173.004 36.0058 172.799V172.37C36.0159 172.302 36.0159 172.233 36.0058 172.165C35.9164 171.436 35.6027 170.753 35.1081 170.21C34.6135 169.668 33.9625 169.293 33.2452 169.137L32.8567 169.178Z" fill="#EE7D57"/>
<path d="M61.6892 136.85H58.2334L56.4135 137.075C51.6998 137.788 47.3041 139.886 43.7837 143.102C40.2633 146.319 37.7769 150.509 36.6397 155.141C36.333 156.41 36.2103 157.679 35.9854 158.947V162.65C35.9854 163.08 36.1285 163.51 36.1694 163.96C36.8151 168.766 38.8959 173.265 42.1395 176.869C45.3831 180.472 49.6383 183.011 54.3482 184.155C55.7182 184.482 57.1087 184.605 58.4379 184.809H61.4438C61.9346 184.809 62.4253 184.666 62.9366 184.625C67.7636 184.003 72.2898 181.935 75.921 178.693C79.5521 175.45 82.1184 171.185 83.2829 166.456C83.6101 165.044 83.7532 163.612 83.9577 162.18V159.356C83.9577 158.886 83.8145 158.415 83.7532 157.924C83.1272 152.988 80.985 148.369 77.6224 144.704C74.2598 141.039 69.8428 138.509 64.9814 137.463C63.8976 137.075 62.7934 136.972 61.6892 136.85Z" fill="#EE7D57"/>
<path d="M89.9289 175.356H89.2132H88.8452C87.8684 175.494 86.9558 175.923 86.2263 176.587C85.4967 177.251 84.9842 178.12 84.7554 179.08C84.7554 179.326 84.6532 179.592 84.6123 179.858V180.615C84.6123 180.615 84.6123 180.799 84.6123 180.881C84.7539 181.86 85.1865 182.773 85.8538 183.503C86.5211 184.233 87.3924 184.745 88.3544 184.973C88.6202 184.973 88.9065 184.973 89.1928 185.096H89.8062H90.113C91.0877 184.953 91.9976 184.522 92.7261 183.859C93.4547 183.195 93.9689 182.329 94.2027 181.372C94.2636 181.082 94.3046 180.788 94.3254 180.492V179.899C94.3352 179.803 94.3352 179.707 94.3254 179.612C94.2043 178.594 93.7689 177.639 93.0799 176.88C92.3908 176.121 91.4824 175.595 90.481 175.377L89.9289 175.356Z" fill="#EE7D57"/>
<path d="M89.5059 179.424C89.5059 179.442 89.4896 179.451 89.457 179.451C89.335 179.451 89.1494 179.441 88.9004 179.419C88.653 179.398 88.4674 179.388 88.3438 179.388C88.1875 179.388 88.0964 179.393 88.0703 179.405C88.0101 179.432 87.98 179.511 87.98 179.639C87.98 179.794 88.019 179.882 88.0972 179.903C88.1297 179.911 88.1794 179.915 88.2461 179.915C88.3584 179.915 88.526 179.909 88.749 179.898C88.9736 179.885 89.1421 179.878 89.2544 179.878C89.3081 179.878 89.335 180.022 89.335 180.308C89.335 180.557 89.326 180.702 89.3081 180.743C89.2967 180.772 89.2747 180.787 89.2422 180.787C89.2633 180.787 89.2121 180.781 89.0884 180.77C88.9142 180.753 88.6506 180.745 88.2974 180.745C88.1834 180.745 88.1191 180.746 88.1045 180.748C88.0215 180.761 87.98 180.796 87.98 180.853C87.98 181.084 87.9897 181.35 88.0093 181.651C88.0256 181.923 88.0337 182.044 88.0337 182.015C88.0337 182.057 87.9824 182.081 87.8799 182.088C87.9076 182.086 87.8351 182.085 87.6626 182.085C87.3582 182.085 87.1621 182.075 87.0742 182.054C87.027 182.042 87.0034 182.017 87.0034 181.978C87.0034 181.797 87.0091 181.526 87.0205 181.165C87.0335 180.802 87.04 180.53 87.04 180.35C87.04 180.135 87.0303 179.865 87.0107 179.539C86.9814 179.036 86.966 178.766 86.9644 178.729L86.9619 178.699C86.9603 178.659 86.9847 178.638 87.0352 178.638C87.1556 178.638 87.3371 178.641 87.5796 178.646C87.8237 178.65 88.0068 178.653 88.1289 178.653C88.2591 178.653 88.4544 178.643 88.7148 178.624C88.9769 178.604 89.173 178.594 89.3032 178.594C89.3846 178.594 89.4302 178.628 89.4399 178.694C89.4399 178.764 89.4432 178.869 89.4497 179.009C89.453 179.045 89.4635 179.114 89.4814 179.217C89.4977 179.306 89.5059 179.375 89.5059 179.424ZM92.0156 180.728C92.0156 180.892 91.9627 180.986 91.8569 181.009C91.839 181.012 91.6706 181.03 91.3516 181.062C91.1595 181.084 90.873 181.109 90.4922 181.138C90.515 181.244 90.5841 181.325 90.6997 181.38C90.7941 181.425 90.9015 181.448 91.022 181.448C91.1668 181.448 91.3125 181.409 91.459 181.331C91.5208 181.292 91.5827 181.253 91.6445 181.214C91.6787 181.23 91.7357 181.313 91.8154 181.463C91.8968 181.613 91.9375 181.708 91.9375 181.749C91.9375 181.76 91.9253 181.779 91.9009 181.805C91.7023 182.018 91.3939 182.125 90.9756 182.125C90.5882 182.125 90.2757 182.011 90.0381 181.785C89.7939 181.556 89.6719 181.249 89.6719 180.865C89.6719 180.49 89.7809 180.184 89.999 179.944C90.2236 179.697 90.5215 179.573 90.8926 179.573C91.2051 179.573 91.4704 179.687 91.6885 179.915C91.9066 180.143 92.0156 180.414 92.0156 180.728ZM91.1611 180.579C91.1611 180.478 91.1253 180.389 91.0537 180.313C90.9821 180.236 90.8966 180.198 90.7974 180.198C90.6948 180.198 90.6102 180.241 90.5435 180.328C90.4816 180.407 90.4507 180.501 90.4507 180.608C90.4507 180.652 90.4735 180.674 90.519 180.674C90.6395 180.674 90.8267 180.656 91.0806 180.618C91.1343 180.61 91.1611 180.597 91.1611 180.579Z" fill="#FFF7CD"/>
<path d="M376.27 267.368L375.124 267.205H372.977C372.282 267.327 371.587 267.389 370.932 267.532C367.887 268.19 365.122 269.78 363.022 272.083C360.922 274.386 359.592 277.287 359.215 280.381L359.093 281.261V283.062C359.215 283.962 359.318 284.842 359.522 285.721C360.241 288.676 361.84 291.343 364.108 293.367C366.376 295.391 369.205 296.678 372.221 297.057L373.141 297.179H375.002C375.861 297.057 376.74 296.975 377.599 296.77C380.536 296.055 383.189 294.469 385.21 292.22C387.231 289.972 388.527 287.164 388.927 284.166L389.05 283.348V281.056C388.907 280.258 388.825 279.461 388.641 278.683C387.94 275.778 386.388 273.15 384.184 271.134C381.979 269.118 379.224 267.807 376.27 267.368Z" fill="#EE7D57"/>
<path d="M344.738 270.99V255.276C343.838 249.895 343.286 244.452 341.998 239.112C337.192 219.353 326.618 201.472 311.622 187.746C296.626 174.02 277.887 165.071 257.791 162.037C255.194 161.648 252.617 161.341 250.02 160.993H235.297C230.655 161.832 225.911 162.221 221.27 163.203C200.529 167.689 181.697 178.522 167.385 194.199C153.073 209.875 143.991 229.619 141.398 250.693C141.152 252.739 140.866 254.785 140.58 256.831V269.107L141.193 273.752H344.349C344.493 272.79 344.615 271.89 344.738 270.99Z" fill="#EE7D57"/>
<path d="M121.767 324.74L120.172 324.535H117.146C116.185 324.699 115.224 324.781 114.263 324.985C110.009 325.909 106.149 328.136 103.217 331.355C100.286 334.574 98.4288 338.626 97.9038 342.95L97.7197 344.198V346.735C97.8833 347.983 98.0265 349.231 98.3127 350.459C99.3306 354.592 101.575 358.321 104.75 361.155C107.925 363.989 111.883 365.795 116.103 366.336L117.391 366.5H120.009C121.215 366.316 122.442 366.193 123.628 365.927C127.744 364.928 131.462 362.707 134.294 359.556C137.126 356.405 138.939 352.471 139.496 348.27L139.68 347.124V343.911C139.476 342.786 139.373 341.681 139.108 340.576C138.115 336.513 135.935 332.837 132.847 330.016C129.759 327.196 125.902 325.359 121.767 324.74Z" fill="#EE7D57"/>
<path d="M119.1 340.85C119.1 340.914 119.041 340.946 118.924 340.946C118.484 340.946 117.816 340.908 116.92 340.832C116.029 340.756 115.361 340.718 114.916 340.718C114.354 340.718 114.025 340.738 113.932 340.779C113.715 340.879 113.606 341.16 113.606 341.623C113.606 342.18 113.747 342.496 114.028 342.572C114.146 342.602 114.324 342.616 114.564 342.616C114.969 342.616 115.572 342.596 116.375 342.555C117.184 342.508 117.79 342.484 118.194 342.484C118.388 342.484 118.484 343 118.484 344.031C118.484 344.928 118.452 345.449 118.388 345.596C118.347 345.701 118.268 345.754 118.15 345.754C118.227 345.754 118.042 345.733 117.597 345.692C116.97 345.634 116.021 345.604 114.749 345.604C114.339 345.604 114.107 345.607 114.055 345.613C113.756 345.66 113.606 345.786 113.606 345.991C113.606 346.823 113.642 347.781 113.712 348.865C113.771 349.844 113.8 350.28 113.8 350.175C113.8 350.327 113.615 350.415 113.246 350.438C113.346 350.433 113.085 350.43 112.464 350.43C111.368 350.43 110.662 350.392 110.346 350.315C110.176 350.274 110.091 350.184 110.091 350.043C110.091 349.393 110.111 348.417 110.152 347.116C110.199 345.81 110.223 344.831 110.223 344.181C110.223 343.407 110.188 342.435 110.117 341.263C110.012 339.452 109.956 338.479 109.95 338.345L109.941 338.239C109.936 338.093 110.023 338.02 110.205 338.02C110.639 338.02 111.292 338.028 112.165 338.046C113.044 338.063 113.703 338.072 114.143 338.072C114.611 338.072 115.314 338.037 116.252 337.967C117.195 337.896 117.901 337.861 118.37 337.861C118.663 337.861 118.827 337.981 118.862 338.222C118.862 338.474 118.874 338.852 118.897 339.355C118.909 339.484 118.947 339.733 119.012 340.103C119.07 340.425 119.1 340.674 119.1 340.85ZM128.135 345.543C128.135 346.135 127.944 346.472 127.563 346.554C127.499 346.565 126.893 346.63 125.744 346.747C125.053 346.823 124.021 346.914 122.65 347.02C122.732 347.4 122.981 347.69 123.397 347.89C123.737 348.054 124.124 348.136 124.558 348.136C125.079 348.136 125.604 347.995 126.131 347.714C126.354 347.573 126.576 347.433 126.799 347.292C126.922 347.351 127.127 347.649 127.414 348.188C127.707 348.728 127.854 349.07 127.854 349.217C127.854 349.258 127.81 349.325 127.722 349.419C127.007 350.187 125.896 350.57 124.391 350.57C122.996 350.57 121.871 350.163 121.016 349.349C120.137 348.522 119.697 347.418 119.697 346.035C119.697 344.688 120.09 343.583 120.875 342.722C121.684 341.831 122.756 341.386 124.092 341.386C125.217 341.386 126.172 341.796 126.957 342.616C127.742 343.437 128.135 344.412 128.135 345.543ZM125.059 345.007C125.059 344.644 124.93 344.324 124.672 344.049C124.414 343.773 124.106 343.636 123.749 343.636C123.38 343.636 123.075 343.791 122.835 344.102C122.612 344.389 122.501 344.726 122.501 345.112C122.501 345.271 122.583 345.35 122.747 345.35C123.181 345.35 123.854 345.282 124.769 345.147C124.962 345.118 125.059 345.071 125.059 345.007Z" fill="#FFF7CD"/>
<path d="M268.772 246.314C264.007 246.314 260.96 250.897 260.592 251.47C260.289 251.948 260.187 252.526 260.31 253.079C260.432 253.632 260.769 254.113 261.247 254.417C261.724 254.72 262.302 254.822 262.854 254.699C263.407 254.577 263.888 254.239 264.191 253.762C264.191 253.598 266.625 249.936 269.61 250.672C270.579 251.044 271.461 251.612 272.2 252.341C272.939 253.07 273.519 253.944 273.904 254.908C274.146 255.415 274.578 255.806 275.108 255.994C275.637 256.182 276.219 256.152 276.726 255.91C277.233 255.669 277.624 255.236 277.812 254.706C278 254.176 277.969 253.594 277.728 253.087C277.077 251.551 276.105 250.172 274.878 249.043C273.65 247.914 272.196 247.06 270.612 246.539C270.011 246.386 269.392 246.31 268.772 246.314Z" fill="#FFF7CD"/>
<path d="M245.215 255.235C247.384 255.235 249.465 254.373 250.999 252.838C252.533 251.303 253.394 249.221 253.394 247.051H237.036C237.036 249.221 237.897 251.303 239.431 252.838C240.965 254.373 243.046 255.235 245.215 255.235Z" fill="#FFF7CD"/>
<path d="M292.962 255.235C295.131 255.235 297.212 254.373 298.746 252.838C300.28 251.303 301.142 249.221 301.142 247.051H284.783C284.783 249.221 285.644 251.303 287.178 252.838C288.712 254.373 290.793 255.235 292.962 255.235Z" fill="#FFF7CD"/>
<path d="M76.535 160.85C76.9151 160.85 77.2868 160.963 77.6029 161.174C77.919 161.386 78.1653 161.686 78.3108 162.037C78.4563 162.389 78.4944 162.776 78.4202 163.149C78.346 163.522 78.163 163.864 77.8941 164.133C77.6253 164.402 77.2828 164.586 76.9099 164.66C76.5371 164.734 76.1506 164.696 75.7994 164.55C75.4481 164.405 75.1479 164.158 74.9367 163.842C74.7255 163.526 74.6128 163.154 74.6128 162.773C74.6128 162.263 74.8153 161.774 75.1758 161.413C75.5363 161.053 76.0252 160.85 76.535 160.85ZM78.1095 162.773C78.1042 162.357 77.9366 161.96 77.6425 161.665C77.3483 161.371 76.9509 161.203 76.535 161.198C76.1209 161.203 75.7257 161.372 75.4348 161.667C75.1439 161.961 74.9808 162.359 74.9809 162.773H78.1095Z" fill="#FFF7CD"/>
<path d="M65.2679 160.85C65.648 160.85 66.0197 160.963 66.3358 161.174C66.6519 161.386 66.8982 161.686 67.0437 162.037C67.1892 162.389 67.2273 162.776 67.1531 163.149C67.0789 163.522 66.8959 163.864 66.627 164.133C66.3582 164.402 66.0157 164.586 65.6429 164.66C65.27 164.734 64.8835 164.696 64.5323 164.55C64.1811 164.405 63.8809 164.158 63.6697 163.842C63.4584 163.526 63.3457 163.154 63.3457 162.773C63.3457 162.263 63.5482 161.774 63.9087 161.413C64.2692 161.053 64.7581 160.85 65.2679 160.85ZM66.822 162.773C66.822 162.359 66.6589 161.961 66.368 161.667C66.0772 161.372 65.6819 161.203 65.2679 161.198C64.8519 161.203 64.4545 161.371 64.1604 161.665C63.8662 161.96 63.6986 162.357 63.6933 162.773H66.822Z" fill="#FFF7CD"/>
<path d="M71.8316 164.124C71.8316 163.592 71.3204 162.548 70.7888 162.855C70.5487 163.073 70.3559 163.338 70.2223 163.634C70.0886 163.93 70.017 164.25 70.0117 164.574C70.0935 165.495 71.7907 165.045 71.8316 164.124Z" fill="#FFF7CD"/>
<path d="M410.971 89.9131C411.155 89.0538 409.11 87.1305 406.881 87.6215C405.225 87.9898 403.896 89.6676 404.223 90.3837C404.714 91.8364 410.685 91.2431 410.971 89.9131Z" fill="#FFF7CD"/>
<path d="M401.503 85.9641C400.994 85.4543 400.302 85.168 399.581 85.168C398.861 85.168 398.169 85.4543 397.659 85.9641C397.402 86.2139 397.197 86.5129 397.058 86.8433C396.918 87.1736 396.846 87.5287 396.846 87.8874C396.846 88.2461 396.918 88.6011 397.058 88.9315C397.197 89.2619 397.402 89.5608 397.659 89.8107C398.174 90.295 398.857 90.5596 399.564 90.5487C400.271 90.5377 400.945 90.252 401.445 89.752C401.945 89.252 402.23 88.577 402.241 87.8699C402.252 87.1629 401.987 86.4794 401.503 85.9641ZM401.156 89.4629C400.735 89.8752 400.17 90.1062 399.581 90.1062C398.993 90.1062 398.427 89.8752 398.007 89.4629L401.156 86.3119C401.568 86.7326 401.799 87.2983 401.799 87.8874C401.799 88.4765 401.568 89.0421 401.156 89.4629Z" fill="#FFF7CD"/>
<path d="M417.474 85.964C417.094 85.5831 416.609 85.3237 416.081 85.2185C415.554 85.1133 415.007 85.167 414.51 85.3729C414.012 85.5788 413.588 85.9276 413.289 86.3752C412.99 86.8227 412.83 87.349 412.83 87.8873C412.83 88.4256 412.99 88.9518 413.289 89.3994C413.588 89.847 414.012 90.1958 414.51 90.4017C415.007 90.6075 415.554 90.6613 416.081 90.5561C416.609 90.4509 417.094 90.1914 417.474 89.8106C417.978 89.2977 418.261 88.6069 418.261 87.8873C418.261 87.1676 417.978 86.4769 417.474 85.964ZM417.126 89.4628C416.706 89.8751 416.14 90.1061 415.552 90.1061C414.963 90.1061 414.398 89.8751 413.977 89.4628L417.126 86.3118C417.538 86.7325 417.769 87.2982 417.769 87.8873C417.769 88.4764 417.538 89.042 417.126 89.4628Z" fill="#FFF7CD"/>
<path d="M400.624 254.683C394.387 254.683 388.457 249.097 387.68 241.404C385.635 241.792 383.407 242.161 381.157 242.468C375.626 243.237 370.054 243.681 364.471 243.798C369.09 242.207 373.369 239.764 377.088 236.595C378.639 235.259 380.088 233.809 381.423 232.258C380.73 230.903 380.333 229.415 380.259 227.895C380.185 226.374 380.435 224.855 380.994 223.439C382.068 220.905 384.085 218.888 386.617 217.813C386.802 214.436 387.77 211.149 389.445 208.211C391.121 205.274 393.457 202.768 396.269 200.892C399.372 198.981 402.927 197.929 406.57 197.843C410.213 197.757 413.813 198.639 417.004 200.4C418.677 200.08 420.398 200.095 422.066 200.447C423.733 200.798 425.314 201.478 426.717 202.447C428.893 204.023 430.5 206.263 431.297 208.83C434.851 208.634 438.39 209.427 441.521 211.122C442.298 211.572 451.03 216.646 451.03 226.386C450.933 229.695 449.912 232.91 448.084 235.669C446.255 238.428 443.692 240.62 440.683 241.997C436.549 243.881 431.878 244.222 427.514 242.959C425.232 245.955 421.914 247.99 418.21 248.667C415.936 249.032 413.607 248.843 411.421 248.115C411.257 248.503 407.229 254.724 400.624 254.683Z" fill="#231815"/>
<path d="M434.732 204.881H434.303C434.159 204.902 434.013 204.88 433.882 204.819C433.751 204.757 433.641 204.658 433.567 204.534L433.301 204.124C432.478 202.756 431.512 201.481 430.417 200.319C429.378 199.218 428.178 198.279 426.859 197.536C424.081 196.07 420.898 195.56 417.801 196.083C417.736 196.113 417.667 196.128 417.596 196.128C417.526 196.128 417.456 196.113 417.392 196.083L416.84 195.879C411.585 193.81 405.802 193.502 400.358 194.999C398.685 195.518 397.069 196.203 395.532 197.045C392.469 198.77 389.801 201.119 387.7 203.94C386.592 205.409 385.659 207.002 384.919 208.687C384.494 209.556 384.125 210.451 383.815 211.367C383.57 212.309 383.161 213.27 382.936 214.273C382.993 214.42 382.994 214.584 382.937 214.731C382.88 214.879 382.77 215 382.629 215.071L382.282 215.255C379.674 216.613 377.694 218.931 376.76 221.721C375.918 224.248 376.109 227.006 377.292 229.393L377.415 230.191C377.492 230.74 377.408 231.3 377.172 231.802C376.936 232.303 376.558 232.725 376.086 233.015C364.876 240.155 352.829 245.886 340.219 250.079L339.892 248.033C347.151 248.033 354.39 247.787 361.608 247.255C368.766 246.762 375.893 245.88 382.956 244.616C383.736 244.48 384.538 244.63 385.215 245.04C385.891 245.45 386.397 246.092 386.637 246.846L386.801 247.337C387.533 249.718 388.839 251.883 390.604 253.639C392.383 255.383 394.591 256.625 397.004 257.24C399.544 257.829 402.192 257.752 404.693 257.015C407.454 256.19 409.978 254.717 412.055 252.718C412.103 252.552 412.211 252.409 412.358 252.318C412.506 252.228 412.682 252.195 412.852 252.227L413.343 252.33C416.007 252.907 418.775 252.787 421.379 251.982C423.953 251.101 426.285 249.63 428.189 247.685C428.24 247.52 428.348 247.377 428.494 247.284C428.64 247.19 428.814 247.151 428.986 247.174H429.313C435.178 247.934 441.108 246.37 445.836 242.815C448.047 241.114 449.898 238.99 451.281 236.566C452.664 234.142 453.552 231.468 453.892 228.698C454.502 223.098 452.951 217.478 449.557 212.984C447.789 210.612 445.528 208.652 442.93 207.239C440.332 205.826 437.458 204.994 434.507 204.8L434.732 204.881ZM434.732 202.835C438.166 202.632 441.605 203.154 444.825 204.366C448.045 205.579 450.974 207.455 453.422 209.874C455.974 212.39 457.906 215.465 459.066 218.856C460.203 222.287 460.545 225.933 460.068 229.516C459.614 233.079 458.38 236.498 456.454 239.529C454.527 242.56 451.956 245.129 448.923 247.051C446.001 248.918 442.689 250.088 439.242 250.471C435.796 250.854 432.308 250.44 429.047 249.261L430.172 248.79C429.577 250.419 428.586 251.875 427.289 253.025C425.978 254.207 424.42 255.081 422.729 255.583C421.066 256.117 419.304 256.272 417.573 256.034C415.843 255.797 414.188 255.174 412.729 254.212L414.018 253.803C412.786 257.282 410.329 260.192 407.106 261.987C403.729 263.869 399.828 264.588 396.003 264.033C392.074 263.508 388.414 261.745 385.553 259C382.71 256.261 380.837 252.669 380.216 248.769L384.04 251.491C376.668 251.981 369.275 252.063 361.894 251.736C354.553 251.47 347.253 250.897 339.973 250.079C339.702 250.122 339.425 250.056 339.203 249.895C338.98 249.734 338.831 249.491 338.787 249.22C338.744 248.948 338.81 248.671 338.971 248.448C339.132 248.226 339.375 248.076 339.646 248.033C351.346 242.632 362.335 235.808 372.364 227.715L371.239 231.317C370.298 227.406 370.914 223.282 372.957 219.818C374.876 216.603 377.959 214.251 381.566 213.25L380.911 214.232C379.574 209.693 379.982 204.817 382.057 200.564C384.122 196.119 387.574 192.465 391.892 190.15C396.212 187.843 401.155 186.976 406.002 187.674C410.679 188.308 414.966 190.62 418.066 194.18L416.983 194.14C418.72 193.145 420.686 192.616 422.688 192.605C424.74 192.596 426.765 193.073 428.597 193.996C430.444 194.864 432.025 196.209 433.179 197.892C434.333 199.576 435.017 201.536 435.161 203.572L434.16 202.815L434.732 202.835Z" fill="white"/>
</svg>
