<svg width="336" height="208" viewBox="0 0 336 208" fill="none" xmlns="http://www.w3.org/2000/svg">
<path d="M324.441 17.8002L218.863 1.10422C211.498 -0.0623155 204.011 -0.196916 196.613 0.706027C134.581 8.24363 72.5435 15.7756 10.5114 23.3132C4.51367 24.0423 0 29.1403 0 35.1973V136.686C0 140.438 2.32964 143.797 5.84649 145.098C60.4361 165.372 115.02 185.641 169.61 205.915C178.884 209.359 189.21 208.506 197.795 203.588C242.467 178.002 287.139 152.412 331.811 126.826C334.404 125.34 336 122.57 335.983 119.58C335.826 89.9571 335.669 60.3283 335.507 30.705C335.473 24.2667 330.786 18.8041 324.441 17.8002Z" fill="#E5CA9A"/>
<path d="M0 33.8681V137.538C0 140.567 1.77523 143.264 4.42967 144.257C60.3633 165.154 116.297 186.05 172.225 206.941C176.498 208.534 180.95 205.107 180.95 200.223V65.0392C180.95 61.5789 178.643 58.6233 175.49 58.0344L7.68892 26.8633C3.67366 26.1174 0 29.4599 0 33.8681Z" fill="url(#paint0_radial_2866_967)"/>
<path d="M185.917 64.5795V198.019C185.917 203.369 191.175 206.801 195.555 204.306C241.201 178.322 286.847 152.333 332.488 126.35C334.666 125.11 336.027 122.654 335.999 119.99C335.708 89.817 335.423 59.6441 335.131 29.4656C335.087 24.9061 331.138 21.5691 327.034 22.6235L190.963 57.6644C188.011 58.4271 185.917 61.2874 185.917 64.5795Z" fill="url(#paint1_radial_2866_967)"/>
<path d="M196.854 0.655205L10.416 23.5821L182.115 53.682C182.949 53.8279 183.806 53.7998 184.635 53.5923L327.521 18.2598L221.601 1.12631C213.408 -0.197262 205.086 -0.354296 196.854 0.655205Z" fill="url(#paint2_radial_2866_967)"/>
<path d="M80.8426 126.091C75.1753 124.453 71.5465 117.297 71.1041 116.389C70.3592 114.852 70.7064 113.209 71.8825 112.71C73.0641 112.216 74.6209 113.057 75.3657 114.594C75.4833 114.835 78.261 120.522 81.8114 120.572C84.0627 120.617 85.9163 118.441 86.9019 116.389C87.4955 115.149 88.9963 114.97 90.2619 116.013C91.522 117.045 92.0596 118.89 91.466 120.129C90.542 122.053 87.8707 126.517 82.9874 126.416C82.2482 126.411 81.5314 126.293 80.8426 126.091Z" fill="#FF9A00"/>
<path d="M52.826 116.787C58.1853 118.341 62.531 114.723 62.531 108.711L43.1211 103.092C43.1211 109.104 47.4668 115.234 52.826 116.787Z" fill="#FF9A00"/>
<path d="M109.604 133.22C114.964 134.773 119.309 131.156 119.309 125.144L99.8994 119.524C99.8994 125.537 104.239 131.666 109.604 133.22Z" fill="#FF9A00"/>
<defs>
<radialGradient id="paint0_radial_2866_967" cx="0" cy="0" r="1" gradientUnits="userSpaceOnUse" gradientTransform="translate(90.4705 117.041) scale(133.269 133.466)">
<stop stop-color="#F3EBD9"/>
<stop offset="0.4134" stop-color="#F4EAD7"/>
<stop offset="0.6395" stop-color="#F6E7CF"/>
<stop offset="0.8198" stop-color="#F9E2C1"/>
<stop offset="0.9759" stop-color="#FEDAAE"/>
<stop offset="1" stop-color="#FFD9AA"/>
</radialGradient>
<radialGradient id="paint1_radial_2866_967" cx="0" cy="0" r="1" gradientUnits="userSpaceOnUse" gradientTransform="translate(260.952 113.776) scale(136.49 136.691)">
<stop stop-color="#F3EBD9"/>
<stop offset="0.4134" stop-color="#F4EAD7"/>
<stop offset="0.6395" stop-color="#F6E7CF"/>
<stop offset="0.8198" stop-color="#F9E2C1"/>
<stop offset="0.9759" stop-color="#FEDAAE"/>
<stop offset="1" stop-color="#FFD9AA"/>
</radialGradient>
<radialGradient id="paint2_radial_2866_967" cx="0" cy="0" r="1" gradientUnits="userSpaceOnUse" gradientTransform="translate(168.963 26.8835) scale(163.077 163.317)">
<stop stop-color="#F3EBDA"/>
<stop offset="0.416" stop-color="#F4EAD8"/>
<stop offset="0.6436" stop-color="#F6E7D0"/>
<stop offset="0.825" stop-color="#F9E2C2"/>
<stop offset="0.9821" stop-color="#FEDBAF"/>
<stop offset="1" stop-color="#FFDAAC"/>
</radialGradient>
</defs>
</svg>
